G04 #@! TF.FileFunction,Copper,L2,Bot,Signal*
%FSLAX46Y46*%
G04 Gerber Fmt 4.6, Leading zero omitted, Abs format (unit mm)*
G04 Created by KiCad (PCBNEW 4.0.7) date 03/15/18 12:31:10*
%MOMM*%
%LPD*%
G01*
G04 APERTURE LIST*
%ADD10C,0.100000*%
%ADD11R,1.700000X1.700000*%
%ADD12O,1.700000X1.700000*%
%ADD13R,3.000000X3.000000*%
%ADD14C,3.000000*%
%ADD15R,1.600000X1.600000*%
%ADD16C,1.600000*%
%ADD17C,0.700000*%
%ADD18C,0.500000*%
%ADD19C,0.250000*%
%ADD20C,0.254000*%
G04 APERTURE END LIST*
D10*
D11*
X101960000Y-100060000D03*
D12*
X101960000Y-102600000D03*
X104500000Y-100060000D03*
X104500000Y-102600000D03*
X107040000Y-100060000D03*
X107040000Y-102600000D03*
X109580000Y-100060000D03*
X109580000Y-102600000D03*
X112120000Y-100060000D03*
X112120000Y-102600000D03*
X114660000Y-100060000D03*
X114660000Y-102600000D03*
X117200000Y-100060000D03*
X117200000Y-102600000D03*
X119740000Y-100060000D03*
X119740000Y-102600000D03*
D13*
X135000000Y-107420000D03*
D14*
X135000000Y-112500000D03*
D11*
X115460000Y-137560000D03*
D12*
X115460000Y-140100000D03*
X118000000Y-137560000D03*
X118000000Y-140100000D03*
X120540000Y-137560000D03*
X120540000Y-140100000D03*
X123080000Y-137560000D03*
X123080000Y-140100000D03*
X125620000Y-137560000D03*
X125620000Y-140100000D03*
X128160000Y-137560000D03*
X128160000Y-140100000D03*
X130700000Y-137560000D03*
X130700000Y-140100000D03*
X133240000Y-137560000D03*
X133240000Y-140100000D03*
D11*
X88460000Y-137560000D03*
D12*
X88460000Y-140100000D03*
X91000000Y-137560000D03*
X91000000Y-140100000D03*
X93540000Y-137560000D03*
X93540000Y-140100000D03*
X96080000Y-137560000D03*
X96080000Y-140100000D03*
X98620000Y-137560000D03*
X98620000Y-140100000D03*
X101160000Y-137560000D03*
X101160000Y-140100000D03*
X103700000Y-137560000D03*
X103700000Y-140100000D03*
X106240000Y-137560000D03*
X106240000Y-140100000D03*
D11*
X115460000Y-62560000D03*
D12*
X115460000Y-65100000D03*
X118000000Y-62560000D03*
X118000000Y-65100000D03*
X120540000Y-62560000D03*
X120540000Y-65100000D03*
X123080000Y-62560000D03*
X123080000Y-65100000D03*
X125620000Y-62560000D03*
X125620000Y-65100000D03*
X128160000Y-62560000D03*
X128160000Y-65100000D03*
X130700000Y-62560000D03*
X130700000Y-65100000D03*
X133240000Y-62560000D03*
X133240000Y-65100000D03*
D11*
X88460000Y-62560000D03*
D12*
X88460000Y-65100000D03*
X91000000Y-62560000D03*
X91000000Y-65100000D03*
X93540000Y-62560000D03*
X93540000Y-65100000D03*
X96080000Y-62560000D03*
X96080000Y-65100000D03*
X98620000Y-62560000D03*
X98620000Y-65100000D03*
X101160000Y-62560000D03*
X101160000Y-65100000D03*
X103700000Y-62560000D03*
X103700000Y-65100000D03*
X106240000Y-62560000D03*
X106240000Y-65100000D03*
D15*
X103500000Y-56500000D03*
D16*
X103500000Y-54000000D03*
D15*
X130500000Y-56500000D03*
D16*
X130500000Y-54000000D03*
D15*
X103500000Y-131500000D03*
D16*
X103500000Y-129000000D03*
D15*
X130500000Y-131500000D03*
D16*
X130500000Y-129000000D03*
D17*
X122500000Y-82500000D03*
X123000000Y-92500000D03*
X115500000Y-107000000D03*
X115500000Y-117000000D03*
X116000000Y-81500000D03*
X104500000Y-81500000D03*
X116500000Y-106000000D03*
X116500000Y-118000000D03*
X117000000Y-80500000D03*
X105500000Y-80500000D03*
X117579690Y-105407777D03*
X117500000Y-119000000D03*
X117931328Y-79609538D03*
X106500000Y-79678210D03*
X118500000Y-120000000D03*
X95000000Y-75000000D03*
X121000000Y-75000000D03*
X110500000Y-75000000D03*
X119322363Y-104909622D03*
X119500000Y-121000000D03*
X93500000Y-76000000D03*
X122000000Y-76000000D03*
X111500000Y-76000000D03*
X126500000Y-85000000D03*
X126500000Y-97000000D03*
X119500000Y-79000000D03*
X98500000Y-79000000D03*
X122500000Y-124000000D03*
X122500000Y-105000000D03*
X122000000Y-99000000D03*
X88000000Y-72000000D03*
X107500000Y-72000000D03*
X89000000Y-73000000D03*
X108500000Y-73000000D03*
X90000000Y-74000000D03*
X109500000Y-74000000D03*
X121500000Y-105000000D03*
X121500000Y-123000000D03*
X97500000Y-78000000D03*
X124000000Y-78000000D03*
X113500000Y-78000000D03*
X120500000Y-105000000D03*
X120500000Y-122000000D03*
X96000000Y-77000000D03*
X123000000Y-77000000D03*
X112500000Y-77000000D03*
X125500000Y-91500000D03*
X125487585Y-96852415D03*
D18*
X123000000Y-92500000D02*
X123000000Y-96800000D01*
X123000000Y-96800000D02*
X119740000Y-100060000D01*
X122500000Y-82500000D02*
X123000000Y-83000000D01*
X123000000Y-83000000D02*
X123000000Y-92500000D01*
X118000000Y-65100000D02*
X117332288Y-65100000D01*
D19*
X114120000Y-99702081D02*
X114917919Y-100500000D01*
X105000000Y-107000000D02*
X115500000Y-107000000D01*
X115500000Y-135500000D02*
X115500000Y-117000000D01*
X101960000Y-103960000D02*
X105000000Y-107000000D01*
X101960000Y-102600000D02*
X101960000Y-103960000D01*
X115460000Y-135540000D02*
X115500000Y-135500000D01*
X115460000Y-137560000D02*
X115460000Y-135540000D01*
X104500000Y-81500000D02*
X116000000Y-81500000D01*
X106156262Y-106000000D02*
X116500000Y-106000000D01*
X116500000Y-135000000D02*
X116500000Y-118000000D01*
X101960000Y-100060000D02*
X103060000Y-100060000D01*
X103060000Y-100060000D02*
X103138201Y-100138201D01*
X103138201Y-100138201D02*
X103138201Y-102981939D01*
X103138201Y-102981939D02*
X106156262Y-106000000D01*
X116638201Y-135138201D02*
X116500000Y-135000000D01*
X115460000Y-140100000D02*
X116638201Y-138921799D01*
X116638201Y-138921799D02*
X116638201Y-135138201D01*
X105500000Y-80500000D02*
X117000000Y-80500000D01*
X116859717Y-105182778D02*
X117084716Y-105407777D01*
X104500000Y-102600000D02*
X107082778Y-105182778D01*
X107082778Y-105182778D02*
X116859717Y-105182778D01*
X117084716Y-105407777D02*
X117579690Y-105407777D01*
X117500000Y-135857919D02*
X117500000Y-119000000D01*
X118000000Y-137560000D02*
X118000000Y-136357919D01*
X118000000Y-136357919D02*
X117500000Y-135857919D01*
X106500000Y-79678210D02*
X117862656Y-79678210D01*
X117862656Y-79678210D02*
X117931328Y-79609538D01*
X118500000Y-120000000D02*
X118500000Y-134000000D01*
X120540000Y-136040000D02*
X120540000Y-137560000D01*
X118500000Y-134000000D02*
X120540000Y-136040000D01*
X95000000Y-75000000D02*
X110500000Y-75000000D01*
X110500000Y-75000000D02*
X121000000Y-75000000D01*
X118647334Y-104729567D02*
X118827389Y-104909622D01*
X115225537Y-101421799D02*
X115838201Y-102034463D01*
X118827389Y-104909622D02*
X119322363Y-104909622D01*
X113481799Y-101421799D02*
X115225537Y-101421799D01*
X115838201Y-103338201D02*
X117229567Y-104729567D01*
X112120000Y-100060000D02*
X113481799Y-101421799D01*
X115838201Y-102034463D02*
X115838201Y-103338201D01*
X117229567Y-104729567D02*
X118647334Y-104729567D01*
X119500000Y-133500000D02*
X119500000Y-121000000D01*
X121718201Y-135718201D02*
X119500000Y-133500000D01*
X121718201Y-138921799D02*
X121718201Y-135718201D01*
X120540000Y-140100000D02*
X121718201Y-138921799D01*
X93500000Y-76000000D02*
X111500000Y-76000000D01*
X111500000Y-76000000D02*
X122000000Y-76000000D01*
X126500000Y-97000000D02*
X126500000Y-85000000D01*
X119005026Y-79000000D02*
X119500000Y-79000000D01*
X99063638Y-78931336D02*
X118936362Y-78931336D01*
X118936362Y-78931336D02*
X119005026Y-79000000D01*
X98994974Y-79000000D02*
X99063638Y-78931336D01*
X98500000Y-79000000D02*
X98994974Y-79000000D01*
X122000000Y-99000000D02*
X122500000Y-99500000D01*
X122500000Y-99500000D02*
X122500000Y-105000000D01*
X122500000Y-132500000D02*
X122500000Y-124000000D01*
X126798201Y-136798201D02*
X122500000Y-132500000D01*
X125620000Y-140100000D02*
X126798201Y-138921799D01*
X126798201Y-138921799D02*
X126798201Y-136798201D01*
X107500000Y-72000000D02*
X88000000Y-72000000D01*
X108500000Y-73000000D02*
X89000000Y-73000000D01*
X109500000Y-74000000D02*
X90000000Y-74000000D01*
X120778201Y-103778201D02*
X121500000Y-104500000D01*
X121500000Y-104500000D02*
X121500000Y-105000000D01*
X118561799Y-103165537D02*
X119174463Y-103778201D01*
X119174463Y-103778201D02*
X120778201Y-103778201D01*
X121500000Y-123000000D02*
X121500000Y-133440000D01*
X121500000Y-133440000D02*
X125620000Y-137560000D01*
X117200000Y-100060000D02*
X118561799Y-101421799D01*
X118561799Y-101421799D02*
X118561799Y-103165537D01*
X97500000Y-78000000D02*
X113500000Y-78000000D01*
X113500000Y-78000000D02*
X124000000Y-78000000D01*
X119731412Y-104231412D02*
X120500000Y-105000000D01*
X118831412Y-104231412D02*
X119731412Y-104231412D01*
X117200000Y-102600000D02*
X118831412Y-104231412D01*
X120500000Y-133236262D02*
X120500000Y-122000000D01*
X124258201Y-136994463D02*
X120500000Y-133236262D01*
X124258201Y-138921799D02*
X124258201Y-136994463D01*
X123080000Y-140100000D02*
X124258201Y-138921799D01*
X96000000Y-77000000D02*
X112500000Y-77000000D01*
X112500000Y-77000000D02*
X123000000Y-77000000D01*
X125487585Y-96852415D02*
X125487585Y-91512415D01*
X125487585Y-91512415D02*
X125500000Y-91500000D01*
D20*
G36*
X139290000Y-144290000D02*
X85710000Y-144290000D01*
X85710000Y-136710000D01*
X86962560Y-136710000D01*
X86962560Y-138410000D01*
X87006838Y-138645317D01*
X87145910Y-138861441D01*
X87358110Y-139006431D01*
X87414454Y-139017841D01*
X87409946Y-139020853D01*
X87088039Y-139502622D01*
X86975000Y-140070907D01*
X86975000Y-140129093D01*
X87088039Y-140697378D01*
X87409946Y-141179147D01*
X87891715Y-141501054D01*
X88460000Y-141614093D01*
X89028285Y-141501054D01*
X89510054Y-141179147D01*
X89515000Y-141171745D01*
X89515000Y-141243002D01*
X90064443Y-141243002D01*
X90357644Y-141438881D01*
X90575000Y-141356310D01*
X90575000Y-140525000D01*
X90150000Y-140525000D01*
X90150000Y-139675000D01*
X90575000Y-139675000D01*
X90575000Y-139250000D01*
X91425000Y-139250000D01*
X91425000Y-139675000D01*
X91850000Y-139675000D01*
X91850000Y-140525000D01*
X91425000Y-140525000D01*
X91425000Y-141356310D01*
X91642356Y-141438881D01*
X91935557Y-141243002D01*
X92485000Y-141243002D01*
X92485000Y-141171745D01*
X92489946Y-141179147D01*
X92971715Y-141501054D01*
X93540000Y-141614093D01*
X94108285Y-141501054D01*
X94590054Y-141179147D01*
X94810000Y-140849974D01*
X95029946Y-141179147D01*
X95511715Y-141501054D01*
X96080000Y-141614093D01*
X96648285Y-141501054D01*
X97130054Y-141179147D01*
X97350000Y-140849974D01*
X97569946Y-141179147D01*
X98051715Y-141501054D01*
X98620000Y-141614093D01*
X99188285Y-141501054D01*
X99670054Y-141179147D01*
X99675000Y-141171745D01*
X99675000Y-141243002D01*
X100224443Y-141243002D01*
X100517644Y-141438881D01*
X100735000Y-141356310D01*
X100735000Y-140525000D01*
X101585000Y-140525000D01*
X101585000Y-141356310D01*
X101802356Y-141438881D01*
X102151175Y-141205845D01*
X102430000Y-140834214D01*
X102708825Y-141205845D01*
X103057644Y-141438881D01*
X103275000Y-141356310D01*
X103275000Y-140525000D01*
X104125000Y-140525000D01*
X104125000Y-141356310D01*
X104342356Y-141438881D01*
X104691175Y-141205845D01*
X104970000Y-140834214D01*
X105248825Y-141205845D01*
X105597644Y-141438881D01*
X105815000Y-141356310D01*
X105815000Y-140525000D01*
X106665000Y-140525000D01*
X106665000Y-141356310D01*
X106882356Y-141438881D01*
X107231175Y-141205845D01*
X107578915Y-140742361D01*
X107504168Y-140525000D01*
X106665000Y-140525000D01*
X105815000Y-140525000D01*
X104975832Y-140525000D01*
X104970000Y-140541959D01*
X104964168Y-140525000D01*
X104125000Y-140525000D01*
X103275000Y-140525000D01*
X102435832Y-140525000D01*
X102430000Y-140541959D01*
X102424168Y-140525000D01*
X101585000Y-140525000D01*
X100735000Y-140525000D01*
X100310000Y-140525000D01*
X100310000Y-139675000D01*
X100735000Y-139675000D01*
X100735000Y-139250000D01*
X101585000Y-139250000D01*
X101585000Y-139675000D01*
X102424168Y-139675000D01*
X102430000Y-139658041D01*
X102435832Y-139675000D01*
X103275000Y-139675000D01*
X103275000Y-139250000D01*
X104125000Y-139250000D01*
X104125000Y-139675000D01*
X104964168Y-139675000D01*
X104970000Y-139658041D01*
X104975832Y-139675000D01*
X105815000Y-139675000D01*
X105815000Y-139250000D01*
X106665000Y-139250000D01*
X106665000Y-139675000D01*
X107504168Y-139675000D01*
X107578915Y-139457639D01*
X107383002Y-139196517D01*
X107383002Y-138615000D01*
X107306188Y-138615000D01*
X107611961Y-138157378D01*
X107725000Y-137589093D01*
X107725000Y-137530907D01*
X107611961Y-136962622D01*
X107443165Y-136710000D01*
X113962560Y-136710000D01*
X113962560Y-138410000D01*
X114006838Y-138645317D01*
X114145910Y-138861441D01*
X114358110Y-139006431D01*
X114414454Y-139017841D01*
X114409946Y-139020853D01*
X114088039Y-139502622D01*
X113975000Y-140070907D01*
X113975000Y-140129093D01*
X114088039Y-140697378D01*
X114409946Y-141179147D01*
X114891715Y-141501054D01*
X115460000Y-141614093D01*
X116028285Y-141501054D01*
X116510054Y-141179147D01*
X116515000Y-141171745D01*
X116515000Y-141243002D01*
X117064443Y-141243002D01*
X117357644Y-141438881D01*
X117575000Y-141356310D01*
X117575000Y-140525000D01*
X117150000Y-140525000D01*
X117150000Y-139675000D01*
X117575000Y-139675000D01*
X117575000Y-139250000D01*
X118425000Y-139250000D01*
X118425000Y-139675000D01*
X118850000Y-139675000D01*
X118850000Y-140525000D01*
X118425000Y-140525000D01*
X118425000Y-141356310D01*
X118642356Y-141438881D01*
X118935557Y-141243002D01*
X119485000Y-141243002D01*
X119485000Y-141171745D01*
X119489946Y-141179147D01*
X119971715Y-141501054D01*
X120540000Y-141614093D01*
X121108285Y-141501054D01*
X121590054Y-141179147D01*
X121810000Y-140849974D01*
X122029946Y-141179147D01*
X122511715Y-141501054D01*
X123080000Y-141614093D01*
X123648285Y-141501054D01*
X124130054Y-141179147D01*
X124350000Y-140849974D01*
X124569946Y-141179147D01*
X125051715Y-141501054D01*
X125620000Y-141614093D01*
X126188285Y-141501054D01*
X126670054Y-141179147D01*
X126675000Y-141171745D01*
X126675000Y-141243002D01*
X127224443Y-141243002D01*
X127517644Y-141438881D01*
X127735000Y-141356310D01*
X127735000Y-140525000D01*
X128585000Y-140525000D01*
X128585000Y-141356310D01*
X128802356Y-141438881D01*
X129151175Y-141205845D01*
X129430000Y-140834214D01*
X129708825Y-141205845D01*
X130057644Y-141438881D01*
X130275000Y-141356310D01*
X130275000Y-140525000D01*
X131125000Y-140525000D01*
X131125000Y-141356310D01*
X131342356Y-141438881D01*
X131691175Y-141205845D01*
X131970000Y-140834214D01*
X132248825Y-141205845D01*
X132597644Y-141438881D01*
X132815000Y-141356310D01*
X132815000Y-140525000D01*
X133665000Y-140525000D01*
X133665000Y-141356310D01*
X133882356Y-141438881D01*
X134231175Y-141205845D01*
X134578915Y-140742361D01*
X134504168Y-140525000D01*
X133665000Y-140525000D01*
X132815000Y-140525000D01*
X131975832Y-140525000D01*
X131970000Y-140541959D01*
X131964168Y-140525000D01*
X131125000Y-140525000D01*
X130275000Y-140525000D01*
X129435832Y-140525000D01*
X129430000Y-140541959D01*
X129424168Y-140525000D01*
X128585000Y-140525000D01*
X127735000Y-140525000D01*
X127310000Y-140525000D01*
X127310000Y-139675000D01*
X127735000Y-139675000D01*
X127735000Y-139250000D01*
X128585000Y-139250000D01*
X128585000Y-139675000D01*
X129424168Y-139675000D01*
X129430000Y-139658041D01*
X129435832Y-139675000D01*
X130275000Y-139675000D01*
X130275000Y-139250000D01*
X131125000Y-139250000D01*
X131125000Y-139675000D01*
X131964168Y-139675000D01*
X131970000Y-139658041D01*
X131975832Y-139675000D01*
X132815000Y-139675000D01*
X132815000Y-139250000D01*
X133665000Y-139250000D01*
X133665000Y-139675000D01*
X134504168Y-139675000D01*
X134578915Y-139457639D01*
X134383002Y-139196517D01*
X134383002Y-138615000D01*
X134306188Y-138615000D01*
X134611961Y-138157378D01*
X134725000Y-137589093D01*
X134725000Y-137530907D01*
X134611961Y-136962622D01*
X134290054Y-136480853D01*
X133808285Y-136158946D01*
X133240000Y-136045907D01*
X132671715Y-136158946D01*
X132189946Y-136480853D01*
X131970000Y-136810026D01*
X131750054Y-136480853D01*
X131268285Y-136158946D01*
X130700000Y-136045907D01*
X130131715Y-136158946D01*
X129649946Y-136480853D01*
X129430000Y-136810026D01*
X129210054Y-136480853D01*
X128728285Y-136158946D01*
X128160000Y-136045907D01*
X127591715Y-136158946D01*
X127367603Y-136308693D01*
X127335602Y-136260800D01*
X123260000Y-132185198D01*
X123260000Y-130700000D01*
X129052560Y-130700000D01*
X129052560Y-132300000D01*
X129096838Y-132535317D01*
X129235910Y-132751441D01*
X129448110Y-132896431D01*
X129700000Y-132947440D01*
X131300000Y-132947440D01*
X131535317Y-132903162D01*
X131751441Y-132764090D01*
X131896431Y-132551890D01*
X131947440Y-132300000D01*
X131947440Y-130700000D01*
X131903162Y-130464683D01*
X131764090Y-130248559D01*
X131551890Y-130103569D01*
X131300000Y-130052560D01*
X130986875Y-130052560D01*
X130500000Y-129565685D01*
X130013125Y-130052560D01*
X129700000Y-130052560D01*
X129464683Y-130096838D01*
X129248559Y-130235910D01*
X129103569Y-130448110D01*
X129052560Y-130700000D01*
X123260000Y-130700000D01*
X123260000Y-129060403D01*
X129038135Y-129060403D01*
X129126297Y-129503626D01*
X129339273Y-129595042D01*
X129934315Y-129000000D01*
X131065685Y-129000000D01*
X131660727Y-129595042D01*
X131873703Y-129503626D01*
X131961865Y-128939597D01*
X131873703Y-128496374D01*
X131660727Y-128404958D01*
X131065685Y-129000000D01*
X129934315Y-129000000D01*
X129339273Y-128404958D01*
X129126297Y-128496374D01*
X129038135Y-129060403D01*
X123260000Y-129060403D01*
X123260000Y-127839273D01*
X129904958Y-127839273D01*
X130500000Y-128434315D01*
X131095042Y-127839273D01*
X131003626Y-127626297D01*
X130439597Y-127538135D01*
X129996374Y-127626297D01*
X129904958Y-127839273D01*
X123260000Y-127839273D01*
X123260000Y-124633111D01*
X123334555Y-124558686D01*
X123484828Y-124196788D01*
X123485170Y-123804931D01*
X123335529Y-123442771D01*
X123058686Y-123165445D01*
X122696788Y-123015172D01*
X122484987Y-123014987D01*
X122485170Y-122804931D01*
X122335529Y-122442771D01*
X122058686Y-122165445D01*
X121696788Y-122015172D01*
X121484987Y-122014987D01*
X121485170Y-121804931D01*
X121335529Y-121442771D01*
X121058686Y-121165445D01*
X120696788Y-121015172D01*
X120484987Y-121014987D01*
X120485170Y-120804931D01*
X120335529Y-120442771D01*
X120058686Y-120165445D01*
X119696788Y-120015172D01*
X119484987Y-120014987D01*
X119485170Y-119804931D01*
X119335529Y-119442771D01*
X119058686Y-119165445D01*
X118696788Y-119015172D01*
X118484987Y-119014987D01*
X118485170Y-118804931D01*
X118335529Y-118442771D01*
X118058686Y-118165445D01*
X117696788Y-118015172D01*
X117484987Y-118014987D01*
X117485170Y-117804931D01*
X117335529Y-117442771D01*
X117058686Y-117165445D01*
X116696788Y-117015172D01*
X116484987Y-117014987D01*
X116485170Y-116804931D01*
X116335529Y-116442771D01*
X116058686Y-116165445D01*
X115696788Y-116015172D01*
X115304931Y-116014830D01*
X114942771Y-116164471D01*
X114665445Y-116441314D01*
X114515172Y-116803212D01*
X114514830Y-117195069D01*
X114664471Y-117557229D01*
X114740000Y-117632890D01*
X114740000Y-135338908D01*
X114700000Y-135540000D01*
X114700000Y-136062560D01*
X114610000Y-136062560D01*
X114374683Y-136106838D01*
X114158559Y-136245910D01*
X114013569Y-136458110D01*
X113962560Y-136710000D01*
X107443165Y-136710000D01*
X107290054Y-136480853D01*
X106808285Y-136158946D01*
X106240000Y-136045907D01*
X105671715Y-136158946D01*
X105189946Y-136480853D01*
X104970000Y-136810026D01*
X104750054Y-136480853D01*
X104268285Y-136158946D01*
X103700000Y-136045907D01*
X103131715Y-136158946D01*
X102649946Y-136480853D01*
X102430000Y-136810026D01*
X102210054Y-136480853D01*
X101728285Y-136158946D01*
X101160000Y-136045907D01*
X100591715Y-136158946D01*
X100109946Y-136480853D01*
X99890000Y-136810026D01*
X99670054Y-136480853D01*
X99188285Y-136158946D01*
X98620000Y-136045907D01*
X98051715Y-136158946D01*
X97569946Y-136480853D01*
X97350000Y-136810026D01*
X97130054Y-136480853D01*
X96648285Y-136158946D01*
X96080000Y-136045907D01*
X95511715Y-136158946D01*
X95029946Y-136480853D01*
X94810000Y-136810026D01*
X94590054Y-136480853D01*
X94108285Y-136158946D01*
X93540000Y-136045907D01*
X92971715Y-136158946D01*
X92489946Y-136480853D01*
X92270000Y-136810026D01*
X92050054Y-136480853D01*
X91568285Y-136158946D01*
X91000000Y-136045907D01*
X90431715Y-136158946D01*
X89949946Y-136480853D01*
X89922150Y-136522452D01*
X89913162Y-136474683D01*
X89774090Y-136258559D01*
X89561890Y-136113569D01*
X89310000Y-136062560D01*
X87610000Y-136062560D01*
X87374683Y-136106838D01*
X87158559Y-136245910D01*
X87013569Y-136458110D01*
X86962560Y-136710000D01*
X85710000Y-136710000D01*
X85710000Y-130700000D01*
X102052560Y-130700000D01*
X102052560Y-132300000D01*
X102096838Y-132535317D01*
X102235910Y-132751441D01*
X102448110Y-132896431D01*
X102700000Y-132947440D01*
X104300000Y-132947440D01*
X104535317Y-132903162D01*
X104751441Y-132764090D01*
X104896431Y-132551890D01*
X104947440Y-132300000D01*
X104947440Y-130700000D01*
X104903162Y-130464683D01*
X104764090Y-130248559D01*
X104551890Y-130103569D01*
X104300000Y-130052560D01*
X103986875Y-130052560D01*
X103500000Y-129565685D01*
X103013125Y-130052560D01*
X102700000Y-130052560D01*
X102464683Y-130096838D01*
X102248559Y-130235910D01*
X102103569Y-130448110D01*
X102052560Y-130700000D01*
X85710000Y-130700000D01*
X85710000Y-129060403D01*
X102038135Y-129060403D01*
X102126297Y-129503626D01*
X102339273Y-129595042D01*
X102934315Y-129000000D01*
X104065685Y-129000000D01*
X104660727Y-129595042D01*
X104873703Y-129503626D01*
X104961865Y-128939597D01*
X104873703Y-128496374D01*
X104660727Y-128404958D01*
X104065685Y-129000000D01*
X102934315Y-129000000D01*
X102339273Y-128404958D01*
X102126297Y-128496374D01*
X102038135Y-129060403D01*
X85710000Y-129060403D01*
X85710000Y-127839273D01*
X102904958Y-127839273D01*
X103500000Y-128434315D01*
X104095042Y-127839273D01*
X104003626Y-127626297D01*
X103439597Y-127538135D01*
X102996374Y-127626297D01*
X102904958Y-127839273D01*
X85710000Y-127839273D01*
X85710000Y-114355119D01*
X134205541Y-114355119D01*
X134405597Y-114594102D01*
X135252221Y-114662166D01*
X135594403Y-114594102D01*
X135794459Y-114355119D01*
X135000000Y-113560660D01*
X134205541Y-114355119D01*
X85710000Y-114355119D01*
X85710000Y-112752221D01*
X132837834Y-112752221D01*
X132905898Y-113094403D01*
X133144881Y-113294459D01*
X133939340Y-112500000D01*
X136060660Y-112500000D01*
X136855119Y-113294459D01*
X137094102Y-113094403D01*
X137162166Y-112247779D01*
X137094102Y-111905597D01*
X136855119Y-111705541D01*
X136060660Y-112500000D01*
X133939340Y-112500000D01*
X133144881Y-111705541D01*
X132905898Y-111905597D01*
X132837834Y-112752221D01*
X85710000Y-112752221D01*
X85710000Y-110644881D01*
X134205541Y-110644881D01*
X135000000Y-111439340D01*
X135794459Y-110644881D01*
X135594403Y-110405898D01*
X134747779Y-110337834D01*
X134405597Y-110405898D01*
X134205541Y-110644881D01*
X85710000Y-110644881D01*
X85710000Y-99210000D01*
X100462560Y-99210000D01*
X100462560Y-100910000D01*
X100506838Y-101145317D01*
X100645910Y-101361441D01*
X100858110Y-101506431D01*
X100914454Y-101517841D01*
X100909946Y-101520853D01*
X100588039Y-102002622D01*
X100475000Y-102570907D01*
X100475000Y-102629093D01*
X100588039Y-103197378D01*
X100909946Y-103679147D01*
X101200000Y-103872954D01*
X101200000Y-103960000D01*
X101257852Y-104250839D01*
X101422599Y-104497401D01*
X104462599Y-107537401D01*
X104709160Y-107702148D01*
X105000000Y-107760000D01*
X114866889Y-107760000D01*
X114941314Y-107834555D01*
X115303212Y-107984828D01*
X115695069Y-107985170D01*
X116057229Y-107835529D01*
X116334555Y-107558686D01*
X116484828Y-107196788D01*
X116485013Y-106984987D01*
X116695069Y-106985170D01*
X117057229Y-106835529D01*
X117334555Y-106558686D01*
X117403510Y-106392623D01*
X117774759Y-106392947D01*
X118136919Y-106243306D01*
X118414245Y-105966463D01*
X118559621Y-105616359D01*
X118655026Y-105635337D01*
X118763677Y-105744177D01*
X119125575Y-105894450D01*
X119517432Y-105894792D01*
X119860104Y-105753203D01*
X119941314Y-105834555D01*
X120303212Y-105984828D01*
X120695069Y-105985170D01*
X121000304Y-105859050D01*
X121303212Y-105984828D01*
X121695069Y-105985170D01*
X122000304Y-105859050D01*
X122303212Y-105984828D01*
X122695069Y-105985170D01*
X122852792Y-105920000D01*
X132852560Y-105920000D01*
X132852560Y-108920000D01*
X132896838Y-109155317D01*
X133035910Y-109371441D01*
X133248110Y-109516431D01*
X133500000Y-109567440D01*
X136500000Y-109567440D01*
X136735317Y-109523162D01*
X136951441Y-109384090D01*
X137096431Y-109171890D01*
X137147440Y-108920000D01*
X137147440Y-105920000D01*
X137103162Y-105684683D01*
X136964090Y-105468559D01*
X136751890Y-105323569D01*
X136500000Y-105272560D01*
X133500000Y-105272560D01*
X133264683Y-105316838D01*
X133048559Y-105455910D01*
X132903569Y-105668110D01*
X132852560Y-105920000D01*
X122852792Y-105920000D01*
X123057229Y-105835529D01*
X123334555Y-105558686D01*
X123484828Y-105196788D01*
X123485170Y-104804931D01*
X123335529Y-104442771D01*
X123260000Y-104367110D01*
X123260000Y-99500000D01*
X123202148Y-99209161D01*
X123037401Y-98962599D01*
X122985078Y-98910276D01*
X122985170Y-98804931D01*
X122835529Y-98442771D01*
X122558686Y-98165445D01*
X122196788Y-98015172D01*
X121804931Y-98014830D01*
X121442771Y-98164471D01*
X121165445Y-98441314D01*
X121015172Y-98803212D01*
X121014830Y-99195069D01*
X121164471Y-99557229D01*
X121441314Y-99834555D01*
X121740000Y-99958580D01*
X121740000Y-103665198D01*
X121315602Y-103240800D01*
X121128228Y-103115601D01*
X121225000Y-102629093D01*
X121225000Y-102570907D01*
X121111961Y-102002622D01*
X120806188Y-101545000D01*
X120883002Y-101545000D01*
X120883002Y-100963483D01*
X121078915Y-100702361D01*
X121004168Y-100485000D01*
X120165000Y-100485000D01*
X120165000Y-100910000D01*
X119315000Y-100910000D01*
X119315000Y-100485000D01*
X118890000Y-100485000D01*
X118890000Y-99635000D01*
X119315000Y-99635000D01*
X119315000Y-98803690D01*
X120165000Y-98803690D01*
X120165000Y-99635000D01*
X121004168Y-99635000D01*
X121078915Y-99417639D01*
X120731175Y-98954155D01*
X120382356Y-98721119D01*
X120165000Y-98803690D01*
X119315000Y-98803690D01*
X119097644Y-98721119D01*
X118804443Y-98916998D01*
X118255000Y-98916998D01*
X118255000Y-98988255D01*
X118250054Y-98980853D01*
X117768285Y-98658946D01*
X117200000Y-98545907D01*
X116631715Y-98658946D01*
X116149946Y-98980853D01*
X115930000Y-99310026D01*
X115710054Y-98980853D01*
X115228285Y-98658946D01*
X114660000Y-98545907D01*
X114091715Y-98658946D01*
X113609946Y-98980853D01*
X113390000Y-99310026D01*
X113170054Y-98980853D01*
X112688285Y-98658946D01*
X112120000Y-98545907D01*
X111551715Y-98658946D01*
X111069946Y-98980853D01*
X111065000Y-98988255D01*
X111065000Y-98916998D01*
X110515557Y-98916998D01*
X110222356Y-98721119D01*
X110005000Y-98803690D01*
X110005000Y-99635000D01*
X110430000Y-99635000D01*
X110430000Y-100485000D01*
X110005000Y-100485000D01*
X110005000Y-100910000D01*
X109155000Y-100910000D01*
X109155000Y-100485000D01*
X108730000Y-100485000D01*
X108730000Y-99635000D01*
X109155000Y-99635000D01*
X109155000Y-98803690D01*
X108937644Y-98721119D01*
X108644443Y-98916998D01*
X108095000Y-98916998D01*
X108095000Y-98988255D01*
X108090054Y-98980853D01*
X107608285Y-98658946D01*
X107040000Y-98545907D01*
X106471715Y-98658946D01*
X105989946Y-98980853D01*
X105985000Y-98988255D01*
X105985000Y-98916998D01*
X105435557Y-98916998D01*
X105142356Y-98721119D01*
X104925000Y-98803690D01*
X104925000Y-99635000D01*
X105350000Y-99635000D01*
X105350000Y-100485000D01*
X104925000Y-100485000D01*
X104925000Y-100910000D01*
X104075000Y-100910000D01*
X104075000Y-100485000D01*
X103898201Y-100485000D01*
X103898201Y-100138201D01*
X103840349Y-99847362D01*
X103698454Y-99635000D01*
X104075000Y-99635000D01*
X104075000Y-98803690D01*
X103857644Y-98721119D01*
X103564443Y-98916998D01*
X103376043Y-98916998D01*
X103274090Y-98758559D01*
X103061890Y-98613569D01*
X102810000Y-98562560D01*
X101110000Y-98562560D01*
X100874683Y-98606838D01*
X100658559Y-98745910D01*
X100513569Y-98958110D01*
X100462560Y-99210000D01*
X85710000Y-99210000D01*
X85710000Y-97047484D01*
X124502415Y-97047484D01*
X124652056Y-97409644D01*
X124928899Y-97686970D01*
X125290797Y-97837243D01*
X125682654Y-97837585D01*
X125867921Y-97761034D01*
X125941314Y-97834555D01*
X126303212Y-97984828D01*
X126695069Y-97985170D01*
X127057229Y-97835529D01*
X127334555Y-97558686D01*
X127484828Y-97196788D01*
X127485170Y-96804931D01*
X127335529Y-96442771D01*
X127260000Y-96367110D01*
X127260000Y-85633111D01*
X127334555Y-85558686D01*
X127484828Y-85196788D01*
X127485170Y-84804931D01*
X127335529Y-84442771D01*
X127058686Y-84165445D01*
X126696788Y-84015172D01*
X126304931Y-84014830D01*
X125942771Y-84164471D01*
X125665445Y-84441314D01*
X125515172Y-84803212D01*
X125514830Y-85195069D01*
X125664471Y-85557229D01*
X125740000Y-85632890D01*
X125740000Y-90533115D01*
X125696788Y-90515172D01*
X125304931Y-90514830D01*
X124942771Y-90664471D01*
X124665445Y-90941314D01*
X124515172Y-91303212D01*
X124514830Y-91695069D01*
X124664471Y-92057229D01*
X124727585Y-92120453D01*
X124727585Y-96219304D01*
X124653030Y-96293729D01*
X124502757Y-96655627D01*
X124502415Y-97047484D01*
X85710000Y-97047484D01*
X85710000Y-72195069D01*
X87014830Y-72195069D01*
X87164471Y-72557229D01*
X87441314Y-72834555D01*
X87803212Y-72984828D01*
X88015013Y-72985013D01*
X88014830Y-73195069D01*
X88164471Y-73557229D01*
X88441314Y-73834555D01*
X88803212Y-73984828D01*
X89015013Y-73985013D01*
X89014830Y-74195069D01*
X89164471Y-74557229D01*
X89441314Y-74834555D01*
X89803212Y-74984828D01*
X90195069Y-74985170D01*
X90557229Y-74835529D01*
X90632890Y-74760000D01*
X94033115Y-74760000D01*
X94015172Y-74803212D01*
X94014872Y-75147252D01*
X93696788Y-75015172D01*
X93304931Y-75014830D01*
X92942771Y-75164471D01*
X92665445Y-75441314D01*
X92515172Y-75803212D01*
X92514830Y-76195069D01*
X92664471Y-76557229D01*
X92941314Y-76834555D01*
X93303212Y-76984828D01*
X93695069Y-76985170D01*
X94057229Y-76835529D01*
X94132890Y-76760000D01*
X95033115Y-76760000D01*
X95015172Y-76803212D01*
X95014830Y-77195069D01*
X95164471Y-77557229D01*
X95441314Y-77834555D01*
X95803212Y-77984828D01*
X96195069Y-77985170D01*
X96515129Y-77852924D01*
X96514830Y-78195069D01*
X96664471Y-78557229D01*
X96941314Y-78834555D01*
X97303212Y-78984828D01*
X97515013Y-78985013D01*
X97514830Y-79195069D01*
X97664471Y-79557229D01*
X97941314Y-79834555D01*
X98303212Y-79984828D01*
X98695069Y-79985170D01*
X99057229Y-79835529D01*
X99167210Y-79725740D01*
X99285813Y-79702148D01*
X99301994Y-79691336D01*
X104915859Y-79691336D01*
X104665445Y-79941314D01*
X104515172Y-80303212D01*
X104514987Y-80515013D01*
X104304931Y-80514830D01*
X103942771Y-80664471D01*
X103665445Y-80941314D01*
X103515172Y-81303212D01*
X103514830Y-81695069D01*
X103664471Y-82057229D01*
X103941314Y-82334555D01*
X104303212Y-82484828D01*
X104695069Y-82485170D01*
X105057229Y-82335529D01*
X105132890Y-82260000D01*
X115366889Y-82260000D01*
X115441314Y-82334555D01*
X115803212Y-82484828D01*
X116195069Y-82485170D01*
X116557229Y-82335529D01*
X116834555Y-82058686D01*
X116984828Y-81696788D01*
X116985013Y-81484987D01*
X117195069Y-81485170D01*
X117557229Y-81335529D01*
X117834555Y-81058686D01*
X117984828Y-80696788D01*
X117984917Y-80594585D01*
X118126397Y-80594708D01*
X118488557Y-80445067D01*
X118765883Y-80168224D01*
X118915268Y-79808464D01*
X118941314Y-79834555D01*
X119303212Y-79984828D01*
X119695069Y-79985170D01*
X120057229Y-79835529D01*
X120334555Y-79558686D01*
X120484828Y-79196788D01*
X120485170Y-78804931D01*
X120466605Y-78760000D01*
X123366889Y-78760000D01*
X123441314Y-78834555D01*
X123803212Y-78984828D01*
X124195069Y-78985170D01*
X124557229Y-78835529D01*
X124834555Y-78558686D01*
X124984828Y-78196788D01*
X124985170Y-77804931D01*
X124835529Y-77442771D01*
X124558686Y-77165445D01*
X124196788Y-77015172D01*
X123984987Y-77014987D01*
X123985170Y-76804931D01*
X123835529Y-76442771D01*
X123558686Y-76165445D01*
X123196788Y-76015172D01*
X122984987Y-76014987D01*
X122985170Y-75804931D01*
X122835529Y-75442771D01*
X122558686Y-75165445D01*
X122196788Y-75015172D01*
X121984987Y-75014987D01*
X121985170Y-74804931D01*
X121835529Y-74442771D01*
X121558686Y-74165445D01*
X121196788Y-74015172D01*
X120804931Y-74014830D01*
X120442771Y-74164471D01*
X120367110Y-74240000D01*
X111133111Y-74240000D01*
X111058686Y-74165445D01*
X110696788Y-74015172D01*
X110484987Y-74014987D01*
X110485170Y-73804931D01*
X110335529Y-73442771D01*
X110058686Y-73165445D01*
X109696788Y-73015172D01*
X109484987Y-73014987D01*
X109485170Y-72804931D01*
X109335529Y-72442771D01*
X109058686Y-72165445D01*
X108696788Y-72015172D01*
X108484987Y-72014987D01*
X108485170Y-71804931D01*
X108335529Y-71442771D01*
X108058686Y-71165445D01*
X107696788Y-71015172D01*
X107304931Y-71014830D01*
X106942771Y-71164471D01*
X106867110Y-71240000D01*
X88633111Y-71240000D01*
X88558686Y-71165445D01*
X88196788Y-71015172D01*
X87804931Y-71014830D01*
X87442771Y-71164471D01*
X87165445Y-71441314D01*
X87015172Y-71803212D01*
X87014830Y-72195069D01*
X85710000Y-72195069D01*
X85710000Y-61710000D01*
X86962560Y-61710000D01*
X86962560Y-63410000D01*
X87006838Y-63645317D01*
X87145910Y-63861441D01*
X87358110Y-64006431D01*
X87414454Y-64017841D01*
X87409946Y-64020853D01*
X87088039Y-64502622D01*
X86975000Y-65070907D01*
X86975000Y-65129093D01*
X87088039Y-65697378D01*
X87409946Y-66179147D01*
X87891715Y-66501054D01*
X88460000Y-66614093D01*
X89028285Y-66501054D01*
X89510054Y-66179147D01*
X89515000Y-66171745D01*
X89515000Y-66243002D01*
X90064443Y-66243002D01*
X90357644Y-66438881D01*
X90575000Y-66356310D01*
X90575000Y-65525000D01*
X90150000Y-65525000D01*
X90150000Y-64675000D01*
X90575000Y-64675000D01*
X90575000Y-64250000D01*
X91425000Y-64250000D01*
X91425000Y-64675000D01*
X91850000Y-64675000D01*
X91850000Y-65525000D01*
X91425000Y-65525000D01*
X91425000Y-66356310D01*
X91642356Y-66438881D01*
X91935557Y-66243002D01*
X92485000Y-66243002D01*
X92485000Y-66171745D01*
X92489946Y-66179147D01*
X92971715Y-66501054D01*
X93540000Y-66614093D01*
X94108285Y-66501054D01*
X94590054Y-66179147D01*
X94810000Y-65849974D01*
X95029946Y-66179147D01*
X95511715Y-66501054D01*
X96080000Y-66614093D01*
X96648285Y-66501054D01*
X97130054Y-66179147D01*
X97350000Y-65849974D01*
X97569946Y-66179147D01*
X98051715Y-66501054D01*
X98620000Y-66614093D01*
X99188285Y-66501054D01*
X99670054Y-66179147D01*
X99675000Y-66171745D01*
X99675000Y-66243002D01*
X100224443Y-66243002D01*
X100517644Y-66438881D01*
X100735000Y-66356310D01*
X100735000Y-65525000D01*
X101585000Y-65525000D01*
X101585000Y-66356310D01*
X101802356Y-66438881D01*
X102151175Y-66205845D01*
X102430000Y-65834214D01*
X102708825Y-66205845D01*
X103057644Y-66438881D01*
X103275000Y-66356310D01*
X103275000Y-65525000D01*
X104125000Y-65525000D01*
X104125000Y-66356310D01*
X104342356Y-66438881D01*
X104691175Y-66205845D01*
X104970000Y-65834214D01*
X105248825Y-66205845D01*
X105597644Y-66438881D01*
X105815000Y-66356310D01*
X105815000Y-65525000D01*
X106665000Y-65525000D01*
X106665000Y-66356310D01*
X106882356Y-66438881D01*
X107231175Y-66205845D01*
X107578915Y-65742361D01*
X107504168Y-65525000D01*
X106665000Y-65525000D01*
X105815000Y-65525000D01*
X104975832Y-65525000D01*
X104970000Y-65541959D01*
X104964168Y-65525000D01*
X104125000Y-65525000D01*
X103275000Y-65525000D01*
X102435832Y-65525000D01*
X102430000Y-65541959D01*
X102424168Y-65525000D01*
X101585000Y-65525000D01*
X100735000Y-65525000D01*
X100310000Y-65525000D01*
X100310000Y-64675000D01*
X100735000Y-64675000D01*
X100735000Y-64250000D01*
X101585000Y-64250000D01*
X101585000Y-64675000D01*
X102424168Y-64675000D01*
X102430000Y-64658041D01*
X102435832Y-64675000D01*
X103275000Y-64675000D01*
X103275000Y-64250000D01*
X104125000Y-64250000D01*
X104125000Y-64675000D01*
X104964168Y-64675000D01*
X104970000Y-64658041D01*
X104975832Y-64675000D01*
X105815000Y-64675000D01*
X105815000Y-64250000D01*
X106665000Y-64250000D01*
X106665000Y-64675000D01*
X107504168Y-64675000D01*
X107578915Y-64457639D01*
X107383002Y-64196517D01*
X107383002Y-63615000D01*
X107306188Y-63615000D01*
X107611961Y-63157378D01*
X107725000Y-62589093D01*
X107725000Y-62530907D01*
X107611961Y-61962622D01*
X107443165Y-61710000D01*
X113962560Y-61710000D01*
X113962560Y-63410000D01*
X114006838Y-63645317D01*
X114145910Y-63861441D01*
X114358110Y-64006431D01*
X114414454Y-64017841D01*
X114409946Y-64020853D01*
X114088039Y-64502622D01*
X113975000Y-65070907D01*
X113975000Y-65129093D01*
X114088039Y-65697378D01*
X114409946Y-66179147D01*
X114891715Y-66501054D01*
X115460000Y-66614093D01*
X116028285Y-66501054D01*
X116510054Y-66179147D01*
X116515000Y-66171745D01*
X116515000Y-66243002D01*
X117064443Y-66243002D01*
X117357644Y-66438881D01*
X117575000Y-66356310D01*
X117575000Y-65525000D01*
X117150000Y-65525000D01*
X117150000Y-64675000D01*
X117575000Y-64675000D01*
X117575000Y-64250000D01*
X118425000Y-64250000D01*
X118425000Y-64675000D01*
X118850000Y-64675000D01*
X118850000Y-65525000D01*
X118425000Y-65525000D01*
X118425000Y-66356310D01*
X118642356Y-66438881D01*
X118935557Y-66243002D01*
X119485000Y-66243002D01*
X119485000Y-66171745D01*
X119489946Y-66179147D01*
X119971715Y-66501054D01*
X120540000Y-66614093D01*
X121108285Y-66501054D01*
X121590054Y-66179147D01*
X121810000Y-65849974D01*
X122029946Y-66179147D01*
X122511715Y-66501054D01*
X123080000Y-66614093D01*
X123648285Y-66501054D01*
X124130054Y-66179147D01*
X124350000Y-65849974D01*
X124569946Y-66179147D01*
X125051715Y-66501054D01*
X125620000Y-66614093D01*
X126188285Y-66501054D01*
X126670054Y-66179147D01*
X126675000Y-66171745D01*
X126675000Y-66243002D01*
X127224443Y-66243002D01*
X127517644Y-66438881D01*
X127735000Y-66356310D01*
X127735000Y-65525000D01*
X128585000Y-65525000D01*
X128585000Y-66356310D01*
X128802356Y-66438881D01*
X129151175Y-66205845D01*
X129430000Y-65834214D01*
X129708825Y-66205845D01*
X130057644Y-66438881D01*
X130275000Y-66356310D01*
X130275000Y-65525000D01*
X131125000Y-65525000D01*
X131125000Y-66356310D01*
X131342356Y-66438881D01*
X131691175Y-66205845D01*
X131970000Y-65834214D01*
X132248825Y-66205845D01*
X132597644Y-66438881D01*
X132815000Y-66356310D01*
X132815000Y-65525000D01*
X133665000Y-65525000D01*
X133665000Y-66356310D01*
X133882356Y-66438881D01*
X134231175Y-66205845D01*
X134578915Y-65742361D01*
X134504168Y-65525000D01*
X133665000Y-65525000D01*
X132815000Y-65525000D01*
X131975832Y-65525000D01*
X131970000Y-65541959D01*
X131964168Y-65525000D01*
X131125000Y-65525000D01*
X130275000Y-65525000D01*
X129435832Y-65525000D01*
X129430000Y-65541959D01*
X129424168Y-65525000D01*
X128585000Y-65525000D01*
X127735000Y-65525000D01*
X127310000Y-65525000D01*
X127310000Y-64675000D01*
X127735000Y-64675000D01*
X127735000Y-64250000D01*
X128585000Y-64250000D01*
X128585000Y-64675000D01*
X129424168Y-64675000D01*
X129430000Y-64658041D01*
X129435832Y-64675000D01*
X130275000Y-64675000D01*
X130275000Y-64250000D01*
X131125000Y-64250000D01*
X131125000Y-64675000D01*
X131964168Y-64675000D01*
X131970000Y-64658041D01*
X131975832Y-64675000D01*
X132815000Y-64675000D01*
X132815000Y-64250000D01*
X133665000Y-64250000D01*
X133665000Y-64675000D01*
X134504168Y-64675000D01*
X134578915Y-64457639D01*
X134383002Y-64196517D01*
X134383002Y-63615000D01*
X134306188Y-63615000D01*
X134611961Y-63157378D01*
X134725000Y-62589093D01*
X134725000Y-62530907D01*
X134611961Y-61962622D01*
X134290054Y-61480853D01*
X133808285Y-61158946D01*
X133240000Y-61045907D01*
X132671715Y-61158946D01*
X132189946Y-61480853D01*
X131970000Y-61810026D01*
X131750054Y-61480853D01*
X131268285Y-61158946D01*
X130700000Y-61045907D01*
X130131715Y-61158946D01*
X129649946Y-61480853D01*
X129430000Y-61810026D01*
X129210054Y-61480853D01*
X128728285Y-61158946D01*
X128160000Y-61045907D01*
X127591715Y-61158946D01*
X127109946Y-61480853D01*
X126890000Y-61810026D01*
X126670054Y-61480853D01*
X126188285Y-61158946D01*
X125620000Y-61045907D01*
X125051715Y-61158946D01*
X124569946Y-61480853D01*
X124350000Y-61810026D01*
X124130054Y-61480853D01*
X123648285Y-61158946D01*
X123080000Y-61045907D01*
X122511715Y-61158946D01*
X122029946Y-61480853D01*
X121810000Y-61810026D01*
X121590054Y-61480853D01*
X121108285Y-61158946D01*
X120540000Y-61045907D01*
X119971715Y-61158946D01*
X119489946Y-61480853D01*
X119270000Y-61810026D01*
X119050054Y-61480853D01*
X118568285Y-61158946D01*
X118000000Y-61045907D01*
X117431715Y-61158946D01*
X116949946Y-61480853D01*
X116922150Y-61522452D01*
X116913162Y-61474683D01*
X116774090Y-61258559D01*
X116561890Y-61113569D01*
X116310000Y-61062560D01*
X114610000Y-61062560D01*
X114374683Y-61106838D01*
X114158559Y-61245910D01*
X114013569Y-61458110D01*
X113962560Y-61710000D01*
X107443165Y-61710000D01*
X107290054Y-61480853D01*
X106808285Y-61158946D01*
X106240000Y-61045907D01*
X105671715Y-61158946D01*
X105189946Y-61480853D01*
X104970000Y-61810026D01*
X104750054Y-61480853D01*
X104268285Y-61158946D01*
X103700000Y-61045907D01*
X103131715Y-61158946D01*
X102649946Y-61480853D01*
X102430000Y-61810026D01*
X102210054Y-61480853D01*
X101728285Y-61158946D01*
X101160000Y-61045907D01*
X100591715Y-61158946D01*
X100109946Y-61480853D01*
X99890000Y-61810026D01*
X99670054Y-61480853D01*
X99188285Y-61158946D01*
X98620000Y-61045907D01*
X98051715Y-61158946D01*
X97569946Y-61480853D01*
X97350000Y-61810026D01*
X97130054Y-61480853D01*
X96648285Y-61158946D01*
X96080000Y-61045907D01*
X95511715Y-61158946D01*
X95029946Y-61480853D01*
X94810000Y-61810026D01*
X94590054Y-61480853D01*
X94108285Y-61158946D01*
X93540000Y-61045907D01*
X92971715Y-61158946D01*
X92489946Y-61480853D01*
X92270000Y-61810026D01*
X92050054Y-61480853D01*
X91568285Y-61158946D01*
X91000000Y-61045907D01*
X90431715Y-61158946D01*
X89949946Y-61480853D01*
X89922150Y-61522452D01*
X89913162Y-61474683D01*
X89774090Y-61258559D01*
X89561890Y-61113569D01*
X89310000Y-61062560D01*
X87610000Y-61062560D01*
X87374683Y-61106838D01*
X87158559Y-61245910D01*
X87013569Y-61458110D01*
X86962560Y-61710000D01*
X85710000Y-61710000D01*
X85710000Y-55700000D01*
X102052560Y-55700000D01*
X102052560Y-57300000D01*
X102096838Y-57535317D01*
X102235910Y-57751441D01*
X102448110Y-57896431D01*
X102700000Y-57947440D01*
X104300000Y-57947440D01*
X104535317Y-57903162D01*
X104751441Y-57764090D01*
X104896431Y-57551890D01*
X104947440Y-57300000D01*
X104947440Y-55700000D01*
X129052560Y-55700000D01*
X129052560Y-57300000D01*
X129096838Y-57535317D01*
X129235910Y-57751441D01*
X129448110Y-57896431D01*
X129700000Y-57947440D01*
X131300000Y-57947440D01*
X131535317Y-57903162D01*
X131751441Y-57764090D01*
X131896431Y-57551890D01*
X131947440Y-57300000D01*
X131947440Y-55700000D01*
X131903162Y-55464683D01*
X131764090Y-55248559D01*
X131551890Y-55103569D01*
X131300000Y-55052560D01*
X130986875Y-55052560D01*
X130500000Y-54565685D01*
X130013125Y-55052560D01*
X129700000Y-55052560D01*
X129464683Y-55096838D01*
X129248559Y-55235910D01*
X129103569Y-55448110D01*
X129052560Y-55700000D01*
X104947440Y-55700000D01*
X104903162Y-55464683D01*
X104764090Y-55248559D01*
X104551890Y-55103569D01*
X104300000Y-55052560D01*
X103986875Y-55052560D01*
X103500000Y-54565685D01*
X103013125Y-55052560D01*
X102700000Y-55052560D01*
X102464683Y-55096838D01*
X102248559Y-55235910D01*
X102103569Y-55448110D01*
X102052560Y-55700000D01*
X85710000Y-55700000D01*
X85710000Y-54060403D01*
X102038135Y-54060403D01*
X102126297Y-54503626D01*
X102339273Y-54595042D01*
X102934315Y-54000000D01*
X104065685Y-54000000D01*
X104660727Y-54595042D01*
X104873703Y-54503626D01*
X104942982Y-54060403D01*
X129038135Y-54060403D01*
X129126297Y-54503626D01*
X129339273Y-54595042D01*
X129934315Y-54000000D01*
X131065685Y-54000000D01*
X131660727Y-54595042D01*
X131873703Y-54503626D01*
X131961865Y-53939597D01*
X131873703Y-53496374D01*
X131660727Y-53404958D01*
X131065685Y-54000000D01*
X129934315Y-54000000D01*
X129339273Y-53404958D01*
X129126297Y-53496374D01*
X129038135Y-54060403D01*
X104942982Y-54060403D01*
X104961865Y-53939597D01*
X104873703Y-53496374D01*
X104660727Y-53404958D01*
X104065685Y-54000000D01*
X102934315Y-54000000D01*
X102339273Y-53404958D01*
X102126297Y-53496374D01*
X102038135Y-54060403D01*
X85710000Y-54060403D01*
X85710000Y-52839273D01*
X102904958Y-52839273D01*
X103500000Y-53434315D01*
X104095042Y-52839273D01*
X129904958Y-52839273D01*
X130500000Y-53434315D01*
X131095042Y-52839273D01*
X131003626Y-52626297D01*
X130439597Y-52538135D01*
X129996374Y-52626297D01*
X129904958Y-52839273D01*
X104095042Y-52839273D01*
X104003626Y-52626297D01*
X103439597Y-52538135D01*
X102996374Y-52626297D01*
X102904958Y-52839273D01*
X85710000Y-52839273D01*
X85710000Y-50710000D01*
X139290000Y-50710000D01*
X139290000Y-144290000D01*
X139290000Y-144290000D01*
G37*
X139290000Y-144290000D02*
X85710000Y-144290000D01*
X85710000Y-136710000D01*
X86962560Y-136710000D01*
X86962560Y-138410000D01*
X87006838Y-138645317D01*
X87145910Y-138861441D01*
X87358110Y-139006431D01*
X87414454Y-139017841D01*
X87409946Y-139020853D01*
X87088039Y-139502622D01*
X86975000Y-140070907D01*
X86975000Y-140129093D01*
X87088039Y-140697378D01*
X87409946Y-141179147D01*
X87891715Y-141501054D01*
X88460000Y-141614093D01*
X89028285Y-141501054D01*
X89510054Y-141179147D01*
X89515000Y-141171745D01*
X89515000Y-141243002D01*
X90064443Y-141243002D01*
X90357644Y-141438881D01*
X90575000Y-141356310D01*
X90575000Y-140525000D01*
X90150000Y-140525000D01*
X90150000Y-139675000D01*
X90575000Y-139675000D01*
X90575000Y-139250000D01*
X91425000Y-139250000D01*
X91425000Y-139675000D01*
X91850000Y-139675000D01*
X91850000Y-140525000D01*
X91425000Y-140525000D01*
X91425000Y-141356310D01*
X91642356Y-141438881D01*
X91935557Y-141243002D01*
X92485000Y-141243002D01*
X92485000Y-141171745D01*
X92489946Y-141179147D01*
X92971715Y-141501054D01*
X93540000Y-141614093D01*
X94108285Y-141501054D01*
X94590054Y-141179147D01*
X94810000Y-140849974D01*
X95029946Y-141179147D01*
X95511715Y-141501054D01*
X96080000Y-141614093D01*
X96648285Y-141501054D01*
X97130054Y-141179147D01*
X97350000Y-140849974D01*
X97569946Y-141179147D01*
X98051715Y-141501054D01*
X98620000Y-141614093D01*
X99188285Y-141501054D01*
X99670054Y-141179147D01*
X99675000Y-141171745D01*
X99675000Y-141243002D01*
X100224443Y-141243002D01*
X100517644Y-141438881D01*
X100735000Y-141356310D01*
X100735000Y-140525000D01*
X101585000Y-140525000D01*
X101585000Y-141356310D01*
X101802356Y-141438881D01*
X102151175Y-141205845D01*
X102430000Y-140834214D01*
X102708825Y-141205845D01*
X103057644Y-141438881D01*
X103275000Y-141356310D01*
X103275000Y-140525000D01*
X104125000Y-140525000D01*
X104125000Y-141356310D01*
X104342356Y-141438881D01*
X104691175Y-141205845D01*
X104970000Y-140834214D01*
X105248825Y-141205845D01*
X105597644Y-141438881D01*
X105815000Y-141356310D01*
X105815000Y-140525000D01*
X106665000Y-140525000D01*
X106665000Y-141356310D01*
X106882356Y-141438881D01*
X107231175Y-141205845D01*
X107578915Y-140742361D01*
X107504168Y-140525000D01*
X106665000Y-140525000D01*
X105815000Y-140525000D01*
X104975832Y-140525000D01*
X104970000Y-140541959D01*
X104964168Y-140525000D01*
X104125000Y-140525000D01*
X103275000Y-140525000D01*
X102435832Y-140525000D01*
X102430000Y-140541959D01*
X102424168Y-140525000D01*
X101585000Y-140525000D01*
X100735000Y-140525000D01*
X100310000Y-140525000D01*
X100310000Y-139675000D01*
X100735000Y-139675000D01*
X100735000Y-139250000D01*
X101585000Y-139250000D01*
X101585000Y-139675000D01*
X102424168Y-139675000D01*
X102430000Y-139658041D01*
X102435832Y-139675000D01*
X103275000Y-139675000D01*
X103275000Y-139250000D01*
X104125000Y-139250000D01*
X104125000Y-139675000D01*
X104964168Y-139675000D01*
X104970000Y-139658041D01*
X104975832Y-139675000D01*
X105815000Y-139675000D01*
X105815000Y-139250000D01*
X106665000Y-139250000D01*
X106665000Y-139675000D01*
X107504168Y-139675000D01*
X107578915Y-139457639D01*
X107383002Y-139196517D01*
X107383002Y-138615000D01*
X107306188Y-138615000D01*
X107611961Y-138157378D01*
X107725000Y-137589093D01*
X107725000Y-137530907D01*
X107611961Y-136962622D01*
X107443165Y-136710000D01*
X113962560Y-136710000D01*
X113962560Y-138410000D01*
X114006838Y-138645317D01*
X114145910Y-138861441D01*
X114358110Y-139006431D01*
X114414454Y-139017841D01*
X114409946Y-139020853D01*
X114088039Y-139502622D01*
X113975000Y-140070907D01*
X113975000Y-140129093D01*
X114088039Y-140697378D01*
X114409946Y-141179147D01*
X114891715Y-141501054D01*
X115460000Y-141614093D01*
X116028285Y-141501054D01*
X116510054Y-141179147D01*
X116515000Y-141171745D01*
X116515000Y-141243002D01*
X117064443Y-141243002D01*
X117357644Y-141438881D01*
X117575000Y-141356310D01*
X117575000Y-140525000D01*
X117150000Y-140525000D01*
X117150000Y-139675000D01*
X117575000Y-139675000D01*
X117575000Y-139250000D01*
X118425000Y-139250000D01*
X118425000Y-139675000D01*
X118850000Y-139675000D01*
X118850000Y-140525000D01*
X118425000Y-140525000D01*
X118425000Y-141356310D01*
X118642356Y-141438881D01*
X118935557Y-141243002D01*
X119485000Y-141243002D01*
X119485000Y-141171745D01*
X119489946Y-141179147D01*
X119971715Y-141501054D01*
X120540000Y-141614093D01*
X121108285Y-141501054D01*
X121590054Y-141179147D01*
X121810000Y-140849974D01*
X122029946Y-141179147D01*
X122511715Y-141501054D01*
X123080000Y-141614093D01*
X123648285Y-141501054D01*
X124130054Y-141179147D01*
X124350000Y-140849974D01*
X124569946Y-141179147D01*
X125051715Y-141501054D01*
X125620000Y-141614093D01*
X126188285Y-141501054D01*
X126670054Y-141179147D01*
X126675000Y-141171745D01*
X126675000Y-141243002D01*
X127224443Y-141243002D01*
X127517644Y-141438881D01*
X127735000Y-141356310D01*
X127735000Y-140525000D01*
X128585000Y-140525000D01*
X128585000Y-141356310D01*
X128802356Y-141438881D01*
X129151175Y-141205845D01*
X129430000Y-140834214D01*
X129708825Y-141205845D01*
X130057644Y-141438881D01*
X130275000Y-141356310D01*
X130275000Y-140525000D01*
X131125000Y-140525000D01*
X131125000Y-141356310D01*
X131342356Y-141438881D01*
X131691175Y-141205845D01*
X131970000Y-140834214D01*
X132248825Y-141205845D01*
X132597644Y-141438881D01*
X132815000Y-141356310D01*
X132815000Y-140525000D01*
X133665000Y-140525000D01*
X133665000Y-141356310D01*
X133882356Y-141438881D01*
X134231175Y-141205845D01*
X134578915Y-140742361D01*
X134504168Y-140525000D01*
X133665000Y-140525000D01*
X132815000Y-140525000D01*
X131975832Y-140525000D01*
X131970000Y-140541959D01*
X131964168Y-140525000D01*
X131125000Y-140525000D01*
X130275000Y-140525000D01*
X129435832Y-140525000D01*
X129430000Y-140541959D01*
X129424168Y-140525000D01*
X128585000Y-140525000D01*
X127735000Y-140525000D01*
X127310000Y-140525000D01*
X127310000Y-139675000D01*
X127735000Y-139675000D01*
X127735000Y-139250000D01*
X128585000Y-139250000D01*
X128585000Y-139675000D01*
X129424168Y-139675000D01*
X129430000Y-139658041D01*
X129435832Y-139675000D01*
X130275000Y-139675000D01*
X130275000Y-139250000D01*
X131125000Y-139250000D01*
X131125000Y-139675000D01*
X131964168Y-139675000D01*
X131970000Y-139658041D01*
X131975832Y-139675000D01*
X132815000Y-139675000D01*
X132815000Y-139250000D01*
X133665000Y-139250000D01*
X133665000Y-139675000D01*
X134504168Y-139675000D01*
X134578915Y-139457639D01*
X134383002Y-139196517D01*
X134383002Y-138615000D01*
X134306188Y-138615000D01*
X134611961Y-138157378D01*
X134725000Y-137589093D01*
X134725000Y-137530907D01*
X134611961Y-136962622D01*
X134290054Y-136480853D01*
X133808285Y-136158946D01*
X133240000Y-136045907D01*
X132671715Y-136158946D01*
X132189946Y-136480853D01*
X131970000Y-136810026D01*
X131750054Y-136480853D01*
X131268285Y-136158946D01*
X130700000Y-136045907D01*
X130131715Y-136158946D01*
X129649946Y-136480853D01*
X129430000Y-136810026D01*
X129210054Y-136480853D01*
X128728285Y-136158946D01*
X128160000Y-136045907D01*
X127591715Y-136158946D01*
X127367603Y-136308693D01*
X127335602Y-136260800D01*
X123260000Y-132185198D01*
X123260000Y-130700000D01*
X129052560Y-130700000D01*
X129052560Y-132300000D01*
X129096838Y-132535317D01*
X129235910Y-132751441D01*
X129448110Y-132896431D01*
X129700000Y-132947440D01*
X131300000Y-132947440D01*
X131535317Y-132903162D01*
X131751441Y-132764090D01*
X131896431Y-132551890D01*
X131947440Y-132300000D01*
X131947440Y-130700000D01*
X131903162Y-130464683D01*
X131764090Y-130248559D01*
X131551890Y-130103569D01*
X131300000Y-130052560D01*
X130986875Y-130052560D01*
X130500000Y-129565685D01*
X130013125Y-130052560D01*
X129700000Y-130052560D01*
X129464683Y-130096838D01*
X129248559Y-130235910D01*
X129103569Y-130448110D01*
X129052560Y-130700000D01*
X123260000Y-130700000D01*
X123260000Y-129060403D01*
X129038135Y-129060403D01*
X129126297Y-129503626D01*
X129339273Y-129595042D01*
X129934315Y-129000000D01*
X131065685Y-129000000D01*
X131660727Y-129595042D01*
X131873703Y-129503626D01*
X131961865Y-128939597D01*
X131873703Y-128496374D01*
X131660727Y-128404958D01*
X131065685Y-129000000D01*
X129934315Y-129000000D01*
X129339273Y-128404958D01*
X129126297Y-128496374D01*
X129038135Y-129060403D01*
X123260000Y-129060403D01*
X123260000Y-127839273D01*
X129904958Y-127839273D01*
X130500000Y-128434315D01*
X131095042Y-127839273D01*
X131003626Y-127626297D01*
X130439597Y-127538135D01*
X129996374Y-127626297D01*
X129904958Y-127839273D01*
X123260000Y-127839273D01*
X123260000Y-124633111D01*
X123334555Y-124558686D01*
X123484828Y-124196788D01*
X123485170Y-123804931D01*
X123335529Y-123442771D01*
X123058686Y-123165445D01*
X122696788Y-123015172D01*
X122484987Y-123014987D01*
X122485170Y-122804931D01*
X122335529Y-122442771D01*
X122058686Y-122165445D01*
X121696788Y-122015172D01*
X121484987Y-122014987D01*
X121485170Y-121804931D01*
X121335529Y-121442771D01*
X121058686Y-121165445D01*
X120696788Y-121015172D01*
X120484987Y-121014987D01*
X120485170Y-120804931D01*
X120335529Y-120442771D01*
X120058686Y-120165445D01*
X119696788Y-120015172D01*
X119484987Y-120014987D01*
X119485170Y-119804931D01*
X119335529Y-119442771D01*
X119058686Y-119165445D01*
X118696788Y-119015172D01*
X118484987Y-119014987D01*
X118485170Y-118804931D01*
X118335529Y-118442771D01*
X118058686Y-118165445D01*
X117696788Y-118015172D01*
X117484987Y-118014987D01*
X117485170Y-117804931D01*
X117335529Y-117442771D01*
X117058686Y-117165445D01*
X116696788Y-117015172D01*
X116484987Y-117014987D01*
X116485170Y-116804931D01*
X116335529Y-116442771D01*
X116058686Y-116165445D01*
X115696788Y-116015172D01*
X115304931Y-116014830D01*
X114942771Y-116164471D01*
X114665445Y-116441314D01*
X114515172Y-116803212D01*
X114514830Y-117195069D01*
X114664471Y-117557229D01*
X114740000Y-117632890D01*
X114740000Y-135338908D01*
X114700000Y-135540000D01*
X114700000Y-136062560D01*
X114610000Y-136062560D01*
X114374683Y-136106838D01*
X114158559Y-136245910D01*
X114013569Y-136458110D01*
X113962560Y-136710000D01*
X107443165Y-136710000D01*
X107290054Y-136480853D01*
X106808285Y-136158946D01*
X106240000Y-136045907D01*
X105671715Y-136158946D01*
X105189946Y-136480853D01*
X104970000Y-136810026D01*
X104750054Y-136480853D01*
X104268285Y-136158946D01*
X103700000Y-136045907D01*
X103131715Y-136158946D01*
X102649946Y-136480853D01*
X102430000Y-136810026D01*
X102210054Y-136480853D01*
X101728285Y-136158946D01*
X101160000Y-136045907D01*
X100591715Y-136158946D01*
X100109946Y-136480853D01*
X99890000Y-136810026D01*
X99670054Y-136480853D01*
X99188285Y-136158946D01*
X98620000Y-136045907D01*
X98051715Y-136158946D01*
X97569946Y-136480853D01*
X97350000Y-136810026D01*
X97130054Y-136480853D01*
X96648285Y-136158946D01*
X96080000Y-136045907D01*
X95511715Y-136158946D01*
X95029946Y-136480853D01*
X94810000Y-136810026D01*
X94590054Y-136480853D01*
X94108285Y-136158946D01*
X93540000Y-136045907D01*
X92971715Y-136158946D01*
X92489946Y-136480853D01*
X92270000Y-136810026D01*
X92050054Y-136480853D01*
X91568285Y-136158946D01*
X91000000Y-136045907D01*
X90431715Y-136158946D01*
X89949946Y-136480853D01*
X89922150Y-136522452D01*
X89913162Y-136474683D01*
X89774090Y-136258559D01*
X89561890Y-136113569D01*
X89310000Y-136062560D01*
X87610000Y-136062560D01*
X87374683Y-136106838D01*
X87158559Y-136245910D01*
X87013569Y-136458110D01*
X86962560Y-136710000D01*
X85710000Y-136710000D01*
X85710000Y-130700000D01*
X102052560Y-130700000D01*
X102052560Y-132300000D01*
X102096838Y-132535317D01*
X102235910Y-132751441D01*
X102448110Y-132896431D01*
X102700000Y-132947440D01*
X104300000Y-132947440D01*
X104535317Y-132903162D01*
X104751441Y-132764090D01*
X104896431Y-132551890D01*
X104947440Y-132300000D01*
X104947440Y-130700000D01*
X104903162Y-130464683D01*
X104764090Y-130248559D01*
X104551890Y-130103569D01*
X104300000Y-130052560D01*
X103986875Y-130052560D01*
X103500000Y-129565685D01*
X103013125Y-130052560D01*
X102700000Y-130052560D01*
X102464683Y-130096838D01*
X102248559Y-130235910D01*
X102103569Y-130448110D01*
X102052560Y-130700000D01*
X85710000Y-130700000D01*
X85710000Y-129060403D01*
X102038135Y-129060403D01*
X102126297Y-129503626D01*
X102339273Y-129595042D01*
X102934315Y-129000000D01*
X104065685Y-129000000D01*
X104660727Y-129595042D01*
X104873703Y-129503626D01*
X104961865Y-128939597D01*
X104873703Y-128496374D01*
X104660727Y-128404958D01*
X104065685Y-129000000D01*
X102934315Y-129000000D01*
X102339273Y-128404958D01*
X102126297Y-128496374D01*
X102038135Y-129060403D01*
X85710000Y-129060403D01*
X85710000Y-127839273D01*
X102904958Y-127839273D01*
X103500000Y-128434315D01*
X104095042Y-127839273D01*
X104003626Y-127626297D01*
X103439597Y-127538135D01*
X102996374Y-127626297D01*
X102904958Y-127839273D01*
X85710000Y-127839273D01*
X85710000Y-114355119D01*
X134205541Y-114355119D01*
X134405597Y-114594102D01*
X135252221Y-114662166D01*
X135594403Y-114594102D01*
X135794459Y-114355119D01*
X135000000Y-113560660D01*
X134205541Y-114355119D01*
X85710000Y-114355119D01*
X85710000Y-112752221D01*
X132837834Y-112752221D01*
X132905898Y-113094403D01*
X133144881Y-113294459D01*
X133939340Y-112500000D01*
X136060660Y-112500000D01*
X136855119Y-113294459D01*
X137094102Y-113094403D01*
X137162166Y-112247779D01*
X137094102Y-111905597D01*
X136855119Y-111705541D01*
X136060660Y-112500000D01*
X133939340Y-112500000D01*
X133144881Y-111705541D01*
X132905898Y-111905597D01*
X132837834Y-112752221D01*
X85710000Y-112752221D01*
X85710000Y-110644881D01*
X134205541Y-110644881D01*
X135000000Y-111439340D01*
X135794459Y-110644881D01*
X135594403Y-110405898D01*
X134747779Y-110337834D01*
X134405597Y-110405898D01*
X134205541Y-110644881D01*
X85710000Y-110644881D01*
X85710000Y-99210000D01*
X100462560Y-99210000D01*
X100462560Y-100910000D01*
X100506838Y-101145317D01*
X100645910Y-101361441D01*
X100858110Y-101506431D01*
X100914454Y-101517841D01*
X100909946Y-101520853D01*
X100588039Y-102002622D01*
X100475000Y-102570907D01*
X100475000Y-102629093D01*
X100588039Y-103197378D01*
X100909946Y-103679147D01*
X101200000Y-103872954D01*
X101200000Y-103960000D01*
X101257852Y-104250839D01*
X101422599Y-104497401D01*
X104462599Y-107537401D01*
X104709160Y-107702148D01*
X105000000Y-107760000D01*
X114866889Y-107760000D01*
X114941314Y-107834555D01*
X115303212Y-107984828D01*
X115695069Y-107985170D01*
X116057229Y-107835529D01*
X116334555Y-107558686D01*
X116484828Y-107196788D01*
X116485013Y-106984987D01*
X116695069Y-106985170D01*
X117057229Y-106835529D01*
X117334555Y-106558686D01*
X117403510Y-106392623D01*
X117774759Y-106392947D01*
X118136919Y-106243306D01*
X118414245Y-105966463D01*
X118559621Y-105616359D01*
X118655026Y-105635337D01*
X118763677Y-105744177D01*
X119125575Y-105894450D01*
X119517432Y-105894792D01*
X119860104Y-105753203D01*
X119941314Y-105834555D01*
X120303212Y-105984828D01*
X120695069Y-105985170D01*
X121000304Y-105859050D01*
X121303212Y-105984828D01*
X121695069Y-105985170D01*
X122000304Y-105859050D01*
X122303212Y-105984828D01*
X122695069Y-105985170D01*
X122852792Y-105920000D01*
X132852560Y-105920000D01*
X132852560Y-108920000D01*
X132896838Y-109155317D01*
X133035910Y-109371441D01*
X133248110Y-109516431D01*
X133500000Y-109567440D01*
X136500000Y-109567440D01*
X136735317Y-109523162D01*
X136951441Y-109384090D01*
X137096431Y-109171890D01*
X137147440Y-108920000D01*
X137147440Y-105920000D01*
X137103162Y-105684683D01*
X136964090Y-105468559D01*
X136751890Y-105323569D01*
X136500000Y-105272560D01*
X133500000Y-105272560D01*
X133264683Y-105316838D01*
X133048559Y-105455910D01*
X132903569Y-105668110D01*
X132852560Y-105920000D01*
X122852792Y-105920000D01*
X123057229Y-105835529D01*
X123334555Y-105558686D01*
X123484828Y-105196788D01*
X123485170Y-104804931D01*
X123335529Y-104442771D01*
X123260000Y-104367110D01*
X123260000Y-99500000D01*
X123202148Y-99209161D01*
X123037401Y-98962599D01*
X122985078Y-98910276D01*
X122985170Y-98804931D01*
X122835529Y-98442771D01*
X122558686Y-98165445D01*
X122196788Y-98015172D01*
X121804931Y-98014830D01*
X121442771Y-98164471D01*
X121165445Y-98441314D01*
X121015172Y-98803212D01*
X121014830Y-99195069D01*
X121164471Y-99557229D01*
X121441314Y-99834555D01*
X121740000Y-99958580D01*
X121740000Y-103665198D01*
X121315602Y-103240800D01*
X121128228Y-103115601D01*
X121225000Y-102629093D01*
X121225000Y-102570907D01*
X121111961Y-102002622D01*
X120806188Y-101545000D01*
X120883002Y-101545000D01*
X120883002Y-100963483D01*
X121078915Y-100702361D01*
X121004168Y-100485000D01*
X120165000Y-100485000D01*
X120165000Y-100910000D01*
X119315000Y-100910000D01*
X119315000Y-100485000D01*
X118890000Y-100485000D01*
X118890000Y-99635000D01*
X119315000Y-99635000D01*
X119315000Y-98803690D01*
X120165000Y-98803690D01*
X120165000Y-99635000D01*
X121004168Y-99635000D01*
X121078915Y-99417639D01*
X120731175Y-98954155D01*
X120382356Y-98721119D01*
X120165000Y-98803690D01*
X119315000Y-98803690D01*
X119097644Y-98721119D01*
X118804443Y-98916998D01*
X118255000Y-98916998D01*
X118255000Y-98988255D01*
X118250054Y-98980853D01*
X117768285Y-98658946D01*
X117200000Y-98545907D01*
X116631715Y-98658946D01*
X116149946Y-98980853D01*
X115930000Y-99310026D01*
X115710054Y-98980853D01*
X115228285Y-98658946D01*
X114660000Y-98545907D01*
X114091715Y-98658946D01*
X113609946Y-98980853D01*
X113390000Y-99310026D01*
X113170054Y-98980853D01*
X112688285Y-98658946D01*
X112120000Y-98545907D01*
X111551715Y-98658946D01*
X111069946Y-98980853D01*
X111065000Y-98988255D01*
X111065000Y-98916998D01*
X110515557Y-98916998D01*
X110222356Y-98721119D01*
X110005000Y-98803690D01*
X110005000Y-99635000D01*
X110430000Y-99635000D01*
X110430000Y-100485000D01*
X110005000Y-100485000D01*
X110005000Y-100910000D01*
X109155000Y-100910000D01*
X109155000Y-100485000D01*
X108730000Y-100485000D01*
X108730000Y-99635000D01*
X109155000Y-99635000D01*
X109155000Y-98803690D01*
X108937644Y-98721119D01*
X108644443Y-98916998D01*
X108095000Y-98916998D01*
X108095000Y-98988255D01*
X108090054Y-98980853D01*
X107608285Y-98658946D01*
X107040000Y-98545907D01*
X106471715Y-98658946D01*
X105989946Y-98980853D01*
X105985000Y-98988255D01*
X105985000Y-98916998D01*
X105435557Y-98916998D01*
X105142356Y-98721119D01*
X104925000Y-98803690D01*
X104925000Y-99635000D01*
X105350000Y-99635000D01*
X105350000Y-100485000D01*
X104925000Y-100485000D01*
X104925000Y-100910000D01*
X104075000Y-100910000D01*
X104075000Y-100485000D01*
X103898201Y-100485000D01*
X103898201Y-100138201D01*
X103840349Y-99847362D01*
X103698454Y-99635000D01*
X104075000Y-99635000D01*
X104075000Y-98803690D01*
X103857644Y-98721119D01*
X103564443Y-98916998D01*
X103376043Y-98916998D01*
X103274090Y-98758559D01*
X103061890Y-98613569D01*
X102810000Y-98562560D01*
X101110000Y-98562560D01*
X100874683Y-98606838D01*
X100658559Y-98745910D01*
X100513569Y-98958110D01*
X100462560Y-99210000D01*
X85710000Y-99210000D01*
X85710000Y-97047484D01*
X124502415Y-97047484D01*
X124652056Y-97409644D01*
X124928899Y-97686970D01*
X125290797Y-97837243D01*
X125682654Y-97837585D01*
X125867921Y-97761034D01*
X125941314Y-97834555D01*
X126303212Y-97984828D01*
X126695069Y-97985170D01*
X127057229Y-97835529D01*
X127334555Y-97558686D01*
X127484828Y-97196788D01*
X127485170Y-96804931D01*
X127335529Y-96442771D01*
X127260000Y-96367110D01*
X127260000Y-85633111D01*
X127334555Y-85558686D01*
X127484828Y-85196788D01*
X127485170Y-84804931D01*
X127335529Y-84442771D01*
X127058686Y-84165445D01*
X126696788Y-84015172D01*
X126304931Y-84014830D01*
X125942771Y-84164471D01*
X125665445Y-84441314D01*
X125515172Y-84803212D01*
X125514830Y-85195069D01*
X125664471Y-85557229D01*
X125740000Y-85632890D01*
X125740000Y-90533115D01*
X125696788Y-90515172D01*
X125304931Y-90514830D01*
X124942771Y-90664471D01*
X124665445Y-90941314D01*
X124515172Y-91303212D01*
X124514830Y-91695069D01*
X124664471Y-92057229D01*
X124727585Y-92120453D01*
X124727585Y-96219304D01*
X124653030Y-96293729D01*
X124502757Y-96655627D01*
X124502415Y-97047484D01*
X85710000Y-97047484D01*
X85710000Y-72195069D01*
X87014830Y-72195069D01*
X87164471Y-72557229D01*
X87441314Y-72834555D01*
X87803212Y-72984828D01*
X88015013Y-72985013D01*
X88014830Y-73195069D01*
X88164471Y-73557229D01*
X88441314Y-73834555D01*
X88803212Y-73984828D01*
X89015013Y-73985013D01*
X89014830Y-74195069D01*
X89164471Y-74557229D01*
X89441314Y-74834555D01*
X89803212Y-74984828D01*
X90195069Y-74985170D01*
X90557229Y-74835529D01*
X90632890Y-74760000D01*
X94033115Y-74760000D01*
X94015172Y-74803212D01*
X94014872Y-75147252D01*
X93696788Y-75015172D01*
X93304931Y-75014830D01*
X92942771Y-75164471D01*
X92665445Y-75441314D01*
X92515172Y-75803212D01*
X92514830Y-76195069D01*
X92664471Y-76557229D01*
X92941314Y-76834555D01*
X93303212Y-76984828D01*
X93695069Y-76985170D01*
X94057229Y-76835529D01*
X94132890Y-76760000D01*
X95033115Y-76760000D01*
X95015172Y-76803212D01*
X95014830Y-77195069D01*
X95164471Y-77557229D01*
X95441314Y-77834555D01*
X95803212Y-77984828D01*
X96195069Y-77985170D01*
X96515129Y-77852924D01*
X96514830Y-78195069D01*
X96664471Y-78557229D01*
X96941314Y-78834555D01*
X97303212Y-78984828D01*
X97515013Y-78985013D01*
X97514830Y-79195069D01*
X97664471Y-79557229D01*
X97941314Y-79834555D01*
X98303212Y-79984828D01*
X98695069Y-79985170D01*
X99057229Y-79835529D01*
X99167210Y-79725740D01*
X99285813Y-79702148D01*
X99301994Y-79691336D01*
X104915859Y-79691336D01*
X104665445Y-79941314D01*
X104515172Y-80303212D01*
X104514987Y-80515013D01*
X104304931Y-80514830D01*
X103942771Y-80664471D01*
X103665445Y-80941314D01*
X103515172Y-81303212D01*
X103514830Y-81695069D01*
X103664471Y-82057229D01*
X103941314Y-82334555D01*
X104303212Y-82484828D01*
X104695069Y-82485170D01*
X105057229Y-82335529D01*
X105132890Y-82260000D01*
X115366889Y-82260000D01*
X115441314Y-82334555D01*
X115803212Y-82484828D01*
X116195069Y-82485170D01*
X116557229Y-82335529D01*
X116834555Y-82058686D01*
X116984828Y-81696788D01*
X116985013Y-81484987D01*
X117195069Y-81485170D01*
X117557229Y-81335529D01*
X117834555Y-81058686D01*
X117984828Y-80696788D01*
X117984917Y-80594585D01*
X118126397Y-80594708D01*
X118488557Y-80445067D01*
X118765883Y-80168224D01*
X118915268Y-79808464D01*
X118941314Y-79834555D01*
X119303212Y-79984828D01*
X119695069Y-79985170D01*
X120057229Y-79835529D01*
X120334555Y-79558686D01*
X120484828Y-79196788D01*
X120485170Y-78804931D01*
X120466605Y-78760000D01*
X123366889Y-78760000D01*
X123441314Y-78834555D01*
X123803212Y-78984828D01*
X124195069Y-78985170D01*
X124557229Y-78835529D01*
X124834555Y-78558686D01*
X124984828Y-78196788D01*
X124985170Y-77804931D01*
X124835529Y-77442771D01*
X124558686Y-77165445D01*
X124196788Y-77015172D01*
X123984987Y-77014987D01*
X123985170Y-76804931D01*
X123835529Y-76442771D01*
X123558686Y-76165445D01*
X123196788Y-76015172D01*
X122984987Y-76014987D01*
X122985170Y-75804931D01*
X122835529Y-75442771D01*
X122558686Y-75165445D01*
X122196788Y-75015172D01*
X121984987Y-75014987D01*
X121985170Y-74804931D01*
X121835529Y-74442771D01*
X121558686Y-74165445D01*
X121196788Y-74015172D01*
X120804931Y-74014830D01*
X120442771Y-74164471D01*
X120367110Y-74240000D01*
X111133111Y-74240000D01*
X111058686Y-74165445D01*
X110696788Y-74015172D01*
X110484987Y-74014987D01*
X110485170Y-73804931D01*
X110335529Y-73442771D01*
X110058686Y-73165445D01*
X109696788Y-73015172D01*
X109484987Y-73014987D01*
X109485170Y-72804931D01*
X109335529Y-72442771D01*
X109058686Y-72165445D01*
X108696788Y-72015172D01*
X108484987Y-72014987D01*
X108485170Y-71804931D01*
X108335529Y-71442771D01*
X108058686Y-71165445D01*
X107696788Y-71015172D01*
X107304931Y-71014830D01*
X106942771Y-71164471D01*
X106867110Y-71240000D01*
X88633111Y-71240000D01*
X88558686Y-71165445D01*
X88196788Y-71015172D01*
X87804931Y-71014830D01*
X87442771Y-71164471D01*
X87165445Y-71441314D01*
X87015172Y-71803212D01*
X87014830Y-72195069D01*
X85710000Y-72195069D01*
X85710000Y-61710000D01*
X86962560Y-61710000D01*
X86962560Y-63410000D01*
X87006838Y-63645317D01*
X87145910Y-63861441D01*
X87358110Y-64006431D01*
X87414454Y-64017841D01*
X87409946Y-64020853D01*
X87088039Y-64502622D01*
X86975000Y-65070907D01*
X86975000Y-65129093D01*
X87088039Y-65697378D01*
X87409946Y-66179147D01*
X87891715Y-66501054D01*
X88460000Y-66614093D01*
X89028285Y-66501054D01*
X89510054Y-66179147D01*
X89515000Y-66171745D01*
X89515000Y-66243002D01*
X90064443Y-66243002D01*
X90357644Y-66438881D01*
X90575000Y-66356310D01*
X90575000Y-65525000D01*
X90150000Y-65525000D01*
X90150000Y-64675000D01*
X90575000Y-64675000D01*
X90575000Y-64250000D01*
X91425000Y-64250000D01*
X91425000Y-64675000D01*
X91850000Y-64675000D01*
X91850000Y-65525000D01*
X91425000Y-65525000D01*
X91425000Y-66356310D01*
X91642356Y-66438881D01*
X91935557Y-66243002D01*
X92485000Y-66243002D01*
X92485000Y-66171745D01*
X92489946Y-66179147D01*
X92971715Y-66501054D01*
X93540000Y-66614093D01*
X94108285Y-66501054D01*
X94590054Y-66179147D01*
X94810000Y-65849974D01*
X95029946Y-66179147D01*
X95511715Y-66501054D01*
X96080000Y-66614093D01*
X96648285Y-66501054D01*
X97130054Y-66179147D01*
X97350000Y-65849974D01*
X97569946Y-66179147D01*
X98051715Y-66501054D01*
X98620000Y-66614093D01*
X99188285Y-66501054D01*
X99670054Y-66179147D01*
X99675000Y-66171745D01*
X99675000Y-66243002D01*
X100224443Y-66243002D01*
X100517644Y-66438881D01*
X100735000Y-66356310D01*
X100735000Y-65525000D01*
X101585000Y-65525000D01*
X101585000Y-66356310D01*
X101802356Y-66438881D01*
X102151175Y-66205845D01*
X102430000Y-65834214D01*
X102708825Y-66205845D01*
X103057644Y-66438881D01*
X103275000Y-66356310D01*
X103275000Y-65525000D01*
X104125000Y-65525000D01*
X104125000Y-66356310D01*
X104342356Y-66438881D01*
X104691175Y-66205845D01*
X104970000Y-65834214D01*
X105248825Y-66205845D01*
X105597644Y-66438881D01*
X105815000Y-66356310D01*
X105815000Y-65525000D01*
X106665000Y-65525000D01*
X106665000Y-66356310D01*
X106882356Y-66438881D01*
X107231175Y-66205845D01*
X107578915Y-65742361D01*
X107504168Y-65525000D01*
X106665000Y-65525000D01*
X105815000Y-65525000D01*
X104975832Y-65525000D01*
X104970000Y-65541959D01*
X104964168Y-65525000D01*
X104125000Y-65525000D01*
X103275000Y-65525000D01*
X102435832Y-65525000D01*
X102430000Y-65541959D01*
X102424168Y-65525000D01*
X101585000Y-65525000D01*
X100735000Y-65525000D01*
X100310000Y-65525000D01*
X100310000Y-64675000D01*
X100735000Y-64675000D01*
X100735000Y-64250000D01*
X101585000Y-64250000D01*
X101585000Y-64675000D01*
X102424168Y-64675000D01*
X102430000Y-64658041D01*
X102435832Y-64675000D01*
X103275000Y-64675000D01*
X103275000Y-64250000D01*
X104125000Y-64250000D01*
X104125000Y-64675000D01*
X104964168Y-64675000D01*
X104970000Y-64658041D01*
X104975832Y-64675000D01*
X105815000Y-64675000D01*
X105815000Y-64250000D01*
X106665000Y-64250000D01*
X106665000Y-64675000D01*
X107504168Y-64675000D01*
X107578915Y-64457639D01*
X107383002Y-64196517D01*
X107383002Y-63615000D01*
X107306188Y-63615000D01*
X107611961Y-63157378D01*
X107725000Y-62589093D01*
X107725000Y-62530907D01*
X107611961Y-61962622D01*
X107443165Y-61710000D01*
X113962560Y-61710000D01*
X113962560Y-63410000D01*
X114006838Y-63645317D01*
X114145910Y-63861441D01*
X114358110Y-64006431D01*
X114414454Y-64017841D01*
X114409946Y-64020853D01*
X114088039Y-64502622D01*
X113975000Y-65070907D01*
X113975000Y-65129093D01*
X114088039Y-65697378D01*
X114409946Y-66179147D01*
X114891715Y-66501054D01*
X115460000Y-66614093D01*
X116028285Y-66501054D01*
X116510054Y-66179147D01*
X116515000Y-66171745D01*
X116515000Y-66243002D01*
X117064443Y-66243002D01*
X117357644Y-66438881D01*
X117575000Y-66356310D01*
X117575000Y-65525000D01*
X117150000Y-65525000D01*
X117150000Y-64675000D01*
X117575000Y-64675000D01*
X117575000Y-64250000D01*
X118425000Y-64250000D01*
X118425000Y-64675000D01*
X118850000Y-64675000D01*
X118850000Y-65525000D01*
X118425000Y-65525000D01*
X118425000Y-66356310D01*
X118642356Y-66438881D01*
X118935557Y-66243002D01*
X119485000Y-66243002D01*
X119485000Y-66171745D01*
X119489946Y-66179147D01*
X119971715Y-66501054D01*
X120540000Y-66614093D01*
X121108285Y-66501054D01*
X121590054Y-66179147D01*
X121810000Y-65849974D01*
X122029946Y-66179147D01*
X122511715Y-66501054D01*
X123080000Y-66614093D01*
X123648285Y-66501054D01*
X124130054Y-66179147D01*
X124350000Y-65849974D01*
X124569946Y-66179147D01*
X125051715Y-66501054D01*
X125620000Y-66614093D01*
X126188285Y-66501054D01*
X126670054Y-66179147D01*
X126675000Y-66171745D01*
X126675000Y-66243002D01*
X127224443Y-66243002D01*
X127517644Y-66438881D01*
X127735000Y-66356310D01*
X127735000Y-65525000D01*
X128585000Y-65525000D01*
X128585000Y-66356310D01*
X128802356Y-66438881D01*
X129151175Y-66205845D01*
X129430000Y-65834214D01*
X129708825Y-66205845D01*
X130057644Y-66438881D01*
X130275000Y-66356310D01*
X130275000Y-65525000D01*
X131125000Y-65525000D01*
X131125000Y-66356310D01*
X131342356Y-66438881D01*
X131691175Y-66205845D01*
X131970000Y-65834214D01*
X132248825Y-66205845D01*
X132597644Y-66438881D01*
X132815000Y-66356310D01*
X132815000Y-65525000D01*
X133665000Y-65525000D01*
X133665000Y-66356310D01*
X133882356Y-66438881D01*
X134231175Y-66205845D01*
X134578915Y-65742361D01*
X134504168Y-65525000D01*
X133665000Y-65525000D01*
X132815000Y-65525000D01*
X131975832Y-65525000D01*
X131970000Y-65541959D01*
X131964168Y-65525000D01*
X131125000Y-65525000D01*
X130275000Y-65525000D01*
X129435832Y-65525000D01*
X129430000Y-65541959D01*
X129424168Y-65525000D01*
X128585000Y-65525000D01*
X127735000Y-65525000D01*
X127310000Y-65525000D01*
X127310000Y-64675000D01*
X127735000Y-64675000D01*
X127735000Y-64250000D01*
X128585000Y-64250000D01*
X128585000Y-64675000D01*
X129424168Y-64675000D01*
X129430000Y-64658041D01*
X129435832Y-64675000D01*
X130275000Y-64675000D01*
X130275000Y-64250000D01*
X131125000Y-64250000D01*
X131125000Y-64675000D01*
X131964168Y-64675000D01*
X131970000Y-64658041D01*
X131975832Y-64675000D01*
X132815000Y-64675000D01*
X132815000Y-64250000D01*
X133665000Y-64250000D01*
X133665000Y-64675000D01*
X134504168Y-64675000D01*
X134578915Y-64457639D01*
X134383002Y-64196517D01*
X134383002Y-63615000D01*
X134306188Y-63615000D01*
X134611961Y-63157378D01*
X134725000Y-62589093D01*
X134725000Y-62530907D01*
X134611961Y-61962622D01*
X134290054Y-61480853D01*
X133808285Y-61158946D01*
X133240000Y-61045907D01*
X132671715Y-61158946D01*
X132189946Y-61480853D01*
X131970000Y-61810026D01*
X131750054Y-61480853D01*
X131268285Y-61158946D01*
X130700000Y-61045907D01*
X130131715Y-61158946D01*
X129649946Y-61480853D01*
X129430000Y-61810026D01*
X129210054Y-61480853D01*
X128728285Y-61158946D01*
X128160000Y-61045907D01*
X127591715Y-61158946D01*
X127109946Y-61480853D01*
X126890000Y-61810026D01*
X126670054Y-61480853D01*
X126188285Y-61158946D01*
X125620000Y-61045907D01*
X125051715Y-61158946D01*
X124569946Y-61480853D01*
X124350000Y-61810026D01*
X124130054Y-61480853D01*
X123648285Y-61158946D01*
X123080000Y-61045907D01*
X122511715Y-61158946D01*
X122029946Y-61480853D01*
X121810000Y-61810026D01*
X121590054Y-61480853D01*
X121108285Y-61158946D01*
X120540000Y-61045907D01*
X119971715Y-61158946D01*
X119489946Y-61480853D01*
X119270000Y-61810026D01*
X119050054Y-61480853D01*
X118568285Y-61158946D01*
X118000000Y-61045907D01*
X117431715Y-61158946D01*
X116949946Y-61480853D01*
X116922150Y-61522452D01*
X116913162Y-61474683D01*
X116774090Y-61258559D01*
X116561890Y-61113569D01*
X116310000Y-61062560D01*
X114610000Y-61062560D01*
X114374683Y-61106838D01*
X114158559Y-61245910D01*
X114013569Y-61458110D01*
X113962560Y-61710000D01*
X107443165Y-61710000D01*
X107290054Y-61480853D01*
X106808285Y-61158946D01*
X106240000Y-61045907D01*
X105671715Y-61158946D01*
X105189946Y-61480853D01*
X104970000Y-61810026D01*
X104750054Y-61480853D01*
X104268285Y-61158946D01*
X103700000Y-61045907D01*
X103131715Y-61158946D01*
X102649946Y-61480853D01*
X102430000Y-61810026D01*
X102210054Y-61480853D01*
X101728285Y-61158946D01*
X101160000Y-61045907D01*
X100591715Y-61158946D01*
X100109946Y-61480853D01*
X99890000Y-61810026D01*
X99670054Y-61480853D01*
X99188285Y-61158946D01*
X98620000Y-61045907D01*
X98051715Y-61158946D01*
X97569946Y-61480853D01*
X97350000Y-61810026D01*
X97130054Y-61480853D01*
X96648285Y-61158946D01*
X96080000Y-61045907D01*
X95511715Y-61158946D01*
X95029946Y-61480853D01*
X94810000Y-61810026D01*
X94590054Y-61480853D01*
X94108285Y-61158946D01*
X93540000Y-61045907D01*
X92971715Y-61158946D01*
X92489946Y-61480853D01*
X92270000Y-61810026D01*
X92050054Y-61480853D01*
X91568285Y-61158946D01*
X91000000Y-61045907D01*
X90431715Y-61158946D01*
X89949946Y-61480853D01*
X89922150Y-61522452D01*
X89913162Y-61474683D01*
X89774090Y-61258559D01*
X89561890Y-61113569D01*
X89310000Y-61062560D01*
X87610000Y-61062560D01*
X87374683Y-61106838D01*
X87158559Y-61245910D01*
X87013569Y-61458110D01*
X86962560Y-61710000D01*
X85710000Y-61710000D01*
X85710000Y-55700000D01*
X102052560Y-55700000D01*
X102052560Y-57300000D01*
X102096838Y-57535317D01*
X102235910Y-57751441D01*
X102448110Y-57896431D01*
X102700000Y-57947440D01*
X104300000Y-57947440D01*
X104535317Y-57903162D01*
X104751441Y-57764090D01*
X104896431Y-57551890D01*
X104947440Y-57300000D01*
X104947440Y-55700000D01*
X129052560Y-55700000D01*
X129052560Y-57300000D01*
X129096838Y-57535317D01*
X129235910Y-57751441D01*
X129448110Y-57896431D01*
X129700000Y-57947440D01*
X131300000Y-57947440D01*
X131535317Y-57903162D01*
X131751441Y-57764090D01*
X131896431Y-57551890D01*
X131947440Y-57300000D01*
X131947440Y-55700000D01*
X131903162Y-55464683D01*
X131764090Y-55248559D01*
X131551890Y-55103569D01*
X131300000Y-55052560D01*
X130986875Y-55052560D01*
X130500000Y-54565685D01*
X130013125Y-55052560D01*
X129700000Y-55052560D01*
X129464683Y-55096838D01*
X129248559Y-55235910D01*
X129103569Y-55448110D01*
X129052560Y-55700000D01*
X104947440Y-55700000D01*
X104903162Y-55464683D01*
X104764090Y-55248559D01*
X104551890Y-55103569D01*
X104300000Y-55052560D01*
X103986875Y-55052560D01*
X103500000Y-54565685D01*
X103013125Y-55052560D01*
X102700000Y-55052560D01*
X102464683Y-55096838D01*
X102248559Y-55235910D01*
X102103569Y-55448110D01*
X102052560Y-55700000D01*
X85710000Y-55700000D01*
X85710000Y-54060403D01*
X102038135Y-54060403D01*
X102126297Y-54503626D01*
X102339273Y-54595042D01*
X102934315Y-54000000D01*
X104065685Y-54000000D01*
X104660727Y-54595042D01*
X104873703Y-54503626D01*
X104942982Y-54060403D01*
X129038135Y-54060403D01*
X129126297Y-54503626D01*
X129339273Y-54595042D01*
X129934315Y-54000000D01*
X131065685Y-54000000D01*
X131660727Y-54595042D01*
X131873703Y-54503626D01*
X131961865Y-53939597D01*
X131873703Y-53496374D01*
X131660727Y-53404958D01*
X131065685Y-54000000D01*
X129934315Y-54000000D01*
X129339273Y-53404958D01*
X129126297Y-53496374D01*
X129038135Y-54060403D01*
X104942982Y-54060403D01*
X104961865Y-53939597D01*
X104873703Y-53496374D01*
X104660727Y-53404958D01*
X104065685Y-54000000D01*
X102934315Y-54000000D01*
X102339273Y-53404958D01*
X102126297Y-53496374D01*
X102038135Y-54060403D01*
X85710000Y-54060403D01*
X85710000Y-52839273D01*
X102904958Y-52839273D01*
X103500000Y-53434315D01*
X104095042Y-52839273D01*
X129904958Y-52839273D01*
X130500000Y-53434315D01*
X131095042Y-52839273D01*
X131003626Y-52626297D01*
X130439597Y-52538135D01*
X129996374Y-52626297D01*
X129904958Y-52839273D01*
X104095042Y-52839273D01*
X104003626Y-52626297D01*
X103439597Y-52538135D01*
X102996374Y-52626297D01*
X102904958Y-52839273D01*
X85710000Y-52839273D01*
X85710000Y-50710000D01*
X139290000Y-50710000D01*
X139290000Y-144290000D01*
M02*
