G04 #@! TF.FileFunction,Copper,L1,Top,Signal*
%FSLAX46Y46*%
G04 Gerber Fmt 4.6, Leading zero omitted, Abs format (unit mm)*
G04 Created by KiCad (PCBNEW 4.0.7) date 03/15/18 12:31:10*
%MOMM*%
%LPD*%
G01*
G04 APERTURE LIST*
%ADD10C,0.100000*%
%ADD11R,1.700000X1.700000*%
%ADD12O,1.700000X1.700000*%
%ADD13R,3.000000X3.000000*%
%ADD14C,3.000000*%
%ADD15R,1.500000X0.600000*%
%ADD16R,1.200000X0.750000*%
%ADD17R,1.600000X1.600000*%
%ADD18C,1.600000*%
%ADD19C,0.700000*%
%ADD20C,0.500000*%
%ADD21C,0.250000*%
%ADD22C,0.254000*%
G04 APERTURE END LIST*
D10*
D11*
X101960000Y-100060000D03*
D12*
X101960000Y-102600000D03*
X104500000Y-100060000D03*
X104500000Y-102600000D03*
X107040000Y-100060000D03*
X107040000Y-102600000D03*
X109580000Y-100060000D03*
X109580000Y-102600000D03*
X112120000Y-100060000D03*
X112120000Y-102600000D03*
X114660000Y-100060000D03*
X114660000Y-102600000D03*
X117200000Y-100060000D03*
X117200000Y-102600000D03*
X119740000Y-100060000D03*
X119740000Y-102600000D03*
D13*
X135000000Y-107420000D03*
D14*
X135000000Y-112500000D03*
D11*
X115460000Y-137560000D03*
D12*
X115460000Y-140100000D03*
X118000000Y-137560000D03*
X118000000Y-140100000D03*
X120540000Y-137560000D03*
X120540000Y-140100000D03*
X123080000Y-137560000D03*
X123080000Y-140100000D03*
X125620000Y-137560000D03*
X125620000Y-140100000D03*
X128160000Y-137560000D03*
X128160000Y-140100000D03*
X130700000Y-137560000D03*
X130700000Y-140100000D03*
X133240000Y-137560000D03*
X133240000Y-140100000D03*
D11*
X88460000Y-137560000D03*
D12*
X88460000Y-140100000D03*
X91000000Y-137560000D03*
X91000000Y-140100000D03*
X93540000Y-137560000D03*
X93540000Y-140100000D03*
X96080000Y-137560000D03*
X96080000Y-140100000D03*
X98620000Y-137560000D03*
X98620000Y-140100000D03*
X101160000Y-137560000D03*
X101160000Y-140100000D03*
X103700000Y-137560000D03*
X103700000Y-140100000D03*
X106240000Y-137560000D03*
X106240000Y-140100000D03*
D11*
X115460000Y-62560000D03*
D12*
X115460000Y-65100000D03*
X118000000Y-62560000D03*
X118000000Y-65100000D03*
X120540000Y-62560000D03*
X120540000Y-65100000D03*
X123080000Y-62560000D03*
X123080000Y-65100000D03*
X125620000Y-62560000D03*
X125620000Y-65100000D03*
X128160000Y-62560000D03*
X128160000Y-65100000D03*
X130700000Y-62560000D03*
X130700000Y-65100000D03*
X133240000Y-62560000D03*
X133240000Y-65100000D03*
D11*
X88460000Y-62560000D03*
D12*
X88460000Y-65100000D03*
X91000000Y-62560000D03*
X91000000Y-65100000D03*
X93540000Y-62560000D03*
X93540000Y-65100000D03*
X96080000Y-62560000D03*
X96080000Y-65100000D03*
X98620000Y-62560000D03*
X98620000Y-65100000D03*
X101160000Y-62560000D03*
X101160000Y-65100000D03*
X103700000Y-62560000D03*
X103700000Y-65100000D03*
X106240000Y-62560000D03*
X106240000Y-65100000D03*
D15*
X124409384Y-89817896D03*
X124409384Y-88547896D03*
X124409384Y-87277896D03*
X124409384Y-86007896D03*
X124409384Y-84737896D03*
X124409384Y-83467896D03*
X124409384Y-82197896D03*
X119009384Y-82197896D03*
X119009384Y-83467896D03*
X119009384Y-84737896D03*
X119009384Y-86007896D03*
X119009384Y-87277896D03*
X119009384Y-88547896D03*
X119009384Y-89817896D03*
D16*
X119000000Y-92500000D03*
X120900000Y-92500000D03*
D17*
X103500000Y-56500000D03*
D18*
X103500000Y-54000000D03*
D17*
X130500000Y-56500000D03*
D18*
X130500000Y-54000000D03*
D17*
X103500000Y-131500000D03*
D18*
X103500000Y-129000000D03*
D17*
X130500000Y-131500000D03*
D18*
X130500000Y-129000000D03*
D19*
X122500000Y-82500000D03*
X123000000Y-92500000D03*
X115500000Y-107000000D03*
X115500000Y-117000000D03*
X116000000Y-81500000D03*
X104500000Y-81500000D03*
X116500000Y-106000000D03*
X116500000Y-118000000D03*
X117000000Y-80500000D03*
X105500000Y-80500000D03*
X117579690Y-105407777D03*
X117500000Y-119000000D03*
X117931328Y-79609538D03*
X106500000Y-79678210D03*
X118500000Y-120000000D03*
X95000000Y-75000000D03*
X121000000Y-75000000D03*
X110500000Y-75000000D03*
X119322363Y-104909622D03*
X119500000Y-121000000D03*
X93500000Y-76000000D03*
X122000000Y-76000000D03*
X111500000Y-76000000D03*
X126500000Y-85000000D03*
X126500000Y-97000000D03*
X119500000Y-79000000D03*
X98500000Y-79000000D03*
X122500000Y-124000000D03*
X122500000Y-105000000D03*
X122000000Y-99000000D03*
X88000000Y-72000000D03*
X107500000Y-72000000D03*
X89000000Y-73000000D03*
X108500000Y-73000000D03*
X90000000Y-74000000D03*
X109500000Y-74000000D03*
X121500000Y-105000000D03*
X121500000Y-123000000D03*
X97500000Y-78000000D03*
X124000000Y-78000000D03*
X113500000Y-78000000D03*
X120500000Y-105000000D03*
X120500000Y-122000000D03*
X96000000Y-77000000D03*
X123000000Y-77000000D03*
X112500000Y-77000000D03*
X125500000Y-91500000D03*
X125487585Y-96852415D03*
D20*
X124409384Y-82197896D02*
X122802104Y-82197896D01*
X122802104Y-82197896D02*
X122500000Y-82500000D01*
X120900000Y-92500000D02*
X123000000Y-92500000D01*
D21*
X115500000Y-107000000D02*
X115500000Y-117000000D01*
X116000000Y-67500000D02*
X114281799Y-65781799D01*
X114281799Y-65781799D02*
X114281799Y-62638201D01*
X114281799Y-62638201D02*
X114360000Y-62560000D01*
X114360000Y-62560000D02*
X115460000Y-62560000D01*
X116000000Y-81500000D02*
X116000000Y-67500000D01*
X104500000Y-94000000D02*
X104500000Y-81500000D01*
X100781799Y-97718201D02*
X104500000Y-94000000D01*
X101960000Y-102600000D02*
X100781799Y-101421799D01*
X100781799Y-101421799D02*
X100781799Y-97718201D01*
X115500000Y-137520000D02*
X115460000Y-137560000D01*
X116500000Y-106000000D02*
X116500000Y-118000000D01*
X117000000Y-66640000D02*
X115460000Y-65100000D01*
X117000000Y-80500000D02*
X117000000Y-66640000D01*
X105500000Y-94500000D02*
X105500000Y-80500000D01*
X101960000Y-98040000D02*
X105500000Y-94500000D01*
X101960000Y-100060000D02*
X101960000Y-98040000D01*
X115000000Y-65560000D02*
X115460000Y-65100000D01*
X117579690Y-108420310D02*
X117579690Y-105407777D01*
X117500000Y-108500000D02*
X117579690Y-108420310D01*
X117500000Y-108500000D02*
X117500000Y-119000000D01*
X117931328Y-66930392D02*
X117931328Y-79609538D01*
X116821799Y-65820863D02*
X117931328Y-66930392D01*
X118000000Y-62560000D02*
X116821799Y-63738201D01*
X116821799Y-63738201D02*
X116821799Y-65820863D01*
X103321799Y-98178201D02*
X106500000Y-95000000D01*
X106500000Y-95000000D02*
X106500000Y-79678210D01*
X103321799Y-101421799D02*
X103321799Y-98178201D01*
X104500000Y-102600000D02*
X103321799Y-101421799D01*
X117500000Y-137060000D02*
X118000000Y-137560000D01*
X104500000Y-102600000D02*
X104500000Y-103000000D01*
X118500000Y-105000000D02*
X118500000Y-120000000D01*
X118000000Y-104500000D02*
X118500000Y-105000000D01*
X114020000Y-104500000D02*
X118000000Y-104500000D01*
X112120000Y-102600000D02*
X114020000Y-104500000D01*
X118500000Y-120000000D02*
X103500000Y-120000000D01*
X103500000Y-120000000D02*
X93540000Y-129960000D01*
X93540000Y-129960000D02*
X93540000Y-137560000D01*
X94718201Y-74718201D02*
X95000000Y-75000000D01*
X93540000Y-62560000D02*
X94718201Y-63738201D01*
X94718201Y-63738201D02*
X94718201Y-74718201D01*
X119171869Y-65671869D02*
X119178201Y-65665537D01*
X119178201Y-65665537D02*
X119178201Y-63921799D01*
X119178201Y-63921799D02*
X120540000Y-62560000D01*
X121000000Y-67500000D02*
X119171869Y-65671869D01*
X121000000Y-75000000D02*
X121000000Y-67500000D01*
X110941799Y-92941799D02*
X110500000Y-92500000D01*
X110500000Y-92500000D02*
X110500000Y-75000000D01*
X112120000Y-102600000D02*
X110941799Y-101421799D01*
X110941799Y-101421799D02*
X110941799Y-92941799D01*
X93000000Y-137020000D02*
X93540000Y-137560000D01*
X112079986Y-102640014D02*
X112120000Y-102600000D01*
X120500000Y-137520000D02*
X120540000Y-137560000D01*
X120540000Y-137555474D02*
X120540000Y-137560000D01*
X119322363Y-107822363D02*
X119322363Y-104909622D01*
X119500000Y-108000000D02*
X119322363Y-107822363D01*
X119500000Y-108000000D02*
X119500000Y-121000000D01*
X119500000Y-121000000D02*
X103500000Y-121000000D01*
X103500000Y-121000000D02*
X94901799Y-129598201D01*
X94901799Y-129598201D02*
X94901799Y-138738201D01*
X94901799Y-138738201D02*
X93540000Y-140100000D01*
X93540000Y-65100000D02*
X93540000Y-75960000D01*
X93540000Y-75960000D02*
X93500000Y-76000000D01*
X122000000Y-76000000D02*
X122000000Y-66560000D01*
X122000000Y-66560000D02*
X120540000Y-65100000D01*
X112120000Y-93120000D02*
X111500000Y-92500000D01*
X111500000Y-92500000D02*
X111500000Y-76000000D01*
X112120000Y-100060000D02*
X112120000Y-93120000D01*
X94000000Y-65560000D02*
X93540000Y-65100000D01*
X120500000Y-65140000D02*
X120540000Y-65100000D01*
X126500000Y-85000000D02*
X124967896Y-83467896D01*
X124967896Y-83467896D02*
X124409384Y-83467896D01*
X126500000Y-97583738D02*
X126500000Y-97000000D01*
X124859384Y-83467896D02*
X124409384Y-83467896D01*
X114660000Y-102600000D02*
X115838201Y-103778201D01*
X115838201Y-103778201D02*
X120305537Y-103778201D01*
X120305537Y-103778201D02*
X126500000Y-97583738D01*
X124377280Y-83500000D02*
X124409384Y-83467896D01*
X124449384Y-83507896D02*
X124409384Y-83467896D01*
X124500000Y-79000000D02*
X125620000Y-77880000D01*
X119500000Y-79000000D02*
X124500000Y-79000000D01*
X117931183Y-80568817D02*
X119500000Y-79000000D01*
X117931183Y-84659695D02*
X117931183Y-80568817D01*
X98620000Y-65100000D02*
X98620000Y-78880000D01*
X98620000Y-78880000D02*
X98500000Y-79000000D01*
X125620000Y-77880000D02*
X125620000Y-65100000D01*
X119009384Y-84737896D02*
X118009384Y-84737896D01*
X118009384Y-84737896D02*
X117931183Y-84659695D01*
X118559384Y-84737896D02*
X119009384Y-84737896D01*
D20*
X119009384Y-89817896D02*
X119009384Y-92490616D01*
X119009384Y-92490616D02*
X119000000Y-92500000D01*
D21*
X103500000Y-124000000D02*
X99981799Y-127518201D01*
X99981799Y-127518201D02*
X99981799Y-138738201D01*
X99981799Y-138738201D02*
X98620000Y-140100000D01*
X122500000Y-124000000D02*
X103500000Y-124000000D01*
X122500000Y-105000000D02*
X122500000Y-124000000D01*
X118559384Y-88547896D02*
X117931183Y-89176097D01*
X117931183Y-89176097D02*
X117931183Y-94931183D01*
X117931183Y-94931183D02*
X122000000Y-99000000D01*
X118559384Y-88547896D02*
X119009384Y-88547896D01*
X118559384Y-88547896D02*
X118511488Y-88500000D01*
X107040000Y-102600000D02*
X107040000Y-112460000D01*
X107040000Y-112460000D02*
X88460000Y-131040000D01*
X88460000Y-131040000D02*
X88460000Y-137560000D01*
X88000000Y-72000000D02*
X87281799Y-71281799D01*
X87281799Y-71281799D02*
X87281799Y-62638201D01*
X87281799Y-62638201D02*
X87360000Y-62560000D01*
X87360000Y-62560000D02*
X88460000Y-62560000D01*
X107500000Y-95500000D02*
X107500000Y-72000000D01*
X105861799Y-97138201D02*
X107500000Y-95500000D01*
X107040000Y-102600000D02*
X105861799Y-101421799D01*
X105861799Y-101421799D02*
X105861799Y-97138201D01*
X88500000Y-137520000D02*
X88460000Y-137560000D01*
X88460000Y-140100000D02*
X89638201Y-138921799D01*
X89638201Y-131361799D02*
X108218201Y-112781799D01*
X89638201Y-138921799D02*
X89638201Y-131361799D01*
X108218201Y-112781799D02*
X108218201Y-101238201D01*
X108218201Y-101238201D02*
X107040000Y-100060000D01*
X89000000Y-73000000D02*
X89000000Y-65640000D01*
X89000000Y-65640000D02*
X88460000Y-65100000D01*
X108500000Y-96000000D02*
X108500000Y-73000000D01*
X107040000Y-97460000D02*
X108500000Y-96000000D01*
X107040000Y-100060000D02*
X107040000Y-97460000D01*
X88000000Y-65560000D02*
X88460000Y-65100000D01*
X88500000Y-65140000D02*
X88460000Y-65100000D01*
X109580000Y-112920000D02*
X91000000Y-131500000D01*
X91000000Y-131500000D02*
X91000000Y-137560000D01*
X109580000Y-102600000D02*
X109580000Y-112920000D01*
X90000000Y-74000000D02*
X90000000Y-73505026D01*
X90000000Y-73505026D02*
X89821799Y-73326825D01*
X89821799Y-73326825D02*
X89821799Y-63738201D01*
X89821799Y-63738201D02*
X91000000Y-62560000D01*
X109500000Y-97000000D02*
X109500000Y-74000000D01*
X108401799Y-98098201D02*
X109500000Y-97000000D01*
X109580000Y-102600000D02*
X108730001Y-101750001D01*
X108730001Y-101750001D02*
X108730001Y-100953739D01*
X108730001Y-100953739D02*
X108401799Y-100625537D01*
X108401799Y-100625537D02*
X108401799Y-98098201D01*
X90500000Y-137060000D02*
X91000000Y-137560000D01*
X121500000Y-105000000D02*
X121500000Y-123000000D01*
X121500000Y-123000000D02*
X103500000Y-123000000D01*
X103500000Y-123000000D02*
X99000000Y-127500000D01*
X99000000Y-127500000D02*
X99000000Y-137180000D01*
X99000000Y-137180000D02*
X98620000Y-137560000D01*
X98620000Y-62560000D02*
X97441799Y-63738201D01*
X97441799Y-63738201D02*
X97441799Y-77941799D01*
X97441799Y-77941799D02*
X97500000Y-78000000D01*
X124000000Y-67500000D02*
X124258201Y-67241799D01*
X124258201Y-67241799D02*
X124258201Y-63921799D01*
X124258201Y-63921799D02*
X125620000Y-62560000D01*
X124000000Y-78000000D02*
X124000000Y-67500000D01*
X117200000Y-96200000D02*
X113500000Y-92500000D01*
X113500000Y-92500000D02*
X113500000Y-78000000D01*
X117200000Y-100060000D02*
X117200000Y-96200000D01*
X120500000Y-105000000D02*
X120500000Y-122000000D01*
X120500000Y-122000000D02*
X103500000Y-122000000D01*
X103500000Y-122000000D02*
X97258201Y-128241799D01*
X97258201Y-128241799D02*
X97258201Y-138921799D01*
X97258201Y-138921799D02*
X96080000Y-140100000D01*
X96080000Y-65100000D02*
X96080000Y-76920000D01*
X96080000Y-76920000D02*
X96000000Y-77000000D01*
X123000000Y-77000000D02*
X123000000Y-65180000D01*
X123000000Y-65180000D02*
X123080000Y-65100000D01*
X116000000Y-96000000D02*
X112500000Y-92500000D01*
X112500000Y-92500000D02*
X112500000Y-77000000D01*
X116000000Y-101400000D02*
X116000000Y-96000000D01*
X117200000Y-102600000D02*
X116000000Y-101400000D01*
X96000000Y-65180000D02*
X96080000Y-65100000D01*
X125500000Y-91500000D02*
X125500000Y-89188512D01*
X125500000Y-89188512D02*
X124859384Y-88547896D01*
X124859384Y-88547896D02*
X124409384Y-88547896D01*
X125487585Y-96852415D02*
X119740000Y-102600000D01*
X124409384Y-88547896D02*
X123959384Y-88547896D01*
X124859384Y-88547896D02*
X125487585Y-87919695D01*
X125487585Y-87919695D02*
X125487585Y-85366097D01*
X125487585Y-85366097D02*
X124859384Y-84737896D01*
X124859384Y-84737896D02*
X124409384Y-84737896D01*
X124639384Y-84507896D02*
X124409384Y-84737896D01*
X124449384Y-88507896D02*
X124409384Y-88547896D01*
X124409384Y-86007896D02*
X122549384Y-86007896D01*
X122549384Y-86007896D02*
X120009384Y-83467896D01*
X120009384Y-83467896D02*
X119009384Y-83467896D01*
X124409384Y-86007896D02*
X124409384Y-87277896D01*
X124859384Y-87277896D02*
X124409384Y-87277896D01*
X124139384Y-87007896D02*
X124409384Y-87277896D01*
X119009384Y-83467896D02*
X119009384Y-82197896D01*
X123959384Y-89817896D02*
X121419384Y-87277896D01*
X124409384Y-89817896D02*
X123959384Y-89817896D01*
X121419384Y-87277896D02*
X119009384Y-87277896D01*
X119009384Y-86007896D02*
X119009384Y-87277896D01*
X119009384Y-86007896D02*
X119459384Y-86007896D01*
D22*
G36*
X139290000Y-144290000D02*
X85710000Y-144290000D01*
X85710000Y-136710000D01*
X86962560Y-136710000D01*
X86962560Y-138410000D01*
X87006838Y-138645317D01*
X87145910Y-138861441D01*
X87358110Y-139006431D01*
X87414454Y-139017841D01*
X87409946Y-139020853D01*
X87088039Y-139502622D01*
X86975000Y-140070907D01*
X86975000Y-140129093D01*
X87088039Y-140697378D01*
X87409946Y-141179147D01*
X87891715Y-141501054D01*
X88460000Y-141614093D01*
X89028285Y-141501054D01*
X89510054Y-141179147D01*
X89730000Y-140849974D01*
X89949946Y-141179147D01*
X90431715Y-141501054D01*
X91000000Y-141614093D01*
X91568285Y-141501054D01*
X92050054Y-141179147D01*
X92270000Y-140849974D01*
X92489946Y-141179147D01*
X92971715Y-141501054D01*
X93540000Y-141614093D01*
X94108285Y-141501054D01*
X94590054Y-141179147D01*
X94810000Y-140849974D01*
X95029946Y-141179147D01*
X95511715Y-141501054D01*
X96080000Y-141614093D01*
X96648285Y-141501054D01*
X97130054Y-141179147D01*
X97350000Y-140849974D01*
X97569946Y-141179147D01*
X98051715Y-141501054D01*
X98620000Y-141614093D01*
X99188285Y-141501054D01*
X99670054Y-141179147D01*
X99890000Y-140849974D01*
X100109946Y-141179147D01*
X100591715Y-141501054D01*
X101160000Y-141614093D01*
X101728285Y-141501054D01*
X102210054Y-141179147D01*
X102430000Y-140849974D01*
X102649946Y-141179147D01*
X103131715Y-141501054D01*
X103700000Y-141614093D01*
X104268285Y-141501054D01*
X104750054Y-141179147D01*
X104970000Y-140849974D01*
X105189946Y-141179147D01*
X105671715Y-141501054D01*
X106240000Y-141614093D01*
X106808285Y-141501054D01*
X107290054Y-141179147D01*
X107611961Y-140697378D01*
X107725000Y-140129093D01*
X107725000Y-140070907D01*
X107611961Y-139502622D01*
X107306188Y-139045000D01*
X107383002Y-139045000D01*
X107383002Y-138463483D01*
X107578915Y-138202361D01*
X107504168Y-137985000D01*
X106665000Y-137985000D01*
X106665000Y-138410000D01*
X105815000Y-138410000D01*
X105815000Y-137985000D01*
X104975832Y-137985000D01*
X104970000Y-138001959D01*
X104964168Y-137985000D01*
X104125000Y-137985000D01*
X104125000Y-138410000D01*
X103275000Y-138410000D01*
X103275000Y-137985000D01*
X102435832Y-137985000D01*
X102430000Y-138001959D01*
X102424168Y-137985000D01*
X101585000Y-137985000D01*
X101585000Y-138410000D01*
X100741799Y-138410000D01*
X100741799Y-136303690D01*
X101585000Y-136303690D01*
X101585000Y-137135000D01*
X102424168Y-137135000D01*
X102430000Y-137118041D01*
X102435832Y-137135000D01*
X103275000Y-137135000D01*
X103275000Y-136303690D01*
X104125000Y-136303690D01*
X104125000Y-137135000D01*
X104964168Y-137135000D01*
X104970000Y-137118041D01*
X104975832Y-137135000D01*
X105815000Y-137135000D01*
X105815000Y-136303690D01*
X106665000Y-136303690D01*
X106665000Y-137135000D01*
X107504168Y-137135000D01*
X107578915Y-136917639D01*
X107423129Y-136710000D01*
X113962560Y-136710000D01*
X113962560Y-138410000D01*
X114006838Y-138645317D01*
X114145910Y-138861441D01*
X114358110Y-139006431D01*
X114414454Y-139017841D01*
X114409946Y-139020853D01*
X114088039Y-139502622D01*
X113975000Y-140070907D01*
X113975000Y-140129093D01*
X114088039Y-140697378D01*
X114409946Y-141179147D01*
X114891715Y-141501054D01*
X115460000Y-141614093D01*
X116028285Y-141501054D01*
X116510054Y-141179147D01*
X116730000Y-140849974D01*
X116949946Y-141179147D01*
X117431715Y-141501054D01*
X118000000Y-141614093D01*
X118568285Y-141501054D01*
X119050054Y-141179147D01*
X119270000Y-140849974D01*
X119489946Y-141179147D01*
X119971715Y-141501054D01*
X120540000Y-141614093D01*
X121108285Y-141501054D01*
X121590054Y-141179147D01*
X121810000Y-140849974D01*
X122029946Y-141179147D01*
X122511715Y-141501054D01*
X123080000Y-141614093D01*
X123648285Y-141501054D01*
X124130054Y-141179147D01*
X124350000Y-140849974D01*
X124569946Y-141179147D01*
X125051715Y-141501054D01*
X125620000Y-141614093D01*
X126188285Y-141501054D01*
X126670054Y-141179147D01*
X126890000Y-140849974D01*
X127109946Y-141179147D01*
X127591715Y-141501054D01*
X128160000Y-141614093D01*
X128728285Y-141501054D01*
X129210054Y-141179147D01*
X129430000Y-140849974D01*
X129649946Y-141179147D01*
X130131715Y-141501054D01*
X130700000Y-141614093D01*
X131268285Y-141501054D01*
X131750054Y-141179147D01*
X131970000Y-140849974D01*
X132189946Y-141179147D01*
X132671715Y-141501054D01*
X133240000Y-141614093D01*
X133808285Y-141501054D01*
X134290054Y-141179147D01*
X134611961Y-140697378D01*
X134725000Y-140129093D01*
X134725000Y-140070907D01*
X134611961Y-139502622D01*
X134306188Y-139045000D01*
X134383002Y-139045000D01*
X134383002Y-138463483D01*
X134578915Y-138202361D01*
X134504168Y-137985000D01*
X133665000Y-137985000D01*
X133665000Y-138410000D01*
X132815000Y-138410000D01*
X132815000Y-137985000D01*
X131975832Y-137985000D01*
X131970000Y-138001959D01*
X131964168Y-137985000D01*
X131125000Y-137985000D01*
X131125000Y-138410000D01*
X130275000Y-138410000D01*
X130275000Y-137985000D01*
X129435832Y-137985000D01*
X129430000Y-138001959D01*
X129424168Y-137985000D01*
X128585000Y-137985000D01*
X128585000Y-138410000D01*
X127735000Y-138410000D01*
X127735000Y-137985000D01*
X127310000Y-137985000D01*
X127310000Y-137135000D01*
X127735000Y-137135000D01*
X127735000Y-136303690D01*
X128585000Y-136303690D01*
X128585000Y-137135000D01*
X129424168Y-137135000D01*
X129430000Y-137118041D01*
X129435832Y-137135000D01*
X130275000Y-137135000D01*
X130275000Y-136303690D01*
X131125000Y-136303690D01*
X131125000Y-137135000D01*
X131964168Y-137135000D01*
X131970000Y-137118041D01*
X131975832Y-137135000D01*
X132815000Y-137135000D01*
X132815000Y-136303690D01*
X133665000Y-136303690D01*
X133665000Y-137135000D01*
X134504168Y-137135000D01*
X134578915Y-136917639D01*
X134231175Y-136454155D01*
X133882356Y-136221119D01*
X133665000Y-136303690D01*
X132815000Y-136303690D01*
X132597644Y-136221119D01*
X132248825Y-136454155D01*
X131970000Y-136825786D01*
X131691175Y-136454155D01*
X131342356Y-136221119D01*
X131125000Y-136303690D01*
X130275000Y-136303690D01*
X130057644Y-136221119D01*
X129708825Y-136454155D01*
X129430000Y-136825786D01*
X129151175Y-136454155D01*
X128802356Y-136221119D01*
X128585000Y-136303690D01*
X127735000Y-136303690D01*
X127517644Y-136221119D01*
X127224443Y-136416998D01*
X126675000Y-136416998D01*
X126675000Y-136488255D01*
X126670054Y-136480853D01*
X126188285Y-136158946D01*
X125620000Y-136045907D01*
X125051715Y-136158946D01*
X124569946Y-136480853D01*
X124350000Y-136810026D01*
X124130054Y-136480853D01*
X123648285Y-136158946D01*
X123080000Y-136045907D01*
X122511715Y-136158946D01*
X122029946Y-136480853D01*
X121810000Y-136810026D01*
X121590054Y-136480853D01*
X121108285Y-136158946D01*
X120540000Y-136045907D01*
X119971715Y-136158946D01*
X119489946Y-136480853D01*
X119270000Y-136810026D01*
X119050054Y-136480853D01*
X118568285Y-136158946D01*
X118000000Y-136045907D01*
X117431715Y-136158946D01*
X116949946Y-136480853D01*
X116922150Y-136522452D01*
X116913162Y-136474683D01*
X116774090Y-136258559D01*
X116561890Y-136113569D01*
X116310000Y-136062560D01*
X114610000Y-136062560D01*
X114374683Y-136106838D01*
X114158559Y-136245910D01*
X114013569Y-136458110D01*
X113962560Y-136710000D01*
X107423129Y-136710000D01*
X107231175Y-136454155D01*
X106882356Y-136221119D01*
X106665000Y-136303690D01*
X105815000Y-136303690D01*
X105597644Y-136221119D01*
X105248825Y-136454155D01*
X104970000Y-136825786D01*
X104691175Y-136454155D01*
X104342356Y-136221119D01*
X104125000Y-136303690D01*
X103275000Y-136303690D01*
X103057644Y-136221119D01*
X102708825Y-136454155D01*
X102430000Y-136825786D01*
X102151175Y-136454155D01*
X101802356Y-136221119D01*
X101585000Y-136303690D01*
X100741799Y-136303690D01*
X100741799Y-132058750D01*
X102065000Y-132058750D01*
X102065000Y-132426309D01*
X102161673Y-132659698D01*
X102340301Y-132838327D01*
X102573690Y-132935000D01*
X102941250Y-132935000D01*
X103100000Y-132776250D01*
X103100000Y-131900000D01*
X103900000Y-131900000D01*
X103900000Y-132776250D01*
X104058750Y-132935000D01*
X104426310Y-132935000D01*
X104659699Y-132838327D01*
X104838327Y-132659698D01*
X104935000Y-132426309D01*
X104935000Y-132058750D01*
X129065000Y-132058750D01*
X129065000Y-132426309D01*
X129161673Y-132659698D01*
X129340301Y-132838327D01*
X129573690Y-132935000D01*
X129941250Y-132935000D01*
X130100000Y-132776250D01*
X130100000Y-131900000D01*
X130900000Y-131900000D01*
X130900000Y-132776250D01*
X131058750Y-132935000D01*
X131426310Y-132935000D01*
X131659699Y-132838327D01*
X131838327Y-132659698D01*
X131935000Y-132426309D01*
X131935000Y-132058750D01*
X131776250Y-131900000D01*
X130900000Y-131900000D01*
X130100000Y-131900000D01*
X129223750Y-131900000D01*
X129065000Y-132058750D01*
X104935000Y-132058750D01*
X104776250Y-131900000D01*
X103900000Y-131900000D01*
X103100000Y-131900000D01*
X102223750Y-131900000D01*
X102065000Y-132058750D01*
X100741799Y-132058750D01*
X100741799Y-129284187D01*
X102064752Y-129284187D01*
X102282757Y-129811800D01*
X102535516Y-130065000D01*
X102356998Y-130065000D01*
X102356998Y-130154757D01*
X102340301Y-130161673D01*
X102161673Y-130340302D01*
X102065000Y-130573691D01*
X102065000Y-130941250D01*
X102223750Y-131100000D01*
X103100000Y-131100000D01*
X103100000Y-130700000D01*
X103900000Y-130700000D01*
X103900000Y-131100000D01*
X104776250Y-131100000D01*
X104935000Y-130941250D01*
X104935000Y-130573691D01*
X104838327Y-130340302D01*
X104659699Y-130161673D01*
X104643002Y-130154757D01*
X104643002Y-130065000D01*
X104464308Y-130065000D01*
X104715824Y-129813923D01*
X104934750Y-129286691D01*
X104934752Y-129284187D01*
X129064752Y-129284187D01*
X129282757Y-129811800D01*
X129535516Y-130065000D01*
X129356998Y-130065000D01*
X129356998Y-130154757D01*
X129340301Y-130161673D01*
X129161673Y-130340302D01*
X129065000Y-130573691D01*
X129065000Y-130941250D01*
X129223750Y-131100000D01*
X130100000Y-131100000D01*
X130100000Y-130700000D01*
X130900000Y-130700000D01*
X130900000Y-131100000D01*
X131776250Y-131100000D01*
X131935000Y-130941250D01*
X131935000Y-130573691D01*
X131838327Y-130340302D01*
X131659699Y-130161673D01*
X131643002Y-130154757D01*
X131643002Y-130065000D01*
X131464308Y-130065000D01*
X131715824Y-129813923D01*
X131934750Y-129286691D01*
X131935248Y-128715813D01*
X131717243Y-128188200D01*
X131313923Y-127784176D01*
X130786691Y-127565250D01*
X130215813Y-127564752D01*
X129688200Y-127782757D01*
X129284176Y-128186077D01*
X129065250Y-128713309D01*
X129064752Y-129284187D01*
X104934752Y-129284187D01*
X104935248Y-128715813D01*
X104717243Y-128188200D01*
X104313923Y-127784176D01*
X103786691Y-127565250D01*
X103215813Y-127564752D01*
X102688200Y-127782757D01*
X102284176Y-128186077D01*
X102065250Y-128713309D01*
X102064752Y-129284187D01*
X100741799Y-129284187D01*
X100741799Y-127833003D01*
X103814802Y-124760000D01*
X121866889Y-124760000D01*
X121941314Y-124834555D01*
X122303212Y-124984828D01*
X122695069Y-124985170D01*
X123057229Y-124835529D01*
X123334555Y-124558686D01*
X123484828Y-124196788D01*
X123485170Y-123804931D01*
X123335529Y-123442771D01*
X123260000Y-123367110D01*
X123260000Y-112922815D01*
X132864630Y-112922815D01*
X133188980Y-113707800D01*
X133789041Y-114308909D01*
X134573459Y-114634628D01*
X135422815Y-114635370D01*
X136207800Y-114311020D01*
X136808909Y-113710959D01*
X137134628Y-112926541D01*
X137135370Y-112077185D01*
X136811020Y-111292200D01*
X136210959Y-110691091D01*
X135426541Y-110365372D01*
X134577185Y-110364630D01*
X133792200Y-110688980D01*
X133191091Y-111289041D01*
X132865372Y-112073459D01*
X132864630Y-112922815D01*
X123260000Y-112922815D01*
X123260000Y-108328750D01*
X132865000Y-108328750D01*
X132865000Y-109046309D01*
X132961673Y-109279698D01*
X133140301Y-109458327D01*
X133373690Y-109555000D01*
X134091250Y-109555000D01*
X134250000Y-109396250D01*
X134250000Y-108170000D01*
X135750000Y-108170000D01*
X135750000Y-109396250D01*
X135908750Y-109555000D01*
X136626310Y-109555000D01*
X136859699Y-109458327D01*
X137038327Y-109279698D01*
X137135000Y-109046309D01*
X137135000Y-108328750D01*
X136976250Y-108170000D01*
X135750000Y-108170000D01*
X134250000Y-108170000D01*
X133023750Y-108170000D01*
X132865000Y-108328750D01*
X123260000Y-108328750D01*
X123260000Y-105793691D01*
X132865000Y-105793691D01*
X132865000Y-106511250D01*
X133023750Y-106670000D01*
X134250000Y-106670000D01*
X134250000Y-105443750D01*
X135750000Y-105443750D01*
X135750000Y-106670000D01*
X136976250Y-106670000D01*
X137135000Y-106511250D01*
X137135000Y-105793691D01*
X137038327Y-105560302D01*
X136859699Y-105381673D01*
X136626310Y-105285000D01*
X135908750Y-105285000D01*
X135750000Y-105443750D01*
X134250000Y-105443750D01*
X134091250Y-105285000D01*
X133373690Y-105285000D01*
X133140301Y-105381673D01*
X132961673Y-105560302D01*
X132865000Y-105793691D01*
X123260000Y-105793691D01*
X123260000Y-105633111D01*
X123334555Y-105558686D01*
X123484828Y-105196788D01*
X123485170Y-104804931D01*
X123335529Y-104442771D01*
X123058686Y-104165445D01*
X122696788Y-104015172D01*
X122304931Y-104014830D01*
X121999696Y-104140950D01*
X121696788Y-104015172D01*
X121304931Y-104014830D01*
X121030189Y-104128351D01*
X127037401Y-98121139D01*
X127202148Y-97874577D01*
X127247746Y-97645344D01*
X127334555Y-97558686D01*
X127484828Y-97196788D01*
X127485170Y-96804931D01*
X127335529Y-96442771D01*
X127058686Y-96165445D01*
X126696788Y-96015172D01*
X126304931Y-96014830D01*
X126119664Y-96091381D01*
X126046271Y-96017860D01*
X125684373Y-95867587D01*
X125292516Y-95867245D01*
X124930356Y-96016886D01*
X124653030Y-96293729D01*
X124502757Y-96655627D01*
X124502664Y-96762534D01*
X122828984Y-98436214D01*
X122558686Y-98165445D01*
X122196788Y-98015172D01*
X122089881Y-98015079D01*
X118691183Y-94616381D01*
X118691183Y-93360067D01*
X118700000Y-93351250D01*
X118700000Y-92687500D01*
X118691183Y-92687500D01*
X118691183Y-92312500D01*
X118700000Y-92312500D01*
X118700000Y-92127000D01*
X119300000Y-92127000D01*
X119300000Y-92312500D01*
X119600000Y-92312500D01*
X119600000Y-92687500D01*
X119300000Y-92687500D01*
X119300000Y-93351250D01*
X119458750Y-93510000D01*
X119600000Y-93510000D01*
X119600000Y-93643002D01*
X120235000Y-93643002D01*
X120235000Y-93509277D01*
X120300000Y-93522440D01*
X121500000Y-93522440D01*
X121735317Y-93478162D01*
X121880095Y-93385000D01*
X122562799Y-93385000D01*
X122803212Y-93484828D01*
X123195069Y-93485170D01*
X123557229Y-93335529D01*
X123834555Y-93058686D01*
X123984828Y-92696788D01*
X123985170Y-92304931D01*
X123835529Y-91942771D01*
X123558686Y-91665445D01*
X123196788Y-91515172D01*
X122804931Y-91514830D01*
X122562500Y-91615000D01*
X121878386Y-91615000D01*
X121751890Y-91528569D01*
X121500000Y-91477560D01*
X120300000Y-91477560D01*
X120235000Y-91489791D01*
X120235000Y-91356998D01*
X120127000Y-91356998D01*
X120127000Y-90752896D01*
X120152386Y-90752896D01*
X120152386Y-90622919D01*
X120297711Y-90477595D01*
X120394384Y-90244206D01*
X120394384Y-90126646D01*
X120235634Y-89967896D01*
X120127000Y-89967896D01*
X120127000Y-89667896D01*
X120235634Y-89667896D01*
X120394384Y-89509146D01*
X120394384Y-89391586D01*
X120304578Y-89174774D01*
X120355815Y-89099786D01*
X120406824Y-88847896D01*
X120406824Y-88247896D01*
X120367310Y-88037896D01*
X121104582Y-88037896D01*
X123011944Y-89945258D01*
X123011944Y-90117896D01*
X123056222Y-90353213D01*
X123195294Y-90569337D01*
X123407494Y-90714327D01*
X123659384Y-90765336D01*
X124740000Y-90765336D01*
X124740000Y-90866889D01*
X124665445Y-90941314D01*
X124515172Y-91303212D01*
X124514830Y-91695069D01*
X124664471Y-92057229D01*
X124941314Y-92334555D01*
X125303212Y-92484828D01*
X125695069Y-92485170D01*
X126057229Y-92335529D01*
X126334555Y-92058686D01*
X126484828Y-91696788D01*
X126485170Y-91304931D01*
X126335529Y-90942771D01*
X126260000Y-90867110D01*
X126260000Y-89188512D01*
X126202148Y-88897673D01*
X126037401Y-88651111D01*
X125934186Y-88547896D01*
X126024986Y-88457096D01*
X126189733Y-88210535D01*
X126247585Y-87919695D01*
X126247585Y-85961730D01*
X126303212Y-85984828D01*
X126695069Y-85985170D01*
X127057229Y-85835529D01*
X127334555Y-85558686D01*
X127484828Y-85196788D01*
X127485170Y-84804931D01*
X127335529Y-84442771D01*
X127058686Y-84165445D01*
X126696788Y-84015172D01*
X126589881Y-84015079D01*
X125806824Y-83232022D01*
X125806824Y-83167896D01*
X125762546Y-82932579D01*
X125698706Y-82833368D01*
X125755815Y-82749786D01*
X125806824Y-82497896D01*
X125806824Y-81897896D01*
X125762546Y-81662579D01*
X125623474Y-81446455D01*
X125411274Y-81301465D01*
X125159384Y-81250456D01*
X123659384Y-81250456D01*
X123424067Y-81294734D01*
X123395842Y-81312896D01*
X122802109Y-81312896D01*
X122802104Y-81312895D01*
X122463430Y-81380262D01*
X122463428Y-81380263D01*
X122463429Y-81380263D01*
X122192522Y-81561276D01*
X121942771Y-81664471D01*
X121665445Y-81941314D01*
X121515172Y-82303212D01*
X121514830Y-82695069D01*
X121664471Y-83057229D01*
X121941314Y-83334555D01*
X122303212Y-83484828D01*
X122695069Y-83485170D01*
X123011944Y-83354240D01*
X123011944Y-83767896D01*
X123056222Y-84003213D01*
X123120062Y-84102424D01*
X123062953Y-84186006D01*
X123011944Y-84437896D01*
X123011944Y-85037896D01*
X123051458Y-85247896D01*
X122864186Y-85247896D01*
X120546785Y-82930495D01*
X120330902Y-82786247D01*
X120355815Y-82749786D01*
X120406824Y-82497896D01*
X120406824Y-81897896D01*
X120362546Y-81662579D01*
X120223474Y-81446455D01*
X120011274Y-81301465D01*
X119759384Y-81250456D01*
X118691183Y-81250456D01*
X118691183Y-80883619D01*
X119589724Y-79985078D01*
X119695069Y-79985170D01*
X120057229Y-79835529D01*
X120132890Y-79760000D01*
X124500000Y-79760000D01*
X124790839Y-79702148D01*
X125037401Y-79537401D01*
X126157401Y-78417401D01*
X126322148Y-78170840D01*
X126380000Y-77880000D01*
X126380000Y-66372954D01*
X126670054Y-66179147D01*
X126890000Y-65849974D01*
X127109946Y-66179147D01*
X127591715Y-66501054D01*
X128160000Y-66614093D01*
X128728285Y-66501054D01*
X129210054Y-66179147D01*
X129430000Y-65849974D01*
X129649946Y-66179147D01*
X130131715Y-66501054D01*
X130700000Y-66614093D01*
X131268285Y-66501054D01*
X131750054Y-66179147D01*
X131970000Y-65849974D01*
X132189946Y-66179147D01*
X132671715Y-66501054D01*
X133240000Y-66614093D01*
X133808285Y-66501054D01*
X134290054Y-66179147D01*
X134611961Y-65697378D01*
X134725000Y-65129093D01*
X134725000Y-65070907D01*
X134611961Y-64502622D01*
X134306188Y-64045000D01*
X134383002Y-64045000D01*
X134383002Y-63463483D01*
X134578915Y-63202361D01*
X134504168Y-62985000D01*
X133665000Y-62985000D01*
X133665000Y-63410000D01*
X132815000Y-63410000D01*
X132815000Y-62985000D01*
X131975832Y-62985000D01*
X131970000Y-63001959D01*
X131964168Y-62985000D01*
X131125000Y-62985000D01*
X131125000Y-63410000D01*
X130275000Y-63410000D01*
X130275000Y-62985000D01*
X129435832Y-62985000D01*
X129430000Y-63001959D01*
X129424168Y-62985000D01*
X128585000Y-62985000D01*
X128585000Y-63410000D01*
X127735000Y-63410000D01*
X127735000Y-62985000D01*
X127310000Y-62985000D01*
X127310000Y-62135000D01*
X127735000Y-62135000D01*
X127735000Y-61303690D01*
X128585000Y-61303690D01*
X128585000Y-62135000D01*
X129424168Y-62135000D01*
X129430000Y-62118041D01*
X129435832Y-62135000D01*
X130275000Y-62135000D01*
X130275000Y-61303690D01*
X131125000Y-61303690D01*
X131125000Y-62135000D01*
X131964168Y-62135000D01*
X131970000Y-62118041D01*
X131975832Y-62135000D01*
X132815000Y-62135000D01*
X132815000Y-61303690D01*
X133665000Y-61303690D01*
X133665000Y-62135000D01*
X134504168Y-62135000D01*
X134578915Y-61917639D01*
X134231175Y-61454155D01*
X133882356Y-61221119D01*
X133665000Y-61303690D01*
X132815000Y-61303690D01*
X132597644Y-61221119D01*
X132248825Y-61454155D01*
X131970000Y-61825786D01*
X131691175Y-61454155D01*
X131342356Y-61221119D01*
X131125000Y-61303690D01*
X130275000Y-61303690D01*
X130057644Y-61221119D01*
X129708825Y-61454155D01*
X129430000Y-61825786D01*
X129151175Y-61454155D01*
X128802356Y-61221119D01*
X128585000Y-61303690D01*
X127735000Y-61303690D01*
X127517644Y-61221119D01*
X127224443Y-61416998D01*
X126675000Y-61416998D01*
X126675000Y-61488255D01*
X126670054Y-61480853D01*
X126188285Y-61158946D01*
X125620000Y-61045907D01*
X125051715Y-61158946D01*
X124569946Y-61480853D01*
X124350000Y-61810026D01*
X124130054Y-61480853D01*
X123648285Y-61158946D01*
X123080000Y-61045907D01*
X122511715Y-61158946D01*
X122029946Y-61480853D01*
X121810000Y-61810026D01*
X121590054Y-61480853D01*
X121108285Y-61158946D01*
X120540000Y-61045907D01*
X119971715Y-61158946D01*
X119489946Y-61480853D01*
X119270000Y-61810026D01*
X119050054Y-61480853D01*
X118568285Y-61158946D01*
X118000000Y-61045907D01*
X117431715Y-61158946D01*
X116949946Y-61480853D01*
X116922150Y-61522452D01*
X116913162Y-61474683D01*
X116774090Y-61258559D01*
X116561890Y-61113569D01*
X116310000Y-61062560D01*
X114610000Y-61062560D01*
X114374683Y-61106838D01*
X114158559Y-61245910D01*
X114013569Y-61458110D01*
X113962560Y-61710000D01*
X113962560Y-61929080D01*
X113822599Y-62022599D01*
X113744398Y-62100800D01*
X113579651Y-62347362D01*
X113521799Y-62638201D01*
X113521799Y-65781799D01*
X113579651Y-66072638D01*
X113744398Y-66319200D01*
X115240000Y-67814802D01*
X115240000Y-80866889D01*
X115165445Y-80941314D01*
X115015172Y-81303212D01*
X115014830Y-81695069D01*
X115164471Y-82057229D01*
X115441314Y-82334555D01*
X115803212Y-82484828D01*
X116195069Y-82485170D01*
X116557229Y-82335529D01*
X116834555Y-82058686D01*
X116984828Y-81696788D01*
X116985013Y-81484987D01*
X117171183Y-81485149D01*
X117171183Y-84659695D01*
X117229035Y-84950534D01*
X117393782Y-85197096D01*
X117471983Y-85275297D01*
X117687866Y-85419545D01*
X117662953Y-85456006D01*
X117611944Y-85707896D01*
X117611944Y-86307896D01*
X117656222Y-86543213D01*
X117720062Y-86642424D01*
X117662953Y-86726006D01*
X117611944Y-86977896D01*
X117611944Y-87577896D01*
X117656222Y-87813213D01*
X117720062Y-87912424D01*
X117662953Y-87996006D01*
X117611944Y-88247896D01*
X117611944Y-88420534D01*
X117393782Y-88638696D01*
X117229035Y-88885258D01*
X117171183Y-89176097D01*
X117171183Y-94931183D01*
X117212203Y-95137401D01*
X114260000Y-92185198D01*
X114260000Y-78633111D01*
X114334555Y-78558686D01*
X114484828Y-78196788D01*
X114485170Y-77804931D01*
X114335529Y-77442771D01*
X114058686Y-77165445D01*
X113696788Y-77015172D01*
X113484987Y-77014987D01*
X113485170Y-76804931D01*
X113335529Y-76442771D01*
X113058686Y-76165445D01*
X112696788Y-76015172D01*
X112484987Y-76014987D01*
X112485170Y-75804931D01*
X112335529Y-75442771D01*
X112058686Y-75165445D01*
X111696788Y-75015172D01*
X111484987Y-75014987D01*
X111485170Y-74804931D01*
X111335529Y-74442771D01*
X111058686Y-74165445D01*
X110696788Y-74015172D01*
X110484987Y-74014987D01*
X110485170Y-73804931D01*
X110335529Y-73442771D01*
X110058686Y-73165445D01*
X109696788Y-73015172D01*
X109484987Y-73014987D01*
X109485170Y-72804931D01*
X109335529Y-72442771D01*
X109058686Y-72165445D01*
X108696788Y-72015172D01*
X108484987Y-72014987D01*
X108485170Y-71804931D01*
X108335529Y-71442771D01*
X108058686Y-71165445D01*
X107696788Y-71015172D01*
X107304931Y-71014830D01*
X106942771Y-71164471D01*
X106665445Y-71441314D01*
X106515172Y-71803212D01*
X106514830Y-72195069D01*
X106664471Y-72557229D01*
X106740000Y-72632890D01*
X106740000Y-78711325D01*
X106696788Y-78693382D01*
X106304931Y-78693040D01*
X105942771Y-78842681D01*
X105665445Y-79119524D01*
X105515172Y-79481422D01*
X105515143Y-79515013D01*
X105304931Y-79514830D01*
X104942771Y-79664471D01*
X104665445Y-79941314D01*
X104515172Y-80303212D01*
X104514987Y-80515013D01*
X104304931Y-80514830D01*
X103942771Y-80664471D01*
X103665445Y-80941314D01*
X103515172Y-81303212D01*
X103514830Y-81695069D01*
X103664471Y-82057229D01*
X103740000Y-82132890D01*
X103740000Y-93685198D01*
X100244398Y-97180800D01*
X100079651Y-97427362D01*
X100021799Y-97718201D01*
X100021799Y-101421799D01*
X100079651Y-101712638D01*
X100244398Y-101959200D01*
X100538229Y-102253031D01*
X100475000Y-102570907D01*
X100475000Y-102629093D01*
X100588039Y-103197378D01*
X100909946Y-103679147D01*
X101391715Y-104001054D01*
X101960000Y-104114093D01*
X102528285Y-104001054D01*
X103010054Y-103679147D01*
X103230000Y-103349974D01*
X103449946Y-103679147D01*
X103931715Y-104001054D01*
X104500000Y-104114093D01*
X105068285Y-104001054D01*
X105550054Y-103679147D01*
X105770000Y-103349974D01*
X105989946Y-103679147D01*
X106280000Y-103872954D01*
X106280000Y-112145198D01*
X87922599Y-130502599D01*
X87757852Y-130749161D01*
X87700000Y-131040000D01*
X87700000Y-136062560D01*
X87610000Y-136062560D01*
X87374683Y-136106838D01*
X87158559Y-136245910D01*
X87013569Y-136458110D01*
X86962560Y-136710000D01*
X85710000Y-136710000D01*
X85710000Y-62638201D01*
X86521799Y-62638201D01*
X86521799Y-71281799D01*
X86579651Y-71572638D01*
X86744398Y-71819200D01*
X87014922Y-72089724D01*
X87014830Y-72195069D01*
X87164471Y-72557229D01*
X87441314Y-72834555D01*
X87803212Y-72984828D01*
X88015013Y-72985013D01*
X88014830Y-73195069D01*
X88164471Y-73557229D01*
X88441314Y-73834555D01*
X88803212Y-73984828D01*
X89015013Y-73985013D01*
X89014830Y-74195069D01*
X89164471Y-74557229D01*
X89441314Y-74834555D01*
X89803212Y-74984828D01*
X90195069Y-74985170D01*
X90557229Y-74835529D01*
X90834555Y-74558686D01*
X90984828Y-74196788D01*
X90985170Y-73804931D01*
X90835529Y-73442771D01*
X90725740Y-73332790D01*
X90702148Y-73214187D01*
X90702148Y-73214186D01*
X90581799Y-73034071D01*
X90581799Y-66530908D01*
X91000000Y-66614093D01*
X91568285Y-66501054D01*
X92050054Y-66179147D01*
X92270000Y-65849974D01*
X92489946Y-66179147D01*
X92780000Y-66372954D01*
X92780000Y-75326959D01*
X92665445Y-75441314D01*
X92515172Y-75803212D01*
X92514830Y-76195069D01*
X92664471Y-76557229D01*
X92941314Y-76834555D01*
X93303212Y-76984828D01*
X93695069Y-76985170D01*
X94057229Y-76835529D01*
X94334555Y-76558686D01*
X94484828Y-76196788D01*
X94485128Y-75852748D01*
X94803212Y-75984828D01*
X95195069Y-75985170D01*
X95320000Y-75933550D01*
X95320000Y-76287028D01*
X95165445Y-76441314D01*
X95015172Y-76803212D01*
X95014830Y-77195069D01*
X95164471Y-77557229D01*
X95441314Y-77834555D01*
X95803212Y-77984828D01*
X96195069Y-77985170D01*
X96515129Y-77852924D01*
X96514830Y-78195069D01*
X96664471Y-78557229D01*
X96941314Y-78834555D01*
X97303212Y-78984828D01*
X97515013Y-78985013D01*
X97514830Y-79195069D01*
X97664471Y-79557229D01*
X97941314Y-79834555D01*
X98303212Y-79984828D01*
X98695069Y-79985170D01*
X99057229Y-79835529D01*
X99334555Y-79558686D01*
X99484828Y-79196788D01*
X99485170Y-78804931D01*
X99380000Y-78550399D01*
X99380000Y-66372954D01*
X99670054Y-66179147D01*
X99890000Y-65849974D01*
X100109946Y-66179147D01*
X100591715Y-66501054D01*
X101160000Y-66614093D01*
X101728285Y-66501054D01*
X102210054Y-66179147D01*
X102430000Y-65849974D01*
X102649946Y-66179147D01*
X103131715Y-66501054D01*
X103700000Y-66614093D01*
X104268285Y-66501054D01*
X104750054Y-66179147D01*
X104970000Y-65849974D01*
X105189946Y-66179147D01*
X105671715Y-66501054D01*
X106240000Y-66614093D01*
X106808285Y-66501054D01*
X107290054Y-66179147D01*
X107611961Y-65697378D01*
X107725000Y-65129093D01*
X107725000Y-65070907D01*
X107611961Y-64502622D01*
X107306188Y-64045000D01*
X107383002Y-64045000D01*
X107383002Y-63463483D01*
X107578915Y-63202361D01*
X107504168Y-62985000D01*
X106665000Y-62985000D01*
X106665000Y-63410000D01*
X105815000Y-63410000D01*
X105815000Y-62985000D01*
X104975832Y-62985000D01*
X104970000Y-63001959D01*
X104964168Y-62985000D01*
X104125000Y-62985000D01*
X104125000Y-63410000D01*
X103275000Y-63410000D01*
X103275000Y-62985000D01*
X102435832Y-62985000D01*
X102430000Y-63001959D01*
X102424168Y-62985000D01*
X101585000Y-62985000D01*
X101585000Y-63410000D01*
X100735000Y-63410000D01*
X100735000Y-62985000D01*
X100310000Y-62985000D01*
X100310000Y-62135000D01*
X100735000Y-62135000D01*
X100735000Y-61303690D01*
X101585000Y-61303690D01*
X101585000Y-62135000D01*
X102424168Y-62135000D01*
X102430000Y-62118041D01*
X102435832Y-62135000D01*
X103275000Y-62135000D01*
X103275000Y-61303690D01*
X104125000Y-61303690D01*
X104125000Y-62135000D01*
X104964168Y-62135000D01*
X104970000Y-62118041D01*
X104975832Y-62135000D01*
X105815000Y-62135000D01*
X105815000Y-61303690D01*
X106665000Y-61303690D01*
X106665000Y-62135000D01*
X107504168Y-62135000D01*
X107578915Y-61917639D01*
X107231175Y-61454155D01*
X106882356Y-61221119D01*
X106665000Y-61303690D01*
X105815000Y-61303690D01*
X105597644Y-61221119D01*
X105248825Y-61454155D01*
X104970000Y-61825786D01*
X104691175Y-61454155D01*
X104342356Y-61221119D01*
X104125000Y-61303690D01*
X103275000Y-61303690D01*
X103057644Y-61221119D01*
X102708825Y-61454155D01*
X102430000Y-61825786D01*
X102151175Y-61454155D01*
X101802356Y-61221119D01*
X101585000Y-61303690D01*
X100735000Y-61303690D01*
X100517644Y-61221119D01*
X100224443Y-61416998D01*
X99675000Y-61416998D01*
X99675000Y-61488255D01*
X99670054Y-61480853D01*
X99188285Y-61158946D01*
X98620000Y-61045907D01*
X98051715Y-61158946D01*
X97569946Y-61480853D01*
X97350000Y-61810026D01*
X97130054Y-61480853D01*
X96648285Y-61158946D01*
X96080000Y-61045907D01*
X95511715Y-61158946D01*
X95029946Y-61480853D01*
X94810000Y-61810026D01*
X94590054Y-61480853D01*
X94108285Y-61158946D01*
X93540000Y-61045907D01*
X92971715Y-61158946D01*
X92489946Y-61480853D01*
X92270000Y-61810026D01*
X92050054Y-61480853D01*
X91568285Y-61158946D01*
X91000000Y-61045907D01*
X90431715Y-61158946D01*
X89949946Y-61480853D01*
X89922150Y-61522452D01*
X89913162Y-61474683D01*
X89774090Y-61258559D01*
X89561890Y-61113569D01*
X89310000Y-61062560D01*
X87610000Y-61062560D01*
X87374683Y-61106838D01*
X87158559Y-61245910D01*
X87013569Y-61458110D01*
X86962560Y-61710000D01*
X86962560Y-61929080D01*
X86822599Y-62022599D01*
X86744398Y-62100800D01*
X86579651Y-62347362D01*
X86521799Y-62638201D01*
X85710000Y-62638201D01*
X85710000Y-57058750D01*
X102065000Y-57058750D01*
X102065000Y-57426309D01*
X102161673Y-57659698D01*
X102340301Y-57838327D01*
X102573690Y-57935000D01*
X102941250Y-57935000D01*
X103100000Y-57776250D01*
X103100000Y-56900000D01*
X103900000Y-56900000D01*
X103900000Y-57776250D01*
X104058750Y-57935000D01*
X104426310Y-57935000D01*
X104659699Y-57838327D01*
X104838327Y-57659698D01*
X104935000Y-57426309D01*
X104935000Y-57058750D01*
X129065000Y-57058750D01*
X129065000Y-57426309D01*
X129161673Y-57659698D01*
X129340301Y-57838327D01*
X129573690Y-57935000D01*
X129941250Y-57935000D01*
X130100000Y-57776250D01*
X130100000Y-56900000D01*
X130900000Y-56900000D01*
X130900000Y-57776250D01*
X131058750Y-57935000D01*
X131426310Y-57935000D01*
X131659699Y-57838327D01*
X131838327Y-57659698D01*
X131935000Y-57426309D01*
X131935000Y-57058750D01*
X131776250Y-56900000D01*
X130900000Y-56900000D01*
X130100000Y-56900000D01*
X129223750Y-56900000D01*
X129065000Y-57058750D01*
X104935000Y-57058750D01*
X104776250Y-56900000D01*
X103900000Y-56900000D01*
X103100000Y-56900000D01*
X102223750Y-56900000D01*
X102065000Y-57058750D01*
X85710000Y-57058750D01*
X85710000Y-54284187D01*
X102064752Y-54284187D01*
X102282757Y-54811800D01*
X102535516Y-55065000D01*
X102356998Y-55065000D01*
X102356998Y-55154757D01*
X102340301Y-55161673D01*
X102161673Y-55340302D01*
X102065000Y-55573691D01*
X102065000Y-55941250D01*
X102223750Y-56100000D01*
X103100000Y-56100000D01*
X103100000Y-55700000D01*
X103900000Y-55700000D01*
X103900000Y-56100000D01*
X104776250Y-56100000D01*
X104935000Y-55941250D01*
X104935000Y-55573691D01*
X104838327Y-55340302D01*
X104659699Y-55161673D01*
X104643002Y-55154757D01*
X104643002Y-55065000D01*
X104464308Y-55065000D01*
X104715824Y-54813923D01*
X104934750Y-54286691D01*
X104934752Y-54284187D01*
X129064752Y-54284187D01*
X129282757Y-54811800D01*
X129535516Y-55065000D01*
X129356998Y-55065000D01*
X129356998Y-55154757D01*
X129340301Y-55161673D01*
X129161673Y-55340302D01*
X129065000Y-55573691D01*
X129065000Y-55941250D01*
X129223750Y-56100000D01*
X130100000Y-56100000D01*
X130100000Y-55700000D01*
X130900000Y-55700000D01*
X130900000Y-56100000D01*
X131776250Y-56100000D01*
X131935000Y-55941250D01*
X131935000Y-55573691D01*
X131838327Y-55340302D01*
X131659699Y-55161673D01*
X131643002Y-55154757D01*
X131643002Y-55065000D01*
X131464308Y-55065000D01*
X131715824Y-54813923D01*
X131934750Y-54286691D01*
X131935248Y-53715813D01*
X131717243Y-53188200D01*
X131313923Y-52784176D01*
X130786691Y-52565250D01*
X130215813Y-52564752D01*
X129688200Y-52782757D01*
X129284176Y-53186077D01*
X129065250Y-53713309D01*
X129064752Y-54284187D01*
X104934752Y-54284187D01*
X104935248Y-53715813D01*
X104717243Y-53188200D01*
X104313923Y-52784176D01*
X103786691Y-52565250D01*
X103215813Y-52564752D01*
X102688200Y-52782757D01*
X102284176Y-53186077D01*
X102065250Y-53713309D01*
X102064752Y-54284187D01*
X85710000Y-54284187D01*
X85710000Y-50710000D01*
X139290000Y-50710000D01*
X139290000Y-144290000D01*
X139290000Y-144290000D01*
G37*
X139290000Y-144290000D02*
X85710000Y-144290000D01*
X85710000Y-136710000D01*
X86962560Y-136710000D01*
X86962560Y-138410000D01*
X87006838Y-138645317D01*
X87145910Y-138861441D01*
X87358110Y-139006431D01*
X87414454Y-139017841D01*
X87409946Y-139020853D01*
X87088039Y-139502622D01*
X86975000Y-140070907D01*
X86975000Y-140129093D01*
X87088039Y-140697378D01*
X87409946Y-141179147D01*
X87891715Y-141501054D01*
X88460000Y-141614093D01*
X89028285Y-141501054D01*
X89510054Y-141179147D01*
X89730000Y-140849974D01*
X89949946Y-141179147D01*
X90431715Y-141501054D01*
X91000000Y-141614093D01*
X91568285Y-141501054D01*
X92050054Y-141179147D01*
X92270000Y-140849974D01*
X92489946Y-141179147D01*
X92971715Y-141501054D01*
X93540000Y-141614093D01*
X94108285Y-141501054D01*
X94590054Y-141179147D01*
X94810000Y-140849974D01*
X95029946Y-141179147D01*
X95511715Y-141501054D01*
X96080000Y-141614093D01*
X96648285Y-141501054D01*
X97130054Y-141179147D01*
X97350000Y-140849974D01*
X97569946Y-141179147D01*
X98051715Y-141501054D01*
X98620000Y-141614093D01*
X99188285Y-141501054D01*
X99670054Y-141179147D01*
X99890000Y-140849974D01*
X100109946Y-141179147D01*
X100591715Y-141501054D01*
X101160000Y-141614093D01*
X101728285Y-141501054D01*
X102210054Y-141179147D01*
X102430000Y-140849974D01*
X102649946Y-141179147D01*
X103131715Y-141501054D01*
X103700000Y-141614093D01*
X104268285Y-141501054D01*
X104750054Y-141179147D01*
X104970000Y-140849974D01*
X105189946Y-141179147D01*
X105671715Y-141501054D01*
X106240000Y-141614093D01*
X106808285Y-141501054D01*
X107290054Y-141179147D01*
X107611961Y-140697378D01*
X107725000Y-140129093D01*
X107725000Y-140070907D01*
X107611961Y-139502622D01*
X107306188Y-139045000D01*
X107383002Y-139045000D01*
X107383002Y-138463483D01*
X107578915Y-138202361D01*
X107504168Y-137985000D01*
X106665000Y-137985000D01*
X106665000Y-138410000D01*
X105815000Y-138410000D01*
X105815000Y-137985000D01*
X104975832Y-137985000D01*
X104970000Y-138001959D01*
X104964168Y-137985000D01*
X104125000Y-137985000D01*
X104125000Y-138410000D01*
X103275000Y-138410000D01*
X103275000Y-137985000D01*
X102435832Y-137985000D01*
X102430000Y-138001959D01*
X102424168Y-137985000D01*
X101585000Y-137985000D01*
X101585000Y-138410000D01*
X100741799Y-138410000D01*
X100741799Y-136303690D01*
X101585000Y-136303690D01*
X101585000Y-137135000D01*
X102424168Y-137135000D01*
X102430000Y-137118041D01*
X102435832Y-137135000D01*
X103275000Y-137135000D01*
X103275000Y-136303690D01*
X104125000Y-136303690D01*
X104125000Y-137135000D01*
X104964168Y-137135000D01*
X104970000Y-137118041D01*
X104975832Y-137135000D01*
X105815000Y-137135000D01*
X105815000Y-136303690D01*
X106665000Y-136303690D01*
X106665000Y-137135000D01*
X107504168Y-137135000D01*
X107578915Y-136917639D01*
X107423129Y-136710000D01*
X113962560Y-136710000D01*
X113962560Y-138410000D01*
X114006838Y-138645317D01*
X114145910Y-138861441D01*
X114358110Y-139006431D01*
X114414454Y-139017841D01*
X114409946Y-139020853D01*
X114088039Y-139502622D01*
X113975000Y-140070907D01*
X113975000Y-140129093D01*
X114088039Y-140697378D01*
X114409946Y-141179147D01*
X114891715Y-141501054D01*
X115460000Y-141614093D01*
X116028285Y-141501054D01*
X116510054Y-141179147D01*
X116730000Y-140849974D01*
X116949946Y-141179147D01*
X117431715Y-141501054D01*
X118000000Y-141614093D01*
X118568285Y-141501054D01*
X119050054Y-141179147D01*
X119270000Y-140849974D01*
X119489946Y-141179147D01*
X119971715Y-141501054D01*
X120540000Y-141614093D01*
X121108285Y-141501054D01*
X121590054Y-141179147D01*
X121810000Y-140849974D01*
X122029946Y-141179147D01*
X122511715Y-141501054D01*
X123080000Y-141614093D01*
X123648285Y-141501054D01*
X124130054Y-141179147D01*
X124350000Y-140849974D01*
X124569946Y-141179147D01*
X125051715Y-141501054D01*
X125620000Y-141614093D01*
X126188285Y-141501054D01*
X126670054Y-141179147D01*
X126890000Y-140849974D01*
X127109946Y-141179147D01*
X127591715Y-141501054D01*
X128160000Y-141614093D01*
X128728285Y-141501054D01*
X129210054Y-141179147D01*
X129430000Y-140849974D01*
X129649946Y-141179147D01*
X130131715Y-141501054D01*
X130700000Y-141614093D01*
X131268285Y-141501054D01*
X131750054Y-141179147D01*
X131970000Y-140849974D01*
X132189946Y-141179147D01*
X132671715Y-141501054D01*
X133240000Y-141614093D01*
X133808285Y-141501054D01*
X134290054Y-141179147D01*
X134611961Y-140697378D01*
X134725000Y-140129093D01*
X134725000Y-140070907D01*
X134611961Y-139502622D01*
X134306188Y-139045000D01*
X134383002Y-139045000D01*
X134383002Y-138463483D01*
X134578915Y-138202361D01*
X134504168Y-137985000D01*
X133665000Y-137985000D01*
X133665000Y-138410000D01*
X132815000Y-138410000D01*
X132815000Y-137985000D01*
X131975832Y-137985000D01*
X131970000Y-138001959D01*
X131964168Y-137985000D01*
X131125000Y-137985000D01*
X131125000Y-138410000D01*
X130275000Y-138410000D01*
X130275000Y-137985000D01*
X129435832Y-137985000D01*
X129430000Y-138001959D01*
X129424168Y-137985000D01*
X128585000Y-137985000D01*
X128585000Y-138410000D01*
X127735000Y-138410000D01*
X127735000Y-137985000D01*
X127310000Y-137985000D01*
X127310000Y-137135000D01*
X127735000Y-137135000D01*
X127735000Y-136303690D01*
X128585000Y-136303690D01*
X128585000Y-137135000D01*
X129424168Y-137135000D01*
X129430000Y-137118041D01*
X129435832Y-137135000D01*
X130275000Y-137135000D01*
X130275000Y-136303690D01*
X131125000Y-136303690D01*
X131125000Y-137135000D01*
X131964168Y-137135000D01*
X131970000Y-137118041D01*
X131975832Y-137135000D01*
X132815000Y-137135000D01*
X132815000Y-136303690D01*
X133665000Y-136303690D01*
X133665000Y-137135000D01*
X134504168Y-137135000D01*
X134578915Y-136917639D01*
X134231175Y-136454155D01*
X133882356Y-136221119D01*
X133665000Y-136303690D01*
X132815000Y-136303690D01*
X132597644Y-136221119D01*
X132248825Y-136454155D01*
X131970000Y-136825786D01*
X131691175Y-136454155D01*
X131342356Y-136221119D01*
X131125000Y-136303690D01*
X130275000Y-136303690D01*
X130057644Y-136221119D01*
X129708825Y-136454155D01*
X129430000Y-136825786D01*
X129151175Y-136454155D01*
X128802356Y-136221119D01*
X128585000Y-136303690D01*
X127735000Y-136303690D01*
X127517644Y-136221119D01*
X127224443Y-136416998D01*
X126675000Y-136416998D01*
X126675000Y-136488255D01*
X126670054Y-136480853D01*
X126188285Y-136158946D01*
X125620000Y-136045907D01*
X125051715Y-136158946D01*
X124569946Y-136480853D01*
X124350000Y-136810026D01*
X124130054Y-136480853D01*
X123648285Y-136158946D01*
X123080000Y-136045907D01*
X122511715Y-136158946D01*
X122029946Y-136480853D01*
X121810000Y-136810026D01*
X121590054Y-136480853D01*
X121108285Y-136158946D01*
X120540000Y-136045907D01*
X119971715Y-136158946D01*
X119489946Y-136480853D01*
X119270000Y-136810026D01*
X119050054Y-136480853D01*
X118568285Y-136158946D01*
X118000000Y-136045907D01*
X117431715Y-136158946D01*
X116949946Y-136480853D01*
X116922150Y-136522452D01*
X116913162Y-136474683D01*
X116774090Y-136258559D01*
X116561890Y-136113569D01*
X116310000Y-136062560D01*
X114610000Y-136062560D01*
X114374683Y-136106838D01*
X114158559Y-136245910D01*
X114013569Y-136458110D01*
X113962560Y-136710000D01*
X107423129Y-136710000D01*
X107231175Y-136454155D01*
X106882356Y-136221119D01*
X106665000Y-136303690D01*
X105815000Y-136303690D01*
X105597644Y-136221119D01*
X105248825Y-136454155D01*
X104970000Y-136825786D01*
X104691175Y-136454155D01*
X104342356Y-136221119D01*
X104125000Y-136303690D01*
X103275000Y-136303690D01*
X103057644Y-136221119D01*
X102708825Y-136454155D01*
X102430000Y-136825786D01*
X102151175Y-136454155D01*
X101802356Y-136221119D01*
X101585000Y-136303690D01*
X100741799Y-136303690D01*
X100741799Y-132058750D01*
X102065000Y-132058750D01*
X102065000Y-132426309D01*
X102161673Y-132659698D01*
X102340301Y-132838327D01*
X102573690Y-132935000D01*
X102941250Y-132935000D01*
X103100000Y-132776250D01*
X103100000Y-131900000D01*
X103900000Y-131900000D01*
X103900000Y-132776250D01*
X104058750Y-132935000D01*
X104426310Y-132935000D01*
X104659699Y-132838327D01*
X104838327Y-132659698D01*
X104935000Y-132426309D01*
X104935000Y-132058750D01*
X129065000Y-132058750D01*
X129065000Y-132426309D01*
X129161673Y-132659698D01*
X129340301Y-132838327D01*
X129573690Y-132935000D01*
X129941250Y-132935000D01*
X130100000Y-132776250D01*
X130100000Y-131900000D01*
X130900000Y-131900000D01*
X130900000Y-132776250D01*
X131058750Y-132935000D01*
X131426310Y-132935000D01*
X131659699Y-132838327D01*
X131838327Y-132659698D01*
X131935000Y-132426309D01*
X131935000Y-132058750D01*
X131776250Y-131900000D01*
X130900000Y-131900000D01*
X130100000Y-131900000D01*
X129223750Y-131900000D01*
X129065000Y-132058750D01*
X104935000Y-132058750D01*
X104776250Y-131900000D01*
X103900000Y-131900000D01*
X103100000Y-131900000D01*
X102223750Y-131900000D01*
X102065000Y-132058750D01*
X100741799Y-132058750D01*
X100741799Y-129284187D01*
X102064752Y-129284187D01*
X102282757Y-129811800D01*
X102535516Y-130065000D01*
X102356998Y-130065000D01*
X102356998Y-130154757D01*
X102340301Y-130161673D01*
X102161673Y-130340302D01*
X102065000Y-130573691D01*
X102065000Y-130941250D01*
X102223750Y-131100000D01*
X103100000Y-131100000D01*
X103100000Y-130700000D01*
X103900000Y-130700000D01*
X103900000Y-131100000D01*
X104776250Y-131100000D01*
X104935000Y-130941250D01*
X104935000Y-130573691D01*
X104838327Y-130340302D01*
X104659699Y-130161673D01*
X104643002Y-130154757D01*
X104643002Y-130065000D01*
X104464308Y-130065000D01*
X104715824Y-129813923D01*
X104934750Y-129286691D01*
X104934752Y-129284187D01*
X129064752Y-129284187D01*
X129282757Y-129811800D01*
X129535516Y-130065000D01*
X129356998Y-130065000D01*
X129356998Y-130154757D01*
X129340301Y-130161673D01*
X129161673Y-130340302D01*
X129065000Y-130573691D01*
X129065000Y-130941250D01*
X129223750Y-131100000D01*
X130100000Y-131100000D01*
X130100000Y-130700000D01*
X130900000Y-130700000D01*
X130900000Y-131100000D01*
X131776250Y-131100000D01*
X131935000Y-130941250D01*
X131935000Y-130573691D01*
X131838327Y-130340302D01*
X131659699Y-130161673D01*
X131643002Y-130154757D01*
X131643002Y-130065000D01*
X131464308Y-130065000D01*
X131715824Y-129813923D01*
X131934750Y-129286691D01*
X131935248Y-128715813D01*
X131717243Y-128188200D01*
X131313923Y-127784176D01*
X130786691Y-127565250D01*
X130215813Y-127564752D01*
X129688200Y-127782757D01*
X129284176Y-128186077D01*
X129065250Y-128713309D01*
X129064752Y-129284187D01*
X104934752Y-129284187D01*
X104935248Y-128715813D01*
X104717243Y-128188200D01*
X104313923Y-127784176D01*
X103786691Y-127565250D01*
X103215813Y-127564752D01*
X102688200Y-127782757D01*
X102284176Y-128186077D01*
X102065250Y-128713309D01*
X102064752Y-129284187D01*
X100741799Y-129284187D01*
X100741799Y-127833003D01*
X103814802Y-124760000D01*
X121866889Y-124760000D01*
X121941314Y-124834555D01*
X122303212Y-124984828D01*
X122695069Y-124985170D01*
X123057229Y-124835529D01*
X123334555Y-124558686D01*
X123484828Y-124196788D01*
X123485170Y-123804931D01*
X123335529Y-123442771D01*
X123260000Y-123367110D01*
X123260000Y-112922815D01*
X132864630Y-112922815D01*
X133188980Y-113707800D01*
X133789041Y-114308909D01*
X134573459Y-114634628D01*
X135422815Y-114635370D01*
X136207800Y-114311020D01*
X136808909Y-113710959D01*
X137134628Y-112926541D01*
X137135370Y-112077185D01*
X136811020Y-111292200D01*
X136210959Y-110691091D01*
X135426541Y-110365372D01*
X134577185Y-110364630D01*
X133792200Y-110688980D01*
X133191091Y-111289041D01*
X132865372Y-112073459D01*
X132864630Y-112922815D01*
X123260000Y-112922815D01*
X123260000Y-108328750D01*
X132865000Y-108328750D01*
X132865000Y-109046309D01*
X132961673Y-109279698D01*
X133140301Y-109458327D01*
X133373690Y-109555000D01*
X134091250Y-109555000D01*
X134250000Y-109396250D01*
X134250000Y-108170000D01*
X135750000Y-108170000D01*
X135750000Y-109396250D01*
X135908750Y-109555000D01*
X136626310Y-109555000D01*
X136859699Y-109458327D01*
X137038327Y-109279698D01*
X137135000Y-109046309D01*
X137135000Y-108328750D01*
X136976250Y-108170000D01*
X135750000Y-108170000D01*
X134250000Y-108170000D01*
X133023750Y-108170000D01*
X132865000Y-108328750D01*
X123260000Y-108328750D01*
X123260000Y-105793691D01*
X132865000Y-105793691D01*
X132865000Y-106511250D01*
X133023750Y-106670000D01*
X134250000Y-106670000D01*
X134250000Y-105443750D01*
X135750000Y-105443750D01*
X135750000Y-106670000D01*
X136976250Y-106670000D01*
X137135000Y-106511250D01*
X137135000Y-105793691D01*
X137038327Y-105560302D01*
X136859699Y-105381673D01*
X136626310Y-105285000D01*
X135908750Y-105285000D01*
X135750000Y-105443750D01*
X134250000Y-105443750D01*
X134091250Y-105285000D01*
X133373690Y-105285000D01*
X133140301Y-105381673D01*
X132961673Y-105560302D01*
X132865000Y-105793691D01*
X123260000Y-105793691D01*
X123260000Y-105633111D01*
X123334555Y-105558686D01*
X123484828Y-105196788D01*
X123485170Y-104804931D01*
X123335529Y-104442771D01*
X123058686Y-104165445D01*
X122696788Y-104015172D01*
X122304931Y-104014830D01*
X121999696Y-104140950D01*
X121696788Y-104015172D01*
X121304931Y-104014830D01*
X121030189Y-104128351D01*
X127037401Y-98121139D01*
X127202148Y-97874577D01*
X127247746Y-97645344D01*
X127334555Y-97558686D01*
X127484828Y-97196788D01*
X127485170Y-96804931D01*
X127335529Y-96442771D01*
X127058686Y-96165445D01*
X126696788Y-96015172D01*
X126304931Y-96014830D01*
X126119664Y-96091381D01*
X126046271Y-96017860D01*
X125684373Y-95867587D01*
X125292516Y-95867245D01*
X124930356Y-96016886D01*
X124653030Y-96293729D01*
X124502757Y-96655627D01*
X124502664Y-96762534D01*
X122828984Y-98436214D01*
X122558686Y-98165445D01*
X122196788Y-98015172D01*
X122089881Y-98015079D01*
X118691183Y-94616381D01*
X118691183Y-93360067D01*
X118700000Y-93351250D01*
X118700000Y-92687500D01*
X118691183Y-92687500D01*
X118691183Y-92312500D01*
X118700000Y-92312500D01*
X118700000Y-92127000D01*
X119300000Y-92127000D01*
X119300000Y-92312500D01*
X119600000Y-92312500D01*
X119600000Y-92687500D01*
X119300000Y-92687500D01*
X119300000Y-93351250D01*
X119458750Y-93510000D01*
X119600000Y-93510000D01*
X119600000Y-93643002D01*
X120235000Y-93643002D01*
X120235000Y-93509277D01*
X120300000Y-93522440D01*
X121500000Y-93522440D01*
X121735317Y-93478162D01*
X121880095Y-93385000D01*
X122562799Y-93385000D01*
X122803212Y-93484828D01*
X123195069Y-93485170D01*
X123557229Y-93335529D01*
X123834555Y-93058686D01*
X123984828Y-92696788D01*
X123985170Y-92304931D01*
X123835529Y-91942771D01*
X123558686Y-91665445D01*
X123196788Y-91515172D01*
X122804931Y-91514830D01*
X122562500Y-91615000D01*
X121878386Y-91615000D01*
X121751890Y-91528569D01*
X121500000Y-91477560D01*
X120300000Y-91477560D01*
X120235000Y-91489791D01*
X120235000Y-91356998D01*
X120127000Y-91356998D01*
X120127000Y-90752896D01*
X120152386Y-90752896D01*
X120152386Y-90622919D01*
X120297711Y-90477595D01*
X120394384Y-90244206D01*
X120394384Y-90126646D01*
X120235634Y-89967896D01*
X120127000Y-89967896D01*
X120127000Y-89667896D01*
X120235634Y-89667896D01*
X120394384Y-89509146D01*
X120394384Y-89391586D01*
X120304578Y-89174774D01*
X120355815Y-89099786D01*
X120406824Y-88847896D01*
X120406824Y-88247896D01*
X120367310Y-88037896D01*
X121104582Y-88037896D01*
X123011944Y-89945258D01*
X123011944Y-90117896D01*
X123056222Y-90353213D01*
X123195294Y-90569337D01*
X123407494Y-90714327D01*
X123659384Y-90765336D01*
X124740000Y-90765336D01*
X124740000Y-90866889D01*
X124665445Y-90941314D01*
X124515172Y-91303212D01*
X124514830Y-91695069D01*
X124664471Y-92057229D01*
X124941314Y-92334555D01*
X125303212Y-92484828D01*
X125695069Y-92485170D01*
X126057229Y-92335529D01*
X126334555Y-92058686D01*
X126484828Y-91696788D01*
X126485170Y-91304931D01*
X126335529Y-90942771D01*
X126260000Y-90867110D01*
X126260000Y-89188512D01*
X126202148Y-88897673D01*
X126037401Y-88651111D01*
X125934186Y-88547896D01*
X126024986Y-88457096D01*
X126189733Y-88210535D01*
X126247585Y-87919695D01*
X126247585Y-85961730D01*
X126303212Y-85984828D01*
X126695069Y-85985170D01*
X127057229Y-85835529D01*
X127334555Y-85558686D01*
X127484828Y-85196788D01*
X127485170Y-84804931D01*
X127335529Y-84442771D01*
X127058686Y-84165445D01*
X126696788Y-84015172D01*
X126589881Y-84015079D01*
X125806824Y-83232022D01*
X125806824Y-83167896D01*
X125762546Y-82932579D01*
X125698706Y-82833368D01*
X125755815Y-82749786D01*
X125806824Y-82497896D01*
X125806824Y-81897896D01*
X125762546Y-81662579D01*
X125623474Y-81446455D01*
X125411274Y-81301465D01*
X125159384Y-81250456D01*
X123659384Y-81250456D01*
X123424067Y-81294734D01*
X123395842Y-81312896D01*
X122802109Y-81312896D01*
X122802104Y-81312895D01*
X122463430Y-81380262D01*
X122463428Y-81380263D01*
X122463429Y-81380263D01*
X122192522Y-81561276D01*
X121942771Y-81664471D01*
X121665445Y-81941314D01*
X121515172Y-82303212D01*
X121514830Y-82695069D01*
X121664471Y-83057229D01*
X121941314Y-83334555D01*
X122303212Y-83484828D01*
X122695069Y-83485170D01*
X123011944Y-83354240D01*
X123011944Y-83767896D01*
X123056222Y-84003213D01*
X123120062Y-84102424D01*
X123062953Y-84186006D01*
X123011944Y-84437896D01*
X123011944Y-85037896D01*
X123051458Y-85247896D01*
X122864186Y-85247896D01*
X120546785Y-82930495D01*
X120330902Y-82786247D01*
X120355815Y-82749786D01*
X120406824Y-82497896D01*
X120406824Y-81897896D01*
X120362546Y-81662579D01*
X120223474Y-81446455D01*
X120011274Y-81301465D01*
X119759384Y-81250456D01*
X118691183Y-81250456D01*
X118691183Y-80883619D01*
X119589724Y-79985078D01*
X119695069Y-79985170D01*
X120057229Y-79835529D01*
X120132890Y-79760000D01*
X124500000Y-79760000D01*
X124790839Y-79702148D01*
X125037401Y-79537401D01*
X126157401Y-78417401D01*
X126322148Y-78170840D01*
X126380000Y-77880000D01*
X126380000Y-66372954D01*
X126670054Y-66179147D01*
X126890000Y-65849974D01*
X127109946Y-66179147D01*
X127591715Y-66501054D01*
X128160000Y-66614093D01*
X128728285Y-66501054D01*
X129210054Y-66179147D01*
X129430000Y-65849974D01*
X129649946Y-66179147D01*
X130131715Y-66501054D01*
X130700000Y-66614093D01*
X131268285Y-66501054D01*
X131750054Y-66179147D01*
X131970000Y-65849974D01*
X132189946Y-66179147D01*
X132671715Y-66501054D01*
X133240000Y-66614093D01*
X133808285Y-66501054D01*
X134290054Y-66179147D01*
X134611961Y-65697378D01*
X134725000Y-65129093D01*
X134725000Y-65070907D01*
X134611961Y-64502622D01*
X134306188Y-64045000D01*
X134383002Y-64045000D01*
X134383002Y-63463483D01*
X134578915Y-63202361D01*
X134504168Y-62985000D01*
X133665000Y-62985000D01*
X133665000Y-63410000D01*
X132815000Y-63410000D01*
X132815000Y-62985000D01*
X131975832Y-62985000D01*
X131970000Y-63001959D01*
X131964168Y-62985000D01*
X131125000Y-62985000D01*
X131125000Y-63410000D01*
X130275000Y-63410000D01*
X130275000Y-62985000D01*
X129435832Y-62985000D01*
X129430000Y-63001959D01*
X129424168Y-62985000D01*
X128585000Y-62985000D01*
X128585000Y-63410000D01*
X127735000Y-63410000D01*
X127735000Y-62985000D01*
X127310000Y-62985000D01*
X127310000Y-62135000D01*
X127735000Y-62135000D01*
X127735000Y-61303690D01*
X128585000Y-61303690D01*
X128585000Y-62135000D01*
X129424168Y-62135000D01*
X129430000Y-62118041D01*
X129435832Y-62135000D01*
X130275000Y-62135000D01*
X130275000Y-61303690D01*
X131125000Y-61303690D01*
X131125000Y-62135000D01*
X131964168Y-62135000D01*
X131970000Y-62118041D01*
X131975832Y-62135000D01*
X132815000Y-62135000D01*
X132815000Y-61303690D01*
X133665000Y-61303690D01*
X133665000Y-62135000D01*
X134504168Y-62135000D01*
X134578915Y-61917639D01*
X134231175Y-61454155D01*
X133882356Y-61221119D01*
X133665000Y-61303690D01*
X132815000Y-61303690D01*
X132597644Y-61221119D01*
X132248825Y-61454155D01*
X131970000Y-61825786D01*
X131691175Y-61454155D01*
X131342356Y-61221119D01*
X131125000Y-61303690D01*
X130275000Y-61303690D01*
X130057644Y-61221119D01*
X129708825Y-61454155D01*
X129430000Y-61825786D01*
X129151175Y-61454155D01*
X128802356Y-61221119D01*
X128585000Y-61303690D01*
X127735000Y-61303690D01*
X127517644Y-61221119D01*
X127224443Y-61416998D01*
X126675000Y-61416998D01*
X126675000Y-61488255D01*
X126670054Y-61480853D01*
X126188285Y-61158946D01*
X125620000Y-61045907D01*
X125051715Y-61158946D01*
X124569946Y-61480853D01*
X124350000Y-61810026D01*
X124130054Y-61480853D01*
X123648285Y-61158946D01*
X123080000Y-61045907D01*
X122511715Y-61158946D01*
X122029946Y-61480853D01*
X121810000Y-61810026D01*
X121590054Y-61480853D01*
X121108285Y-61158946D01*
X120540000Y-61045907D01*
X119971715Y-61158946D01*
X119489946Y-61480853D01*
X119270000Y-61810026D01*
X119050054Y-61480853D01*
X118568285Y-61158946D01*
X118000000Y-61045907D01*
X117431715Y-61158946D01*
X116949946Y-61480853D01*
X116922150Y-61522452D01*
X116913162Y-61474683D01*
X116774090Y-61258559D01*
X116561890Y-61113569D01*
X116310000Y-61062560D01*
X114610000Y-61062560D01*
X114374683Y-61106838D01*
X114158559Y-61245910D01*
X114013569Y-61458110D01*
X113962560Y-61710000D01*
X113962560Y-61929080D01*
X113822599Y-62022599D01*
X113744398Y-62100800D01*
X113579651Y-62347362D01*
X113521799Y-62638201D01*
X113521799Y-65781799D01*
X113579651Y-66072638D01*
X113744398Y-66319200D01*
X115240000Y-67814802D01*
X115240000Y-80866889D01*
X115165445Y-80941314D01*
X115015172Y-81303212D01*
X115014830Y-81695069D01*
X115164471Y-82057229D01*
X115441314Y-82334555D01*
X115803212Y-82484828D01*
X116195069Y-82485170D01*
X116557229Y-82335529D01*
X116834555Y-82058686D01*
X116984828Y-81696788D01*
X116985013Y-81484987D01*
X117171183Y-81485149D01*
X117171183Y-84659695D01*
X117229035Y-84950534D01*
X117393782Y-85197096D01*
X117471983Y-85275297D01*
X117687866Y-85419545D01*
X117662953Y-85456006D01*
X117611944Y-85707896D01*
X117611944Y-86307896D01*
X117656222Y-86543213D01*
X117720062Y-86642424D01*
X117662953Y-86726006D01*
X117611944Y-86977896D01*
X117611944Y-87577896D01*
X117656222Y-87813213D01*
X117720062Y-87912424D01*
X117662953Y-87996006D01*
X117611944Y-88247896D01*
X117611944Y-88420534D01*
X117393782Y-88638696D01*
X117229035Y-88885258D01*
X117171183Y-89176097D01*
X117171183Y-94931183D01*
X117212203Y-95137401D01*
X114260000Y-92185198D01*
X114260000Y-78633111D01*
X114334555Y-78558686D01*
X114484828Y-78196788D01*
X114485170Y-77804931D01*
X114335529Y-77442771D01*
X114058686Y-77165445D01*
X113696788Y-77015172D01*
X113484987Y-77014987D01*
X113485170Y-76804931D01*
X113335529Y-76442771D01*
X113058686Y-76165445D01*
X112696788Y-76015172D01*
X112484987Y-76014987D01*
X112485170Y-75804931D01*
X112335529Y-75442771D01*
X112058686Y-75165445D01*
X111696788Y-75015172D01*
X111484987Y-75014987D01*
X111485170Y-74804931D01*
X111335529Y-74442771D01*
X111058686Y-74165445D01*
X110696788Y-74015172D01*
X110484987Y-74014987D01*
X110485170Y-73804931D01*
X110335529Y-73442771D01*
X110058686Y-73165445D01*
X109696788Y-73015172D01*
X109484987Y-73014987D01*
X109485170Y-72804931D01*
X109335529Y-72442771D01*
X109058686Y-72165445D01*
X108696788Y-72015172D01*
X108484987Y-72014987D01*
X108485170Y-71804931D01*
X108335529Y-71442771D01*
X108058686Y-71165445D01*
X107696788Y-71015172D01*
X107304931Y-71014830D01*
X106942771Y-71164471D01*
X106665445Y-71441314D01*
X106515172Y-71803212D01*
X106514830Y-72195069D01*
X106664471Y-72557229D01*
X106740000Y-72632890D01*
X106740000Y-78711325D01*
X106696788Y-78693382D01*
X106304931Y-78693040D01*
X105942771Y-78842681D01*
X105665445Y-79119524D01*
X105515172Y-79481422D01*
X105515143Y-79515013D01*
X105304931Y-79514830D01*
X104942771Y-79664471D01*
X104665445Y-79941314D01*
X104515172Y-80303212D01*
X104514987Y-80515013D01*
X104304931Y-80514830D01*
X103942771Y-80664471D01*
X103665445Y-80941314D01*
X103515172Y-81303212D01*
X103514830Y-81695069D01*
X103664471Y-82057229D01*
X103740000Y-82132890D01*
X103740000Y-93685198D01*
X100244398Y-97180800D01*
X100079651Y-97427362D01*
X100021799Y-97718201D01*
X100021799Y-101421799D01*
X100079651Y-101712638D01*
X100244398Y-101959200D01*
X100538229Y-102253031D01*
X100475000Y-102570907D01*
X100475000Y-102629093D01*
X100588039Y-103197378D01*
X100909946Y-103679147D01*
X101391715Y-104001054D01*
X101960000Y-104114093D01*
X102528285Y-104001054D01*
X103010054Y-103679147D01*
X103230000Y-103349974D01*
X103449946Y-103679147D01*
X103931715Y-104001054D01*
X104500000Y-104114093D01*
X105068285Y-104001054D01*
X105550054Y-103679147D01*
X105770000Y-103349974D01*
X105989946Y-103679147D01*
X106280000Y-103872954D01*
X106280000Y-112145198D01*
X87922599Y-130502599D01*
X87757852Y-130749161D01*
X87700000Y-131040000D01*
X87700000Y-136062560D01*
X87610000Y-136062560D01*
X87374683Y-136106838D01*
X87158559Y-136245910D01*
X87013569Y-136458110D01*
X86962560Y-136710000D01*
X85710000Y-136710000D01*
X85710000Y-62638201D01*
X86521799Y-62638201D01*
X86521799Y-71281799D01*
X86579651Y-71572638D01*
X86744398Y-71819200D01*
X87014922Y-72089724D01*
X87014830Y-72195069D01*
X87164471Y-72557229D01*
X87441314Y-72834555D01*
X87803212Y-72984828D01*
X88015013Y-72985013D01*
X88014830Y-73195069D01*
X88164471Y-73557229D01*
X88441314Y-73834555D01*
X88803212Y-73984828D01*
X89015013Y-73985013D01*
X89014830Y-74195069D01*
X89164471Y-74557229D01*
X89441314Y-74834555D01*
X89803212Y-74984828D01*
X90195069Y-74985170D01*
X90557229Y-74835529D01*
X90834555Y-74558686D01*
X90984828Y-74196788D01*
X90985170Y-73804931D01*
X90835529Y-73442771D01*
X90725740Y-73332790D01*
X90702148Y-73214187D01*
X90702148Y-73214186D01*
X90581799Y-73034071D01*
X90581799Y-66530908D01*
X91000000Y-66614093D01*
X91568285Y-66501054D01*
X92050054Y-66179147D01*
X92270000Y-65849974D01*
X92489946Y-66179147D01*
X92780000Y-66372954D01*
X92780000Y-75326959D01*
X92665445Y-75441314D01*
X92515172Y-75803212D01*
X92514830Y-76195069D01*
X92664471Y-76557229D01*
X92941314Y-76834555D01*
X93303212Y-76984828D01*
X93695069Y-76985170D01*
X94057229Y-76835529D01*
X94334555Y-76558686D01*
X94484828Y-76196788D01*
X94485128Y-75852748D01*
X94803212Y-75984828D01*
X95195069Y-75985170D01*
X95320000Y-75933550D01*
X95320000Y-76287028D01*
X95165445Y-76441314D01*
X95015172Y-76803212D01*
X95014830Y-77195069D01*
X95164471Y-77557229D01*
X95441314Y-77834555D01*
X95803212Y-77984828D01*
X96195069Y-77985170D01*
X96515129Y-77852924D01*
X96514830Y-78195069D01*
X96664471Y-78557229D01*
X96941314Y-78834555D01*
X97303212Y-78984828D01*
X97515013Y-78985013D01*
X97514830Y-79195069D01*
X97664471Y-79557229D01*
X97941314Y-79834555D01*
X98303212Y-79984828D01*
X98695069Y-79985170D01*
X99057229Y-79835529D01*
X99334555Y-79558686D01*
X99484828Y-79196788D01*
X99485170Y-78804931D01*
X99380000Y-78550399D01*
X99380000Y-66372954D01*
X99670054Y-66179147D01*
X99890000Y-65849974D01*
X100109946Y-66179147D01*
X100591715Y-66501054D01*
X101160000Y-66614093D01*
X101728285Y-66501054D01*
X102210054Y-66179147D01*
X102430000Y-65849974D01*
X102649946Y-66179147D01*
X103131715Y-66501054D01*
X103700000Y-66614093D01*
X104268285Y-66501054D01*
X104750054Y-66179147D01*
X104970000Y-65849974D01*
X105189946Y-66179147D01*
X105671715Y-66501054D01*
X106240000Y-66614093D01*
X106808285Y-66501054D01*
X107290054Y-66179147D01*
X107611961Y-65697378D01*
X107725000Y-65129093D01*
X107725000Y-65070907D01*
X107611961Y-64502622D01*
X107306188Y-64045000D01*
X107383002Y-64045000D01*
X107383002Y-63463483D01*
X107578915Y-63202361D01*
X107504168Y-62985000D01*
X106665000Y-62985000D01*
X106665000Y-63410000D01*
X105815000Y-63410000D01*
X105815000Y-62985000D01*
X104975832Y-62985000D01*
X104970000Y-63001959D01*
X104964168Y-62985000D01*
X104125000Y-62985000D01*
X104125000Y-63410000D01*
X103275000Y-63410000D01*
X103275000Y-62985000D01*
X102435832Y-62985000D01*
X102430000Y-63001959D01*
X102424168Y-62985000D01*
X101585000Y-62985000D01*
X101585000Y-63410000D01*
X100735000Y-63410000D01*
X100735000Y-62985000D01*
X100310000Y-62985000D01*
X100310000Y-62135000D01*
X100735000Y-62135000D01*
X100735000Y-61303690D01*
X101585000Y-61303690D01*
X101585000Y-62135000D01*
X102424168Y-62135000D01*
X102430000Y-62118041D01*
X102435832Y-62135000D01*
X103275000Y-62135000D01*
X103275000Y-61303690D01*
X104125000Y-61303690D01*
X104125000Y-62135000D01*
X104964168Y-62135000D01*
X104970000Y-62118041D01*
X104975832Y-62135000D01*
X105815000Y-62135000D01*
X105815000Y-61303690D01*
X106665000Y-61303690D01*
X106665000Y-62135000D01*
X107504168Y-62135000D01*
X107578915Y-61917639D01*
X107231175Y-61454155D01*
X106882356Y-61221119D01*
X106665000Y-61303690D01*
X105815000Y-61303690D01*
X105597644Y-61221119D01*
X105248825Y-61454155D01*
X104970000Y-61825786D01*
X104691175Y-61454155D01*
X104342356Y-61221119D01*
X104125000Y-61303690D01*
X103275000Y-61303690D01*
X103057644Y-61221119D01*
X102708825Y-61454155D01*
X102430000Y-61825786D01*
X102151175Y-61454155D01*
X101802356Y-61221119D01*
X101585000Y-61303690D01*
X100735000Y-61303690D01*
X100517644Y-61221119D01*
X100224443Y-61416998D01*
X99675000Y-61416998D01*
X99675000Y-61488255D01*
X99670054Y-61480853D01*
X99188285Y-61158946D01*
X98620000Y-61045907D01*
X98051715Y-61158946D01*
X97569946Y-61480853D01*
X97350000Y-61810026D01*
X97130054Y-61480853D01*
X96648285Y-61158946D01*
X96080000Y-61045907D01*
X95511715Y-61158946D01*
X95029946Y-61480853D01*
X94810000Y-61810026D01*
X94590054Y-61480853D01*
X94108285Y-61158946D01*
X93540000Y-61045907D01*
X92971715Y-61158946D01*
X92489946Y-61480853D01*
X92270000Y-61810026D01*
X92050054Y-61480853D01*
X91568285Y-61158946D01*
X91000000Y-61045907D01*
X90431715Y-61158946D01*
X89949946Y-61480853D01*
X89922150Y-61522452D01*
X89913162Y-61474683D01*
X89774090Y-61258559D01*
X89561890Y-61113569D01*
X89310000Y-61062560D01*
X87610000Y-61062560D01*
X87374683Y-61106838D01*
X87158559Y-61245910D01*
X87013569Y-61458110D01*
X86962560Y-61710000D01*
X86962560Y-61929080D01*
X86822599Y-62022599D01*
X86744398Y-62100800D01*
X86579651Y-62347362D01*
X86521799Y-62638201D01*
X85710000Y-62638201D01*
X85710000Y-57058750D01*
X102065000Y-57058750D01*
X102065000Y-57426309D01*
X102161673Y-57659698D01*
X102340301Y-57838327D01*
X102573690Y-57935000D01*
X102941250Y-57935000D01*
X103100000Y-57776250D01*
X103100000Y-56900000D01*
X103900000Y-56900000D01*
X103900000Y-57776250D01*
X104058750Y-57935000D01*
X104426310Y-57935000D01*
X104659699Y-57838327D01*
X104838327Y-57659698D01*
X104935000Y-57426309D01*
X104935000Y-57058750D01*
X129065000Y-57058750D01*
X129065000Y-57426309D01*
X129161673Y-57659698D01*
X129340301Y-57838327D01*
X129573690Y-57935000D01*
X129941250Y-57935000D01*
X130100000Y-57776250D01*
X130100000Y-56900000D01*
X130900000Y-56900000D01*
X130900000Y-57776250D01*
X131058750Y-57935000D01*
X131426310Y-57935000D01*
X131659699Y-57838327D01*
X131838327Y-57659698D01*
X131935000Y-57426309D01*
X131935000Y-57058750D01*
X131776250Y-56900000D01*
X130900000Y-56900000D01*
X130100000Y-56900000D01*
X129223750Y-56900000D01*
X129065000Y-57058750D01*
X104935000Y-57058750D01*
X104776250Y-56900000D01*
X103900000Y-56900000D01*
X103100000Y-56900000D01*
X102223750Y-56900000D01*
X102065000Y-57058750D01*
X85710000Y-57058750D01*
X85710000Y-54284187D01*
X102064752Y-54284187D01*
X102282757Y-54811800D01*
X102535516Y-55065000D01*
X102356998Y-55065000D01*
X102356998Y-55154757D01*
X102340301Y-55161673D01*
X102161673Y-55340302D01*
X102065000Y-55573691D01*
X102065000Y-55941250D01*
X102223750Y-56100000D01*
X103100000Y-56100000D01*
X103100000Y-55700000D01*
X103900000Y-55700000D01*
X103900000Y-56100000D01*
X104776250Y-56100000D01*
X104935000Y-55941250D01*
X104935000Y-55573691D01*
X104838327Y-55340302D01*
X104659699Y-55161673D01*
X104643002Y-55154757D01*
X104643002Y-55065000D01*
X104464308Y-55065000D01*
X104715824Y-54813923D01*
X104934750Y-54286691D01*
X104934752Y-54284187D01*
X129064752Y-54284187D01*
X129282757Y-54811800D01*
X129535516Y-55065000D01*
X129356998Y-55065000D01*
X129356998Y-55154757D01*
X129340301Y-55161673D01*
X129161673Y-55340302D01*
X129065000Y-55573691D01*
X129065000Y-55941250D01*
X129223750Y-56100000D01*
X130100000Y-56100000D01*
X130100000Y-55700000D01*
X130900000Y-55700000D01*
X130900000Y-56100000D01*
X131776250Y-56100000D01*
X131935000Y-55941250D01*
X131935000Y-55573691D01*
X131838327Y-55340302D01*
X131659699Y-55161673D01*
X131643002Y-55154757D01*
X131643002Y-55065000D01*
X131464308Y-55065000D01*
X131715824Y-54813923D01*
X131934750Y-54286691D01*
X131935248Y-53715813D01*
X131717243Y-53188200D01*
X131313923Y-52784176D01*
X130786691Y-52565250D01*
X130215813Y-52564752D01*
X129688200Y-52782757D01*
X129284176Y-53186077D01*
X129065250Y-53713309D01*
X129064752Y-54284187D01*
X104934752Y-54284187D01*
X104935248Y-53715813D01*
X104717243Y-53188200D01*
X104313923Y-52784176D01*
X103786691Y-52565250D01*
X103215813Y-52564752D01*
X102688200Y-52782757D01*
X102284176Y-53186077D01*
X102065250Y-53713309D01*
X102064752Y-54284187D01*
X85710000Y-54284187D01*
X85710000Y-50710000D01*
X139290000Y-50710000D01*
X139290000Y-144290000D01*
M02*
