M48
;DRILL file {KiCad 4.0.7} date 03/15/18 12:31:28
;FORMAT={2:4/ absolute / inch / suppress leading zeros}
FMAT,2
INCH,TZ
T1C0.012
T2C0.031
T3C0.039
T4C0.060
%
G90
G05
M72
T1
X34646Y-28346
X35039Y-28740
X35433Y-29134
X36811Y-29921
X37402Y-29528
X37795Y-30315
X38386Y-30709
X38780Y-31102
X41142Y-32087
X41535Y-31693
X41929Y-31369
X42323Y-28346
X42717Y-28740
X43110Y-29134
X43504Y-29528
X43898Y-29921
X44291Y-30315
X44685Y-30709
X45472Y-42126
X45472Y-46063
X45669Y-32087
X45866Y-41732
X45866Y-46457
X46063Y-31693
X46260Y-46850
X46291Y-41499
X46430Y-31342
X46654Y-47244
X46977Y-41303
X47047Y-31102
X47047Y-47638
X47441Y-41339
X47441Y-48031
X47638Y-29528
X47835Y-41339
X47835Y-48425
X48031Y-29921
X48031Y-38976
X48228Y-32480
X48228Y-41339
X48228Y-48819
X48425Y-30315
X48425Y-36417
X48819Y-30709
X49405Y-38131
X49409Y-36024
X49803Y-33465
X49803Y-38189
T2
X40748Y-21260
X40748Y-22244
X40748Y-50787
X40748Y-51772
X51378Y-21260
X51378Y-22244
X51378Y-50787
X51378Y-51772
T3
X34827Y-24630
X34827Y-25630
X34827Y-54157
X34827Y-55157
X35827Y-24630
X35827Y-25630
X35827Y-54157
X35827Y-55157
X36827Y-24630
X36827Y-25630
X36827Y-54157
X36827Y-55157
X37827Y-24630
X37827Y-25630
X37827Y-54157
X37827Y-55157
X38827Y-24630
X38827Y-25630
X38827Y-54157
X38827Y-55157
X39827Y-24630
X39827Y-25630
X39827Y-54157
X39827Y-55157
X40142Y-39394
X40142Y-40394
X40827Y-24630
X40827Y-25630
X40827Y-54157
X40827Y-55157
X41142Y-39394
X41142Y-40394
X41827Y-24630
X41827Y-25630
X41827Y-54157
X41827Y-55157
X42142Y-39394
X42142Y-40394
X43142Y-39394
X43142Y-40394
X44142Y-39394
X44142Y-40394
X45142Y-39394
X45142Y-40394
X45457Y-24630
X45457Y-25630
X45457Y-54157
X45457Y-55157
X46142Y-39394
X46142Y-40394
X46457Y-24630
X46457Y-25630
X46457Y-54157
X46457Y-55157
X47142Y-39394
X47142Y-40394
X47457Y-24630
X47457Y-25630
X47457Y-54157
X47457Y-55157
X48457Y-24630
X48457Y-25630
X48457Y-54157
X48457Y-55157
X49457Y-24630
X49457Y-25630
X49457Y-54157
X49457Y-55157
X50457Y-24630
X50457Y-25630
X50457Y-54157
X50457Y-55157
X51457Y-24630
X51457Y-25630
X51457Y-54157
X51457Y-55157
X52457Y-24630
X52457Y-25630
X52457Y-54157
X52457Y-55157
T4
X53150Y-42291
X53150Y-44291
T0
M30
