G04 #@! TF.FileFunction,Soldermask,Top*
%FSLAX46Y46*%
G04 Gerber Fmt 4.6, Leading zero omitted, Abs format (unit mm)*
G04 Created by KiCad (PCBNEW 4.0.7) date 03/15/18 12:31:11*
%MOMM*%
%LPD*%
G01*
G04 APERTURE LIST*
%ADD10C,0.100000*%
G04 APERTURE END LIST*
D10*
G36*
X88640922Y-139214021D02*
X88640927Y-139214022D01*
X88640970Y-139214027D01*
X88808764Y-139265968D01*
X88963274Y-139349511D01*
X89098614Y-139461474D01*
X89209629Y-139597593D01*
X89292091Y-139752682D01*
X89342860Y-139920834D01*
X89360000Y-140095645D01*
X89360000Y-140104355D01*
X89359912Y-140116921D01*
X89340333Y-140291476D01*
X89287222Y-140458903D01*
X89202602Y-140612825D01*
X89089697Y-140747380D01*
X88952807Y-140857443D01*
X88797146Y-140938820D01*
X88628643Y-140988414D01*
X88628609Y-140988417D01*
X88628596Y-140988421D01*
X88453720Y-141004336D01*
X88279078Y-140985979D01*
X88279073Y-140985978D01*
X88279030Y-140985973D01*
X88111236Y-140934032D01*
X87956726Y-140850489D01*
X87821386Y-140738526D01*
X87710371Y-140602407D01*
X87627909Y-140447318D01*
X87577140Y-140279166D01*
X87560000Y-140104355D01*
X87560000Y-140095645D01*
X87560088Y-140083079D01*
X87579667Y-139908524D01*
X87632778Y-139741097D01*
X87717398Y-139587175D01*
X87830303Y-139452620D01*
X87967193Y-139342557D01*
X88122854Y-139261180D01*
X88291357Y-139211586D01*
X88291391Y-139211583D01*
X88291404Y-139211579D01*
X88466280Y-139195664D01*
X88640922Y-139214021D01*
X88640922Y-139214021D01*
G37*
G36*
X91180922Y-139214021D02*
X91180927Y-139214022D01*
X91180970Y-139214027D01*
X91348764Y-139265968D01*
X91503274Y-139349511D01*
X91638614Y-139461474D01*
X91749629Y-139597593D01*
X91832091Y-139752682D01*
X91882860Y-139920834D01*
X91900000Y-140095645D01*
X91900000Y-140104355D01*
X91899912Y-140116921D01*
X91880333Y-140291476D01*
X91827222Y-140458903D01*
X91742602Y-140612825D01*
X91629697Y-140747380D01*
X91492807Y-140857443D01*
X91337146Y-140938820D01*
X91168643Y-140988414D01*
X91168609Y-140988417D01*
X91168596Y-140988421D01*
X90993720Y-141004336D01*
X90819078Y-140985979D01*
X90819073Y-140985978D01*
X90819030Y-140985973D01*
X90651236Y-140934032D01*
X90496726Y-140850489D01*
X90361386Y-140738526D01*
X90250371Y-140602407D01*
X90167909Y-140447318D01*
X90117140Y-140279166D01*
X90100000Y-140104355D01*
X90100000Y-140095645D01*
X90100088Y-140083079D01*
X90119667Y-139908524D01*
X90172778Y-139741097D01*
X90257398Y-139587175D01*
X90370303Y-139452620D01*
X90507193Y-139342557D01*
X90662854Y-139261180D01*
X90831357Y-139211586D01*
X90831391Y-139211583D01*
X90831404Y-139211579D01*
X91006280Y-139195664D01*
X91180922Y-139214021D01*
X91180922Y-139214021D01*
G37*
G36*
X98800922Y-139214021D02*
X98800927Y-139214022D01*
X98800970Y-139214027D01*
X98968764Y-139265968D01*
X99123274Y-139349511D01*
X99258614Y-139461474D01*
X99369629Y-139597593D01*
X99452091Y-139752682D01*
X99502860Y-139920834D01*
X99520000Y-140095645D01*
X99520000Y-140104355D01*
X99519912Y-140116921D01*
X99500333Y-140291476D01*
X99447222Y-140458903D01*
X99362602Y-140612825D01*
X99249697Y-140747380D01*
X99112807Y-140857443D01*
X98957146Y-140938820D01*
X98788643Y-140988414D01*
X98788609Y-140988417D01*
X98788596Y-140988421D01*
X98613720Y-141004336D01*
X98439078Y-140985979D01*
X98439073Y-140985978D01*
X98439030Y-140985973D01*
X98271236Y-140934032D01*
X98116726Y-140850489D01*
X97981386Y-140738526D01*
X97870371Y-140602407D01*
X97787909Y-140447318D01*
X97737140Y-140279166D01*
X97720000Y-140104355D01*
X97720000Y-140095645D01*
X97720088Y-140083079D01*
X97739667Y-139908524D01*
X97792778Y-139741097D01*
X97877398Y-139587175D01*
X97990303Y-139452620D01*
X98127193Y-139342557D01*
X98282854Y-139261180D01*
X98451357Y-139211586D01*
X98451391Y-139211583D01*
X98451404Y-139211579D01*
X98626280Y-139195664D01*
X98800922Y-139214021D01*
X98800922Y-139214021D01*
G37*
G36*
X103880922Y-139214021D02*
X103880927Y-139214022D01*
X103880970Y-139214027D01*
X104048764Y-139265968D01*
X104203274Y-139349511D01*
X104338614Y-139461474D01*
X104449629Y-139597593D01*
X104532091Y-139752682D01*
X104582860Y-139920834D01*
X104600000Y-140095645D01*
X104600000Y-140104355D01*
X104599912Y-140116921D01*
X104580333Y-140291476D01*
X104527222Y-140458903D01*
X104442602Y-140612825D01*
X104329697Y-140747380D01*
X104192807Y-140857443D01*
X104037146Y-140938820D01*
X103868643Y-140988414D01*
X103868609Y-140988417D01*
X103868596Y-140988421D01*
X103693720Y-141004336D01*
X103519078Y-140985979D01*
X103519073Y-140985978D01*
X103519030Y-140985973D01*
X103351236Y-140934032D01*
X103196726Y-140850489D01*
X103061386Y-140738526D01*
X102950371Y-140602407D01*
X102867909Y-140447318D01*
X102817140Y-140279166D01*
X102800000Y-140104355D01*
X102800000Y-140095645D01*
X102800088Y-140083079D01*
X102819667Y-139908524D01*
X102872778Y-139741097D01*
X102957398Y-139587175D01*
X103070303Y-139452620D01*
X103207193Y-139342557D01*
X103362854Y-139261180D01*
X103531357Y-139211586D01*
X103531391Y-139211583D01*
X103531404Y-139211579D01*
X103706280Y-139195664D01*
X103880922Y-139214021D01*
X103880922Y-139214021D01*
G37*
G36*
X101340922Y-139214021D02*
X101340927Y-139214022D01*
X101340970Y-139214027D01*
X101508764Y-139265968D01*
X101663274Y-139349511D01*
X101798614Y-139461474D01*
X101909629Y-139597593D01*
X101992091Y-139752682D01*
X102042860Y-139920834D01*
X102060000Y-140095645D01*
X102060000Y-140104355D01*
X102059912Y-140116921D01*
X102040333Y-140291476D01*
X101987222Y-140458903D01*
X101902602Y-140612825D01*
X101789697Y-140747380D01*
X101652807Y-140857443D01*
X101497146Y-140938820D01*
X101328643Y-140988414D01*
X101328609Y-140988417D01*
X101328596Y-140988421D01*
X101153720Y-141004336D01*
X100979078Y-140985979D01*
X100979073Y-140985978D01*
X100979030Y-140985973D01*
X100811236Y-140934032D01*
X100656726Y-140850489D01*
X100521386Y-140738526D01*
X100410371Y-140602407D01*
X100327909Y-140447318D01*
X100277140Y-140279166D01*
X100260000Y-140104355D01*
X100260000Y-140095645D01*
X100260088Y-140083079D01*
X100279667Y-139908524D01*
X100332778Y-139741097D01*
X100417398Y-139587175D01*
X100530303Y-139452620D01*
X100667193Y-139342557D01*
X100822854Y-139261180D01*
X100991357Y-139211586D01*
X100991391Y-139211583D01*
X100991404Y-139211579D01*
X101166280Y-139195664D01*
X101340922Y-139214021D01*
X101340922Y-139214021D01*
G37*
G36*
X96260922Y-139214021D02*
X96260927Y-139214022D01*
X96260970Y-139214027D01*
X96428764Y-139265968D01*
X96583274Y-139349511D01*
X96718614Y-139461474D01*
X96829629Y-139597593D01*
X96912091Y-139752682D01*
X96962860Y-139920834D01*
X96980000Y-140095645D01*
X96980000Y-140104355D01*
X96979912Y-140116921D01*
X96960333Y-140291476D01*
X96907222Y-140458903D01*
X96822602Y-140612825D01*
X96709697Y-140747380D01*
X96572807Y-140857443D01*
X96417146Y-140938820D01*
X96248643Y-140988414D01*
X96248609Y-140988417D01*
X96248596Y-140988421D01*
X96073720Y-141004336D01*
X95899078Y-140985979D01*
X95899073Y-140985978D01*
X95899030Y-140985973D01*
X95731236Y-140934032D01*
X95576726Y-140850489D01*
X95441386Y-140738526D01*
X95330371Y-140602407D01*
X95247909Y-140447318D01*
X95197140Y-140279166D01*
X95180000Y-140104355D01*
X95180000Y-140095645D01*
X95180088Y-140083079D01*
X95199667Y-139908524D01*
X95252778Y-139741097D01*
X95337398Y-139587175D01*
X95450303Y-139452620D01*
X95587193Y-139342557D01*
X95742854Y-139261180D01*
X95911357Y-139211586D01*
X95911391Y-139211583D01*
X95911404Y-139211579D01*
X96086280Y-139195664D01*
X96260922Y-139214021D01*
X96260922Y-139214021D01*
G37*
G36*
X93720922Y-139214021D02*
X93720927Y-139214022D01*
X93720970Y-139214027D01*
X93888764Y-139265968D01*
X94043274Y-139349511D01*
X94178614Y-139461474D01*
X94289629Y-139597593D01*
X94372091Y-139752682D01*
X94422860Y-139920834D01*
X94440000Y-140095645D01*
X94440000Y-140104355D01*
X94439912Y-140116921D01*
X94420333Y-140291476D01*
X94367222Y-140458903D01*
X94282602Y-140612825D01*
X94169697Y-140747380D01*
X94032807Y-140857443D01*
X93877146Y-140938820D01*
X93708643Y-140988414D01*
X93708609Y-140988417D01*
X93708596Y-140988421D01*
X93533720Y-141004336D01*
X93359078Y-140985979D01*
X93359073Y-140985978D01*
X93359030Y-140985973D01*
X93191236Y-140934032D01*
X93036726Y-140850489D01*
X92901386Y-140738526D01*
X92790371Y-140602407D01*
X92707909Y-140447318D01*
X92657140Y-140279166D01*
X92640000Y-140104355D01*
X92640000Y-140095645D01*
X92640088Y-140083079D01*
X92659667Y-139908524D01*
X92712778Y-139741097D01*
X92797398Y-139587175D01*
X92910303Y-139452620D01*
X93047193Y-139342557D01*
X93202854Y-139261180D01*
X93371357Y-139211586D01*
X93371391Y-139211583D01*
X93371404Y-139211579D01*
X93546280Y-139195664D01*
X93720922Y-139214021D01*
X93720922Y-139214021D01*
G37*
G36*
X115640922Y-139214021D02*
X115640927Y-139214022D01*
X115640970Y-139214027D01*
X115808764Y-139265968D01*
X115963274Y-139349511D01*
X116098614Y-139461474D01*
X116209629Y-139597593D01*
X116292091Y-139752682D01*
X116342860Y-139920834D01*
X116360000Y-140095645D01*
X116360000Y-140104355D01*
X116359912Y-140116921D01*
X116340333Y-140291476D01*
X116287222Y-140458903D01*
X116202602Y-140612825D01*
X116089697Y-140747380D01*
X115952807Y-140857443D01*
X115797146Y-140938820D01*
X115628643Y-140988414D01*
X115628609Y-140988417D01*
X115628596Y-140988421D01*
X115453720Y-141004336D01*
X115279078Y-140985979D01*
X115279073Y-140985978D01*
X115279030Y-140985973D01*
X115111236Y-140934032D01*
X114956726Y-140850489D01*
X114821386Y-140738526D01*
X114710371Y-140602407D01*
X114627909Y-140447318D01*
X114577140Y-140279166D01*
X114560000Y-140104355D01*
X114560000Y-140095645D01*
X114560088Y-140083079D01*
X114579667Y-139908524D01*
X114632778Y-139741097D01*
X114717398Y-139587175D01*
X114830303Y-139452620D01*
X114967193Y-139342557D01*
X115122854Y-139261180D01*
X115291357Y-139211586D01*
X115291391Y-139211583D01*
X115291404Y-139211579D01*
X115466280Y-139195664D01*
X115640922Y-139214021D01*
X115640922Y-139214021D01*
G37*
G36*
X106420922Y-139214021D02*
X106420927Y-139214022D01*
X106420970Y-139214027D01*
X106588764Y-139265968D01*
X106743274Y-139349511D01*
X106878614Y-139461474D01*
X106989629Y-139597593D01*
X107072091Y-139752682D01*
X107122860Y-139920834D01*
X107140000Y-140095645D01*
X107140000Y-140104355D01*
X107139912Y-140116921D01*
X107120333Y-140291476D01*
X107067222Y-140458903D01*
X106982602Y-140612825D01*
X106869697Y-140747380D01*
X106732807Y-140857443D01*
X106577146Y-140938820D01*
X106408643Y-140988414D01*
X106408609Y-140988417D01*
X106408596Y-140988421D01*
X106233720Y-141004336D01*
X106059078Y-140985979D01*
X106059073Y-140985978D01*
X106059030Y-140985973D01*
X105891236Y-140934032D01*
X105736726Y-140850489D01*
X105601386Y-140738526D01*
X105490371Y-140602407D01*
X105407909Y-140447318D01*
X105357140Y-140279166D01*
X105340000Y-140104355D01*
X105340000Y-140095645D01*
X105340088Y-140083079D01*
X105359667Y-139908524D01*
X105412778Y-139741097D01*
X105497398Y-139587175D01*
X105610303Y-139452620D01*
X105747193Y-139342557D01*
X105902854Y-139261180D01*
X106071357Y-139211586D01*
X106071391Y-139211583D01*
X106071404Y-139211579D01*
X106246280Y-139195664D01*
X106420922Y-139214021D01*
X106420922Y-139214021D01*
G37*
G36*
X120720922Y-139214021D02*
X120720927Y-139214022D01*
X120720970Y-139214027D01*
X120888764Y-139265968D01*
X121043274Y-139349511D01*
X121178614Y-139461474D01*
X121289629Y-139597593D01*
X121372091Y-139752682D01*
X121422860Y-139920834D01*
X121440000Y-140095645D01*
X121440000Y-140104355D01*
X121439912Y-140116921D01*
X121420333Y-140291476D01*
X121367222Y-140458903D01*
X121282602Y-140612825D01*
X121169697Y-140747380D01*
X121032807Y-140857443D01*
X120877146Y-140938820D01*
X120708643Y-140988414D01*
X120708609Y-140988417D01*
X120708596Y-140988421D01*
X120533720Y-141004336D01*
X120359078Y-140985979D01*
X120359073Y-140985978D01*
X120359030Y-140985973D01*
X120191236Y-140934032D01*
X120036726Y-140850489D01*
X119901386Y-140738526D01*
X119790371Y-140602407D01*
X119707909Y-140447318D01*
X119657140Y-140279166D01*
X119640000Y-140104355D01*
X119640000Y-140095645D01*
X119640088Y-140083079D01*
X119659667Y-139908524D01*
X119712778Y-139741097D01*
X119797398Y-139587175D01*
X119910303Y-139452620D01*
X120047193Y-139342557D01*
X120202854Y-139261180D01*
X120371357Y-139211586D01*
X120371391Y-139211583D01*
X120371404Y-139211579D01*
X120546280Y-139195664D01*
X120720922Y-139214021D01*
X120720922Y-139214021D01*
G37*
G36*
X118180922Y-139214021D02*
X118180927Y-139214022D01*
X118180970Y-139214027D01*
X118348764Y-139265968D01*
X118503274Y-139349511D01*
X118638614Y-139461474D01*
X118749629Y-139597593D01*
X118832091Y-139752682D01*
X118882860Y-139920834D01*
X118900000Y-140095645D01*
X118900000Y-140104355D01*
X118899912Y-140116921D01*
X118880333Y-140291476D01*
X118827222Y-140458903D01*
X118742602Y-140612825D01*
X118629697Y-140747380D01*
X118492807Y-140857443D01*
X118337146Y-140938820D01*
X118168643Y-140988414D01*
X118168609Y-140988417D01*
X118168596Y-140988421D01*
X117993720Y-141004336D01*
X117819078Y-140985979D01*
X117819073Y-140985978D01*
X117819030Y-140985973D01*
X117651236Y-140934032D01*
X117496726Y-140850489D01*
X117361386Y-140738526D01*
X117250371Y-140602407D01*
X117167909Y-140447318D01*
X117117140Y-140279166D01*
X117100000Y-140104355D01*
X117100000Y-140095645D01*
X117100088Y-140083079D01*
X117119667Y-139908524D01*
X117172778Y-139741097D01*
X117257398Y-139587175D01*
X117370303Y-139452620D01*
X117507193Y-139342557D01*
X117662854Y-139261180D01*
X117831357Y-139211586D01*
X117831391Y-139211583D01*
X117831404Y-139211579D01*
X118006280Y-139195664D01*
X118180922Y-139214021D01*
X118180922Y-139214021D01*
G37*
G36*
X133420922Y-139214021D02*
X133420927Y-139214022D01*
X133420970Y-139214027D01*
X133588764Y-139265968D01*
X133743274Y-139349511D01*
X133878614Y-139461474D01*
X133989629Y-139597593D01*
X134072091Y-139752682D01*
X134122860Y-139920834D01*
X134140000Y-140095645D01*
X134140000Y-140104355D01*
X134139912Y-140116921D01*
X134120333Y-140291476D01*
X134067222Y-140458903D01*
X133982602Y-140612825D01*
X133869697Y-140747380D01*
X133732807Y-140857443D01*
X133577146Y-140938820D01*
X133408643Y-140988414D01*
X133408609Y-140988417D01*
X133408596Y-140988421D01*
X133233720Y-141004336D01*
X133059078Y-140985979D01*
X133059073Y-140985978D01*
X133059030Y-140985973D01*
X132891236Y-140934032D01*
X132736726Y-140850489D01*
X132601386Y-140738526D01*
X132490371Y-140602407D01*
X132407909Y-140447318D01*
X132357140Y-140279166D01*
X132340000Y-140104355D01*
X132340000Y-140095645D01*
X132340088Y-140083079D01*
X132359667Y-139908524D01*
X132412778Y-139741097D01*
X132497398Y-139587175D01*
X132610303Y-139452620D01*
X132747193Y-139342557D01*
X132902854Y-139261180D01*
X133071357Y-139211586D01*
X133071391Y-139211583D01*
X133071404Y-139211579D01*
X133246280Y-139195664D01*
X133420922Y-139214021D01*
X133420922Y-139214021D01*
G37*
G36*
X130880922Y-139214021D02*
X130880927Y-139214022D01*
X130880970Y-139214027D01*
X131048764Y-139265968D01*
X131203274Y-139349511D01*
X131338614Y-139461474D01*
X131449629Y-139597593D01*
X131532091Y-139752682D01*
X131582860Y-139920834D01*
X131600000Y-140095645D01*
X131600000Y-140104355D01*
X131599912Y-140116921D01*
X131580333Y-140291476D01*
X131527222Y-140458903D01*
X131442602Y-140612825D01*
X131329697Y-140747380D01*
X131192807Y-140857443D01*
X131037146Y-140938820D01*
X130868643Y-140988414D01*
X130868609Y-140988417D01*
X130868596Y-140988421D01*
X130693720Y-141004336D01*
X130519078Y-140985979D01*
X130519073Y-140985978D01*
X130519030Y-140985973D01*
X130351236Y-140934032D01*
X130196726Y-140850489D01*
X130061386Y-140738526D01*
X129950371Y-140602407D01*
X129867909Y-140447318D01*
X129817140Y-140279166D01*
X129800000Y-140104355D01*
X129800000Y-140095645D01*
X129800088Y-140083079D01*
X129819667Y-139908524D01*
X129872778Y-139741097D01*
X129957398Y-139587175D01*
X130070303Y-139452620D01*
X130207193Y-139342557D01*
X130362854Y-139261180D01*
X130531357Y-139211586D01*
X130531391Y-139211583D01*
X130531404Y-139211579D01*
X130706280Y-139195664D01*
X130880922Y-139214021D01*
X130880922Y-139214021D01*
G37*
G36*
X125800922Y-139214021D02*
X125800927Y-139214022D01*
X125800970Y-139214027D01*
X125968764Y-139265968D01*
X126123274Y-139349511D01*
X126258614Y-139461474D01*
X126369629Y-139597593D01*
X126452091Y-139752682D01*
X126502860Y-139920834D01*
X126520000Y-140095645D01*
X126520000Y-140104355D01*
X126519912Y-140116921D01*
X126500333Y-140291476D01*
X126447222Y-140458903D01*
X126362602Y-140612825D01*
X126249697Y-140747380D01*
X126112807Y-140857443D01*
X125957146Y-140938820D01*
X125788643Y-140988414D01*
X125788609Y-140988417D01*
X125788596Y-140988421D01*
X125613720Y-141004336D01*
X125439078Y-140985979D01*
X125439073Y-140985978D01*
X125439030Y-140985973D01*
X125271236Y-140934032D01*
X125116726Y-140850489D01*
X124981386Y-140738526D01*
X124870371Y-140602407D01*
X124787909Y-140447318D01*
X124737140Y-140279166D01*
X124720000Y-140104355D01*
X124720000Y-140095645D01*
X124720088Y-140083079D01*
X124739667Y-139908524D01*
X124792778Y-139741097D01*
X124877398Y-139587175D01*
X124990303Y-139452620D01*
X125127193Y-139342557D01*
X125282854Y-139261180D01*
X125451357Y-139211586D01*
X125451391Y-139211583D01*
X125451404Y-139211579D01*
X125626280Y-139195664D01*
X125800922Y-139214021D01*
X125800922Y-139214021D01*
G37*
G36*
X123260922Y-139214021D02*
X123260927Y-139214022D01*
X123260970Y-139214027D01*
X123428764Y-139265968D01*
X123583274Y-139349511D01*
X123718614Y-139461474D01*
X123829629Y-139597593D01*
X123912091Y-139752682D01*
X123962860Y-139920834D01*
X123980000Y-140095645D01*
X123980000Y-140104355D01*
X123979912Y-140116921D01*
X123960333Y-140291476D01*
X123907222Y-140458903D01*
X123822602Y-140612825D01*
X123709697Y-140747380D01*
X123572807Y-140857443D01*
X123417146Y-140938820D01*
X123248643Y-140988414D01*
X123248609Y-140988417D01*
X123248596Y-140988421D01*
X123073720Y-141004336D01*
X122899078Y-140985979D01*
X122899073Y-140985978D01*
X122899030Y-140985973D01*
X122731236Y-140934032D01*
X122576726Y-140850489D01*
X122441386Y-140738526D01*
X122330371Y-140602407D01*
X122247909Y-140447318D01*
X122197140Y-140279166D01*
X122180000Y-140104355D01*
X122180000Y-140095645D01*
X122180088Y-140083079D01*
X122199667Y-139908524D01*
X122252778Y-139741097D01*
X122337398Y-139587175D01*
X122450303Y-139452620D01*
X122587193Y-139342557D01*
X122742854Y-139261180D01*
X122911357Y-139211586D01*
X122911391Y-139211583D01*
X122911404Y-139211579D01*
X123086280Y-139195664D01*
X123260922Y-139214021D01*
X123260922Y-139214021D01*
G37*
G36*
X128340922Y-139214021D02*
X128340927Y-139214022D01*
X128340970Y-139214027D01*
X128508764Y-139265968D01*
X128663274Y-139349511D01*
X128798614Y-139461474D01*
X128909629Y-139597593D01*
X128992091Y-139752682D01*
X129042860Y-139920834D01*
X129060000Y-140095645D01*
X129060000Y-140104355D01*
X129059912Y-140116921D01*
X129040333Y-140291476D01*
X128987222Y-140458903D01*
X128902602Y-140612825D01*
X128789697Y-140747380D01*
X128652807Y-140857443D01*
X128497146Y-140938820D01*
X128328643Y-140988414D01*
X128328609Y-140988417D01*
X128328596Y-140988421D01*
X128153720Y-141004336D01*
X127979078Y-140985979D01*
X127979073Y-140985978D01*
X127979030Y-140985973D01*
X127811236Y-140934032D01*
X127656726Y-140850489D01*
X127521386Y-140738526D01*
X127410371Y-140602407D01*
X127327909Y-140447318D01*
X127277140Y-140279166D01*
X127260000Y-140104355D01*
X127260000Y-140095645D01*
X127260088Y-140083079D01*
X127279667Y-139908524D01*
X127332778Y-139741097D01*
X127417398Y-139587175D01*
X127530303Y-139452620D01*
X127667193Y-139342557D01*
X127822854Y-139261180D01*
X127991357Y-139211586D01*
X127991391Y-139211583D01*
X127991404Y-139211579D01*
X128166280Y-139195664D01*
X128340922Y-139214021D01*
X128340922Y-139214021D01*
G37*
G36*
X125800922Y-136674021D02*
X125800927Y-136674022D01*
X125800970Y-136674027D01*
X125968764Y-136725968D01*
X126123274Y-136809511D01*
X126258614Y-136921474D01*
X126369629Y-137057593D01*
X126452091Y-137212682D01*
X126502860Y-137380834D01*
X126520000Y-137555645D01*
X126520000Y-137564355D01*
X126519912Y-137576921D01*
X126500333Y-137751476D01*
X126447222Y-137918903D01*
X126362602Y-138072825D01*
X126249697Y-138207380D01*
X126112807Y-138317443D01*
X125957146Y-138398820D01*
X125788643Y-138448414D01*
X125788609Y-138448417D01*
X125788596Y-138448421D01*
X125613720Y-138464336D01*
X125439078Y-138445979D01*
X125439073Y-138445978D01*
X125439030Y-138445973D01*
X125271236Y-138394032D01*
X125116726Y-138310489D01*
X124981386Y-138198526D01*
X124870371Y-138062407D01*
X124787909Y-137907318D01*
X124737140Y-137739166D01*
X124720000Y-137564355D01*
X124720000Y-137555645D01*
X124720088Y-137543079D01*
X124739667Y-137368524D01*
X124792778Y-137201097D01*
X124877398Y-137047175D01*
X124990303Y-136912620D01*
X125127193Y-136802557D01*
X125282854Y-136721180D01*
X125451357Y-136671586D01*
X125451391Y-136671583D01*
X125451404Y-136671579D01*
X125626280Y-136655664D01*
X125800922Y-136674021D01*
X125800922Y-136674021D01*
G37*
G36*
X96260922Y-136674021D02*
X96260927Y-136674022D01*
X96260970Y-136674027D01*
X96428764Y-136725968D01*
X96583274Y-136809511D01*
X96718614Y-136921474D01*
X96829629Y-137057593D01*
X96912091Y-137212682D01*
X96962860Y-137380834D01*
X96980000Y-137555645D01*
X96980000Y-137564355D01*
X96979912Y-137576921D01*
X96960333Y-137751476D01*
X96907222Y-137918903D01*
X96822602Y-138072825D01*
X96709697Y-138207380D01*
X96572807Y-138317443D01*
X96417146Y-138398820D01*
X96248643Y-138448414D01*
X96248609Y-138448417D01*
X96248596Y-138448421D01*
X96073720Y-138464336D01*
X95899078Y-138445979D01*
X95899073Y-138445978D01*
X95899030Y-138445973D01*
X95731236Y-138394032D01*
X95576726Y-138310489D01*
X95441386Y-138198526D01*
X95330371Y-138062407D01*
X95247909Y-137907318D01*
X95197140Y-137739166D01*
X95180000Y-137564355D01*
X95180000Y-137555645D01*
X95180088Y-137543079D01*
X95199667Y-137368524D01*
X95252778Y-137201097D01*
X95337398Y-137047175D01*
X95450303Y-136912620D01*
X95587193Y-136802557D01*
X95742854Y-136721180D01*
X95911357Y-136671586D01*
X95911391Y-136671583D01*
X95911404Y-136671579D01*
X96086280Y-136655664D01*
X96260922Y-136674021D01*
X96260922Y-136674021D01*
G37*
G36*
X98800922Y-136674021D02*
X98800927Y-136674022D01*
X98800970Y-136674027D01*
X98968764Y-136725968D01*
X99123274Y-136809511D01*
X99258614Y-136921474D01*
X99369629Y-137057593D01*
X99452091Y-137212682D01*
X99502860Y-137380834D01*
X99520000Y-137555645D01*
X99520000Y-137564355D01*
X99519912Y-137576921D01*
X99500333Y-137751476D01*
X99447222Y-137918903D01*
X99362602Y-138072825D01*
X99249697Y-138207380D01*
X99112807Y-138317443D01*
X98957146Y-138398820D01*
X98788643Y-138448414D01*
X98788609Y-138448417D01*
X98788596Y-138448421D01*
X98613720Y-138464336D01*
X98439078Y-138445979D01*
X98439073Y-138445978D01*
X98439030Y-138445973D01*
X98271236Y-138394032D01*
X98116726Y-138310489D01*
X97981386Y-138198526D01*
X97870371Y-138062407D01*
X97787909Y-137907318D01*
X97737140Y-137739166D01*
X97720000Y-137564355D01*
X97720000Y-137555645D01*
X97720088Y-137543079D01*
X97739667Y-137368524D01*
X97792778Y-137201097D01*
X97877398Y-137047175D01*
X97990303Y-136912620D01*
X98127193Y-136802557D01*
X98282854Y-136721180D01*
X98451357Y-136671586D01*
X98451391Y-136671583D01*
X98451404Y-136671579D01*
X98626280Y-136655664D01*
X98800922Y-136674021D01*
X98800922Y-136674021D01*
G37*
G36*
X93720922Y-136674021D02*
X93720927Y-136674022D01*
X93720970Y-136674027D01*
X93888764Y-136725968D01*
X94043274Y-136809511D01*
X94178614Y-136921474D01*
X94289629Y-137057593D01*
X94372091Y-137212682D01*
X94422860Y-137380834D01*
X94440000Y-137555645D01*
X94440000Y-137564355D01*
X94439912Y-137576921D01*
X94420333Y-137751476D01*
X94367222Y-137918903D01*
X94282602Y-138072825D01*
X94169697Y-138207380D01*
X94032807Y-138317443D01*
X93877146Y-138398820D01*
X93708643Y-138448414D01*
X93708609Y-138448417D01*
X93708596Y-138448421D01*
X93533720Y-138464336D01*
X93359078Y-138445979D01*
X93359073Y-138445978D01*
X93359030Y-138445973D01*
X93191236Y-138394032D01*
X93036726Y-138310489D01*
X92901386Y-138198526D01*
X92790371Y-138062407D01*
X92707909Y-137907318D01*
X92657140Y-137739166D01*
X92640000Y-137564355D01*
X92640000Y-137555645D01*
X92640088Y-137543079D01*
X92659667Y-137368524D01*
X92712778Y-137201097D01*
X92797398Y-137047175D01*
X92910303Y-136912620D01*
X93047193Y-136802557D01*
X93202854Y-136721180D01*
X93371357Y-136671586D01*
X93371391Y-136671583D01*
X93371404Y-136671579D01*
X93546280Y-136655664D01*
X93720922Y-136674021D01*
X93720922Y-136674021D01*
G37*
G36*
X91180922Y-136674021D02*
X91180927Y-136674022D01*
X91180970Y-136674027D01*
X91348764Y-136725968D01*
X91503274Y-136809511D01*
X91638614Y-136921474D01*
X91749629Y-137057593D01*
X91832091Y-137212682D01*
X91882860Y-137380834D01*
X91900000Y-137555645D01*
X91900000Y-137564355D01*
X91899912Y-137576921D01*
X91880333Y-137751476D01*
X91827222Y-137918903D01*
X91742602Y-138072825D01*
X91629697Y-138207380D01*
X91492807Y-138317443D01*
X91337146Y-138398820D01*
X91168643Y-138448414D01*
X91168609Y-138448417D01*
X91168596Y-138448421D01*
X90993720Y-138464336D01*
X90819078Y-138445979D01*
X90819073Y-138445978D01*
X90819030Y-138445973D01*
X90651236Y-138394032D01*
X90496726Y-138310489D01*
X90361386Y-138198526D01*
X90250371Y-138062407D01*
X90167909Y-137907318D01*
X90117140Y-137739166D01*
X90100000Y-137564355D01*
X90100000Y-137555645D01*
X90100088Y-137543079D01*
X90119667Y-137368524D01*
X90172778Y-137201097D01*
X90257398Y-137047175D01*
X90370303Y-136912620D01*
X90507193Y-136802557D01*
X90662854Y-136721180D01*
X90831357Y-136671586D01*
X90831391Y-136671583D01*
X90831404Y-136671579D01*
X91006280Y-136655664D01*
X91180922Y-136674021D01*
X91180922Y-136674021D01*
G37*
G36*
X101340922Y-136674021D02*
X101340927Y-136674022D01*
X101340970Y-136674027D01*
X101508764Y-136725968D01*
X101663274Y-136809511D01*
X101798614Y-136921474D01*
X101909629Y-137057593D01*
X101992091Y-137212682D01*
X102042860Y-137380834D01*
X102060000Y-137555645D01*
X102060000Y-137564355D01*
X102059912Y-137576921D01*
X102040333Y-137751476D01*
X101987222Y-137918903D01*
X101902602Y-138072825D01*
X101789697Y-138207380D01*
X101652807Y-138317443D01*
X101497146Y-138398820D01*
X101328643Y-138448414D01*
X101328609Y-138448417D01*
X101328596Y-138448421D01*
X101153720Y-138464336D01*
X100979078Y-138445979D01*
X100979073Y-138445978D01*
X100979030Y-138445973D01*
X100811236Y-138394032D01*
X100656726Y-138310489D01*
X100521386Y-138198526D01*
X100410371Y-138062407D01*
X100327909Y-137907318D01*
X100277140Y-137739166D01*
X100260000Y-137564355D01*
X100260000Y-137555645D01*
X100260088Y-137543079D01*
X100279667Y-137368524D01*
X100332778Y-137201097D01*
X100417398Y-137047175D01*
X100530303Y-136912620D01*
X100667193Y-136802557D01*
X100822854Y-136721180D01*
X100991357Y-136671586D01*
X100991391Y-136671583D01*
X100991404Y-136671579D01*
X101166280Y-136655664D01*
X101340922Y-136674021D01*
X101340922Y-136674021D01*
G37*
G36*
X133420922Y-136674021D02*
X133420927Y-136674022D01*
X133420970Y-136674027D01*
X133588764Y-136725968D01*
X133743274Y-136809511D01*
X133878614Y-136921474D01*
X133989629Y-137057593D01*
X134072091Y-137212682D01*
X134122860Y-137380834D01*
X134140000Y-137555645D01*
X134140000Y-137564355D01*
X134139912Y-137576921D01*
X134120333Y-137751476D01*
X134067222Y-137918903D01*
X133982602Y-138072825D01*
X133869697Y-138207380D01*
X133732807Y-138317443D01*
X133577146Y-138398820D01*
X133408643Y-138448414D01*
X133408609Y-138448417D01*
X133408596Y-138448421D01*
X133233720Y-138464336D01*
X133059078Y-138445979D01*
X133059073Y-138445978D01*
X133059030Y-138445973D01*
X132891236Y-138394032D01*
X132736726Y-138310489D01*
X132601386Y-138198526D01*
X132490371Y-138062407D01*
X132407909Y-137907318D01*
X132357140Y-137739166D01*
X132340000Y-137564355D01*
X132340000Y-137555645D01*
X132340088Y-137543079D01*
X132359667Y-137368524D01*
X132412778Y-137201097D01*
X132497398Y-137047175D01*
X132610303Y-136912620D01*
X132747193Y-136802557D01*
X132902854Y-136721180D01*
X133071357Y-136671586D01*
X133071391Y-136671583D01*
X133071404Y-136671579D01*
X133246280Y-136655664D01*
X133420922Y-136674021D01*
X133420922Y-136674021D01*
G37*
G36*
X128340922Y-136674021D02*
X128340927Y-136674022D01*
X128340970Y-136674027D01*
X128508764Y-136725968D01*
X128663274Y-136809511D01*
X128798614Y-136921474D01*
X128909629Y-137057593D01*
X128992091Y-137212682D01*
X129042860Y-137380834D01*
X129060000Y-137555645D01*
X129060000Y-137564355D01*
X129059912Y-137576921D01*
X129040333Y-137751476D01*
X128987222Y-137918903D01*
X128902602Y-138072825D01*
X128789697Y-138207380D01*
X128652807Y-138317443D01*
X128497146Y-138398820D01*
X128328643Y-138448414D01*
X128328609Y-138448417D01*
X128328596Y-138448421D01*
X128153720Y-138464336D01*
X127979078Y-138445979D01*
X127979073Y-138445978D01*
X127979030Y-138445973D01*
X127811236Y-138394032D01*
X127656726Y-138310489D01*
X127521386Y-138198526D01*
X127410371Y-138062407D01*
X127327909Y-137907318D01*
X127277140Y-137739166D01*
X127260000Y-137564355D01*
X127260000Y-137555645D01*
X127260088Y-137543079D01*
X127279667Y-137368524D01*
X127332778Y-137201097D01*
X127417398Y-137047175D01*
X127530303Y-136912620D01*
X127667193Y-136802557D01*
X127822854Y-136721180D01*
X127991357Y-136671586D01*
X127991391Y-136671583D01*
X127991404Y-136671579D01*
X128166280Y-136655664D01*
X128340922Y-136674021D01*
X128340922Y-136674021D01*
G37*
G36*
X123260922Y-136674021D02*
X123260927Y-136674022D01*
X123260970Y-136674027D01*
X123428764Y-136725968D01*
X123583274Y-136809511D01*
X123718614Y-136921474D01*
X123829629Y-137057593D01*
X123912091Y-137212682D01*
X123962860Y-137380834D01*
X123980000Y-137555645D01*
X123980000Y-137564355D01*
X123979912Y-137576921D01*
X123960333Y-137751476D01*
X123907222Y-137918903D01*
X123822602Y-138072825D01*
X123709697Y-138207380D01*
X123572807Y-138317443D01*
X123417146Y-138398820D01*
X123248643Y-138448414D01*
X123248609Y-138448417D01*
X123248596Y-138448421D01*
X123073720Y-138464336D01*
X122899078Y-138445979D01*
X122899073Y-138445978D01*
X122899030Y-138445973D01*
X122731236Y-138394032D01*
X122576726Y-138310489D01*
X122441386Y-138198526D01*
X122330371Y-138062407D01*
X122247909Y-137907318D01*
X122197140Y-137739166D01*
X122180000Y-137564355D01*
X122180000Y-137555645D01*
X122180088Y-137543079D01*
X122199667Y-137368524D01*
X122252778Y-137201097D01*
X122337398Y-137047175D01*
X122450303Y-136912620D01*
X122587193Y-136802557D01*
X122742854Y-136721180D01*
X122911357Y-136671586D01*
X122911391Y-136671583D01*
X122911404Y-136671579D01*
X123086280Y-136655664D01*
X123260922Y-136674021D01*
X123260922Y-136674021D01*
G37*
G36*
X120720922Y-136674021D02*
X120720927Y-136674022D01*
X120720970Y-136674027D01*
X120888764Y-136725968D01*
X121043274Y-136809511D01*
X121178614Y-136921474D01*
X121289629Y-137057593D01*
X121372091Y-137212682D01*
X121422860Y-137380834D01*
X121440000Y-137555645D01*
X121440000Y-137564355D01*
X121439912Y-137576921D01*
X121420333Y-137751476D01*
X121367222Y-137918903D01*
X121282602Y-138072825D01*
X121169697Y-138207380D01*
X121032807Y-138317443D01*
X120877146Y-138398820D01*
X120708643Y-138448414D01*
X120708609Y-138448417D01*
X120708596Y-138448421D01*
X120533720Y-138464336D01*
X120359078Y-138445979D01*
X120359073Y-138445978D01*
X120359030Y-138445973D01*
X120191236Y-138394032D01*
X120036726Y-138310489D01*
X119901386Y-138198526D01*
X119790371Y-138062407D01*
X119707909Y-137907318D01*
X119657140Y-137739166D01*
X119640000Y-137564355D01*
X119640000Y-137555645D01*
X119640088Y-137543079D01*
X119659667Y-137368524D01*
X119712778Y-137201097D01*
X119797398Y-137047175D01*
X119910303Y-136912620D01*
X120047193Y-136802557D01*
X120202854Y-136721180D01*
X120371357Y-136671586D01*
X120371391Y-136671583D01*
X120371404Y-136671579D01*
X120546280Y-136655664D01*
X120720922Y-136674021D01*
X120720922Y-136674021D01*
G37*
G36*
X118180922Y-136674021D02*
X118180927Y-136674022D01*
X118180970Y-136674027D01*
X118348764Y-136725968D01*
X118503274Y-136809511D01*
X118638614Y-136921474D01*
X118749629Y-137057593D01*
X118832091Y-137212682D01*
X118882860Y-137380834D01*
X118900000Y-137555645D01*
X118900000Y-137564355D01*
X118899912Y-137576921D01*
X118880333Y-137751476D01*
X118827222Y-137918903D01*
X118742602Y-138072825D01*
X118629697Y-138207380D01*
X118492807Y-138317443D01*
X118337146Y-138398820D01*
X118168643Y-138448414D01*
X118168609Y-138448417D01*
X118168596Y-138448421D01*
X117993720Y-138464336D01*
X117819078Y-138445979D01*
X117819073Y-138445978D01*
X117819030Y-138445973D01*
X117651236Y-138394032D01*
X117496726Y-138310489D01*
X117361386Y-138198526D01*
X117250371Y-138062407D01*
X117167909Y-137907318D01*
X117117140Y-137739166D01*
X117100000Y-137564355D01*
X117100000Y-137555645D01*
X117100088Y-137543079D01*
X117119667Y-137368524D01*
X117172778Y-137201097D01*
X117257398Y-137047175D01*
X117370303Y-136912620D01*
X117507193Y-136802557D01*
X117662854Y-136721180D01*
X117831357Y-136671586D01*
X117831391Y-136671583D01*
X117831404Y-136671579D01*
X118006280Y-136655664D01*
X118180922Y-136674021D01*
X118180922Y-136674021D01*
G37*
G36*
X106420922Y-136674021D02*
X106420927Y-136674022D01*
X106420970Y-136674027D01*
X106588764Y-136725968D01*
X106743274Y-136809511D01*
X106878614Y-136921474D01*
X106989629Y-137057593D01*
X107072091Y-137212682D01*
X107122860Y-137380834D01*
X107140000Y-137555645D01*
X107140000Y-137564355D01*
X107139912Y-137576921D01*
X107120333Y-137751476D01*
X107067222Y-137918903D01*
X106982602Y-138072825D01*
X106869697Y-138207380D01*
X106732807Y-138317443D01*
X106577146Y-138398820D01*
X106408643Y-138448414D01*
X106408609Y-138448417D01*
X106408596Y-138448421D01*
X106233720Y-138464336D01*
X106059078Y-138445979D01*
X106059073Y-138445978D01*
X106059030Y-138445973D01*
X105891236Y-138394032D01*
X105736726Y-138310489D01*
X105601386Y-138198526D01*
X105490371Y-138062407D01*
X105407909Y-137907318D01*
X105357140Y-137739166D01*
X105340000Y-137564355D01*
X105340000Y-137555645D01*
X105340088Y-137543079D01*
X105359667Y-137368524D01*
X105412778Y-137201097D01*
X105497398Y-137047175D01*
X105610303Y-136912620D01*
X105747193Y-136802557D01*
X105902854Y-136721180D01*
X106071357Y-136671586D01*
X106071391Y-136671583D01*
X106071404Y-136671579D01*
X106246280Y-136655664D01*
X106420922Y-136674021D01*
X106420922Y-136674021D01*
G37*
G36*
X103880922Y-136674021D02*
X103880927Y-136674022D01*
X103880970Y-136674027D01*
X104048764Y-136725968D01*
X104203274Y-136809511D01*
X104338614Y-136921474D01*
X104449629Y-137057593D01*
X104532091Y-137212682D01*
X104582860Y-137380834D01*
X104600000Y-137555645D01*
X104600000Y-137564355D01*
X104599912Y-137576921D01*
X104580333Y-137751476D01*
X104527222Y-137918903D01*
X104442602Y-138072825D01*
X104329697Y-138207380D01*
X104192807Y-138317443D01*
X104037146Y-138398820D01*
X103868643Y-138448414D01*
X103868609Y-138448417D01*
X103868596Y-138448421D01*
X103693720Y-138464336D01*
X103519078Y-138445979D01*
X103519073Y-138445978D01*
X103519030Y-138445973D01*
X103351236Y-138394032D01*
X103196726Y-138310489D01*
X103061386Y-138198526D01*
X102950371Y-138062407D01*
X102867909Y-137907318D01*
X102817140Y-137739166D01*
X102800000Y-137564355D01*
X102800000Y-137555645D01*
X102800088Y-137543079D01*
X102819667Y-137368524D01*
X102872778Y-137201097D01*
X102957398Y-137047175D01*
X103070303Y-136912620D01*
X103207193Y-136802557D01*
X103362854Y-136721180D01*
X103531357Y-136671586D01*
X103531391Y-136671583D01*
X103531404Y-136671579D01*
X103706280Y-136655664D01*
X103880922Y-136674021D01*
X103880922Y-136674021D01*
G37*
G36*
X130880922Y-136674021D02*
X130880927Y-136674022D01*
X130880970Y-136674027D01*
X131048764Y-136725968D01*
X131203274Y-136809511D01*
X131338614Y-136921474D01*
X131449629Y-137057593D01*
X131532091Y-137212682D01*
X131582860Y-137380834D01*
X131600000Y-137555645D01*
X131600000Y-137564355D01*
X131599912Y-137576921D01*
X131580333Y-137751476D01*
X131527222Y-137918903D01*
X131442602Y-138072825D01*
X131329697Y-138207380D01*
X131192807Y-138317443D01*
X131037146Y-138398820D01*
X130868643Y-138448414D01*
X130868609Y-138448417D01*
X130868596Y-138448421D01*
X130693720Y-138464336D01*
X130519078Y-138445979D01*
X130519073Y-138445978D01*
X130519030Y-138445973D01*
X130351236Y-138394032D01*
X130196726Y-138310489D01*
X130061386Y-138198526D01*
X129950371Y-138062407D01*
X129867909Y-137907318D01*
X129817140Y-137739166D01*
X129800000Y-137564355D01*
X129800000Y-137555645D01*
X129800088Y-137543079D01*
X129819667Y-137368524D01*
X129872778Y-137201097D01*
X129957398Y-137047175D01*
X130070303Y-136912620D01*
X130207193Y-136802557D01*
X130362854Y-136721180D01*
X130531357Y-136671586D01*
X130531391Y-136671583D01*
X130531404Y-136671579D01*
X130706280Y-136655664D01*
X130880922Y-136674021D01*
X130880922Y-136674021D01*
G37*
G36*
X89360000Y-138460000D02*
X87560000Y-138460000D01*
X87560000Y-136660000D01*
X89360000Y-136660000D01*
X89360000Y-138460000D01*
X89360000Y-138460000D01*
G37*
G36*
X116360000Y-138460000D02*
X114560000Y-138460000D01*
X114560000Y-136660000D01*
X116360000Y-136660000D01*
X116360000Y-138460000D01*
X116360000Y-138460000D01*
G37*
G36*
X104350000Y-132350000D02*
X102650000Y-132350000D01*
X102650000Y-130650000D01*
X104350000Y-130650000D01*
X104350000Y-132350000D01*
X104350000Y-132350000D01*
G37*
G36*
X131350000Y-132350000D02*
X129650000Y-132350000D01*
X129650000Y-130650000D01*
X131350000Y-130650000D01*
X131350000Y-132350000D01*
X131350000Y-132350000D01*
G37*
G36*
X130589279Y-128150564D02*
X130752570Y-128184083D01*
X130906236Y-128248678D01*
X131044433Y-128341892D01*
X131161893Y-128460176D01*
X131254140Y-128599018D01*
X131317661Y-128753132D01*
X131349971Y-128916309D01*
X131349971Y-128916319D01*
X131350037Y-128916653D01*
X131347378Y-129107049D01*
X131347302Y-129107383D01*
X131347302Y-129107395D01*
X131310451Y-129269599D01*
X131242649Y-129421883D01*
X131146562Y-129558095D01*
X131025843Y-129673054D01*
X130885102Y-129762370D01*
X130729688Y-129822653D01*
X130565529Y-129851598D01*
X130398872Y-129848107D01*
X130236062Y-129812311D01*
X130083315Y-129745577D01*
X129946429Y-129650439D01*
X129830634Y-129530530D01*
X129740337Y-129390417D01*
X129678972Y-129235428D01*
X129648880Y-129071467D01*
X129651208Y-128904791D01*
X129685864Y-128741744D01*
X129751534Y-128588527D01*
X129845710Y-128450986D01*
X129964810Y-128334354D01*
X130104292Y-128243079D01*
X130258848Y-128180635D01*
X130422586Y-128149400D01*
X130589279Y-128150564D01*
X130589279Y-128150564D01*
G37*
G36*
X103589279Y-128150564D02*
X103752570Y-128184083D01*
X103906236Y-128248678D01*
X104044433Y-128341892D01*
X104161893Y-128460176D01*
X104254140Y-128599018D01*
X104317661Y-128753132D01*
X104349971Y-128916309D01*
X104349971Y-128916319D01*
X104350037Y-128916653D01*
X104347378Y-129107049D01*
X104347302Y-129107383D01*
X104347302Y-129107395D01*
X104310451Y-129269599D01*
X104242649Y-129421883D01*
X104146562Y-129558095D01*
X104025843Y-129673054D01*
X103885102Y-129762370D01*
X103729688Y-129822653D01*
X103565529Y-129851598D01*
X103398872Y-129848107D01*
X103236062Y-129812311D01*
X103083315Y-129745577D01*
X102946429Y-129650439D01*
X102830634Y-129530530D01*
X102740337Y-129390417D01*
X102678972Y-129235428D01*
X102648880Y-129071467D01*
X102651208Y-128904791D01*
X102685864Y-128741744D01*
X102751534Y-128588527D01*
X102845710Y-128450986D01*
X102964810Y-128334354D01*
X103104292Y-128243079D01*
X103258848Y-128180635D01*
X103422586Y-128149400D01*
X103589279Y-128150564D01*
X103589279Y-128150564D01*
G37*
G36*
X135162803Y-110951030D02*
X135460567Y-111012153D01*
X135740784Y-111129945D01*
X135992788Y-111299923D01*
X136206979Y-111515615D01*
X136375194Y-111768798D01*
X136491027Y-112049830D01*
X136550001Y-112347671D01*
X136550001Y-112347681D01*
X136550067Y-112348015D01*
X136545219Y-112695207D01*
X136545142Y-112695545D01*
X136545142Y-112695553D01*
X136477878Y-112991622D01*
X136354241Y-113269315D01*
X136179023Y-113517703D01*
X135958891Y-113727331D01*
X135702244Y-113890204D01*
X135418843Y-114000129D01*
X135119492Y-114052912D01*
X134815588Y-114046546D01*
X134518703Y-113981272D01*
X134240161Y-113859579D01*
X133990549Y-113686095D01*
X133779394Y-113467437D01*
X133614733Y-113211934D01*
X133502833Y-112929308D01*
X133447960Y-112630325D01*
X133452205Y-112326385D01*
X133515402Y-112029061D01*
X133635151Y-111749667D01*
X133806884Y-111498857D01*
X134024065Y-111286178D01*
X134278416Y-111119735D01*
X134560253Y-111005866D01*
X134858836Y-110948908D01*
X135162803Y-110951030D01*
X135162803Y-110951030D01*
G37*
G36*
X136550000Y-108970000D02*
X133450000Y-108970000D01*
X133450000Y-105870000D01*
X136550000Y-105870000D01*
X136550000Y-108970000D01*
X136550000Y-108970000D01*
G37*
G36*
X114840922Y-101714021D02*
X114840927Y-101714022D01*
X114840970Y-101714027D01*
X115008764Y-101765968D01*
X115163274Y-101849511D01*
X115298614Y-101961474D01*
X115409629Y-102097593D01*
X115492091Y-102252682D01*
X115542860Y-102420834D01*
X115560000Y-102595645D01*
X115560000Y-102604355D01*
X115559912Y-102616921D01*
X115540333Y-102791476D01*
X115487222Y-102958903D01*
X115402602Y-103112825D01*
X115289697Y-103247380D01*
X115152807Y-103357443D01*
X114997146Y-103438820D01*
X114828643Y-103488414D01*
X114828609Y-103488417D01*
X114828596Y-103488421D01*
X114653720Y-103504336D01*
X114479078Y-103485979D01*
X114479073Y-103485978D01*
X114479030Y-103485973D01*
X114311236Y-103434032D01*
X114156726Y-103350489D01*
X114021386Y-103238526D01*
X113910371Y-103102407D01*
X113827909Y-102947318D01*
X113777140Y-102779166D01*
X113760000Y-102604355D01*
X113760000Y-102595645D01*
X113760088Y-102583079D01*
X113779667Y-102408524D01*
X113832778Y-102241097D01*
X113917398Y-102087175D01*
X114030303Y-101952620D01*
X114167193Y-101842557D01*
X114322854Y-101761180D01*
X114491357Y-101711586D01*
X114491391Y-101711583D01*
X114491404Y-101711579D01*
X114666280Y-101695664D01*
X114840922Y-101714021D01*
X114840922Y-101714021D01*
G37*
G36*
X102140922Y-101714021D02*
X102140927Y-101714022D01*
X102140970Y-101714027D01*
X102308764Y-101765968D01*
X102463274Y-101849511D01*
X102598614Y-101961474D01*
X102709629Y-102097593D01*
X102792091Y-102252682D01*
X102842860Y-102420834D01*
X102860000Y-102595645D01*
X102860000Y-102604355D01*
X102859912Y-102616921D01*
X102840333Y-102791476D01*
X102787222Y-102958903D01*
X102702602Y-103112825D01*
X102589697Y-103247380D01*
X102452807Y-103357443D01*
X102297146Y-103438820D01*
X102128643Y-103488414D01*
X102128609Y-103488417D01*
X102128596Y-103488421D01*
X101953720Y-103504336D01*
X101779078Y-103485979D01*
X101779073Y-103485978D01*
X101779030Y-103485973D01*
X101611236Y-103434032D01*
X101456726Y-103350489D01*
X101321386Y-103238526D01*
X101210371Y-103102407D01*
X101127909Y-102947318D01*
X101077140Y-102779166D01*
X101060000Y-102604355D01*
X101060000Y-102595645D01*
X101060088Y-102583079D01*
X101079667Y-102408524D01*
X101132778Y-102241097D01*
X101217398Y-102087175D01*
X101330303Y-101952620D01*
X101467193Y-101842557D01*
X101622854Y-101761180D01*
X101791357Y-101711586D01*
X101791391Y-101711583D01*
X101791404Y-101711579D01*
X101966280Y-101695664D01*
X102140922Y-101714021D01*
X102140922Y-101714021D01*
G37*
G36*
X119920922Y-101714021D02*
X119920927Y-101714022D01*
X119920970Y-101714027D01*
X120088764Y-101765968D01*
X120243274Y-101849511D01*
X120378614Y-101961474D01*
X120489629Y-102097593D01*
X120572091Y-102252682D01*
X120622860Y-102420834D01*
X120640000Y-102595645D01*
X120640000Y-102604355D01*
X120639912Y-102616921D01*
X120620333Y-102791476D01*
X120567222Y-102958903D01*
X120482602Y-103112825D01*
X120369697Y-103247380D01*
X120232807Y-103357443D01*
X120077146Y-103438820D01*
X119908643Y-103488414D01*
X119908609Y-103488417D01*
X119908596Y-103488421D01*
X119733720Y-103504336D01*
X119559078Y-103485979D01*
X119559073Y-103485978D01*
X119559030Y-103485973D01*
X119391236Y-103434032D01*
X119236726Y-103350489D01*
X119101386Y-103238526D01*
X118990371Y-103102407D01*
X118907909Y-102947318D01*
X118857140Y-102779166D01*
X118840000Y-102604355D01*
X118840000Y-102595645D01*
X118840088Y-102583079D01*
X118859667Y-102408524D01*
X118912778Y-102241097D01*
X118997398Y-102087175D01*
X119110303Y-101952620D01*
X119247193Y-101842557D01*
X119402854Y-101761180D01*
X119571357Y-101711586D01*
X119571391Y-101711583D01*
X119571404Y-101711579D01*
X119746280Y-101695664D01*
X119920922Y-101714021D01*
X119920922Y-101714021D01*
G37*
G36*
X117380922Y-101714021D02*
X117380927Y-101714022D01*
X117380970Y-101714027D01*
X117548764Y-101765968D01*
X117703274Y-101849511D01*
X117838614Y-101961474D01*
X117949629Y-102097593D01*
X118032091Y-102252682D01*
X118082860Y-102420834D01*
X118100000Y-102595645D01*
X118100000Y-102604355D01*
X118099912Y-102616921D01*
X118080333Y-102791476D01*
X118027222Y-102958903D01*
X117942602Y-103112825D01*
X117829697Y-103247380D01*
X117692807Y-103357443D01*
X117537146Y-103438820D01*
X117368643Y-103488414D01*
X117368609Y-103488417D01*
X117368596Y-103488421D01*
X117193720Y-103504336D01*
X117019078Y-103485979D01*
X117019073Y-103485978D01*
X117019030Y-103485973D01*
X116851236Y-103434032D01*
X116696726Y-103350489D01*
X116561386Y-103238526D01*
X116450371Y-103102407D01*
X116367909Y-102947318D01*
X116317140Y-102779166D01*
X116300000Y-102604355D01*
X116300000Y-102595645D01*
X116300088Y-102583079D01*
X116319667Y-102408524D01*
X116372778Y-102241097D01*
X116457398Y-102087175D01*
X116570303Y-101952620D01*
X116707193Y-101842557D01*
X116862854Y-101761180D01*
X117031357Y-101711586D01*
X117031391Y-101711583D01*
X117031404Y-101711579D01*
X117206280Y-101695664D01*
X117380922Y-101714021D01*
X117380922Y-101714021D01*
G37*
G36*
X112300922Y-101714021D02*
X112300927Y-101714022D01*
X112300970Y-101714027D01*
X112468764Y-101765968D01*
X112623274Y-101849511D01*
X112758614Y-101961474D01*
X112869629Y-102097593D01*
X112952091Y-102252682D01*
X113002860Y-102420834D01*
X113020000Y-102595645D01*
X113020000Y-102604355D01*
X113019912Y-102616921D01*
X113000333Y-102791476D01*
X112947222Y-102958903D01*
X112862602Y-103112825D01*
X112749697Y-103247380D01*
X112612807Y-103357443D01*
X112457146Y-103438820D01*
X112288643Y-103488414D01*
X112288609Y-103488417D01*
X112288596Y-103488421D01*
X112113720Y-103504336D01*
X111939078Y-103485979D01*
X111939073Y-103485978D01*
X111939030Y-103485973D01*
X111771236Y-103434032D01*
X111616726Y-103350489D01*
X111481386Y-103238526D01*
X111370371Y-103102407D01*
X111287909Y-102947318D01*
X111237140Y-102779166D01*
X111220000Y-102604355D01*
X111220000Y-102595645D01*
X111220088Y-102583079D01*
X111239667Y-102408524D01*
X111292778Y-102241097D01*
X111377398Y-102087175D01*
X111490303Y-101952620D01*
X111627193Y-101842557D01*
X111782854Y-101761180D01*
X111951357Y-101711586D01*
X111951391Y-101711583D01*
X111951404Y-101711579D01*
X112126280Y-101695664D01*
X112300922Y-101714021D01*
X112300922Y-101714021D01*
G37*
G36*
X109760922Y-101714021D02*
X109760927Y-101714022D01*
X109760970Y-101714027D01*
X109928764Y-101765968D01*
X110083274Y-101849511D01*
X110218614Y-101961474D01*
X110329629Y-102097593D01*
X110412091Y-102252682D01*
X110462860Y-102420834D01*
X110480000Y-102595645D01*
X110480000Y-102604355D01*
X110479912Y-102616921D01*
X110460333Y-102791476D01*
X110407222Y-102958903D01*
X110322602Y-103112825D01*
X110209697Y-103247380D01*
X110072807Y-103357443D01*
X109917146Y-103438820D01*
X109748643Y-103488414D01*
X109748609Y-103488417D01*
X109748596Y-103488421D01*
X109573720Y-103504336D01*
X109399078Y-103485979D01*
X109399073Y-103485978D01*
X109399030Y-103485973D01*
X109231236Y-103434032D01*
X109076726Y-103350489D01*
X108941386Y-103238526D01*
X108830371Y-103102407D01*
X108747909Y-102947318D01*
X108697140Y-102779166D01*
X108680000Y-102604355D01*
X108680000Y-102595645D01*
X108680088Y-102583079D01*
X108699667Y-102408524D01*
X108752778Y-102241097D01*
X108837398Y-102087175D01*
X108950303Y-101952620D01*
X109087193Y-101842557D01*
X109242854Y-101761180D01*
X109411357Y-101711586D01*
X109411391Y-101711583D01*
X109411404Y-101711579D01*
X109586280Y-101695664D01*
X109760922Y-101714021D01*
X109760922Y-101714021D01*
G37*
G36*
X107220922Y-101714021D02*
X107220927Y-101714022D01*
X107220970Y-101714027D01*
X107388764Y-101765968D01*
X107543274Y-101849511D01*
X107678614Y-101961474D01*
X107789629Y-102097593D01*
X107872091Y-102252682D01*
X107922860Y-102420834D01*
X107940000Y-102595645D01*
X107940000Y-102604355D01*
X107939912Y-102616921D01*
X107920333Y-102791476D01*
X107867222Y-102958903D01*
X107782602Y-103112825D01*
X107669697Y-103247380D01*
X107532807Y-103357443D01*
X107377146Y-103438820D01*
X107208643Y-103488414D01*
X107208609Y-103488417D01*
X107208596Y-103488421D01*
X107033720Y-103504336D01*
X106859078Y-103485979D01*
X106859073Y-103485978D01*
X106859030Y-103485973D01*
X106691236Y-103434032D01*
X106536726Y-103350489D01*
X106401386Y-103238526D01*
X106290371Y-103102407D01*
X106207909Y-102947318D01*
X106157140Y-102779166D01*
X106140000Y-102604355D01*
X106140000Y-102595645D01*
X106140088Y-102583079D01*
X106159667Y-102408524D01*
X106212778Y-102241097D01*
X106297398Y-102087175D01*
X106410303Y-101952620D01*
X106547193Y-101842557D01*
X106702854Y-101761180D01*
X106871357Y-101711586D01*
X106871391Y-101711583D01*
X106871404Y-101711579D01*
X107046280Y-101695664D01*
X107220922Y-101714021D01*
X107220922Y-101714021D01*
G37*
G36*
X104680922Y-101714021D02*
X104680927Y-101714022D01*
X104680970Y-101714027D01*
X104848764Y-101765968D01*
X105003274Y-101849511D01*
X105138614Y-101961474D01*
X105249629Y-102097593D01*
X105332091Y-102252682D01*
X105382860Y-102420834D01*
X105400000Y-102595645D01*
X105400000Y-102604355D01*
X105399912Y-102616921D01*
X105380333Y-102791476D01*
X105327222Y-102958903D01*
X105242602Y-103112825D01*
X105129697Y-103247380D01*
X104992807Y-103357443D01*
X104837146Y-103438820D01*
X104668643Y-103488414D01*
X104668609Y-103488417D01*
X104668596Y-103488421D01*
X104493720Y-103504336D01*
X104319078Y-103485979D01*
X104319073Y-103485978D01*
X104319030Y-103485973D01*
X104151236Y-103434032D01*
X103996726Y-103350489D01*
X103861386Y-103238526D01*
X103750371Y-103102407D01*
X103667909Y-102947318D01*
X103617140Y-102779166D01*
X103600000Y-102604355D01*
X103600000Y-102595645D01*
X103600088Y-102583079D01*
X103619667Y-102408524D01*
X103672778Y-102241097D01*
X103757398Y-102087175D01*
X103870303Y-101952620D01*
X104007193Y-101842557D01*
X104162854Y-101761180D01*
X104331357Y-101711586D01*
X104331391Y-101711583D01*
X104331404Y-101711579D01*
X104506280Y-101695664D01*
X104680922Y-101714021D01*
X104680922Y-101714021D01*
G37*
G36*
X119920922Y-99174021D02*
X119920927Y-99174022D01*
X119920970Y-99174027D01*
X120088764Y-99225968D01*
X120243274Y-99309511D01*
X120378614Y-99421474D01*
X120489629Y-99557593D01*
X120572091Y-99712682D01*
X120622860Y-99880834D01*
X120640000Y-100055645D01*
X120640000Y-100064355D01*
X120639912Y-100076921D01*
X120620333Y-100251476D01*
X120567222Y-100418903D01*
X120482602Y-100572825D01*
X120369697Y-100707380D01*
X120232807Y-100817443D01*
X120077146Y-100898820D01*
X119908643Y-100948414D01*
X119908609Y-100948417D01*
X119908596Y-100948421D01*
X119733720Y-100964336D01*
X119559078Y-100945979D01*
X119559073Y-100945978D01*
X119559030Y-100945973D01*
X119391236Y-100894032D01*
X119236726Y-100810489D01*
X119101386Y-100698526D01*
X118990371Y-100562407D01*
X118907909Y-100407318D01*
X118857140Y-100239166D01*
X118840000Y-100064355D01*
X118840000Y-100055645D01*
X118840088Y-100043079D01*
X118859667Y-99868524D01*
X118912778Y-99701097D01*
X118997398Y-99547175D01*
X119110303Y-99412620D01*
X119247193Y-99302557D01*
X119402854Y-99221180D01*
X119571357Y-99171586D01*
X119571391Y-99171583D01*
X119571404Y-99171579D01*
X119746280Y-99155664D01*
X119920922Y-99174021D01*
X119920922Y-99174021D01*
G37*
G36*
X117380922Y-99174021D02*
X117380927Y-99174022D01*
X117380970Y-99174027D01*
X117548764Y-99225968D01*
X117703274Y-99309511D01*
X117838614Y-99421474D01*
X117949629Y-99557593D01*
X118032091Y-99712682D01*
X118082860Y-99880834D01*
X118100000Y-100055645D01*
X118100000Y-100064355D01*
X118099912Y-100076921D01*
X118080333Y-100251476D01*
X118027222Y-100418903D01*
X117942602Y-100572825D01*
X117829697Y-100707380D01*
X117692807Y-100817443D01*
X117537146Y-100898820D01*
X117368643Y-100948414D01*
X117368609Y-100948417D01*
X117368596Y-100948421D01*
X117193720Y-100964336D01*
X117019078Y-100945979D01*
X117019073Y-100945978D01*
X117019030Y-100945973D01*
X116851236Y-100894032D01*
X116696726Y-100810489D01*
X116561386Y-100698526D01*
X116450371Y-100562407D01*
X116367909Y-100407318D01*
X116317140Y-100239166D01*
X116300000Y-100064355D01*
X116300000Y-100055645D01*
X116300088Y-100043079D01*
X116319667Y-99868524D01*
X116372778Y-99701097D01*
X116457398Y-99547175D01*
X116570303Y-99412620D01*
X116707193Y-99302557D01*
X116862854Y-99221180D01*
X117031357Y-99171586D01*
X117031391Y-99171583D01*
X117031404Y-99171579D01*
X117206280Y-99155664D01*
X117380922Y-99174021D01*
X117380922Y-99174021D01*
G37*
G36*
X114840922Y-99174021D02*
X114840927Y-99174022D01*
X114840970Y-99174027D01*
X115008764Y-99225968D01*
X115163274Y-99309511D01*
X115298614Y-99421474D01*
X115409629Y-99557593D01*
X115492091Y-99712682D01*
X115542860Y-99880834D01*
X115560000Y-100055645D01*
X115560000Y-100064355D01*
X115559912Y-100076921D01*
X115540333Y-100251476D01*
X115487222Y-100418903D01*
X115402602Y-100572825D01*
X115289697Y-100707380D01*
X115152807Y-100817443D01*
X114997146Y-100898820D01*
X114828643Y-100948414D01*
X114828609Y-100948417D01*
X114828596Y-100948421D01*
X114653720Y-100964336D01*
X114479078Y-100945979D01*
X114479073Y-100945978D01*
X114479030Y-100945973D01*
X114311236Y-100894032D01*
X114156726Y-100810489D01*
X114021386Y-100698526D01*
X113910371Y-100562407D01*
X113827909Y-100407318D01*
X113777140Y-100239166D01*
X113760000Y-100064355D01*
X113760000Y-100055645D01*
X113760088Y-100043079D01*
X113779667Y-99868524D01*
X113832778Y-99701097D01*
X113917398Y-99547175D01*
X114030303Y-99412620D01*
X114167193Y-99302557D01*
X114322854Y-99221180D01*
X114491357Y-99171586D01*
X114491391Y-99171583D01*
X114491404Y-99171579D01*
X114666280Y-99155664D01*
X114840922Y-99174021D01*
X114840922Y-99174021D01*
G37*
G36*
X112300922Y-99174021D02*
X112300927Y-99174022D01*
X112300970Y-99174027D01*
X112468764Y-99225968D01*
X112623274Y-99309511D01*
X112758614Y-99421474D01*
X112869629Y-99557593D01*
X112952091Y-99712682D01*
X113002860Y-99880834D01*
X113020000Y-100055645D01*
X113020000Y-100064355D01*
X113019912Y-100076921D01*
X113000333Y-100251476D01*
X112947222Y-100418903D01*
X112862602Y-100572825D01*
X112749697Y-100707380D01*
X112612807Y-100817443D01*
X112457146Y-100898820D01*
X112288643Y-100948414D01*
X112288609Y-100948417D01*
X112288596Y-100948421D01*
X112113720Y-100964336D01*
X111939078Y-100945979D01*
X111939073Y-100945978D01*
X111939030Y-100945973D01*
X111771236Y-100894032D01*
X111616726Y-100810489D01*
X111481386Y-100698526D01*
X111370371Y-100562407D01*
X111287909Y-100407318D01*
X111237140Y-100239166D01*
X111220000Y-100064355D01*
X111220000Y-100055645D01*
X111220088Y-100043079D01*
X111239667Y-99868524D01*
X111292778Y-99701097D01*
X111377398Y-99547175D01*
X111490303Y-99412620D01*
X111627193Y-99302557D01*
X111782854Y-99221180D01*
X111951357Y-99171586D01*
X111951391Y-99171583D01*
X111951404Y-99171579D01*
X112126280Y-99155664D01*
X112300922Y-99174021D01*
X112300922Y-99174021D01*
G37*
G36*
X109760922Y-99174021D02*
X109760927Y-99174022D01*
X109760970Y-99174027D01*
X109928764Y-99225968D01*
X110083274Y-99309511D01*
X110218614Y-99421474D01*
X110329629Y-99557593D01*
X110412091Y-99712682D01*
X110462860Y-99880834D01*
X110480000Y-100055645D01*
X110480000Y-100064355D01*
X110479912Y-100076921D01*
X110460333Y-100251476D01*
X110407222Y-100418903D01*
X110322602Y-100572825D01*
X110209697Y-100707380D01*
X110072807Y-100817443D01*
X109917146Y-100898820D01*
X109748643Y-100948414D01*
X109748609Y-100948417D01*
X109748596Y-100948421D01*
X109573720Y-100964336D01*
X109399078Y-100945979D01*
X109399073Y-100945978D01*
X109399030Y-100945973D01*
X109231236Y-100894032D01*
X109076726Y-100810489D01*
X108941386Y-100698526D01*
X108830371Y-100562407D01*
X108747909Y-100407318D01*
X108697140Y-100239166D01*
X108680000Y-100064355D01*
X108680000Y-100055645D01*
X108680088Y-100043079D01*
X108699667Y-99868524D01*
X108752778Y-99701097D01*
X108837398Y-99547175D01*
X108950303Y-99412620D01*
X109087193Y-99302557D01*
X109242854Y-99221180D01*
X109411357Y-99171586D01*
X109411391Y-99171583D01*
X109411404Y-99171579D01*
X109586280Y-99155664D01*
X109760922Y-99174021D01*
X109760922Y-99174021D01*
G37*
G36*
X107220922Y-99174021D02*
X107220927Y-99174022D01*
X107220970Y-99174027D01*
X107388764Y-99225968D01*
X107543274Y-99309511D01*
X107678614Y-99421474D01*
X107789629Y-99557593D01*
X107872091Y-99712682D01*
X107922860Y-99880834D01*
X107940000Y-100055645D01*
X107940000Y-100064355D01*
X107939912Y-100076921D01*
X107920333Y-100251476D01*
X107867222Y-100418903D01*
X107782602Y-100572825D01*
X107669697Y-100707380D01*
X107532807Y-100817443D01*
X107377146Y-100898820D01*
X107208643Y-100948414D01*
X107208609Y-100948417D01*
X107208596Y-100948421D01*
X107033720Y-100964336D01*
X106859078Y-100945979D01*
X106859073Y-100945978D01*
X106859030Y-100945973D01*
X106691236Y-100894032D01*
X106536726Y-100810489D01*
X106401386Y-100698526D01*
X106290371Y-100562407D01*
X106207909Y-100407318D01*
X106157140Y-100239166D01*
X106140000Y-100064355D01*
X106140000Y-100055645D01*
X106140088Y-100043079D01*
X106159667Y-99868524D01*
X106212778Y-99701097D01*
X106297398Y-99547175D01*
X106410303Y-99412620D01*
X106547193Y-99302557D01*
X106702854Y-99221180D01*
X106871357Y-99171586D01*
X106871391Y-99171583D01*
X106871404Y-99171579D01*
X107046280Y-99155664D01*
X107220922Y-99174021D01*
X107220922Y-99174021D01*
G37*
G36*
X104680922Y-99174021D02*
X104680927Y-99174022D01*
X104680970Y-99174027D01*
X104848764Y-99225968D01*
X105003274Y-99309511D01*
X105138614Y-99421474D01*
X105249629Y-99557593D01*
X105332091Y-99712682D01*
X105382860Y-99880834D01*
X105400000Y-100055645D01*
X105400000Y-100064355D01*
X105399912Y-100076921D01*
X105380333Y-100251476D01*
X105327222Y-100418903D01*
X105242602Y-100572825D01*
X105129697Y-100707380D01*
X104992807Y-100817443D01*
X104837146Y-100898820D01*
X104668643Y-100948414D01*
X104668609Y-100948417D01*
X104668596Y-100948421D01*
X104493720Y-100964336D01*
X104319078Y-100945979D01*
X104319073Y-100945978D01*
X104319030Y-100945973D01*
X104151236Y-100894032D01*
X103996726Y-100810489D01*
X103861386Y-100698526D01*
X103750371Y-100562407D01*
X103667909Y-100407318D01*
X103617140Y-100239166D01*
X103600000Y-100064355D01*
X103600000Y-100055645D01*
X103600088Y-100043079D01*
X103619667Y-99868524D01*
X103672778Y-99701097D01*
X103757398Y-99547175D01*
X103870303Y-99412620D01*
X104007193Y-99302557D01*
X104162854Y-99221180D01*
X104331357Y-99171586D01*
X104331391Y-99171583D01*
X104331404Y-99171579D01*
X104506280Y-99155664D01*
X104680922Y-99174021D01*
X104680922Y-99174021D01*
G37*
G36*
X102860000Y-100960000D02*
X101060000Y-100960000D01*
X101060000Y-99160000D01*
X102860000Y-99160000D01*
X102860000Y-100960000D01*
X102860000Y-100960000D01*
G37*
G36*
X119650000Y-92925000D02*
X118350000Y-92925000D01*
X118350000Y-92075000D01*
X119650000Y-92075000D01*
X119650000Y-92925000D01*
X119650000Y-92925000D01*
G37*
G36*
X121550000Y-92925000D02*
X120250000Y-92925000D01*
X120250000Y-92075000D01*
X121550000Y-92075000D01*
X121550000Y-92925000D01*
X121550000Y-92925000D01*
G37*
G36*
X125209384Y-90167896D02*
X123609384Y-90167896D01*
X123609384Y-89467896D01*
X125209384Y-89467896D01*
X125209384Y-90167896D01*
X125209384Y-90167896D01*
G37*
G36*
X119809384Y-90167896D02*
X118209384Y-90167896D01*
X118209384Y-89467896D01*
X119809384Y-89467896D01*
X119809384Y-90167896D01*
X119809384Y-90167896D01*
G37*
G36*
X119809384Y-88897896D02*
X118209384Y-88897896D01*
X118209384Y-88197896D01*
X119809384Y-88197896D01*
X119809384Y-88897896D01*
X119809384Y-88897896D01*
G37*
G36*
X125209384Y-88897896D02*
X123609384Y-88897896D01*
X123609384Y-88197896D01*
X125209384Y-88197896D01*
X125209384Y-88897896D01*
X125209384Y-88897896D01*
G37*
G36*
X125209384Y-87627896D02*
X123609384Y-87627896D01*
X123609384Y-86927896D01*
X125209384Y-86927896D01*
X125209384Y-87627896D01*
X125209384Y-87627896D01*
G37*
G36*
X119809384Y-87627896D02*
X118209384Y-87627896D01*
X118209384Y-86927896D01*
X119809384Y-86927896D01*
X119809384Y-87627896D01*
X119809384Y-87627896D01*
G37*
G36*
X125209384Y-86357896D02*
X123609384Y-86357896D01*
X123609384Y-85657896D01*
X125209384Y-85657896D01*
X125209384Y-86357896D01*
X125209384Y-86357896D01*
G37*
G36*
X119809384Y-86357896D02*
X118209384Y-86357896D01*
X118209384Y-85657896D01*
X119809384Y-85657896D01*
X119809384Y-86357896D01*
X119809384Y-86357896D01*
G37*
G36*
X119809384Y-85087896D02*
X118209384Y-85087896D01*
X118209384Y-84387896D01*
X119809384Y-84387896D01*
X119809384Y-85087896D01*
X119809384Y-85087896D01*
G37*
G36*
X125209384Y-85087896D02*
X123609384Y-85087896D01*
X123609384Y-84387896D01*
X125209384Y-84387896D01*
X125209384Y-85087896D01*
X125209384Y-85087896D01*
G37*
G36*
X119809384Y-83817896D02*
X118209384Y-83817896D01*
X118209384Y-83117896D01*
X119809384Y-83117896D01*
X119809384Y-83817896D01*
X119809384Y-83817896D01*
G37*
G36*
X125209384Y-83817896D02*
X123609384Y-83817896D01*
X123609384Y-83117896D01*
X125209384Y-83117896D01*
X125209384Y-83817896D01*
X125209384Y-83817896D01*
G37*
G36*
X125209384Y-82547896D02*
X123609384Y-82547896D01*
X123609384Y-81847896D01*
X125209384Y-81847896D01*
X125209384Y-82547896D01*
X125209384Y-82547896D01*
G37*
G36*
X119809384Y-82547896D02*
X118209384Y-82547896D01*
X118209384Y-81847896D01*
X119809384Y-81847896D01*
X119809384Y-82547896D01*
X119809384Y-82547896D01*
G37*
G36*
X130880922Y-64214021D02*
X130880927Y-64214022D01*
X130880970Y-64214027D01*
X131048764Y-64265968D01*
X131203274Y-64349511D01*
X131338614Y-64461474D01*
X131449629Y-64597593D01*
X131532091Y-64752682D01*
X131582860Y-64920834D01*
X131600000Y-65095645D01*
X131600000Y-65104355D01*
X131599912Y-65116921D01*
X131580333Y-65291476D01*
X131527222Y-65458903D01*
X131442602Y-65612825D01*
X131329697Y-65747380D01*
X131192807Y-65857443D01*
X131037146Y-65938820D01*
X130868643Y-65988414D01*
X130868609Y-65988417D01*
X130868596Y-65988421D01*
X130693720Y-66004336D01*
X130519078Y-65985979D01*
X130519073Y-65985978D01*
X130519030Y-65985973D01*
X130351236Y-65934032D01*
X130196726Y-65850489D01*
X130061386Y-65738526D01*
X129950371Y-65602407D01*
X129867909Y-65447318D01*
X129817140Y-65279166D01*
X129800000Y-65104355D01*
X129800000Y-65095645D01*
X129800088Y-65083079D01*
X129819667Y-64908524D01*
X129872778Y-64741097D01*
X129957398Y-64587175D01*
X130070303Y-64452620D01*
X130207193Y-64342557D01*
X130362854Y-64261180D01*
X130531357Y-64211586D01*
X130531391Y-64211583D01*
X130531404Y-64211579D01*
X130706280Y-64195664D01*
X130880922Y-64214021D01*
X130880922Y-64214021D01*
G37*
G36*
X98800922Y-64214021D02*
X98800927Y-64214022D01*
X98800970Y-64214027D01*
X98968764Y-64265968D01*
X99123274Y-64349511D01*
X99258614Y-64461474D01*
X99369629Y-64597593D01*
X99452091Y-64752682D01*
X99502860Y-64920834D01*
X99520000Y-65095645D01*
X99520000Y-65104355D01*
X99519912Y-65116921D01*
X99500333Y-65291476D01*
X99447222Y-65458903D01*
X99362602Y-65612825D01*
X99249697Y-65747380D01*
X99112807Y-65857443D01*
X98957146Y-65938820D01*
X98788643Y-65988414D01*
X98788609Y-65988417D01*
X98788596Y-65988421D01*
X98613720Y-66004336D01*
X98439078Y-65985979D01*
X98439073Y-65985978D01*
X98439030Y-65985973D01*
X98271236Y-65934032D01*
X98116726Y-65850489D01*
X97981386Y-65738526D01*
X97870371Y-65602407D01*
X97787909Y-65447318D01*
X97737140Y-65279166D01*
X97720000Y-65104355D01*
X97720000Y-65095645D01*
X97720088Y-65083079D01*
X97739667Y-64908524D01*
X97792778Y-64741097D01*
X97877398Y-64587175D01*
X97990303Y-64452620D01*
X98127193Y-64342557D01*
X98282854Y-64261180D01*
X98451357Y-64211586D01*
X98451391Y-64211583D01*
X98451404Y-64211579D01*
X98626280Y-64195664D01*
X98800922Y-64214021D01*
X98800922Y-64214021D01*
G37*
G36*
X101340922Y-64214021D02*
X101340927Y-64214022D01*
X101340970Y-64214027D01*
X101508764Y-64265968D01*
X101663274Y-64349511D01*
X101798614Y-64461474D01*
X101909629Y-64597593D01*
X101992091Y-64752682D01*
X102042860Y-64920834D01*
X102060000Y-65095645D01*
X102060000Y-65104355D01*
X102059912Y-65116921D01*
X102040333Y-65291476D01*
X101987222Y-65458903D01*
X101902602Y-65612825D01*
X101789697Y-65747380D01*
X101652807Y-65857443D01*
X101497146Y-65938820D01*
X101328643Y-65988414D01*
X101328609Y-65988417D01*
X101328596Y-65988421D01*
X101153720Y-66004336D01*
X100979078Y-65985979D01*
X100979073Y-65985978D01*
X100979030Y-65985973D01*
X100811236Y-65934032D01*
X100656726Y-65850489D01*
X100521386Y-65738526D01*
X100410371Y-65602407D01*
X100327909Y-65447318D01*
X100277140Y-65279166D01*
X100260000Y-65104355D01*
X100260000Y-65095645D01*
X100260088Y-65083079D01*
X100279667Y-64908524D01*
X100332778Y-64741097D01*
X100417398Y-64587175D01*
X100530303Y-64452620D01*
X100667193Y-64342557D01*
X100822854Y-64261180D01*
X100991357Y-64211586D01*
X100991391Y-64211583D01*
X100991404Y-64211579D01*
X101166280Y-64195664D01*
X101340922Y-64214021D01*
X101340922Y-64214021D01*
G37*
G36*
X103880922Y-64214021D02*
X103880927Y-64214022D01*
X103880970Y-64214027D01*
X104048764Y-64265968D01*
X104203274Y-64349511D01*
X104338614Y-64461474D01*
X104449629Y-64597593D01*
X104532091Y-64752682D01*
X104582860Y-64920834D01*
X104600000Y-65095645D01*
X104600000Y-65104355D01*
X104599912Y-65116921D01*
X104580333Y-65291476D01*
X104527222Y-65458903D01*
X104442602Y-65612825D01*
X104329697Y-65747380D01*
X104192807Y-65857443D01*
X104037146Y-65938820D01*
X103868643Y-65988414D01*
X103868609Y-65988417D01*
X103868596Y-65988421D01*
X103693720Y-66004336D01*
X103519078Y-65985979D01*
X103519073Y-65985978D01*
X103519030Y-65985973D01*
X103351236Y-65934032D01*
X103196726Y-65850489D01*
X103061386Y-65738526D01*
X102950371Y-65602407D01*
X102867909Y-65447318D01*
X102817140Y-65279166D01*
X102800000Y-65104355D01*
X102800000Y-65095645D01*
X102800088Y-65083079D01*
X102819667Y-64908524D01*
X102872778Y-64741097D01*
X102957398Y-64587175D01*
X103070303Y-64452620D01*
X103207193Y-64342557D01*
X103362854Y-64261180D01*
X103531357Y-64211586D01*
X103531391Y-64211583D01*
X103531404Y-64211579D01*
X103706280Y-64195664D01*
X103880922Y-64214021D01*
X103880922Y-64214021D01*
G37*
G36*
X91180922Y-64214021D02*
X91180927Y-64214022D01*
X91180970Y-64214027D01*
X91348764Y-64265968D01*
X91503274Y-64349511D01*
X91638614Y-64461474D01*
X91749629Y-64597593D01*
X91832091Y-64752682D01*
X91882860Y-64920834D01*
X91900000Y-65095645D01*
X91900000Y-65104355D01*
X91899912Y-65116921D01*
X91880333Y-65291476D01*
X91827222Y-65458903D01*
X91742602Y-65612825D01*
X91629697Y-65747380D01*
X91492807Y-65857443D01*
X91337146Y-65938820D01*
X91168643Y-65988414D01*
X91168609Y-65988417D01*
X91168596Y-65988421D01*
X90993720Y-66004336D01*
X90819078Y-65985979D01*
X90819073Y-65985978D01*
X90819030Y-65985973D01*
X90651236Y-65934032D01*
X90496726Y-65850489D01*
X90361386Y-65738526D01*
X90250371Y-65602407D01*
X90167909Y-65447318D01*
X90117140Y-65279166D01*
X90100000Y-65104355D01*
X90100000Y-65095645D01*
X90100088Y-65083079D01*
X90119667Y-64908524D01*
X90172778Y-64741097D01*
X90257398Y-64587175D01*
X90370303Y-64452620D01*
X90507193Y-64342557D01*
X90662854Y-64261180D01*
X90831357Y-64211586D01*
X90831391Y-64211583D01*
X90831404Y-64211579D01*
X91006280Y-64195664D01*
X91180922Y-64214021D01*
X91180922Y-64214021D01*
G37*
G36*
X88640922Y-64214021D02*
X88640927Y-64214022D01*
X88640970Y-64214027D01*
X88808764Y-64265968D01*
X88963274Y-64349511D01*
X89098614Y-64461474D01*
X89209629Y-64597593D01*
X89292091Y-64752682D01*
X89342860Y-64920834D01*
X89360000Y-65095645D01*
X89360000Y-65104355D01*
X89359912Y-65116921D01*
X89340333Y-65291476D01*
X89287222Y-65458903D01*
X89202602Y-65612825D01*
X89089697Y-65747380D01*
X88952807Y-65857443D01*
X88797146Y-65938820D01*
X88628643Y-65988414D01*
X88628609Y-65988417D01*
X88628596Y-65988421D01*
X88453720Y-66004336D01*
X88279078Y-65985979D01*
X88279073Y-65985978D01*
X88279030Y-65985973D01*
X88111236Y-65934032D01*
X87956726Y-65850489D01*
X87821386Y-65738526D01*
X87710371Y-65602407D01*
X87627909Y-65447318D01*
X87577140Y-65279166D01*
X87560000Y-65104355D01*
X87560000Y-65095645D01*
X87560088Y-65083079D01*
X87579667Y-64908524D01*
X87632778Y-64741097D01*
X87717398Y-64587175D01*
X87830303Y-64452620D01*
X87967193Y-64342557D01*
X88122854Y-64261180D01*
X88291357Y-64211586D01*
X88291391Y-64211583D01*
X88291404Y-64211579D01*
X88466280Y-64195664D01*
X88640922Y-64214021D01*
X88640922Y-64214021D01*
G37*
G36*
X93720922Y-64214021D02*
X93720927Y-64214022D01*
X93720970Y-64214027D01*
X93888764Y-64265968D01*
X94043274Y-64349511D01*
X94178614Y-64461474D01*
X94289629Y-64597593D01*
X94372091Y-64752682D01*
X94422860Y-64920834D01*
X94440000Y-65095645D01*
X94440000Y-65104355D01*
X94439912Y-65116921D01*
X94420333Y-65291476D01*
X94367222Y-65458903D01*
X94282602Y-65612825D01*
X94169697Y-65747380D01*
X94032807Y-65857443D01*
X93877146Y-65938820D01*
X93708643Y-65988414D01*
X93708609Y-65988417D01*
X93708596Y-65988421D01*
X93533720Y-66004336D01*
X93359078Y-65985979D01*
X93359073Y-65985978D01*
X93359030Y-65985973D01*
X93191236Y-65934032D01*
X93036726Y-65850489D01*
X92901386Y-65738526D01*
X92790371Y-65602407D01*
X92707909Y-65447318D01*
X92657140Y-65279166D01*
X92640000Y-65104355D01*
X92640000Y-65095645D01*
X92640088Y-65083079D01*
X92659667Y-64908524D01*
X92712778Y-64741097D01*
X92797398Y-64587175D01*
X92910303Y-64452620D01*
X93047193Y-64342557D01*
X93202854Y-64261180D01*
X93371357Y-64211586D01*
X93371391Y-64211583D01*
X93371404Y-64211579D01*
X93546280Y-64195664D01*
X93720922Y-64214021D01*
X93720922Y-64214021D01*
G37*
G36*
X133420922Y-64214021D02*
X133420927Y-64214022D01*
X133420970Y-64214027D01*
X133588764Y-64265968D01*
X133743274Y-64349511D01*
X133878614Y-64461474D01*
X133989629Y-64597593D01*
X134072091Y-64752682D01*
X134122860Y-64920834D01*
X134140000Y-65095645D01*
X134140000Y-65104355D01*
X134139912Y-65116921D01*
X134120333Y-65291476D01*
X134067222Y-65458903D01*
X133982602Y-65612825D01*
X133869697Y-65747380D01*
X133732807Y-65857443D01*
X133577146Y-65938820D01*
X133408643Y-65988414D01*
X133408609Y-65988417D01*
X133408596Y-65988421D01*
X133233720Y-66004336D01*
X133059078Y-65985979D01*
X133059073Y-65985978D01*
X133059030Y-65985973D01*
X132891236Y-65934032D01*
X132736726Y-65850489D01*
X132601386Y-65738526D01*
X132490371Y-65602407D01*
X132407909Y-65447318D01*
X132357140Y-65279166D01*
X132340000Y-65104355D01*
X132340000Y-65095645D01*
X132340088Y-65083079D01*
X132359667Y-64908524D01*
X132412778Y-64741097D01*
X132497398Y-64587175D01*
X132610303Y-64452620D01*
X132747193Y-64342557D01*
X132902854Y-64261180D01*
X133071357Y-64211586D01*
X133071391Y-64211583D01*
X133071404Y-64211579D01*
X133246280Y-64195664D01*
X133420922Y-64214021D01*
X133420922Y-64214021D01*
G37*
G36*
X106420922Y-64214021D02*
X106420927Y-64214022D01*
X106420970Y-64214027D01*
X106588764Y-64265968D01*
X106743274Y-64349511D01*
X106878614Y-64461474D01*
X106989629Y-64597593D01*
X107072091Y-64752682D01*
X107122860Y-64920834D01*
X107140000Y-65095645D01*
X107140000Y-65104355D01*
X107139912Y-65116921D01*
X107120333Y-65291476D01*
X107067222Y-65458903D01*
X106982602Y-65612825D01*
X106869697Y-65747380D01*
X106732807Y-65857443D01*
X106577146Y-65938820D01*
X106408643Y-65988414D01*
X106408609Y-65988417D01*
X106408596Y-65988421D01*
X106233720Y-66004336D01*
X106059078Y-65985979D01*
X106059073Y-65985978D01*
X106059030Y-65985973D01*
X105891236Y-65934032D01*
X105736726Y-65850489D01*
X105601386Y-65738526D01*
X105490371Y-65602407D01*
X105407909Y-65447318D01*
X105357140Y-65279166D01*
X105340000Y-65104355D01*
X105340000Y-65095645D01*
X105340088Y-65083079D01*
X105359667Y-64908524D01*
X105412778Y-64741097D01*
X105497398Y-64587175D01*
X105610303Y-64452620D01*
X105747193Y-64342557D01*
X105902854Y-64261180D01*
X106071357Y-64211586D01*
X106071391Y-64211583D01*
X106071404Y-64211579D01*
X106246280Y-64195664D01*
X106420922Y-64214021D01*
X106420922Y-64214021D01*
G37*
G36*
X115640922Y-64214021D02*
X115640927Y-64214022D01*
X115640970Y-64214027D01*
X115808764Y-64265968D01*
X115963274Y-64349511D01*
X116098614Y-64461474D01*
X116209629Y-64597593D01*
X116292091Y-64752682D01*
X116342860Y-64920834D01*
X116360000Y-65095645D01*
X116360000Y-65104355D01*
X116359912Y-65116921D01*
X116340333Y-65291476D01*
X116287222Y-65458903D01*
X116202602Y-65612825D01*
X116089697Y-65747380D01*
X115952807Y-65857443D01*
X115797146Y-65938820D01*
X115628643Y-65988414D01*
X115628609Y-65988417D01*
X115628596Y-65988421D01*
X115453720Y-66004336D01*
X115279078Y-65985979D01*
X115279073Y-65985978D01*
X115279030Y-65985973D01*
X115111236Y-65934032D01*
X114956726Y-65850489D01*
X114821386Y-65738526D01*
X114710371Y-65602407D01*
X114627909Y-65447318D01*
X114577140Y-65279166D01*
X114560000Y-65104355D01*
X114560000Y-65095645D01*
X114560088Y-65083079D01*
X114579667Y-64908524D01*
X114632778Y-64741097D01*
X114717398Y-64587175D01*
X114830303Y-64452620D01*
X114967193Y-64342557D01*
X115122854Y-64261180D01*
X115291357Y-64211586D01*
X115291391Y-64211583D01*
X115291404Y-64211579D01*
X115466280Y-64195664D01*
X115640922Y-64214021D01*
X115640922Y-64214021D01*
G37*
G36*
X118180922Y-64214021D02*
X118180927Y-64214022D01*
X118180970Y-64214027D01*
X118348764Y-64265968D01*
X118503274Y-64349511D01*
X118638614Y-64461474D01*
X118749629Y-64597593D01*
X118832091Y-64752682D01*
X118882860Y-64920834D01*
X118900000Y-65095645D01*
X118900000Y-65104355D01*
X118899912Y-65116921D01*
X118880333Y-65291476D01*
X118827222Y-65458903D01*
X118742602Y-65612825D01*
X118629697Y-65747380D01*
X118492807Y-65857443D01*
X118337146Y-65938820D01*
X118168643Y-65988414D01*
X118168609Y-65988417D01*
X118168596Y-65988421D01*
X117993720Y-66004336D01*
X117819078Y-65985979D01*
X117819073Y-65985978D01*
X117819030Y-65985973D01*
X117651236Y-65934032D01*
X117496726Y-65850489D01*
X117361386Y-65738526D01*
X117250371Y-65602407D01*
X117167909Y-65447318D01*
X117117140Y-65279166D01*
X117100000Y-65104355D01*
X117100000Y-65095645D01*
X117100088Y-65083079D01*
X117119667Y-64908524D01*
X117172778Y-64741097D01*
X117257398Y-64587175D01*
X117370303Y-64452620D01*
X117507193Y-64342557D01*
X117662854Y-64261180D01*
X117831357Y-64211586D01*
X117831391Y-64211583D01*
X117831404Y-64211579D01*
X118006280Y-64195664D01*
X118180922Y-64214021D01*
X118180922Y-64214021D01*
G37*
G36*
X125800922Y-64214021D02*
X125800927Y-64214022D01*
X125800970Y-64214027D01*
X125968764Y-64265968D01*
X126123274Y-64349511D01*
X126258614Y-64461474D01*
X126369629Y-64597593D01*
X126452091Y-64752682D01*
X126502860Y-64920834D01*
X126520000Y-65095645D01*
X126520000Y-65104355D01*
X126519912Y-65116921D01*
X126500333Y-65291476D01*
X126447222Y-65458903D01*
X126362602Y-65612825D01*
X126249697Y-65747380D01*
X126112807Y-65857443D01*
X125957146Y-65938820D01*
X125788643Y-65988414D01*
X125788609Y-65988417D01*
X125788596Y-65988421D01*
X125613720Y-66004336D01*
X125439078Y-65985979D01*
X125439073Y-65985978D01*
X125439030Y-65985973D01*
X125271236Y-65934032D01*
X125116726Y-65850489D01*
X124981386Y-65738526D01*
X124870371Y-65602407D01*
X124787909Y-65447318D01*
X124737140Y-65279166D01*
X124720000Y-65104355D01*
X124720000Y-65095645D01*
X124720088Y-65083079D01*
X124739667Y-64908524D01*
X124792778Y-64741097D01*
X124877398Y-64587175D01*
X124990303Y-64452620D01*
X125127193Y-64342557D01*
X125282854Y-64261180D01*
X125451357Y-64211586D01*
X125451391Y-64211583D01*
X125451404Y-64211579D01*
X125626280Y-64195664D01*
X125800922Y-64214021D01*
X125800922Y-64214021D01*
G37*
G36*
X120720922Y-64214021D02*
X120720927Y-64214022D01*
X120720970Y-64214027D01*
X120888764Y-64265968D01*
X121043274Y-64349511D01*
X121178614Y-64461474D01*
X121289629Y-64597593D01*
X121372091Y-64752682D01*
X121422860Y-64920834D01*
X121440000Y-65095645D01*
X121440000Y-65104355D01*
X121439912Y-65116921D01*
X121420333Y-65291476D01*
X121367222Y-65458903D01*
X121282602Y-65612825D01*
X121169697Y-65747380D01*
X121032807Y-65857443D01*
X120877146Y-65938820D01*
X120708643Y-65988414D01*
X120708609Y-65988417D01*
X120708596Y-65988421D01*
X120533720Y-66004336D01*
X120359078Y-65985979D01*
X120359073Y-65985978D01*
X120359030Y-65985973D01*
X120191236Y-65934032D01*
X120036726Y-65850489D01*
X119901386Y-65738526D01*
X119790371Y-65602407D01*
X119707909Y-65447318D01*
X119657140Y-65279166D01*
X119640000Y-65104355D01*
X119640000Y-65095645D01*
X119640088Y-65083079D01*
X119659667Y-64908524D01*
X119712778Y-64741097D01*
X119797398Y-64587175D01*
X119910303Y-64452620D01*
X120047193Y-64342557D01*
X120202854Y-64261180D01*
X120371357Y-64211586D01*
X120371391Y-64211583D01*
X120371404Y-64211579D01*
X120546280Y-64195664D01*
X120720922Y-64214021D01*
X120720922Y-64214021D01*
G37*
G36*
X123260922Y-64214021D02*
X123260927Y-64214022D01*
X123260970Y-64214027D01*
X123428764Y-64265968D01*
X123583274Y-64349511D01*
X123718614Y-64461474D01*
X123829629Y-64597593D01*
X123912091Y-64752682D01*
X123962860Y-64920834D01*
X123980000Y-65095645D01*
X123980000Y-65104355D01*
X123979912Y-65116921D01*
X123960333Y-65291476D01*
X123907222Y-65458903D01*
X123822602Y-65612825D01*
X123709697Y-65747380D01*
X123572807Y-65857443D01*
X123417146Y-65938820D01*
X123248643Y-65988414D01*
X123248609Y-65988417D01*
X123248596Y-65988421D01*
X123073720Y-66004336D01*
X122899078Y-65985979D01*
X122899073Y-65985978D01*
X122899030Y-65985973D01*
X122731236Y-65934032D01*
X122576726Y-65850489D01*
X122441386Y-65738526D01*
X122330371Y-65602407D01*
X122247909Y-65447318D01*
X122197140Y-65279166D01*
X122180000Y-65104355D01*
X122180000Y-65095645D01*
X122180088Y-65083079D01*
X122199667Y-64908524D01*
X122252778Y-64741097D01*
X122337398Y-64587175D01*
X122450303Y-64452620D01*
X122587193Y-64342557D01*
X122742854Y-64261180D01*
X122911357Y-64211586D01*
X122911391Y-64211583D01*
X122911404Y-64211579D01*
X123086280Y-64195664D01*
X123260922Y-64214021D01*
X123260922Y-64214021D01*
G37*
G36*
X96260922Y-64214021D02*
X96260927Y-64214022D01*
X96260970Y-64214027D01*
X96428764Y-64265968D01*
X96583274Y-64349511D01*
X96718614Y-64461474D01*
X96829629Y-64597593D01*
X96912091Y-64752682D01*
X96962860Y-64920834D01*
X96980000Y-65095645D01*
X96980000Y-65104355D01*
X96979912Y-65116921D01*
X96960333Y-65291476D01*
X96907222Y-65458903D01*
X96822602Y-65612825D01*
X96709697Y-65747380D01*
X96572807Y-65857443D01*
X96417146Y-65938820D01*
X96248643Y-65988414D01*
X96248609Y-65988417D01*
X96248596Y-65988421D01*
X96073720Y-66004336D01*
X95899078Y-65985979D01*
X95899073Y-65985978D01*
X95899030Y-65985973D01*
X95731236Y-65934032D01*
X95576726Y-65850489D01*
X95441386Y-65738526D01*
X95330371Y-65602407D01*
X95247909Y-65447318D01*
X95197140Y-65279166D01*
X95180000Y-65104355D01*
X95180000Y-65095645D01*
X95180088Y-65083079D01*
X95199667Y-64908524D01*
X95252778Y-64741097D01*
X95337398Y-64587175D01*
X95450303Y-64452620D01*
X95587193Y-64342557D01*
X95742854Y-64261180D01*
X95911357Y-64211586D01*
X95911391Y-64211583D01*
X95911404Y-64211579D01*
X96086280Y-64195664D01*
X96260922Y-64214021D01*
X96260922Y-64214021D01*
G37*
G36*
X128340922Y-64214021D02*
X128340927Y-64214022D01*
X128340970Y-64214027D01*
X128508764Y-64265968D01*
X128663274Y-64349511D01*
X128798614Y-64461474D01*
X128909629Y-64597593D01*
X128992091Y-64752682D01*
X129042860Y-64920834D01*
X129060000Y-65095645D01*
X129060000Y-65104355D01*
X129059912Y-65116921D01*
X129040333Y-65291476D01*
X128987222Y-65458903D01*
X128902602Y-65612825D01*
X128789697Y-65747380D01*
X128652807Y-65857443D01*
X128497146Y-65938820D01*
X128328643Y-65988414D01*
X128328609Y-65988417D01*
X128328596Y-65988421D01*
X128153720Y-66004336D01*
X127979078Y-65985979D01*
X127979073Y-65985978D01*
X127979030Y-65985973D01*
X127811236Y-65934032D01*
X127656726Y-65850489D01*
X127521386Y-65738526D01*
X127410371Y-65602407D01*
X127327909Y-65447318D01*
X127277140Y-65279166D01*
X127260000Y-65104355D01*
X127260000Y-65095645D01*
X127260088Y-65083079D01*
X127279667Y-64908524D01*
X127332778Y-64741097D01*
X127417398Y-64587175D01*
X127530303Y-64452620D01*
X127667193Y-64342557D01*
X127822854Y-64261180D01*
X127991357Y-64211586D01*
X127991391Y-64211583D01*
X127991404Y-64211579D01*
X128166280Y-64195664D01*
X128340922Y-64214021D01*
X128340922Y-64214021D01*
G37*
G36*
X106420922Y-61674021D02*
X106420927Y-61674022D01*
X106420970Y-61674027D01*
X106588764Y-61725968D01*
X106743274Y-61809511D01*
X106878614Y-61921474D01*
X106989629Y-62057593D01*
X107072091Y-62212682D01*
X107122860Y-62380834D01*
X107140000Y-62555645D01*
X107140000Y-62564355D01*
X107139912Y-62576921D01*
X107120333Y-62751476D01*
X107067222Y-62918903D01*
X106982602Y-63072825D01*
X106869697Y-63207380D01*
X106732807Y-63317443D01*
X106577146Y-63398820D01*
X106408643Y-63448414D01*
X106408609Y-63448417D01*
X106408596Y-63448421D01*
X106233720Y-63464336D01*
X106059078Y-63445979D01*
X106059073Y-63445978D01*
X106059030Y-63445973D01*
X105891236Y-63394032D01*
X105736726Y-63310489D01*
X105601386Y-63198526D01*
X105490371Y-63062407D01*
X105407909Y-62907318D01*
X105357140Y-62739166D01*
X105340000Y-62564355D01*
X105340000Y-62555645D01*
X105340088Y-62543079D01*
X105359667Y-62368524D01*
X105412778Y-62201097D01*
X105497398Y-62047175D01*
X105610303Y-61912620D01*
X105747193Y-61802557D01*
X105902854Y-61721180D01*
X106071357Y-61671586D01*
X106071391Y-61671583D01*
X106071404Y-61671579D01*
X106246280Y-61655664D01*
X106420922Y-61674021D01*
X106420922Y-61674021D01*
G37*
G36*
X133420922Y-61674021D02*
X133420927Y-61674022D01*
X133420970Y-61674027D01*
X133588764Y-61725968D01*
X133743274Y-61809511D01*
X133878614Y-61921474D01*
X133989629Y-62057593D01*
X134072091Y-62212682D01*
X134122860Y-62380834D01*
X134140000Y-62555645D01*
X134140000Y-62564355D01*
X134139912Y-62576921D01*
X134120333Y-62751476D01*
X134067222Y-62918903D01*
X133982602Y-63072825D01*
X133869697Y-63207380D01*
X133732807Y-63317443D01*
X133577146Y-63398820D01*
X133408643Y-63448414D01*
X133408609Y-63448417D01*
X133408596Y-63448421D01*
X133233720Y-63464336D01*
X133059078Y-63445979D01*
X133059073Y-63445978D01*
X133059030Y-63445973D01*
X132891236Y-63394032D01*
X132736726Y-63310489D01*
X132601386Y-63198526D01*
X132490371Y-63062407D01*
X132407909Y-62907318D01*
X132357140Y-62739166D01*
X132340000Y-62564355D01*
X132340000Y-62555645D01*
X132340088Y-62543079D01*
X132359667Y-62368524D01*
X132412778Y-62201097D01*
X132497398Y-62047175D01*
X132610303Y-61912620D01*
X132747193Y-61802557D01*
X132902854Y-61721180D01*
X133071357Y-61671586D01*
X133071391Y-61671583D01*
X133071404Y-61671579D01*
X133246280Y-61655664D01*
X133420922Y-61674021D01*
X133420922Y-61674021D01*
G37*
G36*
X130880922Y-61674021D02*
X130880927Y-61674022D01*
X130880970Y-61674027D01*
X131048764Y-61725968D01*
X131203274Y-61809511D01*
X131338614Y-61921474D01*
X131449629Y-62057593D01*
X131532091Y-62212682D01*
X131582860Y-62380834D01*
X131600000Y-62555645D01*
X131600000Y-62564355D01*
X131599912Y-62576921D01*
X131580333Y-62751476D01*
X131527222Y-62918903D01*
X131442602Y-63072825D01*
X131329697Y-63207380D01*
X131192807Y-63317443D01*
X131037146Y-63398820D01*
X130868643Y-63448414D01*
X130868609Y-63448417D01*
X130868596Y-63448421D01*
X130693720Y-63464336D01*
X130519078Y-63445979D01*
X130519073Y-63445978D01*
X130519030Y-63445973D01*
X130351236Y-63394032D01*
X130196726Y-63310489D01*
X130061386Y-63198526D01*
X129950371Y-63062407D01*
X129867909Y-62907318D01*
X129817140Y-62739166D01*
X129800000Y-62564355D01*
X129800000Y-62555645D01*
X129800088Y-62543079D01*
X129819667Y-62368524D01*
X129872778Y-62201097D01*
X129957398Y-62047175D01*
X130070303Y-61912620D01*
X130207193Y-61802557D01*
X130362854Y-61721180D01*
X130531357Y-61671586D01*
X130531391Y-61671583D01*
X130531404Y-61671579D01*
X130706280Y-61655664D01*
X130880922Y-61674021D01*
X130880922Y-61674021D01*
G37*
G36*
X128340922Y-61674021D02*
X128340927Y-61674022D01*
X128340970Y-61674027D01*
X128508764Y-61725968D01*
X128663274Y-61809511D01*
X128798614Y-61921474D01*
X128909629Y-62057593D01*
X128992091Y-62212682D01*
X129042860Y-62380834D01*
X129060000Y-62555645D01*
X129060000Y-62564355D01*
X129059912Y-62576921D01*
X129040333Y-62751476D01*
X128987222Y-62918903D01*
X128902602Y-63072825D01*
X128789697Y-63207380D01*
X128652807Y-63317443D01*
X128497146Y-63398820D01*
X128328643Y-63448414D01*
X128328609Y-63448417D01*
X128328596Y-63448421D01*
X128153720Y-63464336D01*
X127979078Y-63445979D01*
X127979073Y-63445978D01*
X127979030Y-63445973D01*
X127811236Y-63394032D01*
X127656726Y-63310489D01*
X127521386Y-63198526D01*
X127410371Y-63062407D01*
X127327909Y-62907318D01*
X127277140Y-62739166D01*
X127260000Y-62564355D01*
X127260000Y-62555645D01*
X127260088Y-62543079D01*
X127279667Y-62368524D01*
X127332778Y-62201097D01*
X127417398Y-62047175D01*
X127530303Y-61912620D01*
X127667193Y-61802557D01*
X127822854Y-61721180D01*
X127991357Y-61671586D01*
X127991391Y-61671583D01*
X127991404Y-61671579D01*
X128166280Y-61655664D01*
X128340922Y-61674021D01*
X128340922Y-61674021D01*
G37*
G36*
X125800922Y-61674021D02*
X125800927Y-61674022D01*
X125800970Y-61674027D01*
X125968764Y-61725968D01*
X126123274Y-61809511D01*
X126258614Y-61921474D01*
X126369629Y-62057593D01*
X126452091Y-62212682D01*
X126502860Y-62380834D01*
X126520000Y-62555645D01*
X126520000Y-62564355D01*
X126519912Y-62576921D01*
X126500333Y-62751476D01*
X126447222Y-62918903D01*
X126362602Y-63072825D01*
X126249697Y-63207380D01*
X126112807Y-63317443D01*
X125957146Y-63398820D01*
X125788643Y-63448414D01*
X125788609Y-63448417D01*
X125788596Y-63448421D01*
X125613720Y-63464336D01*
X125439078Y-63445979D01*
X125439073Y-63445978D01*
X125439030Y-63445973D01*
X125271236Y-63394032D01*
X125116726Y-63310489D01*
X124981386Y-63198526D01*
X124870371Y-63062407D01*
X124787909Y-62907318D01*
X124737140Y-62739166D01*
X124720000Y-62564355D01*
X124720000Y-62555645D01*
X124720088Y-62543079D01*
X124739667Y-62368524D01*
X124792778Y-62201097D01*
X124877398Y-62047175D01*
X124990303Y-61912620D01*
X125127193Y-61802557D01*
X125282854Y-61721180D01*
X125451357Y-61671586D01*
X125451391Y-61671583D01*
X125451404Y-61671579D01*
X125626280Y-61655664D01*
X125800922Y-61674021D01*
X125800922Y-61674021D01*
G37*
G36*
X123260922Y-61674021D02*
X123260927Y-61674022D01*
X123260970Y-61674027D01*
X123428764Y-61725968D01*
X123583274Y-61809511D01*
X123718614Y-61921474D01*
X123829629Y-62057593D01*
X123912091Y-62212682D01*
X123962860Y-62380834D01*
X123980000Y-62555645D01*
X123980000Y-62564355D01*
X123979912Y-62576921D01*
X123960333Y-62751476D01*
X123907222Y-62918903D01*
X123822602Y-63072825D01*
X123709697Y-63207380D01*
X123572807Y-63317443D01*
X123417146Y-63398820D01*
X123248643Y-63448414D01*
X123248609Y-63448417D01*
X123248596Y-63448421D01*
X123073720Y-63464336D01*
X122899078Y-63445979D01*
X122899073Y-63445978D01*
X122899030Y-63445973D01*
X122731236Y-63394032D01*
X122576726Y-63310489D01*
X122441386Y-63198526D01*
X122330371Y-63062407D01*
X122247909Y-62907318D01*
X122197140Y-62739166D01*
X122180000Y-62564355D01*
X122180000Y-62555645D01*
X122180088Y-62543079D01*
X122199667Y-62368524D01*
X122252778Y-62201097D01*
X122337398Y-62047175D01*
X122450303Y-61912620D01*
X122587193Y-61802557D01*
X122742854Y-61721180D01*
X122911357Y-61671586D01*
X122911391Y-61671583D01*
X122911404Y-61671579D01*
X123086280Y-61655664D01*
X123260922Y-61674021D01*
X123260922Y-61674021D01*
G37*
G36*
X120720922Y-61674021D02*
X120720927Y-61674022D01*
X120720970Y-61674027D01*
X120888764Y-61725968D01*
X121043274Y-61809511D01*
X121178614Y-61921474D01*
X121289629Y-62057593D01*
X121372091Y-62212682D01*
X121422860Y-62380834D01*
X121440000Y-62555645D01*
X121440000Y-62564355D01*
X121439912Y-62576921D01*
X121420333Y-62751476D01*
X121367222Y-62918903D01*
X121282602Y-63072825D01*
X121169697Y-63207380D01*
X121032807Y-63317443D01*
X120877146Y-63398820D01*
X120708643Y-63448414D01*
X120708609Y-63448417D01*
X120708596Y-63448421D01*
X120533720Y-63464336D01*
X120359078Y-63445979D01*
X120359073Y-63445978D01*
X120359030Y-63445973D01*
X120191236Y-63394032D01*
X120036726Y-63310489D01*
X119901386Y-63198526D01*
X119790371Y-63062407D01*
X119707909Y-62907318D01*
X119657140Y-62739166D01*
X119640000Y-62564355D01*
X119640000Y-62555645D01*
X119640088Y-62543079D01*
X119659667Y-62368524D01*
X119712778Y-62201097D01*
X119797398Y-62047175D01*
X119910303Y-61912620D01*
X120047193Y-61802557D01*
X120202854Y-61721180D01*
X120371357Y-61671586D01*
X120371391Y-61671583D01*
X120371404Y-61671579D01*
X120546280Y-61655664D01*
X120720922Y-61674021D01*
X120720922Y-61674021D01*
G37*
G36*
X118180922Y-61674021D02*
X118180927Y-61674022D01*
X118180970Y-61674027D01*
X118348764Y-61725968D01*
X118503274Y-61809511D01*
X118638614Y-61921474D01*
X118749629Y-62057593D01*
X118832091Y-62212682D01*
X118882860Y-62380834D01*
X118900000Y-62555645D01*
X118900000Y-62564355D01*
X118899912Y-62576921D01*
X118880333Y-62751476D01*
X118827222Y-62918903D01*
X118742602Y-63072825D01*
X118629697Y-63207380D01*
X118492807Y-63317443D01*
X118337146Y-63398820D01*
X118168643Y-63448414D01*
X118168609Y-63448417D01*
X118168596Y-63448421D01*
X117993720Y-63464336D01*
X117819078Y-63445979D01*
X117819073Y-63445978D01*
X117819030Y-63445973D01*
X117651236Y-63394032D01*
X117496726Y-63310489D01*
X117361386Y-63198526D01*
X117250371Y-63062407D01*
X117167909Y-62907318D01*
X117117140Y-62739166D01*
X117100000Y-62564355D01*
X117100000Y-62555645D01*
X117100088Y-62543079D01*
X117119667Y-62368524D01*
X117172778Y-62201097D01*
X117257398Y-62047175D01*
X117370303Y-61912620D01*
X117507193Y-61802557D01*
X117662854Y-61721180D01*
X117831357Y-61671586D01*
X117831391Y-61671583D01*
X117831404Y-61671579D01*
X118006280Y-61655664D01*
X118180922Y-61674021D01*
X118180922Y-61674021D01*
G37*
G36*
X103880922Y-61674021D02*
X103880927Y-61674022D01*
X103880970Y-61674027D01*
X104048764Y-61725968D01*
X104203274Y-61809511D01*
X104338614Y-61921474D01*
X104449629Y-62057593D01*
X104532091Y-62212682D01*
X104582860Y-62380834D01*
X104600000Y-62555645D01*
X104600000Y-62564355D01*
X104599912Y-62576921D01*
X104580333Y-62751476D01*
X104527222Y-62918903D01*
X104442602Y-63072825D01*
X104329697Y-63207380D01*
X104192807Y-63317443D01*
X104037146Y-63398820D01*
X103868643Y-63448414D01*
X103868609Y-63448417D01*
X103868596Y-63448421D01*
X103693720Y-63464336D01*
X103519078Y-63445979D01*
X103519073Y-63445978D01*
X103519030Y-63445973D01*
X103351236Y-63394032D01*
X103196726Y-63310489D01*
X103061386Y-63198526D01*
X102950371Y-63062407D01*
X102867909Y-62907318D01*
X102817140Y-62739166D01*
X102800000Y-62564355D01*
X102800000Y-62555645D01*
X102800088Y-62543079D01*
X102819667Y-62368524D01*
X102872778Y-62201097D01*
X102957398Y-62047175D01*
X103070303Y-61912620D01*
X103207193Y-61802557D01*
X103362854Y-61721180D01*
X103531357Y-61671586D01*
X103531391Y-61671583D01*
X103531404Y-61671579D01*
X103706280Y-61655664D01*
X103880922Y-61674021D01*
X103880922Y-61674021D01*
G37*
G36*
X101340922Y-61674021D02*
X101340927Y-61674022D01*
X101340970Y-61674027D01*
X101508764Y-61725968D01*
X101663274Y-61809511D01*
X101798614Y-61921474D01*
X101909629Y-62057593D01*
X101992091Y-62212682D01*
X102042860Y-62380834D01*
X102060000Y-62555645D01*
X102060000Y-62564355D01*
X102059912Y-62576921D01*
X102040333Y-62751476D01*
X101987222Y-62918903D01*
X101902602Y-63072825D01*
X101789697Y-63207380D01*
X101652807Y-63317443D01*
X101497146Y-63398820D01*
X101328643Y-63448414D01*
X101328609Y-63448417D01*
X101328596Y-63448421D01*
X101153720Y-63464336D01*
X100979078Y-63445979D01*
X100979073Y-63445978D01*
X100979030Y-63445973D01*
X100811236Y-63394032D01*
X100656726Y-63310489D01*
X100521386Y-63198526D01*
X100410371Y-63062407D01*
X100327909Y-62907318D01*
X100277140Y-62739166D01*
X100260000Y-62564355D01*
X100260000Y-62555645D01*
X100260088Y-62543079D01*
X100279667Y-62368524D01*
X100332778Y-62201097D01*
X100417398Y-62047175D01*
X100530303Y-61912620D01*
X100667193Y-61802557D01*
X100822854Y-61721180D01*
X100991357Y-61671586D01*
X100991391Y-61671583D01*
X100991404Y-61671579D01*
X101166280Y-61655664D01*
X101340922Y-61674021D01*
X101340922Y-61674021D01*
G37*
G36*
X98800922Y-61674021D02*
X98800927Y-61674022D01*
X98800970Y-61674027D01*
X98968764Y-61725968D01*
X99123274Y-61809511D01*
X99258614Y-61921474D01*
X99369629Y-62057593D01*
X99452091Y-62212682D01*
X99502860Y-62380834D01*
X99520000Y-62555645D01*
X99520000Y-62564355D01*
X99519912Y-62576921D01*
X99500333Y-62751476D01*
X99447222Y-62918903D01*
X99362602Y-63072825D01*
X99249697Y-63207380D01*
X99112807Y-63317443D01*
X98957146Y-63398820D01*
X98788643Y-63448414D01*
X98788609Y-63448417D01*
X98788596Y-63448421D01*
X98613720Y-63464336D01*
X98439078Y-63445979D01*
X98439073Y-63445978D01*
X98439030Y-63445973D01*
X98271236Y-63394032D01*
X98116726Y-63310489D01*
X97981386Y-63198526D01*
X97870371Y-63062407D01*
X97787909Y-62907318D01*
X97737140Y-62739166D01*
X97720000Y-62564355D01*
X97720000Y-62555645D01*
X97720088Y-62543079D01*
X97739667Y-62368524D01*
X97792778Y-62201097D01*
X97877398Y-62047175D01*
X97990303Y-61912620D01*
X98127193Y-61802557D01*
X98282854Y-61721180D01*
X98451357Y-61671586D01*
X98451391Y-61671583D01*
X98451404Y-61671579D01*
X98626280Y-61655664D01*
X98800922Y-61674021D01*
X98800922Y-61674021D01*
G37*
G36*
X96260922Y-61674021D02*
X96260927Y-61674022D01*
X96260970Y-61674027D01*
X96428764Y-61725968D01*
X96583274Y-61809511D01*
X96718614Y-61921474D01*
X96829629Y-62057593D01*
X96912091Y-62212682D01*
X96962860Y-62380834D01*
X96980000Y-62555645D01*
X96980000Y-62564355D01*
X96979912Y-62576921D01*
X96960333Y-62751476D01*
X96907222Y-62918903D01*
X96822602Y-63072825D01*
X96709697Y-63207380D01*
X96572807Y-63317443D01*
X96417146Y-63398820D01*
X96248643Y-63448414D01*
X96248609Y-63448417D01*
X96248596Y-63448421D01*
X96073720Y-63464336D01*
X95899078Y-63445979D01*
X95899073Y-63445978D01*
X95899030Y-63445973D01*
X95731236Y-63394032D01*
X95576726Y-63310489D01*
X95441386Y-63198526D01*
X95330371Y-63062407D01*
X95247909Y-62907318D01*
X95197140Y-62739166D01*
X95180000Y-62564355D01*
X95180000Y-62555645D01*
X95180088Y-62543079D01*
X95199667Y-62368524D01*
X95252778Y-62201097D01*
X95337398Y-62047175D01*
X95450303Y-61912620D01*
X95587193Y-61802557D01*
X95742854Y-61721180D01*
X95911357Y-61671586D01*
X95911391Y-61671583D01*
X95911404Y-61671579D01*
X96086280Y-61655664D01*
X96260922Y-61674021D01*
X96260922Y-61674021D01*
G37*
G36*
X93720922Y-61674021D02*
X93720927Y-61674022D01*
X93720970Y-61674027D01*
X93888764Y-61725968D01*
X94043274Y-61809511D01*
X94178614Y-61921474D01*
X94289629Y-62057593D01*
X94372091Y-62212682D01*
X94422860Y-62380834D01*
X94440000Y-62555645D01*
X94440000Y-62564355D01*
X94439912Y-62576921D01*
X94420333Y-62751476D01*
X94367222Y-62918903D01*
X94282602Y-63072825D01*
X94169697Y-63207380D01*
X94032807Y-63317443D01*
X93877146Y-63398820D01*
X93708643Y-63448414D01*
X93708609Y-63448417D01*
X93708596Y-63448421D01*
X93533720Y-63464336D01*
X93359078Y-63445979D01*
X93359073Y-63445978D01*
X93359030Y-63445973D01*
X93191236Y-63394032D01*
X93036726Y-63310489D01*
X92901386Y-63198526D01*
X92790371Y-63062407D01*
X92707909Y-62907318D01*
X92657140Y-62739166D01*
X92640000Y-62564355D01*
X92640000Y-62555645D01*
X92640088Y-62543079D01*
X92659667Y-62368524D01*
X92712778Y-62201097D01*
X92797398Y-62047175D01*
X92910303Y-61912620D01*
X93047193Y-61802557D01*
X93202854Y-61721180D01*
X93371357Y-61671586D01*
X93371391Y-61671583D01*
X93371404Y-61671579D01*
X93546280Y-61655664D01*
X93720922Y-61674021D01*
X93720922Y-61674021D01*
G37*
G36*
X91180922Y-61674021D02*
X91180927Y-61674022D01*
X91180970Y-61674027D01*
X91348764Y-61725968D01*
X91503274Y-61809511D01*
X91638614Y-61921474D01*
X91749629Y-62057593D01*
X91832091Y-62212682D01*
X91882860Y-62380834D01*
X91900000Y-62555645D01*
X91900000Y-62564355D01*
X91899912Y-62576921D01*
X91880333Y-62751476D01*
X91827222Y-62918903D01*
X91742602Y-63072825D01*
X91629697Y-63207380D01*
X91492807Y-63317443D01*
X91337146Y-63398820D01*
X91168643Y-63448414D01*
X91168609Y-63448417D01*
X91168596Y-63448421D01*
X90993720Y-63464336D01*
X90819078Y-63445979D01*
X90819073Y-63445978D01*
X90819030Y-63445973D01*
X90651236Y-63394032D01*
X90496726Y-63310489D01*
X90361386Y-63198526D01*
X90250371Y-63062407D01*
X90167909Y-62907318D01*
X90117140Y-62739166D01*
X90100000Y-62564355D01*
X90100000Y-62555645D01*
X90100088Y-62543079D01*
X90119667Y-62368524D01*
X90172778Y-62201097D01*
X90257398Y-62047175D01*
X90370303Y-61912620D01*
X90507193Y-61802557D01*
X90662854Y-61721180D01*
X90831357Y-61671586D01*
X90831391Y-61671583D01*
X90831404Y-61671579D01*
X91006280Y-61655664D01*
X91180922Y-61674021D01*
X91180922Y-61674021D01*
G37*
G36*
X89360000Y-63460000D02*
X87560000Y-63460000D01*
X87560000Y-61660000D01*
X89360000Y-61660000D01*
X89360000Y-63460000D01*
X89360000Y-63460000D01*
G37*
G36*
X116360000Y-63460000D02*
X114560000Y-63460000D01*
X114560000Y-61660000D01*
X116360000Y-61660000D01*
X116360000Y-63460000D01*
X116360000Y-63460000D01*
G37*
G36*
X104350000Y-57350000D02*
X102650000Y-57350000D01*
X102650000Y-55650000D01*
X104350000Y-55650000D01*
X104350000Y-57350000D01*
X104350000Y-57350000D01*
G37*
G36*
X131350000Y-57350000D02*
X129650000Y-57350000D01*
X129650000Y-55650000D01*
X131350000Y-55650000D01*
X131350000Y-57350000D01*
X131350000Y-57350000D01*
G37*
G36*
X103589279Y-53150564D02*
X103752570Y-53184083D01*
X103906236Y-53248678D01*
X104044433Y-53341892D01*
X104161893Y-53460176D01*
X104254140Y-53599018D01*
X104317661Y-53753132D01*
X104349971Y-53916309D01*
X104349971Y-53916319D01*
X104350037Y-53916653D01*
X104347378Y-54107049D01*
X104347302Y-54107383D01*
X104347302Y-54107395D01*
X104310451Y-54269599D01*
X104242649Y-54421883D01*
X104146562Y-54558095D01*
X104025843Y-54673054D01*
X103885102Y-54762370D01*
X103729688Y-54822653D01*
X103565529Y-54851598D01*
X103398872Y-54848107D01*
X103236062Y-54812311D01*
X103083315Y-54745577D01*
X102946429Y-54650439D01*
X102830634Y-54530530D01*
X102740337Y-54390417D01*
X102678972Y-54235428D01*
X102648880Y-54071467D01*
X102651208Y-53904791D01*
X102685864Y-53741744D01*
X102751534Y-53588527D01*
X102845710Y-53450986D01*
X102964810Y-53334354D01*
X103104292Y-53243079D01*
X103258848Y-53180635D01*
X103422586Y-53149400D01*
X103589279Y-53150564D01*
X103589279Y-53150564D01*
G37*
G36*
X130589279Y-53150564D02*
X130752570Y-53184083D01*
X130906236Y-53248678D01*
X131044433Y-53341892D01*
X131161893Y-53460176D01*
X131254140Y-53599018D01*
X131317661Y-53753132D01*
X131349971Y-53916309D01*
X131349971Y-53916319D01*
X131350037Y-53916653D01*
X131347378Y-54107049D01*
X131347302Y-54107383D01*
X131347302Y-54107395D01*
X131310451Y-54269599D01*
X131242649Y-54421883D01*
X131146562Y-54558095D01*
X131025843Y-54673054D01*
X130885102Y-54762370D01*
X130729688Y-54822653D01*
X130565529Y-54851598D01*
X130398872Y-54848107D01*
X130236062Y-54812311D01*
X130083315Y-54745577D01*
X129946429Y-54650439D01*
X129830634Y-54530530D01*
X129740337Y-54390417D01*
X129678972Y-54235428D01*
X129648880Y-54071467D01*
X129651208Y-53904791D01*
X129685864Y-53741744D01*
X129751534Y-53588527D01*
X129845710Y-53450986D01*
X129964810Y-53334354D01*
X130104292Y-53243079D01*
X130258848Y-53180635D01*
X130422586Y-53149400D01*
X130589279Y-53150564D01*
X130589279Y-53150564D01*
G37*
M02*
