G04 #@! TF.FileFunction,Legend,Top*
%FSLAX46Y46*%
G04 Gerber Fmt 4.6, Leading zero omitted, Abs format (unit mm)*
G04 Created by KiCad (PCBNEW 4.0.7) date 03/15/18 12:31:11*
%MOMM*%
%LPD*%
G01*
G04 APERTURE LIST*
%ADD10C,0.100000*%
%ADD11C,0.250000*%
%ADD12C,0.300000*%
%ADD13C,0.120000*%
%ADD14C,0.150000*%
%ADD15C,0.254000*%
%ADD16R,1.800000X1.800000*%
%ADD17O,1.800000X1.800000*%
%ADD18R,3.100000X3.100000*%
%ADD19C,3.100000*%
%ADD20R,1.600000X0.700000*%
%ADD21R,1.300000X0.850000*%
%ADD22R,1.700000X1.700000*%
%ADD23C,1.700000*%
G04 APERTURE END LIST*
D10*
D11*
X115333334Y-68077381D02*
X115000000Y-67601190D01*
X114761905Y-68077381D02*
X114761905Y-67077381D01*
X115142858Y-67077381D01*
X115238096Y-67125000D01*
X115285715Y-67172619D01*
X115333334Y-67267857D01*
X115333334Y-67410714D01*
X115285715Y-67505952D01*
X115238096Y-67553571D01*
X115142858Y-67601190D01*
X114761905Y-67601190D01*
X116285715Y-68077381D02*
X115714286Y-68077381D01*
X116000000Y-68077381D02*
X116000000Y-67077381D01*
X115904762Y-67220238D01*
X115809524Y-67315476D01*
X115714286Y-67363095D01*
X115285715Y-68875000D02*
X115190477Y-68827381D01*
X115047620Y-68827381D01*
X114904762Y-68875000D01*
X114809524Y-68970238D01*
X114761905Y-69065476D01*
X114714286Y-69255952D01*
X114714286Y-69398810D01*
X114761905Y-69589286D01*
X114809524Y-69684524D01*
X114904762Y-69779762D01*
X115047620Y-69827381D01*
X115142858Y-69827381D01*
X115285715Y-69779762D01*
X115333334Y-69732143D01*
X115333334Y-69398810D01*
X115142858Y-69398810D01*
X116285715Y-69827381D02*
X115714286Y-69827381D01*
X116000000Y-69827381D02*
X116000000Y-68827381D01*
X115904762Y-68970238D01*
X115809524Y-69065476D01*
X115714286Y-69113095D01*
X117595239Y-67553571D02*
X117738096Y-67601190D01*
X117785715Y-67648810D01*
X117833334Y-67744048D01*
X117833334Y-67886905D01*
X117785715Y-67982143D01*
X117738096Y-68029762D01*
X117642858Y-68077381D01*
X117261905Y-68077381D01*
X117261905Y-67077381D01*
X117595239Y-67077381D01*
X117690477Y-67125000D01*
X117738096Y-67172619D01*
X117785715Y-67267857D01*
X117785715Y-67363095D01*
X117738096Y-67458333D01*
X117690477Y-67505952D01*
X117595239Y-67553571D01*
X117261905Y-67553571D01*
X118785715Y-68077381D02*
X118214286Y-68077381D01*
X118500000Y-68077381D02*
X118500000Y-67077381D01*
X118404762Y-67220238D01*
X118309524Y-67315476D01*
X118214286Y-67363095D01*
X117238096Y-68875000D02*
X117142858Y-68827381D01*
X117000001Y-68827381D01*
X116857143Y-68875000D01*
X116761905Y-68970238D01*
X116714286Y-69065476D01*
X116666667Y-69255952D01*
X116666667Y-69398810D01*
X116714286Y-69589286D01*
X116761905Y-69684524D01*
X116857143Y-69779762D01*
X117000001Y-69827381D01*
X117095239Y-69827381D01*
X117238096Y-69779762D01*
X117285715Y-69732143D01*
X117285715Y-69398810D01*
X117095239Y-69398810D01*
X117714286Y-69827381D02*
X117714286Y-68827381D01*
X118285715Y-69827381D01*
X118285715Y-68827381D01*
X118761905Y-69827381D02*
X118761905Y-68827381D01*
X119000000Y-68827381D01*
X119142858Y-68875000D01*
X119238096Y-68970238D01*
X119285715Y-69065476D01*
X119333334Y-69255952D01*
X119333334Y-69398810D01*
X119285715Y-69589286D01*
X119238096Y-69684524D01*
X119142858Y-69779762D01*
X119000000Y-69827381D01*
X118761905Y-69827381D01*
X90595239Y-67553571D02*
X90738096Y-67601190D01*
X90785715Y-67648810D01*
X90833334Y-67744048D01*
X90833334Y-67886905D01*
X90785715Y-67982143D01*
X90738096Y-68029762D01*
X90642858Y-68077381D01*
X90261905Y-68077381D01*
X90261905Y-67077381D01*
X90595239Y-67077381D01*
X90690477Y-67125000D01*
X90738096Y-67172619D01*
X90785715Y-67267857D01*
X90785715Y-67363095D01*
X90738096Y-67458333D01*
X90690477Y-67505952D01*
X90595239Y-67553571D01*
X90261905Y-67553571D01*
X91214286Y-67172619D02*
X91261905Y-67125000D01*
X91357143Y-67077381D01*
X91595239Y-67077381D01*
X91690477Y-67125000D01*
X91738096Y-67172619D01*
X91785715Y-67267857D01*
X91785715Y-67363095D01*
X91738096Y-67505952D01*
X91166667Y-68077381D01*
X91785715Y-68077381D01*
X90238096Y-68875000D02*
X90142858Y-68827381D01*
X90000001Y-68827381D01*
X89857143Y-68875000D01*
X89761905Y-68970238D01*
X89714286Y-69065476D01*
X89666667Y-69255952D01*
X89666667Y-69398810D01*
X89714286Y-69589286D01*
X89761905Y-69684524D01*
X89857143Y-69779762D01*
X90000001Y-69827381D01*
X90095239Y-69827381D01*
X90238096Y-69779762D01*
X90285715Y-69732143D01*
X90285715Y-69398810D01*
X90095239Y-69398810D01*
X90714286Y-69827381D02*
X90714286Y-68827381D01*
X91285715Y-69827381D01*
X91285715Y-68827381D01*
X91761905Y-69827381D02*
X91761905Y-68827381D01*
X92000000Y-68827381D01*
X92142858Y-68875000D01*
X92238096Y-68970238D01*
X92285715Y-69065476D01*
X92333334Y-69255952D01*
X92333334Y-69398810D01*
X92285715Y-69589286D01*
X92238096Y-69684524D01*
X92142858Y-69779762D01*
X92000000Y-69827381D01*
X91761905Y-69827381D01*
X98000000Y-68077381D02*
X97523809Y-68077381D01*
X97523809Y-67077381D01*
X98285714Y-67791667D02*
X98761905Y-67791667D01*
X98190476Y-68077381D02*
X98523809Y-67077381D01*
X98857143Y-68077381D01*
X99047619Y-67077381D02*
X99619048Y-67077381D01*
X99333333Y-68077381D02*
X99333333Y-67077381D01*
X97952381Y-68827381D02*
X98142858Y-68827381D01*
X98238096Y-68875000D01*
X98333334Y-68970238D01*
X98380953Y-69160714D01*
X98380953Y-69494048D01*
X98333334Y-69684524D01*
X98238096Y-69779762D01*
X98142858Y-69827381D01*
X97952381Y-69827381D01*
X97857143Y-69779762D01*
X97761905Y-69684524D01*
X97714286Y-69494048D01*
X97714286Y-69160714D01*
X97761905Y-68970238D01*
X97857143Y-68875000D01*
X97952381Y-68827381D01*
X98809524Y-69303571D02*
X99142858Y-69303571D01*
X99285715Y-69827381D02*
X98809524Y-69827381D01*
X98809524Y-68827381D01*
X99285715Y-68827381D01*
X95214286Y-68077381D02*
X95214286Y-67077381D01*
X95785715Y-68077381D01*
X95785715Y-67077381D01*
X96833334Y-67982143D02*
X96785715Y-68029762D01*
X96642858Y-68077381D01*
X96547620Y-68077381D01*
X96404762Y-68029762D01*
X96309524Y-67934524D01*
X96261905Y-67839286D01*
X96214286Y-67648810D01*
X96214286Y-67505952D01*
X96261905Y-67315476D01*
X96309524Y-67220238D01*
X96404762Y-67125000D01*
X96547620Y-67077381D01*
X96642858Y-67077381D01*
X96785715Y-67125000D01*
X96833334Y-67172619D01*
X95404762Y-69732143D02*
X95357143Y-69779762D01*
X95214286Y-69827381D01*
X95119048Y-69827381D01*
X94976190Y-69779762D01*
X94880952Y-69684524D01*
X94833333Y-69589286D01*
X94785714Y-69398810D01*
X94785714Y-69255952D01*
X94833333Y-69065476D01*
X94880952Y-68970238D01*
X94976190Y-68875000D01*
X95119048Y-68827381D01*
X95214286Y-68827381D01*
X95357143Y-68875000D01*
X95404762Y-68922619D01*
X96309524Y-69827381D02*
X95833333Y-69827381D01*
X95833333Y-68827381D01*
X96642857Y-69827381D02*
X96642857Y-68827381D01*
X97214286Y-69827381D02*
X96785714Y-69255952D01*
X97214286Y-68827381D02*
X96642857Y-69398810D01*
X93261905Y-67791667D02*
X93738096Y-67791667D01*
X93166667Y-68077381D02*
X93500000Y-67077381D01*
X93833334Y-68077381D01*
X93571429Y-69303571D02*
X93714286Y-69351190D01*
X93761905Y-69398810D01*
X93809524Y-69494048D01*
X93809524Y-69636905D01*
X93761905Y-69732143D01*
X93714286Y-69779762D01*
X93619048Y-69827381D01*
X93238095Y-69827381D01*
X93238095Y-68827381D01*
X93571429Y-68827381D01*
X93666667Y-68875000D01*
X93714286Y-68922619D01*
X93761905Y-69017857D01*
X93761905Y-69113095D01*
X93714286Y-69208333D01*
X93666667Y-69255952D01*
X93571429Y-69303571D01*
X93238095Y-69303571D01*
X88333334Y-68077381D02*
X88000000Y-67601190D01*
X87761905Y-68077381D02*
X87761905Y-67077381D01*
X88142858Y-67077381D01*
X88238096Y-67125000D01*
X88285715Y-67172619D01*
X88333334Y-67267857D01*
X88333334Y-67410714D01*
X88285715Y-67505952D01*
X88238096Y-67553571D01*
X88142858Y-67601190D01*
X87761905Y-67601190D01*
X88714286Y-67172619D02*
X88761905Y-67125000D01*
X88857143Y-67077381D01*
X89095239Y-67077381D01*
X89190477Y-67125000D01*
X89238096Y-67172619D01*
X89285715Y-67267857D01*
X89285715Y-67363095D01*
X89238096Y-67505952D01*
X88666667Y-68077381D01*
X89285715Y-68077381D01*
X88285715Y-68875000D02*
X88190477Y-68827381D01*
X88047620Y-68827381D01*
X87904762Y-68875000D01*
X87809524Y-68970238D01*
X87761905Y-69065476D01*
X87714286Y-69255952D01*
X87714286Y-69398810D01*
X87761905Y-69589286D01*
X87809524Y-69684524D01*
X87904762Y-69779762D01*
X88047620Y-69827381D01*
X88142858Y-69827381D01*
X88285715Y-69779762D01*
X88333334Y-69732143D01*
X88333334Y-69398810D01*
X88142858Y-69398810D01*
X88714286Y-68922619D02*
X88761905Y-68875000D01*
X88857143Y-68827381D01*
X89095239Y-68827381D01*
X89190477Y-68875000D01*
X89238096Y-68922619D01*
X89285715Y-69017857D01*
X89285715Y-69113095D01*
X89238096Y-69255952D01*
X88666667Y-69827381D01*
X89285715Y-69827381D01*
X100904762Y-67077381D02*
X101238095Y-68077381D01*
X101571429Y-67077381D01*
X102476191Y-67982143D02*
X102428572Y-68029762D01*
X102285715Y-68077381D01*
X102190477Y-68077381D01*
X102047619Y-68029762D01*
X101952381Y-67934524D01*
X101904762Y-67839286D01*
X101857143Y-67648810D01*
X101857143Y-67505952D01*
X101904762Y-67315476D01*
X101952381Y-67220238D01*
X102047619Y-67125000D01*
X102190477Y-67077381D01*
X102285715Y-67077381D01*
X102428572Y-67125000D01*
X102476191Y-67172619D01*
X103476191Y-67982143D02*
X103428572Y-68029762D01*
X103285715Y-68077381D01*
X103190477Y-68077381D01*
X103047619Y-68029762D01*
X102952381Y-67934524D01*
X102904762Y-67839286D01*
X102857143Y-67648810D01*
X102857143Y-67505952D01*
X102904762Y-67315476D01*
X102952381Y-67220238D01*
X103047619Y-67125000D01*
X103190477Y-67077381D01*
X103285715Y-67077381D01*
X103428572Y-67125000D01*
X103476191Y-67172619D01*
X104571429Y-68077381D02*
X105095239Y-67410714D01*
X104571429Y-67410714D02*
X105095239Y-68077381D01*
X105380953Y-67077381D02*
X106000001Y-67077381D01*
X105666667Y-67458333D01*
X105809525Y-67458333D01*
X105904763Y-67505952D01*
X105952382Y-67553571D01*
X106000001Y-67648810D01*
X106000001Y-67886905D01*
X105952382Y-67982143D01*
X105904763Y-68029762D01*
X105809525Y-68077381D01*
X105523810Y-68077381D01*
X105428572Y-68029762D01*
X105380953Y-67982143D01*
X101476191Y-68875000D02*
X101380953Y-68827381D01*
X101238096Y-68827381D01*
X101095238Y-68875000D01*
X101000000Y-68970238D01*
X100952381Y-69065476D01*
X100904762Y-69255952D01*
X100904762Y-69398810D01*
X100952381Y-69589286D01*
X101000000Y-69684524D01*
X101095238Y-69779762D01*
X101238096Y-69827381D01*
X101333334Y-69827381D01*
X101476191Y-69779762D01*
X101523810Y-69732143D01*
X101523810Y-69398810D01*
X101333334Y-69398810D01*
X101952381Y-69827381D02*
X101952381Y-68827381D01*
X102523810Y-69827381D01*
X102523810Y-68827381D01*
X103000000Y-69827381D02*
X103000000Y-68827381D01*
X103238095Y-68827381D01*
X103380953Y-68875000D01*
X103476191Y-68970238D01*
X103523810Y-69065476D01*
X103571429Y-69255952D01*
X103571429Y-69398810D01*
X103523810Y-69589286D01*
X103476191Y-69684524D01*
X103380953Y-69779762D01*
X103238095Y-69827381D01*
X103000000Y-69827381D01*
X104666667Y-69827381D02*
X105190477Y-69160714D01*
X104666667Y-69160714D02*
X105190477Y-69827381D01*
X105476191Y-68827381D02*
X106095239Y-68827381D01*
X105761905Y-69208333D01*
X105904763Y-69208333D01*
X106000001Y-69255952D01*
X106047620Y-69303571D01*
X106095239Y-69398810D01*
X106095239Y-69636905D01*
X106047620Y-69732143D01*
X106000001Y-69779762D01*
X105904763Y-69827381D01*
X105619048Y-69827381D01*
X105523810Y-69779762D01*
X105476191Y-69732143D01*
X120261905Y-67791667D02*
X120738096Y-67791667D01*
X120166667Y-68077381D02*
X120500000Y-67077381D01*
X120833334Y-68077381D01*
X120571429Y-69303571D02*
X120714286Y-69351190D01*
X120761905Y-69398810D01*
X120809524Y-69494048D01*
X120809524Y-69636905D01*
X120761905Y-69732143D01*
X120714286Y-69779762D01*
X120619048Y-69827381D01*
X120238095Y-69827381D01*
X120238095Y-68827381D01*
X120571429Y-68827381D01*
X120666667Y-68875000D01*
X120714286Y-68922619D01*
X120761905Y-69017857D01*
X120761905Y-69113095D01*
X120714286Y-69208333D01*
X120666667Y-69255952D01*
X120571429Y-69303571D01*
X120238095Y-69303571D01*
D12*
X127678571Y-89571428D02*
X127678571Y-90428571D01*
X127678571Y-89999999D02*
X126178571Y-89999999D01*
X126392857Y-90142856D01*
X126535714Y-90285714D01*
X126607143Y-90428571D01*
D11*
X111928571Y-95428571D02*
X111976190Y-95285714D01*
X112023810Y-95238095D01*
X112119048Y-95190476D01*
X112261905Y-95190476D01*
X112357143Y-95238095D01*
X112404762Y-95285714D01*
X112452381Y-95380952D01*
X112452381Y-95761905D01*
X111452381Y-95761905D01*
X111452381Y-95428571D01*
X111500000Y-95333333D01*
X111547619Y-95285714D01*
X111642857Y-95238095D01*
X111738095Y-95238095D01*
X111833333Y-95285714D01*
X111880952Y-95333333D01*
X111928571Y-95428571D01*
X111928571Y-95761905D01*
X109000000Y-96261904D02*
X108952381Y-96357142D01*
X108952381Y-96499999D01*
X109000000Y-96642857D01*
X109095238Y-96738095D01*
X109190476Y-96785714D01*
X109380952Y-96833333D01*
X109523810Y-96833333D01*
X109714286Y-96785714D01*
X109809524Y-96738095D01*
X109904762Y-96642857D01*
X109952381Y-96499999D01*
X109952381Y-96404761D01*
X109904762Y-96261904D01*
X109857143Y-96214285D01*
X109523810Y-96214285D01*
X109523810Y-96404761D01*
X109952381Y-95785714D02*
X108952381Y-95785714D01*
X109952381Y-95214285D01*
X108952381Y-95214285D01*
X109952381Y-94738095D02*
X108952381Y-94738095D01*
X108952381Y-94500000D01*
X109000000Y-94357142D01*
X109095238Y-94261904D01*
X109190476Y-94214285D01*
X109380952Y-94166666D01*
X109523810Y-94166666D01*
X109714286Y-94214285D01*
X109809524Y-94261904D01*
X109904762Y-94357142D01*
X109952381Y-94500000D01*
X109952381Y-94738095D01*
X119500000Y-96261904D02*
X119452381Y-96357142D01*
X119452381Y-96499999D01*
X119500000Y-96642857D01*
X119595238Y-96738095D01*
X119690476Y-96785714D01*
X119880952Y-96833333D01*
X120023810Y-96833333D01*
X120214286Y-96785714D01*
X120309524Y-96738095D01*
X120404762Y-96642857D01*
X120452381Y-96499999D01*
X120452381Y-96404761D01*
X120404762Y-96261904D01*
X120357143Y-96214285D01*
X120023810Y-96214285D01*
X120023810Y-96404761D01*
X120452381Y-95785714D02*
X119452381Y-95785714D01*
X120452381Y-95214285D01*
X119452381Y-95214285D01*
X120452381Y-94738095D02*
X119452381Y-94738095D01*
X119452381Y-94500000D01*
X119500000Y-94357142D01*
X119595238Y-94261904D01*
X119690476Y-94214285D01*
X119880952Y-94166666D01*
X120023810Y-94166666D01*
X120214286Y-94214285D01*
X120309524Y-94261904D01*
X120404762Y-94357142D01*
X120452381Y-94500000D01*
X120452381Y-94738095D01*
X117452381Y-96000000D02*
X117452381Y-96476191D01*
X116452381Y-96476191D01*
X117166667Y-95714286D02*
X117166667Y-95238095D01*
X117452381Y-95809524D02*
X116452381Y-95476191D01*
X117452381Y-95142857D01*
X116452381Y-94952381D02*
X116452381Y-94380952D01*
X117452381Y-94666667D02*
X116452381Y-94666667D01*
X114952381Y-95761905D02*
X113952381Y-95761905D01*
X113952381Y-95523810D01*
X114000000Y-95380952D01*
X114095238Y-95285714D01*
X114190476Y-95238095D01*
X114380952Y-95190476D01*
X114523810Y-95190476D01*
X114714286Y-95238095D01*
X114809524Y-95285714D01*
X114904762Y-95380952D01*
X114952381Y-95523810D01*
X114952381Y-95761905D01*
X106500000Y-95714285D02*
X106452381Y-95809523D01*
X106452381Y-95952380D01*
X106500000Y-96095238D01*
X106595238Y-96190476D01*
X106690476Y-96238095D01*
X106880952Y-96285714D01*
X107023810Y-96285714D01*
X107214286Y-96238095D01*
X107309524Y-96190476D01*
X107404762Y-96095238D01*
X107452381Y-95952380D01*
X107452381Y-95857142D01*
X107404762Y-95714285D01*
X107357143Y-95666666D01*
X107023810Y-95666666D01*
X107023810Y-95857142D01*
X106547619Y-95285714D02*
X106500000Y-95238095D01*
X106452381Y-95142857D01*
X106452381Y-94904761D01*
X106500000Y-94809523D01*
X106547619Y-94761904D01*
X106642857Y-94714285D01*
X106738095Y-94714285D01*
X106880952Y-94761904D01*
X107452381Y-95333333D01*
X107452381Y-94714285D01*
X104000000Y-96261904D02*
X103952381Y-96357142D01*
X103952381Y-96499999D01*
X104000000Y-96642857D01*
X104095238Y-96738095D01*
X104190476Y-96785714D01*
X104380952Y-96833333D01*
X104523810Y-96833333D01*
X104714286Y-96785714D01*
X104809524Y-96738095D01*
X104904762Y-96642857D01*
X104952381Y-96499999D01*
X104952381Y-96404761D01*
X104904762Y-96261904D01*
X104857143Y-96214285D01*
X104523810Y-96214285D01*
X104523810Y-96404761D01*
X104952381Y-95785714D02*
X103952381Y-95785714D01*
X104952381Y-95214285D01*
X103952381Y-95214285D01*
X104952381Y-94738095D02*
X103952381Y-94738095D01*
X103952381Y-94500000D01*
X104000000Y-94357142D01*
X104095238Y-94261904D01*
X104190476Y-94214285D01*
X104380952Y-94166666D01*
X104523810Y-94166666D01*
X104714286Y-94214285D01*
X104809524Y-94261904D01*
X104904762Y-94357142D01*
X104952381Y-94500000D01*
X104952381Y-94738095D01*
X101500000Y-95714285D02*
X101452381Y-95809523D01*
X101452381Y-95952380D01*
X101500000Y-96095238D01*
X101595238Y-96190476D01*
X101690476Y-96238095D01*
X101880952Y-96285714D01*
X102023810Y-96285714D01*
X102214286Y-96238095D01*
X102309524Y-96190476D01*
X102404762Y-96095238D01*
X102452381Y-95952380D01*
X102452381Y-95857142D01*
X102404762Y-95714285D01*
X102357143Y-95666666D01*
X102023810Y-95666666D01*
X102023810Y-95857142D01*
X102452381Y-94714285D02*
X102452381Y-95285714D01*
X102452381Y-95000000D02*
X101452381Y-95000000D01*
X101595238Y-95095238D01*
X101690476Y-95190476D01*
X101738095Y-95285714D01*
X118952381Y-107547619D02*
X118952381Y-107357142D01*
X119000000Y-107261904D01*
X119095238Y-107166666D01*
X119285714Y-107119047D01*
X119619048Y-107119047D01*
X119809524Y-107166666D01*
X119904762Y-107261904D01*
X119952381Y-107357142D01*
X119952381Y-107547619D01*
X119904762Y-107642857D01*
X119809524Y-107738095D01*
X119619048Y-107785714D01*
X119285714Y-107785714D01*
X119095238Y-107738095D01*
X119000000Y-107642857D01*
X118952381Y-107547619D01*
X119428571Y-106690476D02*
X119428571Y-106357142D01*
X119952381Y-106214285D02*
X119952381Y-106690476D01*
X118952381Y-106690476D01*
X118952381Y-106214285D01*
X117357143Y-107595238D02*
X117404762Y-107642857D01*
X117452381Y-107785714D01*
X117452381Y-107880952D01*
X117404762Y-108023810D01*
X117309524Y-108119048D01*
X117214286Y-108166667D01*
X117023810Y-108214286D01*
X116880952Y-108214286D01*
X116690476Y-108166667D01*
X116595238Y-108119048D01*
X116500000Y-108023810D01*
X116452381Y-107880952D01*
X116452381Y-107785714D01*
X116500000Y-107642857D01*
X116547619Y-107595238D01*
X117452381Y-106690476D02*
X117452381Y-107166667D01*
X116452381Y-107166667D01*
X117452381Y-106357143D02*
X116452381Y-106357143D01*
X117452381Y-105785714D02*
X116880952Y-106214286D01*
X116452381Y-105785714D02*
X117023810Y-106357143D01*
X102452381Y-107166666D02*
X101976190Y-107500000D01*
X102452381Y-107738095D02*
X101452381Y-107738095D01*
X101452381Y-107357142D01*
X101500000Y-107261904D01*
X101547619Y-107214285D01*
X101642857Y-107166666D01*
X101785714Y-107166666D01*
X101880952Y-107214285D01*
X101928571Y-107261904D01*
X101976190Y-107357142D01*
X101976190Y-107738095D01*
X102452381Y-106214285D02*
X102452381Y-106785714D01*
X102452381Y-106500000D02*
X101452381Y-106500000D01*
X101595238Y-106595238D01*
X101690476Y-106690476D01*
X101738095Y-106785714D01*
X112166667Y-107238095D02*
X112166667Y-106761904D01*
X112452381Y-107333333D02*
X111452381Y-107000000D01*
X112452381Y-106666666D01*
X114857143Y-106690476D02*
X114904762Y-106738095D01*
X114952381Y-106880952D01*
X114952381Y-106976190D01*
X114904762Y-107119048D01*
X114809524Y-107214286D01*
X114714286Y-107261905D01*
X114523810Y-107309524D01*
X114380952Y-107309524D01*
X114190476Y-107261905D01*
X114095238Y-107214286D01*
X114000000Y-107119048D01*
X113952381Y-106976190D01*
X113952381Y-106880952D01*
X114000000Y-106738095D01*
X114047619Y-106690476D01*
X107452381Y-107166666D02*
X106976190Y-107500000D01*
X107452381Y-107738095D02*
X106452381Y-107738095D01*
X106452381Y-107357142D01*
X106500000Y-107261904D01*
X106547619Y-107214285D01*
X106642857Y-107166666D01*
X106785714Y-107166666D01*
X106880952Y-107214285D01*
X106928571Y-107261904D01*
X106976190Y-107357142D01*
X106976190Y-107738095D01*
X106547619Y-106785714D02*
X106500000Y-106738095D01*
X106452381Y-106642857D01*
X106452381Y-106404761D01*
X106500000Y-106309523D01*
X106547619Y-106261904D01*
X106642857Y-106214285D01*
X106738095Y-106214285D01*
X106880952Y-106261904D01*
X107452381Y-106833333D01*
X107452381Y-106214285D01*
X109428571Y-107404761D02*
X109476190Y-107261904D01*
X109523810Y-107214285D01*
X109619048Y-107166666D01*
X109761905Y-107166666D01*
X109857143Y-107214285D01*
X109904762Y-107261904D01*
X109952381Y-107357142D01*
X109952381Y-107738095D01*
X108952381Y-107738095D01*
X108952381Y-107404761D01*
X109000000Y-107309523D01*
X109047619Y-107261904D01*
X109142857Y-107214285D01*
X109238095Y-107214285D01*
X109333333Y-107261904D01*
X109380952Y-107309523D01*
X109428571Y-107404761D01*
X109428571Y-107738095D01*
X109047619Y-106785714D02*
X109000000Y-106738095D01*
X108952381Y-106642857D01*
X108952381Y-106404761D01*
X109000000Y-106309523D01*
X109047619Y-106261904D01*
X109142857Y-106214285D01*
X109238095Y-106214285D01*
X109380952Y-106261904D01*
X109952381Y-106833333D01*
X109952381Y-106214285D01*
X104428571Y-107404761D02*
X104476190Y-107261904D01*
X104523810Y-107214285D01*
X104619048Y-107166666D01*
X104761905Y-107166666D01*
X104857143Y-107214285D01*
X104904762Y-107261904D01*
X104952381Y-107357142D01*
X104952381Y-107738095D01*
X103952381Y-107738095D01*
X103952381Y-107404761D01*
X104000000Y-107309523D01*
X104047619Y-107261904D01*
X104142857Y-107214285D01*
X104238095Y-107214285D01*
X104333333Y-107261904D01*
X104380952Y-107309523D01*
X104428571Y-107404761D01*
X104428571Y-107738095D01*
X104952381Y-106214285D02*
X104952381Y-106785714D01*
X104952381Y-106500000D02*
X103952381Y-106500000D01*
X104095238Y-106595238D01*
X104190476Y-106690476D01*
X104238095Y-106785714D01*
X122214286Y-68077381D02*
X122214286Y-67077381D01*
X122785715Y-68077381D01*
X122785715Y-67077381D01*
X123833334Y-67982143D02*
X123785715Y-68029762D01*
X123642858Y-68077381D01*
X123547620Y-68077381D01*
X123404762Y-68029762D01*
X123309524Y-67934524D01*
X123261905Y-67839286D01*
X123214286Y-67648810D01*
X123214286Y-67505952D01*
X123261905Y-67315476D01*
X123309524Y-67220238D01*
X123404762Y-67125000D01*
X123547620Y-67077381D01*
X123642858Y-67077381D01*
X123785715Y-67125000D01*
X123833334Y-67172619D01*
X122404762Y-69732143D02*
X122357143Y-69779762D01*
X122214286Y-69827381D01*
X122119048Y-69827381D01*
X121976190Y-69779762D01*
X121880952Y-69684524D01*
X121833333Y-69589286D01*
X121785714Y-69398810D01*
X121785714Y-69255952D01*
X121833333Y-69065476D01*
X121880952Y-68970238D01*
X121976190Y-68875000D01*
X122119048Y-68827381D01*
X122214286Y-68827381D01*
X122357143Y-68875000D01*
X122404762Y-68922619D01*
X123309524Y-69827381D02*
X122833333Y-69827381D01*
X122833333Y-68827381D01*
X123642857Y-69827381D02*
X123642857Y-68827381D01*
X124214286Y-69827381D02*
X123785714Y-69255952D01*
X124214286Y-68827381D02*
X123642857Y-69398810D01*
X127904762Y-67077381D02*
X128238095Y-68077381D01*
X128571429Y-67077381D01*
X129476191Y-67982143D02*
X129428572Y-68029762D01*
X129285715Y-68077381D01*
X129190477Y-68077381D01*
X129047619Y-68029762D01*
X128952381Y-67934524D01*
X128904762Y-67839286D01*
X128857143Y-67648810D01*
X128857143Y-67505952D01*
X128904762Y-67315476D01*
X128952381Y-67220238D01*
X129047619Y-67125000D01*
X129190477Y-67077381D01*
X129285715Y-67077381D01*
X129428572Y-67125000D01*
X129476191Y-67172619D01*
X130476191Y-67982143D02*
X130428572Y-68029762D01*
X130285715Y-68077381D01*
X130190477Y-68077381D01*
X130047619Y-68029762D01*
X129952381Y-67934524D01*
X129904762Y-67839286D01*
X129857143Y-67648810D01*
X129857143Y-67505952D01*
X129904762Y-67315476D01*
X129952381Y-67220238D01*
X130047619Y-67125000D01*
X130190477Y-67077381D01*
X130285715Y-67077381D01*
X130428572Y-67125000D01*
X130476191Y-67172619D01*
X131571429Y-68077381D02*
X132095239Y-67410714D01*
X131571429Y-67410714D02*
X132095239Y-68077381D01*
X132380953Y-67077381D02*
X133000001Y-67077381D01*
X132666667Y-67458333D01*
X132809525Y-67458333D01*
X132904763Y-67505952D01*
X132952382Y-67553571D01*
X133000001Y-67648810D01*
X133000001Y-67886905D01*
X132952382Y-67982143D01*
X132904763Y-68029762D01*
X132809525Y-68077381D01*
X132523810Y-68077381D01*
X132428572Y-68029762D01*
X132380953Y-67982143D01*
X128476191Y-68875000D02*
X128380953Y-68827381D01*
X128238096Y-68827381D01*
X128095238Y-68875000D01*
X128000000Y-68970238D01*
X127952381Y-69065476D01*
X127904762Y-69255952D01*
X127904762Y-69398810D01*
X127952381Y-69589286D01*
X128000000Y-69684524D01*
X128095238Y-69779762D01*
X128238096Y-69827381D01*
X128333334Y-69827381D01*
X128476191Y-69779762D01*
X128523810Y-69732143D01*
X128523810Y-69398810D01*
X128333334Y-69398810D01*
X128952381Y-69827381D02*
X128952381Y-68827381D01*
X129523810Y-69827381D01*
X129523810Y-68827381D01*
X130000000Y-69827381D02*
X130000000Y-68827381D01*
X130238095Y-68827381D01*
X130380953Y-68875000D01*
X130476191Y-68970238D01*
X130523810Y-69065476D01*
X130571429Y-69255952D01*
X130571429Y-69398810D01*
X130523810Y-69589286D01*
X130476191Y-69684524D01*
X130380953Y-69779762D01*
X130238095Y-69827381D01*
X130000000Y-69827381D01*
X131666667Y-69827381D02*
X132190477Y-69160714D01*
X131666667Y-69160714D02*
X132190477Y-69827381D01*
X132476191Y-68827381D02*
X133095239Y-68827381D01*
X132761905Y-69208333D01*
X132904763Y-69208333D01*
X133000001Y-69255952D01*
X133047620Y-69303571D01*
X133095239Y-69398810D01*
X133095239Y-69636905D01*
X133047620Y-69732143D01*
X133000001Y-69779762D01*
X132904763Y-69827381D01*
X132619048Y-69827381D01*
X132523810Y-69779762D01*
X132476191Y-69732143D01*
X125000000Y-68077381D02*
X124523809Y-68077381D01*
X124523809Y-67077381D01*
X125285714Y-67791667D02*
X125761905Y-67791667D01*
X125190476Y-68077381D02*
X125523809Y-67077381D01*
X125857143Y-68077381D01*
X126047619Y-67077381D02*
X126619048Y-67077381D01*
X126333333Y-68077381D02*
X126333333Y-67077381D01*
X124952381Y-68827381D02*
X125142858Y-68827381D01*
X125238096Y-68875000D01*
X125333334Y-68970238D01*
X125380953Y-69160714D01*
X125380953Y-69494048D01*
X125333334Y-69684524D01*
X125238096Y-69779762D01*
X125142858Y-69827381D01*
X124952381Y-69827381D01*
X124857143Y-69779762D01*
X124761905Y-69684524D01*
X124714286Y-69494048D01*
X124714286Y-69160714D01*
X124761905Y-68970238D01*
X124857143Y-68875000D01*
X124952381Y-68827381D01*
X125809524Y-69303571D02*
X126142858Y-69303571D01*
X126285715Y-69827381D02*
X125809524Y-69827381D01*
X125809524Y-68827381D01*
X126285715Y-68827381D01*
D12*
X88678571Y-127392855D02*
X87178571Y-127392855D01*
X87178571Y-127035712D01*
X87250000Y-126821427D01*
X87392857Y-126678569D01*
X87535714Y-126607141D01*
X87821429Y-126535712D01*
X88035714Y-126535712D01*
X88321429Y-126607141D01*
X88464286Y-126678569D01*
X88607143Y-126821427D01*
X88678571Y-127035712D01*
X88678571Y-127392855D01*
X87678571Y-125249998D02*
X88678571Y-125249998D01*
X87678571Y-125892855D02*
X88464286Y-125892855D01*
X88607143Y-125821427D01*
X88678571Y-125678569D01*
X88678571Y-125464284D01*
X88607143Y-125321427D01*
X88535714Y-125249998D01*
X88678571Y-123892855D02*
X87892857Y-123892855D01*
X87750000Y-123964284D01*
X87678571Y-124107141D01*
X87678571Y-124392855D01*
X87750000Y-124535712D01*
X88607143Y-123892855D02*
X88678571Y-124035712D01*
X88678571Y-124392855D01*
X88607143Y-124535712D01*
X88464286Y-124607141D01*
X88321429Y-124607141D01*
X88178571Y-124535712D01*
X88107143Y-124392855D01*
X88107143Y-124035712D01*
X88035714Y-123892855D01*
X88678571Y-122964283D02*
X88607143Y-123107141D01*
X88464286Y-123178569D01*
X87178571Y-123178569D01*
X88250000Y-121321427D02*
X88250000Y-120607141D01*
X88678571Y-121464284D02*
X87178571Y-120964284D01*
X88678571Y-120464284D01*
X88678571Y-119964284D02*
X87178571Y-119964284D01*
X87750000Y-119964284D02*
X87678571Y-119821427D01*
X87678571Y-119535713D01*
X87750000Y-119392856D01*
X87821429Y-119321427D01*
X87964286Y-119249998D01*
X88392857Y-119249998D01*
X88535714Y-119321427D01*
X88607143Y-119392856D01*
X88678571Y-119535713D01*
X88678571Y-119821427D01*
X88607143Y-119964284D01*
X88607143Y-118678570D02*
X88678571Y-118535713D01*
X88678571Y-118249998D01*
X88607143Y-118107141D01*
X88464286Y-118035713D01*
X88392857Y-118035713D01*
X88250000Y-118107141D01*
X88178571Y-118249998D01*
X88178571Y-118464284D01*
X88107143Y-118607141D01*
X87964286Y-118678570D01*
X87892857Y-118678570D01*
X87750000Y-118607141D01*
X87678571Y-118464284D01*
X87678571Y-118249998D01*
X87750000Y-118107141D01*
X88607143Y-116821427D02*
X88678571Y-116964284D01*
X88678571Y-117249998D01*
X88607143Y-117392855D01*
X88464286Y-117464284D01*
X87892857Y-117464284D01*
X87750000Y-117392855D01*
X87678571Y-117249998D01*
X87678571Y-116964284D01*
X87750000Y-116821427D01*
X87892857Y-116749998D01*
X88035714Y-116749998D01*
X88178571Y-117464284D01*
X87678571Y-116107141D02*
X88678571Y-116107141D01*
X87821429Y-116107141D02*
X87750000Y-116035713D01*
X87678571Y-115892855D01*
X87678571Y-115678570D01*
X87750000Y-115535713D01*
X87892857Y-115464284D01*
X88678571Y-115464284D01*
X88535714Y-112749998D02*
X88607143Y-112821427D01*
X88678571Y-113035713D01*
X88678571Y-113178570D01*
X88607143Y-113392855D01*
X88464286Y-113535713D01*
X88321429Y-113607141D01*
X88035714Y-113678570D01*
X87821429Y-113678570D01*
X87535714Y-113607141D01*
X87392857Y-113535713D01*
X87250000Y-113392855D01*
X87178571Y-113178570D01*
X87178571Y-113035713D01*
X87250000Y-112821427D01*
X87321429Y-112749998D01*
X88678571Y-112035713D02*
X88678571Y-111749998D01*
X88607143Y-111607141D01*
X88535714Y-111535713D01*
X88321429Y-111392855D01*
X88035714Y-111321427D01*
X87464286Y-111321427D01*
X87321429Y-111392855D01*
X87250000Y-111464284D01*
X87178571Y-111607141D01*
X87178571Y-111892855D01*
X87250000Y-112035713D01*
X87321429Y-112107141D01*
X87464286Y-112178570D01*
X87821429Y-112178570D01*
X87964286Y-112107141D01*
X88035714Y-112035713D01*
X88107143Y-111892855D01*
X88107143Y-111607141D01*
X88035714Y-111464284D01*
X87964286Y-111392855D01*
X87821429Y-111321427D01*
X87821429Y-109321427D02*
X87750000Y-109464285D01*
X87678571Y-109535713D01*
X87535714Y-109607142D01*
X87464286Y-109607142D01*
X87321429Y-109535713D01*
X87250000Y-109464285D01*
X87178571Y-109321427D01*
X87178571Y-109035713D01*
X87250000Y-108892856D01*
X87321429Y-108821427D01*
X87464286Y-108749999D01*
X87535714Y-108749999D01*
X87678571Y-108821427D01*
X87750000Y-108892856D01*
X87821429Y-109035713D01*
X87821429Y-109321427D01*
X87892857Y-109464285D01*
X87964286Y-109535713D01*
X88107143Y-109607142D01*
X88392857Y-109607142D01*
X88535714Y-109535713D01*
X88607143Y-109464285D01*
X88678571Y-109321427D01*
X88678571Y-109035713D01*
X88607143Y-108892856D01*
X88535714Y-108821427D01*
X88392857Y-108749999D01*
X88107143Y-108749999D01*
X87964286Y-108821427D01*
X87892857Y-108892856D01*
X87821429Y-109035713D01*
X88678571Y-108249999D02*
X87678571Y-107464285D01*
X87678571Y-108249999D02*
X88678571Y-107464285D01*
X87178571Y-106249999D02*
X87178571Y-106535713D01*
X87250000Y-106678570D01*
X87321429Y-106749999D01*
X87535714Y-106892856D01*
X87821429Y-106964285D01*
X88392857Y-106964285D01*
X88535714Y-106892856D01*
X88607143Y-106821428D01*
X88678571Y-106678570D01*
X88678571Y-106392856D01*
X88607143Y-106249999D01*
X88535714Y-106178570D01*
X88392857Y-106107142D01*
X88035714Y-106107142D01*
X87892857Y-106178570D01*
X87821429Y-106249999D01*
X87750000Y-106392856D01*
X87750000Y-106678570D01*
X87821429Y-106821428D01*
X87892857Y-106892856D01*
X88035714Y-106964285D01*
X87678571Y-104821428D02*
X88678571Y-104821428D01*
X87107143Y-105178571D02*
X88178571Y-105535714D01*
X88178571Y-104607142D01*
X87678571Y-103107143D02*
X87678571Y-102535714D01*
X87178571Y-102892857D02*
X88464286Y-102892857D01*
X88607143Y-102821429D01*
X88678571Y-102678571D01*
X88678571Y-102535714D01*
X88678571Y-101821428D02*
X88607143Y-101964286D01*
X88535714Y-102035714D01*
X88392857Y-102107143D01*
X87964286Y-102107143D01*
X87821429Y-102035714D01*
X87750000Y-101964286D01*
X87678571Y-101821428D01*
X87678571Y-101607143D01*
X87750000Y-101464286D01*
X87821429Y-101392857D01*
X87964286Y-101321428D01*
X88392857Y-101321428D01*
X88535714Y-101392857D01*
X88607143Y-101464286D01*
X88678571Y-101607143D01*
X88678571Y-101821428D01*
X88678571Y-98750000D02*
X88678571Y-99607143D01*
X88678571Y-99178571D02*
X87178571Y-99178571D01*
X87392857Y-99321428D01*
X87535714Y-99464286D01*
X87607143Y-99607143D01*
X87178571Y-97464286D02*
X87178571Y-97750000D01*
X87250000Y-97892857D01*
X87321429Y-97964286D01*
X87535714Y-98107143D01*
X87821429Y-98178572D01*
X88392857Y-98178572D01*
X88535714Y-98107143D01*
X88607143Y-98035715D01*
X88678571Y-97892857D01*
X88678571Y-97607143D01*
X88607143Y-97464286D01*
X88535714Y-97392857D01*
X88392857Y-97321429D01*
X88035714Y-97321429D01*
X87892857Y-97392857D01*
X87821429Y-97464286D01*
X87750000Y-97607143D01*
X87750000Y-97892857D01*
X87821429Y-98035715D01*
X87892857Y-98107143D01*
X88035714Y-98178572D01*
X88678571Y-96821429D02*
X87678571Y-96035715D01*
X87678571Y-96821429D02*
X88678571Y-96035715D01*
X87178571Y-94821429D02*
X87178571Y-95107143D01*
X87250000Y-95250000D01*
X87321429Y-95321429D01*
X87535714Y-95464286D01*
X87821429Y-95535715D01*
X88392857Y-95535715D01*
X88535714Y-95464286D01*
X88607143Y-95392858D01*
X88678571Y-95250000D01*
X88678571Y-94964286D01*
X88607143Y-94821429D01*
X88535714Y-94750000D01*
X88392857Y-94678572D01*
X88035714Y-94678572D01*
X87892857Y-94750000D01*
X87821429Y-94821429D01*
X87750000Y-94964286D01*
X87750000Y-95250000D01*
X87821429Y-95392858D01*
X87892857Y-95464286D01*
X88035714Y-95535715D01*
X87678571Y-93392858D02*
X88678571Y-93392858D01*
X87107143Y-93750001D02*
X88178571Y-94107144D01*
X88178571Y-93178572D01*
X88678571Y-91464287D02*
X87178571Y-91464287D01*
X88678571Y-90821430D02*
X87892857Y-90821430D01*
X87750000Y-90892859D01*
X87678571Y-91035716D01*
X87678571Y-91250001D01*
X87750000Y-91392859D01*
X87821429Y-91464287D01*
X87678571Y-89464287D02*
X88678571Y-89464287D01*
X87678571Y-90107144D02*
X88464286Y-90107144D01*
X88607143Y-90035716D01*
X88678571Y-89892858D01*
X88678571Y-89678573D01*
X88607143Y-89535716D01*
X88535714Y-89464287D01*
X88678571Y-88750001D02*
X87178571Y-88750001D01*
X87750000Y-88750001D02*
X87678571Y-88607144D01*
X87678571Y-88321430D01*
X87750000Y-88178573D01*
X87821429Y-88107144D01*
X87964286Y-88035715D01*
X88392857Y-88035715D01*
X88535714Y-88107144D01*
X88607143Y-88178573D01*
X88678571Y-88321430D01*
X88678571Y-88607144D01*
X88607143Y-88750001D01*
X87178571Y-87535715D02*
X87178571Y-86535715D01*
X88678571Y-87178572D01*
X87178571Y-85250001D02*
X87178571Y-85964287D01*
X87892857Y-86035716D01*
X87821429Y-85964287D01*
X87750000Y-85821430D01*
X87750000Y-85464287D01*
X87821429Y-85321430D01*
X87892857Y-85250001D01*
X88035714Y-85178573D01*
X88392857Y-85178573D01*
X88535714Y-85250001D01*
X88607143Y-85321430D01*
X88678571Y-85464287D01*
X88678571Y-85821430D01*
X88607143Y-85964287D01*
X88535714Y-86035716D01*
X88678571Y-82750002D02*
X87892857Y-82750002D01*
X87750000Y-82821431D01*
X87678571Y-82964288D01*
X87678571Y-83250002D01*
X87750000Y-83392859D01*
X88607143Y-82750002D02*
X88678571Y-82892859D01*
X88678571Y-83250002D01*
X88607143Y-83392859D01*
X88464286Y-83464288D01*
X88321429Y-83464288D01*
X88178571Y-83392859D01*
X88107143Y-83250002D01*
X88107143Y-82892859D01*
X88035714Y-82750002D01*
X88678571Y-81392859D02*
X87178571Y-81392859D01*
X88607143Y-81392859D02*
X88678571Y-81535716D01*
X88678571Y-81821430D01*
X88607143Y-81964288D01*
X88535714Y-82035716D01*
X88392857Y-82107145D01*
X87964286Y-82107145D01*
X87821429Y-82035716D01*
X87750000Y-81964288D01*
X87678571Y-81821430D01*
X87678571Y-81535716D01*
X87750000Y-81392859D01*
X88678571Y-80035716D02*
X87892857Y-80035716D01*
X87750000Y-80107145D01*
X87678571Y-80250002D01*
X87678571Y-80535716D01*
X87750000Y-80678573D01*
X88607143Y-80035716D02*
X88678571Y-80178573D01*
X88678571Y-80535716D01*
X88607143Y-80678573D01*
X88464286Y-80750002D01*
X88321429Y-80750002D01*
X88178571Y-80678573D01*
X88107143Y-80535716D01*
X88107143Y-80178573D01*
X88035714Y-80035716D01*
X87678571Y-79321430D02*
X89178571Y-79321430D01*
X87750000Y-79321430D02*
X87678571Y-79178573D01*
X87678571Y-78892859D01*
X87750000Y-78750002D01*
X87821429Y-78678573D01*
X87964286Y-78607144D01*
X88392857Y-78607144D01*
X88535714Y-78678573D01*
X88607143Y-78750002D01*
X88678571Y-78892859D01*
X88678571Y-79178573D01*
X88607143Y-79321430D01*
X87678571Y-78178573D02*
X87678571Y-77607144D01*
X87178571Y-77964287D02*
X88464286Y-77964287D01*
X88607143Y-77892859D01*
X88678571Y-77750001D01*
X88678571Y-77607144D01*
X88607143Y-76535716D02*
X88678571Y-76678573D01*
X88678571Y-76964287D01*
X88607143Y-77107144D01*
X88464286Y-77178573D01*
X87892857Y-77178573D01*
X87750000Y-77107144D01*
X87678571Y-76964287D01*
X87678571Y-76678573D01*
X87750000Y-76535716D01*
X87892857Y-76464287D01*
X88035714Y-76464287D01*
X88178571Y-77178573D01*
X88678571Y-75821430D02*
X87678571Y-75821430D01*
X87964286Y-75821430D02*
X87821429Y-75750002D01*
X87750000Y-75678573D01*
X87678571Y-75535716D01*
X87678571Y-75392859D01*
X133857143Y-116750000D02*
X133714286Y-116678571D01*
X133500000Y-116678571D01*
X133285715Y-116750000D01*
X133142857Y-116892857D01*
X133071429Y-117035714D01*
X133000000Y-117321429D01*
X133000000Y-117535714D01*
X133071429Y-117821429D01*
X133142857Y-117964286D01*
X133285715Y-118107143D01*
X133500000Y-118178571D01*
X133642857Y-118178571D01*
X133857143Y-118107143D01*
X133928572Y-118035714D01*
X133928572Y-117535714D01*
X133642857Y-117535714D01*
X134571429Y-118178571D02*
X134571429Y-116678571D01*
X135428572Y-118178571D01*
X135428572Y-116678571D01*
X136142858Y-118178571D02*
X136142858Y-116678571D01*
X136500001Y-116678571D01*
X136714286Y-116750000D01*
X136857144Y-116892857D01*
X136928572Y-117035714D01*
X137000001Y-117321429D01*
X137000001Y-117535714D01*
X136928572Y-117821429D01*
X136857144Y-117964286D01*
X136714286Y-118107143D01*
X136500001Y-118178571D01*
X136142858Y-118178571D01*
X133071429Y-102607143D02*
X134214286Y-102607143D01*
X133642857Y-103178571D02*
X133642857Y-102035714D01*
X135642858Y-101678571D02*
X134928572Y-101678571D01*
X134857143Y-102392857D01*
X134928572Y-102321429D01*
X135071429Y-102250000D01*
X135428572Y-102250000D01*
X135571429Y-102321429D01*
X135642858Y-102392857D01*
X135714286Y-102535714D01*
X135714286Y-102892857D01*
X135642858Y-103035714D01*
X135571429Y-103107143D01*
X135428572Y-103178571D01*
X135071429Y-103178571D01*
X134928572Y-103107143D01*
X134857143Y-103035714D01*
X136142857Y-101678571D02*
X136642857Y-103178571D01*
X137142857Y-101678571D01*
D13*
X103230000Y-98730000D02*
X121070000Y-98730000D01*
X121070000Y-98730000D02*
X121070000Y-103930000D01*
X121070000Y-103930000D02*
X100630000Y-103930000D01*
X100630000Y-103930000D02*
X100630000Y-101330000D01*
X100630000Y-101330000D02*
X103230000Y-101330000D01*
X103230000Y-101330000D02*
X103230000Y-98730000D01*
X101960000Y-98730000D02*
X100630000Y-98730000D01*
X100630000Y-98730000D02*
X100630000Y-100000000D01*
X132460000Y-115040000D02*
X132460000Y-104880000D01*
X131190000Y-115040000D02*
X138810000Y-115040000D01*
X138810000Y-115040000D02*
X138810000Y-104880000D01*
X138810000Y-104880000D02*
X131190000Y-104880000D01*
X131190000Y-104880000D02*
X131190000Y-115040000D01*
D14*
X123784384Y-90457896D02*
X123784384Y-90432896D01*
X119634384Y-90457896D02*
X119634384Y-90342896D01*
X119634384Y-81557896D02*
X119634384Y-81672896D01*
X123784384Y-81557896D02*
X123784384Y-81672896D01*
X123784384Y-90457896D02*
X119634384Y-90457896D01*
X123784384Y-81557896D02*
X119634384Y-81557896D01*
X123784384Y-90432896D02*
X125159384Y-90432896D01*
D13*
X119600000Y-91900000D02*
X120300000Y-91900000D01*
X120300000Y-93100000D02*
X119600000Y-93100000D01*
X107590000Y-55250000D02*
G75*
G03X107590000Y-55250000I-4090000J0D01*
G01*
X99450000Y-55250000D02*
X107550000Y-55250000D01*
X99450000Y-55210000D02*
X107550000Y-55210000D01*
X99450000Y-55170000D02*
X107550000Y-55170000D01*
X99451000Y-55130000D02*
X107549000Y-55130000D01*
X99453000Y-55090000D02*
X107547000Y-55090000D01*
X99454000Y-55050000D02*
X107546000Y-55050000D01*
X99457000Y-55010000D02*
X107543000Y-55010000D01*
X99459000Y-54970000D02*
X102520000Y-54970000D01*
X104480000Y-54970000D02*
X107541000Y-54970000D01*
X99462000Y-54930000D02*
X102520000Y-54930000D01*
X104480000Y-54930000D02*
X107538000Y-54930000D01*
X99465000Y-54890000D02*
X102520000Y-54890000D01*
X104480000Y-54890000D02*
X107535000Y-54890000D01*
X99469000Y-54850000D02*
X102520000Y-54850000D01*
X104480000Y-54850000D02*
X107531000Y-54850000D01*
X99473000Y-54810000D02*
X102520000Y-54810000D01*
X104480000Y-54810000D02*
X107527000Y-54810000D01*
X99478000Y-54770000D02*
X102520000Y-54770000D01*
X104480000Y-54770000D02*
X107522000Y-54770000D01*
X99483000Y-54730000D02*
X102520000Y-54730000D01*
X104480000Y-54730000D02*
X107517000Y-54730000D01*
X99488000Y-54690000D02*
X102520000Y-54690000D01*
X104480000Y-54690000D02*
X107512000Y-54690000D01*
X99494000Y-54650000D02*
X102520000Y-54650000D01*
X104480000Y-54650000D02*
X107506000Y-54650000D01*
X99500000Y-54610000D02*
X102520000Y-54610000D01*
X104480000Y-54610000D02*
X107500000Y-54610000D01*
X99506000Y-54570000D02*
X102520000Y-54570000D01*
X104480000Y-54570000D02*
X107494000Y-54570000D01*
X99513000Y-54529000D02*
X102520000Y-54529000D01*
X104480000Y-54529000D02*
X107487000Y-54529000D01*
X99521000Y-54489000D02*
X102520000Y-54489000D01*
X104480000Y-54489000D02*
X107479000Y-54489000D01*
X99529000Y-54449000D02*
X102520000Y-54449000D01*
X104480000Y-54449000D02*
X107471000Y-54449000D01*
X99537000Y-54409000D02*
X102520000Y-54409000D01*
X104480000Y-54409000D02*
X107463000Y-54409000D01*
X99545000Y-54369000D02*
X102520000Y-54369000D01*
X104480000Y-54369000D02*
X107455000Y-54369000D01*
X99554000Y-54329000D02*
X102520000Y-54329000D01*
X104480000Y-54329000D02*
X107446000Y-54329000D01*
X99564000Y-54289000D02*
X102520000Y-54289000D01*
X104480000Y-54289000D02*
X107436000Y-54289000D01*
X99574000Y-54249000D02*
X102520000Y-54249000D01*
X104480000Y-54249000D02*
X107426000Y-54249000D01*
X99584000Y-54209000D02*
X102520000Y-54209000D01*
X104480000Y-54209000D02*
X107416000Y-54209000D01*
X99595000Y-54169000D02*
X102520000Y-54169000D01*
X104480000Y-54169000D02*
X107405000Y-54169000D01*
X99606000Y-54129000D02*
X102520000Y-54129000D01*
X104480000Y-54129000D02*
X107394000Y-54129000D01*
X99617000Y-54089000D02*
X102520000Y-54089000D01*
X104480000Y-54089000D02*
X107383000Y-54089000D01*
X99630000Y-54049000D02*
X102520000Y-54049000D01*
X104480000Y-54049000D02*
X107370000Y-54049000D01*
X99642000Y-54009000D02*
X102520000Y-54009000D01*
X104480000Y-54009000D02*
X107358000Y-54009000D01*
X99655000Y-53969000D02*
X102520000Y-53969000D01*
X104480000Y-53969000D02*
X107345000Y-53969000D01*
X99668000Y-53929000D02*
X102520000Y-53929000D01*
X104480000Y-53929000D02*
X107332000Y-53929000D01*
X99682000Y-53889000D02*
X102520000Y-53889000D01*
X104480000Y-53889000D02*
X107318000Y-53889000D01*
X99697000Y-53849000D02*
X102520000Y-53849000D01*
X104480000Y-53849000D02*
X107303000Y-53849000D01*
X99711000Y-53809000D02*
X102520000Y-53809000D01*
X104480000Y-53809000D02*
X107289000Y-53809000D01*
X99727000Y-53769000D02*
X102520000Y-53769000D01*
X104480000Y-53769000D02*
X107273000Y-53769000D01*
X99742000Y-53729000D02*
X102520000Y-53729000D01*
X104480000Y-53729000D02*
X107258000Y-53729000D01*
X99759000Y-53689000D02*
X102520000Y-53689000D01*
X104480000Y-53689000D02*
X107241000Y-53689000D01*
X99775000Y-53649000D02*
X102520000Y-53649000D01*
X104480000Y-53649000D02*
X107225000Y-53649000D01*
X99793000Y-53609000D02*
X102520000Y-53609000D01*
X104480000Y-53609000D02*
X107207000Y-53609000D01*
X99810000Y-53569000D02*
X102520000Y-53569000D01*
X104480000Y-53569000D02*
X107190000Y-53569000D01*
X99829000Y-53529000D02*
X102520000Y-53529000D01*
X104480000Y-53529000D02*
X107171000Y-53529000D01*
X99848000Y-53489000D02*
X102520000Y-53489000D01*
X104480000Y-53489000D02*
X107152000Y-53489000D01*
X99867000Y-53449000D02*
X102520000Y-53449000D01*
X104480000Y-53449000D02*
X107133000Y-53449000D01*
X99887000Y-53409000D02*
X102520000Y-53409000D01*
X104480000Y-53409000D02*
X107113000Y-53409000D01*
X99907000Y-53369000D02*
X102520000Y-53369000D01*
X104480000Y-53369000D02*
X107093000Y-53369000D01*
X99928000Y-53329000D02*
X102520000Y-53329000D01*
X104480000Y-53329000D02*
X107072000Y-53329000D01*
X99950000Y-53289000D02*
X102520000Y-53289000D01*
X104480000Y-53289000D02*
X107050000Y-53289000D01*
X99972000Y-53249000D02*
X102520000Y-53249000D01*
X104480000Y-53249000D02*
X107028000Y-53249000D01*
X99995000Y-53209000D02*
X102520000Y-53209000D01*
X104480000Y-53209000D02*
X107005000Y-53209000D01*
X100018000Y-53169000D02*
X102520000Y-53169000D01*
X104480000Y-53169000D02*
X106982000Y-53169000D01*
X100042000Y-53129000D02*
X102520000Y-53129000D01*
X104480000Y-53129000D02*
X106958000Y-53129000D01*
X100066000Y-53089000D02*
X102520000Y-53089000D01*
X104480000Y-53089000D02*
X106934000Y-53089000D01*
X100092000Y-53049000D02*
X102520000Y-53049000D01*
X104480000Y-53049000D02*
X106908000Y-53049000D01*
X100117000Y-53009000D02*
X106883000Y-53009000D01*
X100144000Y-52969000D02*
X106856000Y-52969000D01*
X100171000Y-52929000D02*
X106829000Y-52929000D01*
X100199000Y-52889000D02*
X106801000Y-52889000D01*
X100228000Y-52849000D02*
X106772000Y-52849000D01*
X100257000Y-52809000D02*
X106743000Y-52809000D01*
X100287000Y-52769000D02*
X106713000Y-52769000D01*
X100318000Y-52729000D02*
X106682000Y-52729000D01*
X100350000Y-52689000D02*
X106650000Y-52689000D01*
X100382000Y-52649000D02*
X106618000Y-52649000D01*
X100416000Y-52609000D02*
X106584000Y-52609000D01*
X100450000Y-52569000D02*
X106550000Y-52569000D01*
X100485000Y-52529000D02*
X106515000Y-52529000D01*
X100521000Y-52489000D02*
X106479000Y-52489000D01*
X100558000Y-52449000D02*
X106442000Y-52449000D01*
X100596000Y-52409000D02*
X106404000Y-52409000D01*
X100635000Y-52369000D02*
X106365000Y-52369000D01*
X100676000Y-52329000D02*
X106324000Y-52329000D01*
X100717000Y-52289000D02*
X106283000Y-52289000D01*
X100760000Y-52249000D02*
X106240000Y-52249000D01*
X100803000Y-52209000D02*
X106197000Y-52209000D01*
X100848000Y-52169000D02*
X106152000Y-52169000D01*
X100895000Y-52129000D02*
X106105000Y-52129000D01*
X100943000Y-52089000D02*
X106057000Y-52089000D01*
X100992000Y-52049000D02*
X106008000Y-52049000D01*
X101043000Y-52009000D02*
X105957000Y-52009000D01*
X101096000Y-51969000D02*
X105904000Y-51969000D01*
X101151000Y-51929000D02*
X105849000Y-51929000D01*
X101207000Y-51889000D02*
X105793000Y-51889000D01*
X101266000Y-51849000D02*
X105734000Y-51849000D01*
X101327000Y-51809000D02*
X105673000Y-51809000D01*
X101391000Y-51769000D02*
X105609000Y-51769000D01*
X101457000Y-51729000D02*
X105543000Y-51729000D01*
X101526000Y-51689000D02*
X105474000Y-51689000D01*
X101598000Y-51649000D02*
X105402000Y-51649000D01*
X101674000Y-51609000D02*
X105326000Y-51609000D01*
X101755000Y-51569000D02*
X105245000Y-51569000D01*
X101840000Y-51529000D02*
X105160000Y-51529000D01*
X101930000Y-51489000D02*
X105070000Y-51489000D01*
X102027000Y-51449000D02*
X104973000Y-51449000D01*
X102131000Y-51409000D02*
X104869000Y-51409000D01*
X102246000Y-51369000D02*
X104754000Y-51369000D01*
X102373000Y-51329000D02*
X104627000Y-51329000D01*
X102517000Y-51289000D02*
X104483000Y-51289000D01*
X102686000Y-51249000D02*
X104314000Y-51249000D01*
X102902000Y-51209000D02*
X104098000Y-51209000D01*
X103254000Y-51169000D02*
X103746000Y-51169000D01*
X103500000Y-58700000D02*
X103500000Y-57500000D01*
X102850000Y-58100000D02*
X104150000Y-58100000D01*
X134590000Y-55250000D02*
G75*
G03X134590000Y-55250000I-4090000J0D01*
G01*
X126450000Y-55250000D02*
X134550000Y-55250000D01*
X126450000Y-55210000D02*
X134550000Y-55210000D01*
X126450000Y-55170000D02*
X134550000Y-55170000D01*
X126451000Y-55130000D02*
X134549000Y-55130000D01*
X126453000Y-55090000D02*
X134547000Y-55090000D01*
X126454000Y-55050000D02*
X134546000Y-55050000D01*
X126457000Y-55010000D02*
X134543000Y-55010000D01*
X126459000Y-54970000D02*
X129520000Y-54970000D01*
X131480000Y-54970000D02*
X134541000Y-54970000D01*
X126462000Y-54930000D02*
X129520000Y-54930000D01*
X131480000Y-54930000D02*
X134538000Y-54930000D01*
X126465000Y-54890000D02*
X129520000Y-54890000D01*
X131480000Y-54890000D02*
X134535000Y-54890000D01*
X126469000Y-54850000D02*
X129520000Y-54850000D01*
X131480000Y-54850000D02*
X134531000Y-54850000D01*
X126473000Y-54810000D02*
X129520000Y-54810000D01*
X131480000Y-54810000D02*
X134527000Y-54810000D01*
X126478000Y-54770000D02*
X129520000Y-54770000D01*
X131480000Y-54770000D02*
X134522000Y-54770000D01*
X126483000Y-54730000D02*
X129520000Y-54730000D01*
X131480000Y-54730000D02*
X134517000Y-54730000D01*
X126488000Y-54690000D02*
X129520000Y-54690000D01*
X131480000Y-54690000D02*
X134512000Y-54690000D01*
X126494000Y-54650000D02*
X129520000Y-54650000D01*
X131480000Y-54650000D02*
X134506000Y-54650000D01*
X126500000Y-54610000D02*
X129520000Y-54610000D01*
X131480000Y-54610000D02*
X134500000Y-54610000D01*
X126506000Y-54570000D02*
X129520000Y-54570000D01*
X131480000Y-54570000D02*
X134494000Y-54570000D01*
X126513000Y-54529000D02*
X129520000Y-54529000D01*
X131480000Y-54529000D02*
X134487000Y-54529000D01*
X126521000Y-54489000D02*
X129520000Y-54489000D01*
X131480000Y-54489000D02*
X134479000Y-54489000D01*
X126529000Y-54449000D02*
X129520000Y-54449000D01*
X131480000Y-54449000D02*
X134471000Y-54449000D01*
X126537000Y-54409000D02*
X129520000Y-54409000D01*
X131480000Y-54409000D02*
X134463000Y-54409000D01*
X126545000Y-54369000D02*
X129520000Y-54369000D01*
X131480000Y-54369000D02*
X134455000Y-54369000D01*
X126554000Y-54329000D02*
X129520000Y-54329000D01*
X131480000Y-54329000D02*
X134446000Y-54329000D01*
X126564000Y-54289000D02*
X129520000Y-54289000D01*
X131480000Y-54289000D02*
X134436000Y-54289000D01*
X126574000Y-54249000D02*
X129520000Y-54249000D01*
X131480000Y-54249000D02*
X134426000Y-54249000D01*
X126584000Y-54209000D02*
X129520000Y-54209000D01*
X131480000Y-54209000D02*
X134416000Y-54209000D01*
X126595000Y-54169000D02*
X129520000Y-54169000D01*
X131480000Y-54169000D02*
X134405000Y-54169000D01*
X126606000Y-54129000D02*
X129520000Y-54129000D01*
X131480000Y-54129000D02*
X134394000Y-54129000D01*
X126617000Y-54089000D02*
X129520000Y-54089000D01*
X131480000Y-54089000D02*
X134383000Y-54089000D01*
X126630000Y-54049000D02*
X129520000Y-54049000D01*
X131480000Y-54049000D02*
X134370000Y-54049000D01*
X126642000Y-54009000D02*
X129520000Y-54009000D01*
X131480000Y-54009000D02*
X134358000Y-54009000D01*
X126655000Y-53969000D02*
X129520000Y-53969000D01*
X131480000Y-53969000D02*
X134345000Y-53969000D01*
X126668000Y-53929000D02*
X129520000Y-53929000D01*
X131480000Y-53929000D02*
X134332000Y-53929000D01*
X126682000Y-53889000D02*
X129520000Y-53889000D01*
X131480000Y-53889000D02*
X134318000Y-53889000D01*
X126697000Y-53849000D02*
X129520000Y-53849000D01*
X131480000Y-53849000D02*
X134303000Y-53849000D01*
X126711000Y-53809000D02*
X129520000Y-53809000D01*
X131480000Y-53809000D02*
X134289000Y-53809000D01*
X126727000Y-53769000D02*
X129520000Y-53769000D01*
X131480000Y-53769000D02*
X134273000Y-53769000D01*
X126742000Y-53729000D02*
X129520000Y-53729000D01*
X131480000Y-53729000D02*
X134258000Y-53729000D01*
X126759000Y-53689000D02*
X129520000Y-53689000D01*
X131480000Y-53689000D02*
X134241000Y-53689000D01*
X126775000Y-53649000D02*
X129520000Y-53649000D01*
X131480000Y-53649000D02*
X134225000Y-53649000D01*
X126793000Y-53609000D02*
X129520000Y-53609000D01*
X131480000Y-53609000D02*
X134207000Y-53609000D01*
X126810000Y-53569000D02*
X129520000Y-53569000D01*
X131480000Y-53569000D02*
X134190000Y-53569000D01*
X126829000Y-53529000D02*
X129520000Y-53529000D01*
X131480000Y-53529000D02*
X134171000Y-53529000D01*
X126848000Y-53489000D02*
X129520000Y-53489000D01*
X131480000Y-53489000D02*
X134152000Y-53489000D01*
X126867000Y-53449000D02*
X129520000Y-53449000D01*
X131480000Y-53449000D02*
X134133000Y-53449000D01*
X126887000Y-53409000D02*
X129520000Y-53409000D01*
X131480000Y-53409000D02*
X134113000Y-53409000D01*
X126907000Y-53369000D02*
X129520000Y-53369000D01*
X131480000Y-53369000D02*
X134093000Y-53369000D01*
X126928000Y-53329000D02*
X129520000Y-53329000D01*
X131480000Y-53329000D02*
X134072000Y-53329000D01*
X126950000Y-53289000D02*
X129520000Y-53289000D01*
X131480000Y-53289000D02*
X134050000Y-53289000D01*
X126972000Y-53249000D02*
X129520000Y-53249000D01*
X131480000Y-53249000D02*
X134028000Y-53249000D01*
X126995000Y-53209000D02*
X129520000Y-53209000D01*
X131480000Y-53209000D02*
X134005000Y-53209000D01*
X127018000Y-53169000D02*
X129520000Y-53169000D01*
X131480000Y-53169000D02*
X133982000Y-53169000D01*
X127042000Y-53129000D02*
X129520000Y-53129000D01*
X131480000Y-53129000D02*
X133958000Y-53129000D01*
X127066000Y-53089000D02*
X129520000Y-53089000D01*
X131480000Y-53089000D02*
X133934000Y-53089000D01*
X127092000Y-53049000D02*
X129520000Y-53049000D01*
X131480000Y-53049000D02*
X133908000Y-53049000D01*
X127117000Y-53009000D02*
X133883000Y-53009000D01*
X127144000Y-52969000D02*
X133856000Y-52969000D01*
X127171000Y-52929000D02*
X133829000Y-52929000D01*
X127199000Y-52889000D02*
X133801000Y-52889000D01*
X127228000Y-52849000D02*
X133772000Y-52849000D01*
X127257000Y-52809000D02*
X133743000Y-52809000D01*
X127287000Y-52769000D02*
X133713000Y-52769000D01*
X127318000Y-52729000D02*
X133682000Y-52729000D01*
X127350000Y-52689000D02*
X133650000Y-52689000D01*
X127382000Y-52649000D02*
X133618000Y-52649000D01*
X127416000Y-52609000D02*
X133584000Y-52609000D01*
X127450000Y-52569000D02*
X133550000Y-52569000D01*
X127485000Y-52529000D02*
X133515000Y-52529000D01*
X127521000Y-52489000D02*
X133479000Y-52489000D01*
X127558000Y-52449000D02*
X133442000Y-52449000D01*
X127596000Y-52409000D02*
X133404000Y-52409000D01*
X127635000Y-52369000D02*
X133365000Y-52369000D01*
X127676000Y-52329000D02*
X133324000Y-52329000D01*
X127717000Y-52289000D02*
X133283000Y-52289000D01*
X127760000Y-52249000D02*
X133240000Y-52249000D01*
X127803000Y-52209000D02*
X133197000Y-52209000D01*
X127848000Y-52169000D02*
X133152000Y-52169000D01*
X127895000Y-52129000D02*
X133105000Y-52129000D01*
X127943000Y-52089000D02*
X133057000Y-52089000D01*
X127992000Y-52049000D02*
X133008000Y-52049000D01*
X128043000Y-52009000D02*
X132957000Y-52009000D01*
X128096000Y-51969000D02*
X132904000Y-51969000D01*
X128151000Y-51929000D02*
X132849000Y-51929000D01*
X128207000Y-51889000D02*
X132793000Y-51889000D01*
X128266000Y-51849000D02*
X132734000Y-51849000D01*
X128327000Y-51809000D02*
X132673000Y-51809000D01*
X128391000Y-51769000D02*
X132609000Y-51769000D01*
X128457000Y-51729000D02*
X132543000Y-51729000D01*
X128526000Y-51689000D02*
X132474000Y-51689000D01*
X128598000Y-51649000D02*
X132402000Y-51649000D01*
X128674000Y-51609000D02*
X132326000Y-51609000D01*
X128755000Y-51569000D02*
X132245000Y-51569000D01*
X128840000Y-51529000D02*
X132160000Y-51529000D01*
X128930000Y-51489000D02*
X132070000Y-51489000D01*
X129027000Y-51449000D02*
X131973000Y-51449000D01*
X129131000Y-51409000D02*
X131869000Y-51409000D01*
X129246000Y-51369000D02*
X131754000Y-51369000D01*
X129373000Y-51329000D02*
X131627000Y-51329000D01*
X129517000Y-51289000D02*
X131483000Y-51289000D01*
X129686000Y-51249000D02*
X131314000Y-51249000D01*
X129902000Y-51209000D02*
X131098000Y-51209000D01*
X130254000Y-51169000D02*
X130746000Y-51169000D01*
X130500000Y-58700000D02*
X130500000Y-57500000D01*
X129850000Y-58100000D02*
X131150000Y-58100000D01*
X107590000Y-130250000D02*
G75*
G03X107590000Y-130250000I-4090000J0D01*
G01*
X99450000Y-130250000D02*
X107550000Y-130250000D01*
X99450000Y-130210000D02*
X107550000Y-130210000D01*
X99450000Y-130170000D02*
X107550000Y-130170000D01*
X99451000Y-130130000D02*
X107549000Y-130130000D01*
X99453000Y-130090000D02*
X107547000Y-130090000D01*
X99454000Y-130050000D02*
X107546000Y-130050000D01*
X99457000Y-130010000D02*
X107543000Y-130010000D01*
X99459000Y-129970000D02*
X102520000Y-129970000D01*
X104480000Y-129970000D02*
X107541000Y-129970000D01*
X99462000Y-129930000D02*
X102520000Y-129930000D01*
X104480000Y-129930000D02*
X107538000Y-129930000D01*
X99465000Y-129890000D02*
X102520000Y-129890000D01*
X104480000Y-129890000D02*
X107535000Y-129890000D01*
X99469000Y-129850000D02*
X102520000Y-129850000D01*
X104480000Y-129850000D02*
X107531000Y-129850000D01*
X99473000Y-129810000D02*
X102520000Y-129810000D01*
X104480000Y-129810000D02*
X107527000Y-129810000D01*
X99478000Y-129770000D02*
X102520000Y-129770000D01*
X104480000Y-129770000D02*
X107522000Y-129770000D01*
X99483000Y-129730000D02*
X102520000Y-129730000D01*
X104480000Y-129730000D02*
X107517000Y-129730000D01*
X99488000Y-129690000D02*
X102520000Y-129690000D01*
X104480000Y-129690000D02*
X107512000Y-129690000D01*
X99494000Y-129650000D02*
X102520000Y-129650000D01*
X104480000Y-129650000D02*
X107506000Y-129650000D01*
X99500000Y-129610000D02*
X102520000Y-129610000D01*
X104480000Y-129610000D02*
X107500000Y-129610000D01*
X99506000Y-129570000D02*
X102520000Y-129570000D01*
X104480000Y-129570000D02*
X107494000Y-129570000D01*
X99513000Y-129529000D02*
X102520000Y-129529000D01*
X104480000Y-129529000D02*
X107487000Y-129529000D01*
X99521000Y-129489000D02*
X102520000Y-129489000D01*
X104480000Y-129489000D02*
X107479000Y-129489000D01*
X99529000Y-129449000D02*
X102520000Y-129449000D01*
X104480000Y-129449000D02*
X107471000Y-129449000D01*
X99537000Y-129409000D02*
X102520000Y-129409000D01*
X104480000Y-129409000D02*
X107463000Y-129409000D01*
X99545000Y-129369000D02*
X102520000Y-129369000D01*
X104480000Y-129369000D02*
X107455000Y-129369000D01*
X99554000Y-129329000D02*
X102520000Y-129329000D01*
X104480000Y-129329000D02*
X107446000Y-129329000D01*
X99564000Y-129289000D02*
X102520000Y-129289000D01*
X104480000Y-129289000D02*
X107436000Y-129289000D01*
X99574000Y-129249000D02*
X102520000Y-129249000D01*
X104480000Y-129249000D02*
X107426000Y-129249000D01*
X99584000Y-129209000D02*
X102520000Y-129209000D01*
X104480000Y-129209000D02*
X107416000Y-129209000D01*
X99595000Y-129169000D02*
X102520000Y-129169000D01*
X104480000Y-129169000D02*
X107405000Y-129169000D01*
X99606000Y-129129000D02*
X102520000Y-129129000D01*
X104480000Y-129129000D02*
X107394000Y-129129000D01*
X99617000Y-129089000D02*
X102520000Y-129089000D01*
X104480000Y-129089000D02*
X107383000Y-129089000D01*
X99630000Y-129049000D02*
X102520000Y-129049000D01*
X104480000Y-129049000D02*
X107370000Y-129049000D01*
X99642000Y-129009000D02*
X102520000Y-129009000D01*
X104480000Y-129009000D02*
X107358000Y-129009000D01*
X99655000Y-128969000D02*
X102520000Y-128969000D01*
X104480000Y-128969000D02*
X107345000Y-128969000D01*
X99668000Y-128929000D02*
X102520000Y-128929000D01*
X104480000Y-128929000D02*
X107332000Y-128929000D01*
X99682000Y-128889000D02*
X102520000Y-128889000D01*
X104480000Y-128889000D02*
X107318000Y-128889000D01*
X99697000Y-128849000D02*
X102520000Y-128849000D01*
X104480000Y-128849000D02*
X107303000Y-128849000D01*
X99711000Y-128809000D02*
X102520000Y-128809000D01*
X104480000Y-128809000D02*
X107289000Y-128809000D01*
X99727000Y-128769000D02*
X102520000Y-128769000D01*
X104480000Y-128769000D02*
X107273000Y-128769000D01*
X99742000Y-128729000D02*
X102520000Y-128729000D01*
X104480000Y-128729000D02*
X107258000Y-128729000D01*
X99759000Y-128689000D02*
X102520000Y-128689000D01*
X104480000Y-128689000D02*
X107241000Y-128689000D01*
X99775000Y-128649000D02*
X102520000Y-128649000D01*
X104480000Y-128649000D02*
X107225000Y-128649000D01*
X99793000Y-128609000D02*
X102520000Y-128609000D01*
X104480000Y-128609000D02*
X107207000Y-128609000D01*
X99810000Y-128569000D02*
X102520000Y-128569000D01*
X104480000Y-128569000D02*
X107190000Y-128569000D01*
X99829000Y-128529000D02*
X102520000Y-128529000D01*
X104480000Y-128529000D02*
X107171000Y-128529000D01*
X99848000Y-128489000D02*
X102520000Y-128489000D01*
X104480000Y-128489000D02*
X107152000Y-128489000D01*
X99867000Y-128449000D02*
X102520000Y-128449000D01*
X104480000Y-128449000D02*
X107133000Y-128449000D01*
X99887000Y-128409000D02*
X102520000Y-128409000D01*
X104480000Y-128409000D02*
X107113000Y-128409000D01*
X99907000Y-128369000D02*
X102520000Y-128369000D01*
X104480000Y-128369000D02*
X107093000Y-128369000D01*
X99928000Y-128329000D02*
X102520000Y-128329000D01*
X104480000Y-128329000D02*
X107072000Y-128329000D01*
X99950000Y-128289000D02*
X102520000Y-128289000D01*
X104480000Y-128289000D02*
X107050000Y-128289000D01*
X99972000Y-128249000D02*
X102520000Y-128249000D01*
X104480000Y-128249000D02*
X107028000Y-128249000D01*
X99995000Y-128209000D02*
X102520000Y-128209000D01*
X104480000Y-128209000D02*
X107005000Y-128209000D01*
X100018000Y-128169000D02*
X102520000Y-128169000D01*
X104480000Y-128169000D02*
X106982000Y-128169000D01*
X100042000Y-128129000D02*
X102520000Y-128129000D01*
X104480000Y-128129000D02*
X106958000Y-128129000D01*
X100066000Y-128089000D02*
X102520000Y-128089000D01*
X104480000Y-128089000D02*
X106934000Y-128089000D01*
X100092000Y-128049000D02*
X102520000Y-128049000D01*
X104480000Y-128049000D02*
X106908000Y-128049000D01*
X100117000Y-128009000D02*
X106883000Y-128009000D01*
X100144000Y-127969000D02*
X106856000Y-127969000D01*
X100171000Y-127929000D02*
X106829000Y-127929000D01*
X100199000Y-127889000D02*
X106801000Y-127889000D01*
X100228000Y-127849000D02*
X106772000Y-127849000D01*
X100257000Y-127809000D02*
X106743000Y-127809000D01*
X100287000Y-127769000D02*
X106713000Y-127769000D01*
X100318000Y-127729000D02*
X106682000Y-127729000D01*
X100350000Y-127689000D02*
X106650000Y-127689000D01*
X100382000Y-127649000D02*
X106618000Y-127649000D01*
X100416000Y-127609000D02*
X106584000Y-127609000D01*
X100450000Y-127569000D02*
X106550000Y-127569000D01*
X100485000Y-127529000D02*
X106515000Y-127529000D01*
X100521000Y-127489000D02*
X106479000Y-127489000D01*
X100558000Y-127449000D02*
X106442000Y-127449000D01*
X100596000Y-127409000D02*
X106404000Y-127409000D01*
X100635000Y-127369000D02*
X106365000Y-127369000D01*
X100676000Y-127329000D02*
X106324000Y-127329000D01*
X100717000Y-127289000D02*
X106283000Y-127289000D01*
X100760000Y-127249000D02*
X106240000Y-127249000D01*
X100803000Y-127209000D02*
X106197000Y-127209000D01*
X100848000Y-127169000D02*
X106152000Y-127169000D01*
X100895000Y-127129000D02*
X106105000Y-127129000D01*
X100943000Y-127089000D02*
X106057000Y-127089000D01*
X100992000Y-127049000D02*
X106008000Y-127049000D01*
X101043000Y-127009000D02*
X105957000Y-127009000D01*
X101096000Y-126969000D02*
X105904000Y-126969000D01*
X101151000Y-126929000D02*
X105849000Y-126929000D01*
X101207000Y-126889000D02*
X105793000Y-126889000D01*
X101266000Y-126849000D02*
X105734000Y-126849000D01*
X101327000Y-126809000D02*
X105673000Y-126809000D01*
X101391000Y-126769000D02*
X105609000Y-126769000D01*
X101457000Y-126729000D02*
X105543000Y-126729000D01*
X101526000Y-126689000D02*
X105474000Y-126689000D01*
X101598000Y-126649000D02*
X105402000Y-126649000D01*
X101674000Y-126609000D02*
X105326000Y-126609000D01*
X101755000Y-126569000D02*
X105245000Y-126569000D01*
X101840000Y-126529000D02*
X105160000Y-126529000D01*
X101930000Y-126489000D02*
X105070000Y-126489000D01*
X102027000Y-126449000D02*
X104973000Y-126449000D01*
X102131000Y-126409000D02*
X104869000Y-126409000D01*
X102246000Y-126369000D02*
X104754000Y-126369000D01*
X102373000Y-126329000D02*
X104627000Y-126329000D01*
X102517000Y-126289000D02*
X104483000Y-126289000D01*
X102686000Y-126249000D02*
X104314000Y-126249000D01*
X102902000Y-126209000D02*
X104098000Y-126209000D01*
X103254000Y-126169000D02*
X103746000Y-126169000D01*
X103500000Y-133700000D02*
X103500000Y-132500000D01*
X102850000Y-133100000D02*
X104150000Y-133100000D01*
X134590000Y-130250000D02*
G75*
G03X134590000Y-130250000I-4090000J0D01*
G01*
X126450000Y-130250000D02*
X134550000Y-130250000D01*
X126450000Y-130210000D02*
X134550000Y-130210000D01*
X126450000Y-130170000D02*
X134550000Y-130170000D01*
X126451000Y-130130000D02*
X134549000Y-130130000D01*
X126453000Y-130090000D02*
X134547000Y-130090000D01*
X126454000Y-130050000D02*
X134546000Y-130050000D01*
X126457000Y-130010000D02*
X134543000Y-130010000D01*
X126459000Y-129970000D02*
X129520000Y-129970000D01*
X131480000Y-129970000D02*
X134541000Y-129970000D01*
X126462000Y-129930000D02*
X129520000Y-129930000D01*
X131480000Y-129930000D02*
X134538000Y-129930000D01*
X126465000Y-129890000D02*
X129520000Y-129890000D01*
X131480000Y-129890000D02*
X134535000Y-129890000D01*
X126469000Y-129850000D02*
X129520000Y-129850000D01*
X131480000Y-129850000D02*
X134531000Y-129850000D01*
X126473000Y-129810000D02*
X129520000Y-129810000D01*
X131480000Y-129810000D02*
X134527000Y-129810000D01*
X126478000Y-129770000D02*
X129520000Y-129770000D01*
X131480000Y-129770000D02*
X134522000Y-129770000D01*
X126483000Y-129730000D02*
X129520000Y-129730000D01*
X131480000Y-129730000D02*
X134517000Y-129730000D01*
X126488000Y-129690000D02*
X129520000Y-129690000D01*
X131480000Y-129690000D02*
X134512000Y-129690000D01*
X126494000Y-129650000D02*
X129520000Y-129650000D01*
X131480000Y-129650000D02*
X134506000Y-129650000D01*
X126500000Y-129610000D02*
X129520000Y-129610000D01*
X131480000Y-129610000D02*
X134500000Y-129610000D01*
X126506000Y-129570000D02*
X129520000Y-129570000D01*
X131480000Y-129570000D02*
X134494000Y-129570000D01*
X126513000Y-129529000D02*
X129520000Y-129529000D01*
X131480000Y-129529000D02*
X134487000Y-129529000D01*
X126521000Y-129489000D02*
X129520000Y-129489000D01*
X131480000Y-129489000D02*
X134479000Y-129489000D01*
X126529000Y-129449000D02*
X129520000Y-129449000D01*
X131480000Y-129449000D02*
X134471000Y-129449000D01*
X126537000Y-129409000D02*
X129520000Y-129409000D01*
X131480000Y-129409000D02*
X134463000Y-129409000D01*
X126545000Y-129369000D02*
X129520000Y-129369000D01*
X131480000Y-129369000D02*
X134455000Y-129369000D01*
X126554000Y-129329000D02*
X129520000Y-129329000D01*
X131480000Y-129329000D02*
X134446000Y-129329000D01*
X126564000Y-129289000D02*
X129520000Y-129289000D01*
X131480000Y-129289000D02*
X134436000Y-129289000D01*
X126574000Y-129249000D02*
X129520000Y-129249000D01*
X131480000Y-129249000D02*
X134426000Y-129249000D01*
X126584000Y-129209000D02*
X129520000Y-129209000D01*
X131480000Y-129209000D02*
X134416000Y-129209000D01*
X126595000Y-129169000D02*
X129520000Y-129169000D01*
X131480000Y-129169000D02*
X134405000Y-129169000D01*
X126606000Y-129129000D02*
X129520000Y-129129000D01*
X131480000Y-129129000D02*
X134394000Y-129129000D01*
X126617000Y-129089000D02*
X129520000Y-129089000D01*
X131480000Y-129089000D02*
X134383000Y-129089000D01*
X126630000Y-129049000D02*
X129520000Y-129049000D01*
X131480000Y-129049000D02*
X134370000Y-129049000D01*
X126642000Y-129009000D02*
X129520000Y-129009000D01*
X131480000Y-129009000D02*
X134358000Y-129009000D01*
X126655000Y-128969000D02*
X129520000Y-128969000D01*
X131480000Y-128969000D02*
X134345000Y-128969000D01*
X126668000Y-128929000D02*
X129520000Y-128929000D01*
X131480000Y-128929000D02*
X134332000Y-128929000D01*
X126682000Y-128889000D02*
X129520000Y-128889000D01*
X131480000Y-128889000D02*
X134318000Y-128889000D01*
X126697000Y-128849000D02*
X129520000Y-128849000D01*
X131480000Y-128849000D02*
X134303000Y-128849000D01*
X126711000Y-128809000D02*
X129520000Y-128809000D01*
X131480000Y-128809000D02*
X134289000Y-128809000D01*
X126727000Y-128769000D02*
X129520000Y-128769000D01*
X131480000Y-128769000D02*
X134273000Y-128769000D01*
X126742000Y-128729000D02*
X129520000Y-128729000D01*
X131480000Y-128729000D02*
X134258000Y-128729000D01*
X126759000Y-128689000D02*
X129520000Y-128689000D01*
X131480000Y-128689000D02*
X134241000Y-128689000D01*
X126775000Y-128649000D02*
X129520000Y-128649000D01*
X131480000Y-128649000D02*
X134225000Y-128649000D01*
X126793000Y-128609000D02*
X129520000Y-128609000D01*
X131480000Y-128609000D02*
X134207000Y-128609000D01*
X126810000Y-128569000D02*
X129520000Y-128569000D01*
X131480000Y-128569000D02*
X134190000Y-128569000D01*
X126829000Y-128529000D02*
X129520000Y-128529000D01*
X131480000Y-128529000D02*
X134171000Y-128529000D01*
X126848000Y-128489000D02*
X129520000Y-128489000D01*
X131480000Y-128489000D02*
X134152000Y-128489000D01*
X126867000Y-128449000D02*
X129520000Y-128449000D01*
X131480000Y-128449000D02*
X134133000Y-128449000D01*
X126887000Y-128409000D02*
X129520000Y-128409000D01*
X131480000Y-128409000D02*
X134113000Y-128409000D01*
X126907000Y-128369000D02*
X129520000Y-128369000D01*
X131480000Y-128369000D02*
X134093000Y-128369000D01*
X126928000Y-128329000D02*
X129520000Y-128329000D01*
X131480000Y-128329000D02*
X134072000Y-128329000D01*
X126950000Y-128289000D02*
X129520000Y-128289000D01*
X131480000Y-128289000D02*
X134050000Y-128289000D01*
X126972000Y-128249000D02*
X129520000Y-128249000D01*
X131480000Y-128249000D02*
X134028000Y-128249000D01*
X126995000Y-128209000D02*
X129520000Y-128209000D01*
X131480000Y-128209000D02*
X134005000Y-128209000D01*
X127018000Y-128169000D02*
X129520000Y-128169000D01*
X131480000Y-128169000D02*
X133982000Y-128169000D01*
X127042000Y-128129000D02*
X129520000Y-128129000D01*
X131480000Y-128129000D02*
X133958000Y-128129000D01*
X127066000Y-128089000D02*
X129520000Y-128089000D01*
X131480000Y-128089000D02*
X133934000Y-128089000D01*
X127092000Y-128049000D02*
X129520000Y-128049000D01*
X131480000Y-128049000D02*
X133908000Y-128049000D01*
X127117000Y-128009000D02*
X133883000Y-128009000D01*
X127144000Y-127969000D02*
X133856000Y-127969000D01*
X127171000Y-127929000D02*
X133829000Y-127929000D01*
X127199000Y-127889000D02*
X133801000Y-127889000D01*
X127228000Y-127849000D02*
X133772000Y-127849000D01*
X127257000Y-127809000D02*
X133743000Y-127809000D01*
X127287000Y-127769000D02*
X133713000Y-127769000D01*
X127318000Y-127729000D02*
X133682000Y-127729000D01*
X127350000Y-127689000D02*
X133650000Y-127689000D01*
X127382000Y-127649000D02*
X133618000Y-127649000D01*
X127416000Y-127609000D02*
X133584000Y-127609000D01*
X127450000Y-127569000D02*
X133550000Y-127569000D01*
X127485000Y-127529000D02*
X133515000Y-127529000D01*
X127521000Y-127489000D02*
X133479000Y-127489000D01*
X127558000Y-127449000D02*
X133442000Y-127449000D01*
X127596000Y-127409000D02*
X133404000Y-127409000D01*
X127635000Y-127369000D02*
X133365000Y-127369000D01*
X127676000Y-127329000D02*
X133324000Y-127329000D01*
X127717000Y-127289000D02*
X133283000Y-127289000D01*
X127760000Y-127249000D02*
X133240000Y-127249000D01*
X127803000Y-127209000D02*
X133197000Y-127209000D01*
X127848000Y-127169000D02*
X133152000Y-127169000D01*
X127895000Y-127129000D02*
X133105000Y-127129000D01*
X127943000Y-127089000D02*
X133057000Y-127089000D01*
X127992000Y-127049000D02*
X133008000Y-127049000D01*
X128043000Y-127009000D02*
X132957000Y-127009000D01*
X128096000Y-126969000D02*
X132904000Y-126969000D01*
X128151000Y-126929000D02*
X132849000Y-126929000D01*
X128207000Y-126889000D02*
X132793000Y-126889000D01*
X128266000Y-126849000D02*
X132734000Y-126849000D01*
X128327000Y-126809000D02*
X132673000Y-126809000D01*
X128391000Y-126769000D02*
X132609000Y-126769000D01*
X128457000Y-126729000D02*
X132543000Y-126729000D01*
X128526000Y-126689000D02*
X132474000Y-126689000D01*
X128598000Y-126649000D02*
X132402000Y-126649000D01*
X128674000Y-126609000D02*
X132326000Y-126609000D01*
X128755000Y-126569000D02*
X132245000Y-126569000D01*
X128840000Y-126529000D02*
X132160000Y-126529000D01*
X128930000Y-126489000D02*
X132070000Y-126489000D01*
X129027000Y-126449000D02*
X131973000Y-126449000D01*
X129131000Y-126409000D02*
X131869000Y-126409000D01*
X129246000Y-126369000D02*
X131754000Y-126369000D01*
X129373000Y-126329000D02*
X131627000Y-126329000D01*
X129517000Y-126289000D02*
X131483000Y-126289000D01*
X129686000Y-126249000D02*
X131314000Y-126249000D01*
X129902000Y-126209000D02*
X131098000Y-126209000D01*
X130254000Y-126169000D02*
X130746000Y-126169000D01*
X130500000Y-133700000D02*
X130500000Y-132500000D01*
X129850000Y-133100000D02*
X131150000Y-133100000D01*
D14*
X99082381Y-101663333D02*
X99796667Y-101663333D01*
X99939524Y-101710953D01*
X100034762Y-101806191D01*
X100082381Y-101949048D01*
X100082381Y-102044286D01*
X100082381Y-100663333D02*
X100082381Y-101234762D01*
X100082381Y-100949048D02*
X99082381Y-100949048D01*
X99225238Y-101044286D01*
X99320476Y-101139524D01*
X99368095Y-101234762D01*
X129452381Y-105833333D02*
X130166667Y-105833333D01*
X130309524Y-105880953D01*
X130404762Y-105976191D01*
X130452381Y-106119048D01*
X130452381Y-106214286D01*
X129452381Y-104928571D02*
X129452381Y-105119048D01*
X129500000Y-105214286D01*
X129547619Y-105261905D01*
X129690476Y-105357143D01*
X129880952Y-105404762D01*
X130261905Y-105404762D01*
X130357143Y-105357143D01*
X130404762Y-105309524D01*
X130452381Y-105214286D01*
X130452381Y-105023809D01*
X130404762Y-104928571D01*
X130357143Y-104880952D01*
X130261905Y-104833333D01*
X130023810Y-104833333D01*
X129928571Y-104880952D01*
X129880952Y-104928571D01*
X129833333Y-105023809D01*
X129833333Y-105214286D01*
X129880952Y-105309524D01*
X129928571Y-105357143D01*
X130023810Y-105404762D01*
X120947479Y-79952381D02*
X120947479Y-80761905D01*
X120995098Y-80857143D01*
X121042717Y-80904762D01*
X121137955Y-80952381D01*
X121328432Y-80952381D01*
X121423670Y-80904762D01*
X121471289Y-80857143D01*
X121518908Y-80761905D01*
X121518908Y-79952381D01*
X122518908Y-80952381D02*
X121947479Y-80952381D01*
X122233193Y-80952381D02*
X122233193Y-79952381D01*
X122137955Y-80095238D01*
X122042717Y-80190476D01*
X121947479Y-80238095D01*
X116833334Y-92857143D02*
X116785715Y-92904762D01*
X116642858Y-92952381D01*
X116547620Y-92952381D01*
X116404762Y-92904762D01*
X116309524Y-92809524D01*
X116261905Y-92714286D01*
X116214286Y-92523810D01*
X116214286Y-92380952D01*
X116261905Y-92190476D01*
X116309524Y-92095238D01*
X116404762Y-92000000D01*
X116547620Y-91952381D01*
X116642858Y-91952381D01*
X116785715Y-92000000D01*
X116833334Y-92047619D01*
X117785715Y-92952381D02*
X117214286Y-92952381D01*
X117500000Y-92952381D02*
X117500000Y-91952381D01*
X117404762Y-92095238D01*
X117309524Y-92190476D01*
X117214286Y-92238095D01*
X98547143Y-55416666D02*
X98594762Y-55464285D01*
X98642381Y-55607142D01*
X98642381Y-55702380D01*
X98594762Y-55845238D01*
X98499524Y-55940476D01*
X98404286Y-55988095D01*
X98213810Y-56035714D01*
X98070952Y-56035714D01*
X97880476Y-55988095D01*
X97785238Y-55940476D01*
X97690000Y-55845238D01*
X97642381Y-55702380D01*
X97642381Y-55607142D01*
X97690000Y-55464285D01*
X97737619Y-55416666D01*
X97737619Y-55035714D02*
X97690000Y-54988095D01*
X97642381Y-54892857D01*
X97642381Y-54654761D01*
X97690000Y-54559523D01*
X97737619Y-54511904D01*
X97832857Y-54464285D01*
X97928095Y-54464285D01*
X98070952Y-54511904D01*
X98642381Y-55083333D01*
X98642381Y-54464285D01*
X125547143Y-55416666D02*
X125594762Y-55464285D01*
X125642381Y-55607142D01*
X125642381Y-55702380D01*
X125594762Y-55845238D01*
X125499524Y-55940476D01*
X125404286Y-55988095D01*
X125213810Y-56035714D01*
X125070952Y-56035714D01*
X124880476Y-55988095D01*
X124785238Y-55940476D01*
X124690000Y-55845238D01*
X124642381Y-55702380D01*
X124642381Y-55607142D01*
X124690000Y-55464285D01*
X124737619Y-55416666D01*
X124642381Y-55083333D02*
X124642381Y-54464285D01*
X125023333Y-54797619D01*
X125023333Y-54654761D01*
X125070952Y-54559523D01*
X125118571Y-54511904D01*
X125213810Y-54464285D01*
X125451905Y-54464285D01*
X125547143Y-54511904D01*
X125594762Y-54559523D01*
X125642381Y-54654761D01*
X125642381Y-54940476D01*
X125594762Y-55035714D01*
X125547143Y-55083333D01*
X103333334Y-125357143D02*
X103285715Y-125404762D01*
X103142858Y-125452381D01*
X103047620Y-125452381D01*
X102904762Y-125404762D01*
X102809524Y-125309524D01*
X102761905Y-125214286D01*
X102714286Y-125023810D01*
X102714286Y-124880952D01*
X102761905Y-124690476D01*
X102809524Y-124595238D01*
X102904762Y-124500000D01*
X103047620Y-124452381D01*
X103142858Y-124452381D01*
X103285715Y-124500000D01*
X103333334Y-124547619D01*
X104190477Y-124785714D02*
X104190477Y-125452381D01*
X103952381Y-124404762D02*
X103714286Y-125119048D01*
X104333334Y-125119048D01*
X130333334Y-125357143D02*
X130285715Y-125404762D01*
X130142858Y-125452381D01*
X130047620Y-125452381D01*
X129904762Y-125404762D01*
X129809524Y-125309524D01*
X129761905Y-125214286D01*
X129714286Y-125023810D01*
X129714286Y-124880952D01*
X129761905Y-124690476D01*
X129809524Y-124595238D01*
X129904762Y-124500000D01*
X130047620Y-124452381D01*
X130142858Y-124452381D01*
X130285715Y-124500000D01*
X130333334Y-124547619D01*
X131238096Y-124452381D02*
X130761905Y-124452381D01*
X130714286Y-124928571D01*
X130761905Y-124880952D01*
X130857143Y-124833333D01*
X131095239Y-124833333D01*
X131190477Y-124880952D01*
X131238096Y-124928571D01*
X131285715Y-125023810D01*
X131285715Y-125261905D01*
X131238096Y-125357143D01*
X131190477Y-125404762D01*
X131095239Y-125452381D01*
X130857143Y-125452381D01*
X130761905Y-125404762D01*
X130714286Y-125357143D01*
D15*
G36*
X117177799Y-79873000D02*
X112500000Y-79873000D01*
X112450590Y-79883006D01*
X112408965Y-79911447D01*
X112381685Y-79953841D01*
X112373000Y-80000000D01*
X112373000Y-84873000D01*
X107627000Y-84873000D01*
X107627000Y-80000000D01*
X107616994Y-79950590D01*
X107588553Y-79908965D01*
X107546159Y-79881685D01*
X107500000Y-79873000D01*
X102822201Y-79873000D01*
X110000000Y-73173721D01*
X117177799Y-79873000D01*
X117177799Y-79873000D01*
G37*
X117177799Y-79873000D02*
X112500000Y-79873000D01*
X112450590Y-79883006D01*
X112408965Y-79911447D01*
X112381685Y-79953841D01*
X112373000Y-80000000D01*
X112373000Y-84873000D01*
X107627000Y-84873000D01*
X107627000Y-80000000D01*
X107616994Y-79950590D01*
X107588553Y-79908965D01*
X107546159Y-79881685D01*
X107500000Y-79873000D01*
X102822201Y-79873000D01*
X110000000Y-73173721D01*
X117177799Y-79873000D01*
G36*
X113373000Y-105373000D02*
X108627000Y-105373000D01*
X108627000Y-104127000D01*
X113373000Y-104127000D01*
X113373000Y-105373000D01*
X113373000Y-105373000D01*
G37*
X113373000Y-105373000D02*
X108627000Y-105373000D01*
X108627000Y-104127000D01*
X113373000Y-104127000D01*
X113373000Y-105373000D01*
%LPC*%
D16*
X101960000Y-100060000D03*
D17*
X101960000Y-102600000D03*
X104500000Y-100060000D03*
X104500000Y-102600000D03*
X107040000Y-100060000D03*
X107040000Y-102600000D03*
X109580000Y-100060000D03*
X109580000Y-102600000D03*
X112120000Y-100060000D03*
X112120000Y-102600000D03*
X114660000Y-100060000D03*
X114660000Y-102600000D03*
X117200000Y-100060000D03*
X117200000Y-102600000D03*
X119740000Y-100060000D03*
X119740000Y-102600000D03*
D18*
X135000000Y-107420000D03*
D19*
X135000000Y-112500000D03*
D16*
X115460000Y-137560000D03*
D17*
X115460000Y-140100000D03*
X118000000Y-137560000D03*
X118000000Y-140100000D03*
X120540000Y-137560000D03*
X120540000Y-140100000D03*
X123080000Y-137560000D03*
X123080000Y-140100000D03*
X125620000Y-137560000D03*
X125620000Y-140100000D03*
X128160000Y-137560000D03*
X128160000Y-140100000D03*
X130700000Y-137560000D03*
X130700000Y-140100000D03*
X133240000Y-137560000D03*
X133240000Y-140100000D03*
D16*
X88460000Y-137560000D03*
D17*
X88460000Y-140100000D03*
X91000000Y-137560000D03*
X91000000Y-140100000D03*
X93540000Y-137560000D03*
X93540000Y-140100000D03*
X96080000Y-137560000D03*
X96080000Y-140100000D03*
X98620000Y-137560000D03*
X98620000Y-140100000D03*
X101160000Y-137560000D03*
X101160000Y-140100000D03*
X103700000Y-137560000D03*
X103700000Y-140100000D03*
X106240000Y-137560000D03*
X106240000Y-140100000D03*
D16*
X115460000Y-62560000D03*
D17*
X115460000Y-65100000D03*
X118000000Y-62560000D03*
X118000000Y-65100000D03*
X120540000Y-62560000D03*
X120540000Y-65100000D03*
X123080000Y-62560000D03*
X123080000Y-65100000D03*
X125620000Y-62560000D03*
X125620000Y-65100000D03*
X128160000Y-62560000D03*
X128160000Y-65100000D03*
X130700000Y-62560000D03*
X130700000Y-65100000D03*
X133240000Y-62560000D03*
X133240000Y-65100000D03*
D16*
X88460000Y-62560000D03*
D17*
X88460000Y-65100000D03*
X91000000Y-62560000D03*
X91000000Y-65100000D03*
X93540000Y-62560000D03*
X93540000Y-65100000D03*
X96080000Y-62560000D03*
X96080000Y-65100000D03*
X98620000Y-62560000D03*
X98620000Y-65100000D03*
X101160000Y-62560000D03*
X101160000Y-65100000D03*
X103700000Y-62560000D03*
X103700000Y-65100000D03*
X106240000Y-62560000D03*
X106240000Y-65100000D03*
D20*
X124409384Y-89817896D03*
X124409384Y-88547896D03*
X124409384Y-87277896D03*
X124409384Y-86007896D03*
X124409384Y-84737896D03*
X124409384Y-83467896D03*
X124409384Y-82197896D03*
X119009384Y-82197896D03*
X119009384Y-83467896D03*
X119009384Y-84737896D03*
X119009384Y-86007896D03*
X119009384Y-87277896D03*
X119009384Y-88547896D03*
X119009384Y-89817896D03*
D21*
X119000000Y-92500000D03*
X120900000Y-92500000D03*
D22*
X103500000Y-56500000D03*
D23*
X103500000Y-54000000D03*
D22*
X130500000Y-56500000D03*
D23*
X130500000Y-54000000D03*
D22*
X103500000Y-131500000D03*
D23*
X103500000Y-129000000D03*
D22*
X130500000Y-131500000D03*
D23*
X130500000Y-129000000D03*
M02*
