G04 #@! TF.FileFunction,Legend,Bot*
%FSLAX46Y46*%
G04 Gerber Fmt 4.6, Leading zero omitted, Abs format (unit mm)*
G04 Created by KiCad (PCBNEW 4.0.7) date 03/15/18 12:31:11*
%MOMM*%
%LPD*%
G01*
G04 APERTURE LIST*
%ADD10C,0.100000*%
%ADD11C,0.120000*%
%ADD12C,0.150000*%
%ADD13R,1.800000X1.800000*%
%ADD14O,1.800000X1.800000*%
%ADD15R,3.100000X3.100000*%
%ADD16C,3.100000*%
%ADD17R,1.700000X1.700000*%
%ADD18C,1.700000*%
G04 APERTURE END LIST*
D10*
D11*
X134570000Y-136230000D02*
X134570000Y-141430000D01*
X116730000Y-136230000D02*
X134570000Y-136230000D01*
X114130000Y-141430000D02*
X134570000Y-141430000D01*
X116730000Y-136230000D02*
X116730000Y-138830000D01*
X116730000Y-138830000D02*
X114130000Y-138830000D01*
X114130000Y-138830000D02*
X114130000Y-141430000D01*
X115460000Y-136230000D02*
X114130000Y-136230000D01*
X114130000Y-136230000D02*
X114130000Y-137560000D01*
X107570000Y-136230000D02*
X107570000Y-141430000D01*
X89730000Y-136230000D02*
X107570000Y-136230000D01*
X87130000Y-141430000D02*
X107570000Y-141430000D01*
X89730000Y-136230000D02*
X89730000Y-138830000D01*
X89730000Y-138830000D02*
X87130000Y-138830000D01*
X87130000Y-138830000D02*
X87130000Y-141430000D01*
X88460000Y-136230000D02*
X87130000Y-136230000D01*
X87130000Y-136230000D02*
X87130000Y-137560000D01*
X134570000Y-61230000D02*
X134570000Y-66430000D01*
X116730000Y-61230000D02*
X134570000Y-61230000D01*
X114130000Y-66430000D02*
X134570000Y-66430000D01*
X116730000Y-61230000D02*
X116730000Y-63830000D01*
X116730000Y-63830000D02*
X114130000Y-63830000D01*
X114130000Y-63830000D02*
X114130000Y-66430000D01*
X115460000Y-61230000D02*
X114130000Y-61230000D01*
X114130000Y-61230000D02*
X114130000Y-62560000D01*
X107570000Y-61230000D02*
X107570000Y-66430000D01*
X89730000Y-61230000D02*
X107570000Y-61230000D01*
X87130000Y-66430000D02*
X107570000Y-66430000D01*
X89730000Y-61230000D02*
X89730000Y-63830000D01*
X89730000Y-63830000D02*
X87130000Y-63830000D01*
X87130000Y-63830000D02*
X87130000Y-66430000D01*
X88460000Y-61230000D02*
X87130000Y-61230000D01*
X87130000Y-61230000D02*
X87130000Y-62560000D01*
D12*
X130428572Y-143166667D02*
X129952381Y-143166667D01*
X130523810Y-143452381D02*
X130190477Y-142452381D01*
X129857143Y-143452381D01*
X129190476Y-142928571D02*
X129047619Y-142976190D01*
X129000000Y-143023810D01*
X128952381Y-143119048D01*
X128952381Y-143261905D01*
X129000000Y-143357143D01*
X129047619Y-143404762D01*
X129142857Y-143452381D01*
X129523810Y-143452381D01*
X129523810Y-142452381D01*
X129190476Y-142452381D01*
X129095238Y-142500000D01*
X129047619Y-142547619D01*
X129000000Y-142642857D01*
X129000000Y-142738095D01*
X129047619Y-142833333D01*
X129095238Y-142880952D01*
X129190476Y-142928571D01*
X129523810Y-142928571D01*
X128571429Y-143404762D02*
X128428572Y-143452381D01*
X128190476Y-143452381D01*
X128095238Y-143404762D01*
X128047619Y-143357143D01*
X128000000Y-143261905D01*
X128000000Y-143166667D01*
X128047619Y-143071429D01*
X128095238Y-143023810D01*
X128190476Y-142976190D01*
X128380953Y-142928571D01*
X128476191Y-142880952D01*
X128523810Y-142833333D01*
X128571429Y-142738095D01*
X128571429Y-142642857D01*
X128523810Y-142547619D01*
X128476191Y-142500000D01*
X128380953Y-142452381D01*
X128142857Y-142452381D01*
X128000000Y-142500000D01*
X127571429Y-142928571D02*
X127238095Y-142928571D01*
X127095238Y-143452381D02*
X127571429Y-143452381D01*
X127571429Y-142452381D01*
X127095238Y-142452381D01*
X126666667Y-143452381D02*
X126666667Y-142452381D01*
X126095238Y-143452381D01*
X126095238Y-142452381D01*
X125857143Y-143547619D02*
X125095238Y-143547619D01*
X124523809Y-142928571D02*
X124380952Y-142976190D01*
X124333333Y-143023810D01*
X124285714Y-143119048D01*
X124285714Y-143261905D01*
X124333333Y-143357143D01*
X124380952Y-143404762D01*
X124476190Y-143452381D01*
X124857143Y-143452381D01*
X124857143Y-142452381D01*
X124523809Y-142452381D01*
X124428571Y-142500000D01*
X124380952Y-142547619D01*
X124333333Y-142642857D01*
X124333333Y-142738095D01*
X124380952Y-142833333D01*
X124428571Y-142880952D01*
X124523809Y-142928571D01*
X124857143Y-142928571D01*
X123666667Y-142452381D02*
X123476190Y-142452381D01*
X123380952Y-142500000D01*
X123285714Y-142595238D01*
X123238095Y-142785714D01*
X123238095Y-143119048D01*
X123285714Y-143309524D01*
X123380952Y-143404762D01*
X123476190Y-143452381D01*
X123666667Y-143452381D01*
X123761905Y-143404762D01*
X123857143Y-143309524D01*
X123904762Y-143119048D01*
X123904762Y-142785714D01*
X123857143Y-142595238D01*
X123761905Y-142500000D01*
X123666667Y-142452381D01*
X122952381Y-142452381D02*
X122380952Y-142452381D01*
X122666667Y-143452381D02*
X122666667Y-142452381D01*
X122190476Y-142452381D02*
X121619047Y-142452381D01*
X121904762Y-143452381D02*
X121904762Y-142452381D01*
X121095238Y-142452381D02*
X120904761Y-142452381D01*
X120809523Y-142500000D01*
X120714285Y-142595238D01*
X120666666Y-142785714D01*
X120666666Y-143119048D01*
X120714285Y-143309524D01*
X120809523Y-143404762D01*
X120904761Y-143452381D01*
X121095238Y-143452381D01*
X121190476Y-143404762D01*
X121285714Y-143309524D01*
X121333333Y-143119048D01*
X121333333Y-142785714D01*
X121285714Y-142595238D01*
X121190476Y-142500000D01*
X121095238Y-142452381D01*
X120238095Y-143452381D02*
X120238095Y-142452381D01*
X119904761Y-143166667D01*
X119571428Y-142452381D01*
X119571428Y-143452381D01*
X118571428Y-143452381D02*
X119142857Y-143452381D01*
X118857143Y-143452381D02*
X118857143Y-142452381D01*
X118952381Y-142595238D01*
X119047619Y-142690476D01*
X119142857Y-142738095D01*
X103928572Y-143166667D02*
X103452381Y-143166667D01*
X104023810Y-143452381D02*
X103690477Y-142452381D01*
X103357143Y-143452381D01*
X102690476Y-142928571D02*
X102547619Y-142976190D01*
X102500000Y-143023810D01*
X102452381Y-143119048D01*
X102452381Y-143261905D01*
X102500000Y-143357143D01*
X102547619Y-143404762D01*
X102642857Y-143452381D01*
X103023810Y-143452381D01*
X103023810Y-142452381D01*
X102690476Y-142452381D01*
X102595238Y-142500000D01*
X102547619Y-142547619D01*
X102500000Y-142642857D01*
X102500000Y-142738095D01*
X102547619Y-142833333D01*
X102595238Y-142880952D01*
X102690476Y-142928571D01*
X103023810Y-142928571D01*
X102071429Y-143404762D02*
X101928572Y-143452381D01*
X101690476Y-143452381D01*
X101595238Y-143404762D01*
X101547619Y-143357143D01*
X101500000Y-143261905D01*
X101500000Y-143166667D01*
X101547619Y-143071429D01*
X101595238Y-143023810D01*
X101690476Y-142976190D01*
X101880953Y-142928571D01*
X101976191Y-142880952D01*
X102023810Y-142833333D01*
X102071429Y-142738095D01*
X102071429Y-142642857D01*
X102023810Y-142547619D01*
X101976191Y-142500000D01*
X101880953Y-142452381D01*
X101642857Y-142452381D01*
X101500000Y-142500000D01*
X101071429Y-142928571D02*
X100738095Y-142928571D01*
X100595238Y-143452381D02*
X101071429Y-143452381D01*
X101071429Y-142452381D01*
X100595238Y-142452381D01*
X100166667Y-143452381D02*
X100166667Y-142452381D01*
X99595238Y-143452381D01*
X99595238Y-142452381D01*
X99357143Y-143547619D02*
X98595238Y-143547619D01*
X98023809Y-142928571D02*
X97880952Y-142976190D01*
X97833333Y-143023810D01*
X97785714Y-143119048D01*
X97785714Y-143261905D01*
X97833333Y-143357143D01*
X97880952Y-143404762D01*
X97976190Y-143452381D01*
X98357143Y-143452381D01*
X98357143Y-142452381D01*
X98023809Y-142452381D01*
X97928571Y-142500000D01*
X97880952Y-142547619D01*
X97833333Y-142642857D01*
X97833333Y-142738095D01*
X97880952Y-142833333D01*
X97928571Y-142880952D01*
X98023809Y-142928571D01*
X98357143Y-142928571D01*
X97166667Y-142452381D02*
X96976190Y-142452381D01*
X96880952Y-142500000D01*
X96785714Y-142595238D01*
X96738095Y-142785714D01*
X96738095Y-143119048D01*
X96785714Y-143309524D01*
X96880952Y-143404762D01*
X96976190Y-143452381D01*
X97166667Y-143452381D01*
X97261905Y-143404762D01*
X97357143Y-143309524D01*
X97404762Y-143119048D01*
X97404762Y-142785714D01*
X97357143Y-142595238D01*
X97261905Y-142500000D01*
X97166667Y-142452381D01*
X96452381Y-142452381D02*
X95880952Y-142452381D01*
X96166667Y-143452381D02*
X96166667Y-142452381D01*
X95690476Y-142452381D02*
X95119047Y-142452381D01*
X95404762Y-143452381D02*
X95404762Y-142452381D01*
X94595238Y-142452381D02*
X94404761Y-142452381D01*
X94309523Y-142500000D01*
X94214285Y-142595238D01*
X94166666Y-142785714D01*
X94166666Y-143119048D01*
X94214285Y-143309524D01*
X94309523Y-143404762D01*
X94404761Y-143452381D01*
X94595238Y-143452381D01*
X94690476Y-143404762D01*
X94785714Y-143309524D01*
X94833333Y-143119048D01*
X94833333Y-142785714D01*
X94785714Y-142595238D01*
X94690476Y-142500000D01*
X94595238Y-142452381D01*
X93738095Y-143452381D02*
X93738095Y-142452381D01*
X93404761Y-143166667D01*
X93071428Y-142452381D01*
X93071428Y-143452381D01*
X92642857Y-142547619D02*
X92595238Y-142500000D01*
X92500000Y-142452381D01*
X92261904Y-142452381D01*
X92166666Y-142500000D01*
X92119047Y-142547619D01*
X92071428Y-142642857D01*
X92071428Y-142738095D01*
X92119047Y-142880952D01*
X92690476Y-143452381D01*
X92071428Y-143452381D01*
X123452381Y-59166667D02*
X122976190Y-59166667D01*
X123547619Y-59452381D02*
X123214286Y-58452381D01*
X122880952Y-59452381D01*
X122214285Y-58928571D02*
X122071428Y-58976190D01*
X122023809Y-59023810D01*
X121976190Y-59119048D01*
X121976190Y-59261905D01*
X122023809Y-59357143D01*
X122071428Y-59404762D01*
X122166666Y-59452381D01*
X122547619Y-59452381D01*
X122547619Y-58452381D01*
X122214285Y-58452381D01*
X122119047Y-58500000D01*
X122071428Y-58547619D01*
X122023809Y-58642857D01*
X122023809Y-58738095D01*
X122071428Y-58833333D01*
X122119047Y-58880952D01*
X122214285Y-58928571D01*
X122547619Y-58928571D01*
X121595238Y-59404762D02*
X121452381Y-59452381D01*
X121214285Y-59452381D01*
X121119047Y-59404762D01*
X121071428Y-59357143D01*
X121023809Y-59261905D01*
X121023809Y-59166667D01*
X121071428Y-59071429D01*
X121119047Y-59023810D01*
X121214285Y-58976190D01*
X121404762Y-58928571D01*
X121500000Y-58880952D01*
X121547619Y-58833333D01*
X121595238Y-58738095D01*
X121595238Y-58642857D01*
X121547619Y-58547619D01*
X121500000Y-58500000D01*
X121404762Y-58452381D01*
X121166666Y-58452381D01*
X121023809Y-58500000D01*
X120595238Y-58928571D02*
X120261904Y-58928571D01*
X120119047Y-59452381D02*
X120595238Y-59452381D01*
X120595238Y-58452381D01*
X120119047Y-58452381D01*
X119690476Y-59452381D02*
X119690476Y-58452381D01*
X119119047Y-59452381D01*
X119119047Y-58452381D01*
X118880952Y-59547619D02*
X118119047Y-59547619D01*
X118023809Y-58452381D02*
X117452380Y-58452381D01*
X117738095Y-59452381D02*
X117738095Y-58452381D01*
X116928571Y-58452381D02*
X116738094Y-58452381D01*
X116642856Y-58500000D01*
X116547618Y-58595238D01*
X116499999Y-58785714D01*
X116499999Y-59119048D01*
X116547618Y-59309524D01*
X116642856Y-59404762D01*
X116738094Y-59452381D01*
X116928571Y-59452381D01*
X117023809Y-59404762D01*
X117119047Y-59309524D01*
X117166666Y-59119048D01*
X117166666Y-58785714D01*
X117119047Y-58595238D01*
X117023809Y-58500000D01*
X116928571Y-58452381D01*
X116071428Y-59452381D02*
X116071428Y-58452381D01*
X115690475Y-58452381D01*
X115595237Y-58500000D01*
X115547618Y-58547619D01*
X115499999Y-58642857D01*
X115499999Y-58785714D01*
X115547618Y-58880952D01*
X115595237Y-58928571D01*
X115690475Y-58976190D01*
X116071428Y-58976190D01*
X114547618Y-59452381D02*
X115119047Y-59452381D01*
X114833333Y-59452381D02*
X114833333Y-58452381D01*
X114928571Y-58595238D01*
X115023809Y-58690476D01*
X115119047Y-58738095D01*
X96452381Y-59166667D02*
X95976190Y-59166667D01*
X96547619Y-59452381D02*
X96214286Y-58452381D01*
X95880952Y-59452381D01*
X95214285Y-58928571D02*
X95071428Y-58976190D01*
X95023809Y-59023810D01*
X94976190Y-59119048D01*
X94976190Y-59261905D01*
X95023809Y-59357143D01*
X95071428Y-59404762D01*
X95166666Y-59452381D01*
X95547619Y-59452381D01*
X95547619Y-58452381D01*
X95214285Y-58452381D01*
X95119047Y-58500000D01*
X95071428Y-58547619D01*
X95023809Y-58642857D01*
X95023809Y-58738095D01*
X95071428Y-58833333D01*
X95119047Y-58880952D01*
X95214285Y-58928571D01*
X95547619Y-58928571D01*
X94595238Y-59404762D02*
X94452381Y-59452381D01*
X94214285Y-59452381D01*
X94119047Y-59404762D01*
X94071428Y-59357143D01*
X94023809Y-59261905D01*
X94023809Y-59166667D01*
X94071428Y-59071429D01*
X94119047Y-59023810D01*
X94214285Y-58976190D01*
X94404762Y-58928571D01*
X94500000Y-58880952D01*
X94547619Y-58833333D01*
X94595238Y-58738095D01*
X94595238Y-58642857D01*
X94547619Y-58547619D01*
X94500000Y-58500000D01*
X94404762Y-58452381D01*
X94166666Y-58452381D01*
X94023809Y-58500000D01*
X93595238Y-58928571D02*
X93261904Y-58928571D01*
X93119047Y-59452381D02*
X93595238Y-59452381D01*
X93595238Y-58452381D01*
X93119047Y-58452381D01*
X92690476Y-59452381D02*
X92690476Y-58452381D01*
X92119047Y-59452381D01*
X92119047Y-58452381D01*
X91880952Y-59547619D02*
X91119047Y-59547619D01*
X91023809Y-58452381D02*
X90452380Y-58452381D01*
X90738095Y-59452381D02*
X90738095Y-58452381D01*
X89928571Y-58452381D02*
X89738094Y-58452381D01*
X89642856Y-58500000D01*
X89547618Y-58595238D01*
X89499999Y-58785714D01*
X89499999Y-59119048D01*
X89547618Y-59309524D01*
X89642856Y-59404762D01*
X89738094Y-59452381D01*
X89928571Y-59452381D01*
X90023809Y-59404762D01*
X90119047Y-59309524D01*
X90166666Y-59119048D01*
X90166666Y-58785714D01*
X90119047Y-58595238D01*
X90023809Y-58500000D01*
X89928571Y-58452381D01*
X89071428Y-59452381D02*
X89071428Y-58452381D01*
X88690475Y-58452381D01*
X88595237Y-58500000D01*
X88547618Y-58547619D01*
X88499999Y-58642857D01*
X88499999Y-58785714D01*
X88547618Y-58880952D01*
X88595237Y-58928571D01*
X88690475Y-58976190D01*
X89071428Y-58976190D01*
X88119047Y-58547619D02*
X88071428Y-58500000D01*
X87976190Y-58452381D01*
X87738094Y-58452381D01*
X87642856Y-58500000D01*
X87595237Y-58547619D01*
X87547618Y-58642857D01*
X87547618Y-58738095D01*
X87595237Y-58880952D01*
X88166666Y-59452381D01*
X87547618Y-59452381D01*
%LPC*%
D13*
X101960000Y-100060000D03*
D14*
X101960000Y-102600000D03*
X104500000Y-100060000D03*
X104500000Y-102600000D03*
X107040000Y-100060000D03*
X107040000Y-102600000D03*
X109580000Y-100060000D03*
X109580000Y-102600000D03*
X112120000Y-100060000D03*
X112120000Y-102600000D03*
X114660000Y-100060000D03*
X114660000Y-102600000D03*
X117200000Y-100060000D03*
X117200000Y-102600000D03*
X119740000Y-100060000D03*
X119740000Y-102600000D03*
D15*
X135000000Y-107420000D03*
D16*
X135000000Y-112500000D03*
D13*
X115460000Y-137560000D03*
D14*
X115460000Y-140100000D03*
X118000000Y-137560000D03*
X118000000Y-140100000D03*
X120540000Y-137560000D03*
X120540000Y-140100000D03*
X123080000Y-137560000D03*
X123080000Y-140100000D03*
X125620000Y-137560000D03*
X125620000Y-140100000D03*
X128160000Y-137560000D03*
X128160000Y-140100000D03*
X130700000Y-137560000D03*
X130700000Y-140100000D03*
X133240000Y-137560000D03*
X133240000Y-140100000D03*
D13*
X88460000Y-137560000D03*
D14*
X88460000Y-140100000D03*
X91000000Y-137560000D03*
X91000000Y-140100000D03*
X93540000Y-137560000D03*
X93540000Y-140100000D03*
X96080000Y-137560000D03*
X96080000Y-140100000D03*
X98620000Y-137560000D03*
X98620000Y-140100000D03*
X101160000Y-137560000D03*
X101160000Y-140100000D03*
X103700000Y-137560000D03*
X103700000Y-140100000D03*
X106240000Y-137560000D03*
X106240000Y-140100000D03*
D13*
X115460000Y-62560000D03*
D14*
X115460000Y-65100000D03*
X118000000Y-62560000D03*
X118000000Y-65100000D03*
X120540000Y-62560000D03*
X120540000Y-65100000D03*
X123080000Y-62560000D03*
X123080000Y-65100000D03*
X125620000Y-62560000D03*
X125620000Y-65100000D03*
X128160000Y-62560000D03*
X128160000Y-65100000D03*
X130700000Y-62560000D03*
X130700000Y-65100000D03*
X133240000Y-62560000D03*
X133240000Y-65100000D03*
D13*
X88460000Y-62560000D03*
D14*
X88460000Y-65100000D03*
X91000000Y-62560000D03*
X91000000Y-65100000D03*
X93540000Y-62560000D03*
X93540000Y-65100000D03*
X96080000Y-62560000D03*
X96080000Y-65100000D03*
X98620000Y-62560000D03*
X98620000Y-65100000D03*
X101160000Y-62560000D03*
X101160000Y-65100000D03*
X103700000Y-62560000D03*
X103700000Y-65100000D03*
X106240000Y-62560000D03*
X106240000Y-65100000D03*
D17*
X103500000Y-56500000D03*
D18*
X103500000Y-54000000D03*
D17*
X130500000Y-56500000D03*
D18*
X130500000Y-54000000D03*
D17*
X103500000Y-131500000D03*
D18*
X103500000Y-129000000D03*
D17*
X130500000Y-131500000D03*
D18*
X130500000Y-129000000D03*
M02*
