G04 #@! TF.FileFunction,Legend,Top*
%FSLAX46Y46*%
G04 Gerber Fmt 4.6, Leading zero omitted, Abs format (unit mm)*
G04 Created by KiCad (PCBNEW 4.0.7) date 2018 February 26, Monday 17:11:22*
%MOMM*%
%LPD*%
G01*
G04 APERTURE LIST*
%ADD10C,0.100000*%
%ADD11C,0.300000*%
%ADD12C,0.150000*%
%ADD13C,0.120000*%
G04 APERTURE END LIST*
D10*
D11*
X92363844Y-48458131D02*
X92435273Y-48386702D01*
X92578130Y-48315273D01*
X92935273Y-48315273D01*
X93078130Y-48386702D01*
X93149559Y-48458131D01*
X93220987Y-48600988D01*
X93220987Y-48743845D01*
X93149559Y-48958131D01*
X92292416Y-49815273D01*
X93220987Y-49815273D01*
X93720987Y-48315273D02*
X94720987Y-48315273D01*
X94078130Y-49815273D01*
X95292415Y-49672416D02*
X95363843Y-49743845D01*
X95292415Y-49815273D01*
X95220986Y-49743845D01*
X95292415Y-49672416D01*
X95292415Y-49815273D01*
X96292415Y-48315273D02*
X96435272Y-48315273D01*
X96578129Y-48386702D01*
X96649558Y-48458131D01*
X96720987Y-48600988D01*
X96792415Y-48886702D01*
X96792415Y-49243845D01*
X96720987Y-49529559D01*
X96649558Y-49672416D01*
X96578129Y-49743845D01*
X96435272Y-49815273D01*
X96292415Y-49815273D01*
X96149558Y-49743845D01*
X96078129Y-49672416D01*
X96006701Y-49529559D01*
X95935272Y-49243845D01*
X95935272Y-48886702D01*
X96006701Y-48600988D01*
X96078129Y-48458131D01*
X96149558Y-48386702D01*
X96292415Y-48315273D01*
X97720986Y-48315273D02*
X97863843Y-48315273D01*
X98006700Y-48386702D01*
X98078129Y-48458131D01*
X98149558Y-48600988D01*
X98220986Y-48886702D01*
X98220986Y-49243845D01*
X98149558Y-49529559D01*
X98078129Y-49672416D01*
X98006700Y-49743845D01*
X97863843Y-49815273D01*
X97720986Y-49815273D01*
X97578129Y-49743845D01*
X97506700Y-49672416D01*
X97435272Y-49529559D01*
X97363843Y-49243845D01*
X97363843Y-48886702D01*
X97435272Y-48600988D01*
X97506700Y-48458131D01*
X97578129Y-48386702D01*
X97720986Y-48315273D01*
X99149557Y-48315273D02*
X99292414Y-48315273D01*
X99435271Y-48386702D01*
X99506700Y-48458131D01*
X99578129Y-48600988D01*
X99649557Y-48886702D01*
X99649557Y-49243845D01*
X99578129Y-49529559D01*
X99506700Y-49672416D01*
X99435271Y-49743845D01*
X99292414Y-49815273D01*
X99149557Y-49815273D01*
X99006700Y-49743845D01*
X98935271Y-49672416D01*
X98863843Y-49529559D01*
X98792414Y-49243845D01*
X98792414Y-48886702D01*
X98863843Y-48600988D01*
X98935271Y-48458131D01*
X99006700Y-48386702D01*
X99149557Y-48315273D01*
X101435271Y-49815273D02*
X101435271Y-48815273D01*
X101435271Y-48958131D02*
X101506699Y-48886702D01*
X101649557Y-48815273D01*
X101863842Y-48815273D01*
X102006699Y-48886702D01*
X102078128Y-49029559D01*
X102078128Y-49815273D01*
X102078128Y-49029559D02*
X102149557Y-48886702D01*
X102292414Y-48815273D01*
X102506699Y-48815273D01*
X102649557Y-48886702D01*
X102720985Y-49029559D01*
X102720985Y-49815273D01*
X103435271Y-49815273D02*
X103435271Y-48815273D01*
X103435271Y-48958131D02*
X103506699Y-48886702D01*
X103649557Y-48815273D01*
X103863842Y-48815273D01*
X104006699Y-48886702D01*
X104078128Y-49029559D01*
X104078128Y-49815273D01*
X104078128Y-49029559D02*
X104149557Y-48886702D01*
X104292414Y-48815273D01*
X104506699Y-48815273D01*
X104649557Y-48886702D01*
X104720985Y-49029559D01*
X104720985Y-49815273D01*
X85078129Y-50486702D02*
X112078129Y-50486702D01*
X85078129Y-54986702D02*
X85078129Y-47786702D01*
X112078129Y-54986702D02*
X112078129Y-47786702D01*
X112078129Y-50486702D02*
X110951625Y-51073123D01*
X112078129Y-50486702D02*
X110951625Y-49900281D01*
X85078129Y-50486702D02*
X86204633Y-51073123D01*
X85078129Y-50486702D02*
X86204633Y-49900281D01*
X84357143Y-98250000D02*
X84214286Y-98178571D01*
X84000000Y-98178571D01*
X83785715Y-98250000D01*
X83642857Y-98392857D01*
X83571429Y-98535714D01*
X83500000Y-98821429D01*
X83500000Y-99035714D01*
X83571429Y-99321429D01*
X83642857Y-99464286D01*
X83785715Y-99607143D01*
X84000000Y-99678571D01*
X84142857Y-99678571D01*
X84357143Y-99607143D01*
X84428572Y-99535714D01*
X84428572Y-99035714D01*
X84142857Y-99035714D01*
X85071429Y-99678571D02*
X85071429Y-98178571D01*
X85928572Y-99678571D01*
X85928572Y-98178571D01*
X86642858Y-99678571D02*
X86642858Y-98178571D01*
X87000001Y-98178571D01*
X87214286Y-98250000D01*
X87357144Y-98392857D01*
X87428572Y-98535714D01*
X87500001Y-98821429D01*
X87500001Y-99035714D01*
X87428572Y-99321429D01*
X87357144Y-99464286D01*
X87214286Y-99607143D01*
X87000001Y-99678571D01*
X86642858Y-99678571D01*
X83571429Y-84607143D02*
X84714286Y-84607143D01*
X84142857Y-85178571D02*
X84142857Y-84035714D01*
X86142858Y-83678571D02*
X85428572Y-83678571D01*
X85357143Y-84392857D01*
X85428572Y-84321429D01*
X85571429Y-84250000D01*
X85928572Y-84250000D01*
X86071429Y-84321429D01*
X86142858Y-84392857D01*
X86214286Y-84535714D01*
X86214286Y-84892857D01*
X86142858Y-85035714D01*
X86071429Y-85107143D01*
X85928572Y-85178571D01*
X85571429Y-85178571D01*
X85428572Y-85107143D01*
X85357143Y-85035714D01*
X86642857Y-83678571D02*
X87142857Y-85178571D01*
X87642857Y-83678571D01*
D12*
X140000000Y-45000000D02*
X75000000Y-45000000D01*
X140000000Y-145000000D02*
X140000000Y-45000000D01*
X75000000Y-145000000D02*
X140000000Y-145000000D01*
X75000000Y-45000000D02*
X75000000Y-145000000D01*
D11*
X79471429Y-86214287D02*
X79471429Y-87214287D01*
X77971429Y-86571430D01*
X79471429Y-88500001D02*
X79471429Y-87785715D01*
X78757143Y-87714286D01*
X78828571Y-87785715D01*
X78900000Y-87928572D01*
X78900000Y-88285715D01*
X78828571Y-88428572D01*
X78757143Y-88500001D01*
X78614286Y-88571429D01*
X78257143Y-88571429D01*
X78114286Y-88500001D01*
X78042857Y-88428572D01*
X77971429Y-88285715D01*
X77971429Y-87928572D01*
X78042857Y-87785715D01*
X78114286Y-87714286D01*
X78114286Y-89214286D02*
X78042857Y-89285714D01*
X77971429Y-89214286D01*
X78042857Y-89142857D01*
X78114286Y-89214286D01*
X77971429Y-89214286D01*
X79471429Y-90214286D02*
X79471429Y-90357143D01*
X79400000Y-90500000D01*
X79328571Y-90571429D01*
X79185714Y-90642858D01*
X78900000Y-90714286D01*
X78542857Y-90714286D01*
X78257143Y-90642858D01*
X78114286Y-90571429D01*
X78042857Y-90500000D01*
X77971429Y-90357143D01*
X77971429Y-90214286D01*
X78042857Y-90071429D01*
X78114286Y-90000000D01*
X78257143Y-89928572D01*
X78542857Y-89857143D01*
X78900000Y-89857143D01*
X79185714Y-89928572D01*
X79328571Y-90000000D01*
X79400000Y-90071429D01*
X79471429Y-90214286D01*
X79471429Y-91642857D02*
X79471429Y-91785714D01*
X79400000Y-91928571D01*
X79328571Y-92000000D01*
X79185714Y-92071429D01*
X78900000Y-92142857D01*
X78542857Y-92142857D01*
X78257143Y-92071429D01*
X78114286Y-92000000D01*
X78042857Y-91928571D01*
X77971429Y-91785714D01*
X77971429Y-91642857D01*
X78042857Y-91500000D01*
X78114286Y-91428571D01*
X78257143Y-91357143D01*
X78542857Y-91285714D01*
X78900000Y-91285714D01*
X79185714Y-91357143D01*
X79328571Y-91428571D01*
X79400000Y-91500000D01*
X79471429Y-91642857D01*
X79471429Y-93071428D02*
X79471429Y-93214285D01*
X79400000Y-93357142D01*
X79328571Y-93428571D01*
X79185714Y-93500000D01*
X78900000Y-93571428D01*
X78542857Y-93571428D01*
X78257143Y-93500000D01*
X78114286Y-93428571D01*
X78042857Y-93357142D01*
X77971429Y-93214285D01*
X77971429Y-93071428D01*
X78042857Y-92928571D01*
X78114286Y-92857142D01*
X78257143Y-92785714D01*
X78542857Y-92714285D01*
X78900000Y-92714285D01*
X79185714Y-92785714D01*
X79328571Y-92857142D01*
X79400000Y-92928571D01*
X79471429Y-93071428D01*
X77971429Y-95357142D02*
X78971429Y-95357142D01*
X78828571Y-95357142D02*
X78900000Y-95428570D01*
X78971429Y-95571428D01*
X78971429Y-95785713D01*
X78900000Y-95928570D01*
X78757143Y-95999999D01*
X77971429Y-95999999D01*
X78757143Y-95999999D02*
X78900000Y-96071428D01*
X78971429Y-96214285D01*
X78971429Y-96428570D01*
X78900000Y-96571428D01*
X78757143Y-96642856D01*
X77971429Y-96642856D01*
X77971429Y-97357142D02*
X78971429Y-97357142D01*
X78828571Y-97357142D02*
X78900000Y-97428570D01*
X78971429Y-97571428D01*
X78971429Y-97785713D01*
X78900000Y-97928570D01*
X78757143Y-97999999D01*
X77971429Y-97999999D01*
X78757143Y-97999999D02*
X78900000Y-98071428D01*
X78971429Y-98214285D01*
X78971429Y-98428570D01*
X78900000Y-98571428D01*
X78757143Y-98642856D01*
X77971429Y-98642856D01*
X80000000Y-55000000D02*
X80000000Y-130000000D01*
X85000000Y-55000000D02*
X77300000Y-55000000D01*
X85000000Y-130000000D02*
X77300000Y-130000000D01*
X80000000Y-130000000D02*
X79413579Y-128873496D01*
X80000000Y-130000000D02*
X80586421Y-128873496D01*
X80000000Y-55000000D02*
X79413579Y-56126504D01*
X80000000Y-55000000D02*
X80586421Y-56126504D01*
D13*
X99730000Y-91230000D02*
X117570000Y-91230000D01*
X117570000Y-91230000D02*
X117570000Y-96430000D01*
X117570000Y-96430000D02*
X97130000Y-96430000D01*
X97130000Y-96430000D02*
X97130000Y-93830000D01*
X97130000Y-93830000D02*
X99730000Y-93830000D01*
X99730000Y-93830000D02*
X99730000Y-91230000D01*
X98460000Y-91230000D02*
X97130000Y-91230000D01*
X97130000Y-91230000D02*
X97130000Y-92500000D01*
X81860000Y-98620000D02*
X81860000Y-88460000D01*
X80590000Y-98620000D02*
X88210000Y-98620000D01*
X88210000Y-98620000D02*
X88210000Y-88460000D01*
X88210000Y-88460000D02*
X80590000Y-88460000D01*
X80590000Y-88460000D02*
X80590000Y-98620000D01*
D12*
X131784384Y-93957896D02*
X131784384Y-93932896D01*
X127634384Y-93957896D02*
X127634384Y-93842896D01*
X127634384Y-85057896D02*
X127634384Y-85172896D01*
X131784384Y-85057896D02*
X131784384Y-85172896D01*
X131784384Y-93957896D02*
X127634384Y-93957896D01*
X131784384Y-85057896D02*
X127634384Y-85057896D01*
X131784384Y-93932896D02*
X133159384Y-93932896D01*
D13*
X127600000Y-95400000D02*
X128300000Y-95400000D01*
X128300000Y-96600000D02*
X127600000Y-96600000D01*
D12*
X95582381Y-94163333D02*
X96296667Y-94163333D01*
X96439524Y-94210953D01*
X96534762Y-94306191D01*
X96582381Y-94449048D01*
X96582381Y-94544286D01*
X96582381Y-93163333D02*
X96582381Y-93734762D01*
X96582381Y-93449048D02*
X95582381Y-93449048D01*
X95725238Y-93544286D01*
X95820476Y-93639524D01*
X95868095Y-93734762D01*
X88932381Y-93873333D02*
X89646667Y-93873333D01*
X89789524Y-93920953D01*
X89884762Y-94016191D01*
X89932381Y-94159048D01*
X89932381Y-94254286D01*
X88932381Y-92968571D02*
X88932381Y-93159048D01*
X88980000Y-93254286D01*
X89027619Y-93301905D01*
X89170476Y-93397143D01*
X89360952Y-93444762D01*
X89741905Y-93444762D01*
X89837143Y-93397143D01*
X89884762Y-93349524D01*
X89932381Y-93254286D01*
X89932381Y-93063809D01*
X89884762Y-92968571D01*
X89837143Y-92920952D01*
X89741905Y-92873333D01*
X89503810Y-92873333D01*
X89408571Y-92920952D01*
X89360952Y-92968571D01*
X89313333Y-93063809D01*
X89313333Y-93254286D01*
X89360952Y-93349524D01*
X89408571Y-93397143D01*
X89503810Y-93444762D01*
X128947479Y-94335277D02*
X128947479Y-95144801D01*
X128995098Y-95240039D01*
X129042717Y-95287658D01*
X129137955Y-95335277D01*
X129328432Y-95335277D01*
X129423670Y-95287658D01*
X129471289Y-95240039D01*
X129518908Y-95144801D01*
X129518908Y-94335277D01*
X130518908Y-95335277D02*
X129947479Y-95335277D01*
X130233193Y-95335277D02*
X130233193Y-94335277D01*
X130137955Y-94478134D01*
X130042717Y-94573372D01*
X129947479Y-94620991D01*
X96006667Y-46072381D02*
X95673333Y-45596190D01*
X95435238Y-46072381D02*
X95435238Y-45072381D01*
X95816191Y-45072381D01*
X95911429Y-45120000D01*
X95959048Y-45167619D01*
X96006667Y-45262857D01*
X96006667Y-45405714D01*
X95959048Y-45500952D01*
X95911429Y-45548571D01*
X95816191Y-45596190D01*
X95435238Y-45596190D01*
X96435238Y-45548571D02*
X96768572Y-45548571D01*
X96911429Y-46072381D02*
X96435238Y-46072381D01*
X96435238Y-45072381D01*
X96911429Y-45072381D01*
X97673334Y-45548571D02*
X97340000Y-45548571D01*
X97340000Y-46072381D02*
X97340000Y-45072381D01*
X97816191Y-45072381D01*
X98340000Y-45072381D02*
X98340000Y-45310476D01*
X98101905Y-45215238D02*
X98340000Y-45310476D01*
X98578096Y-45215238D01*
X98197143Y-45500952D02*
X98340000Y-45310476D01*
X98482858Y-45500952D01*
X99101905Y-45072381D02*
X99101905Y-45310476D01*
X98863810Y-45215238D02*
X99101905Y-45310476D01*
X99340001Y-45215238D01*
X98959048Y-45500952D02*
X99101905Y-45310476D01*
X99244763Y-45500952D01*
X115996667Y-59052381D02*
X115663333Y-58576190D01*
X115425238Y-59052381D02*
X115425238Y-58052381D01*
X115806191Y-58052381D01*
X115901429Y-58100000D01*
X115949048Y-58147619D01*
X115996667Y-58242857D01*
X115996667Y-58385714D01*
X115949048Y-58480952D01*
X115901429Y-58528571D01*
X115806191Y-58576190D01*
X115425238Y-58576190D01*
X116425238Y-58528571D02*
X116758572Y-58528571D01*
X116901429Y-59052381D02*
X116425238Y-59052381D01*
X116425238Y-58052381D01*
X116901429Y-58052381D01*
X117663334Y-58528571D02*
X117330000Y-58528571D01*
X117330000Y-59052381D02*
X117330000Y-58052381D01*
X117806191Y-58052381D01*
X118330000Y-58052381D02*
X118330000Y-58290476D01*
X118091905Y-58195238D02*
X118330000Y-58290476D01*
X118568096Y-58195238D01*
X118187143Y-58480952D02*
X118330000Y-58290476D01*
X118472858Y-58480952D01*
X119091905Y-58052381D02*
X119091905Y-58290476D01*
X118853810Y-58195238D02*
X119091905Y-58290476D01*
X119330001Y-58195238D01*
X118949048Y-58480952D02*
X119091905Y-58290476D01*
X119234763Y-58480952D01*
X96006667Y-121062381D02*
X95673333Y-120586190D01*
X95435238Y-121062381D02*
X95435238Y-120062381D01*
X95816191Y-120062381D01*
X95911429Y-120110000D01*
X95959048Y-120157619D01*
X96006667Y-120252857D01*
X96006667Y-120395714D01*
X95959048Y-120490952D01*
X95911429Y-120538571D01*
X95816191Y-120586190D01*
X95435238Y-120586190D01*
X96435238Y-120538571D02*
X96768572Y-120538571D01*
X96911429Y-121062381D02*
X96435238Y-121062381D01*
X96435238Y-120062381D01*
X96911429Y-120062381D01*
X97673334Y-120538571D02*
X97340000Y-120538571D01*
X97340000Y-121062381D02*
X97340000Y-120062381D01*
X97816191Y-120062381D01*
X98340000Y-120062381D02*
X98340000Y-120300476D01*
X98101905Y-120205238D02*
X98340000Y-120300476D01*
X98578096Y-120205238D01*
X98197143Y-120490952D02*
X98340000Y-120300476D01*
X98482858Y-120490952D01*
X99101905Y-120062381D02*
X99101905Y-120300476D01*
X98863810Y-120205238D02*
X99101905Y-120300476D01*
X99340001Y-120205238D01*
X98959048Y-120490952D02*
X99101905Y-120300476D01*
X99244763Y-120490952D01*
X115996667Y-134062381D02*
X115663333Y-133586190D01*
X115425238Y-134062381D02*
X115425238Y-133062381D01*
X115806191Y-133062381D01*
X115901429Y-133110000D01*
X115949048Y-133157619D01*
X115996667Y-133252857D01*
X115996667Y-133395714D01*
X115949048Y-133490952D01*
X115901429Y-133538571D01*
X115806191Y-133586190D01*
X115425238Y-133586190D01*
X116425238Y-133538571D02*
X116758572Y-133538571D01*
X116901429Y-134062381D02*
X116425238Y-134062381D01*
X116425238Y-133062381D01*
X116901429Y-133062381D01*
X117663334Y-133538571D02*
X117330000Y-133538571D01*
X117330000Y-134062381D02*
X117330000Y-133062381D01*
X117806191Y-133062381D01*
X118330000Y-133062381D02*
X118330000Y-133300476D01*
X118091905Y-133205238D02*
X118330000Y-133300476D01*
X118568096Y-133205238D01*
X118187143Y-133490952D02*
X118330000Y-133300476D01*
X118472858Y-133490952D01*
X119091905Y-133062381D02*
X119091905Y-133300476D01*
X118853810Y-133205238D02*
X119091905Y-133300476D01*
X119330001Y-133205238D01*
X118949048Y-133490952D02*
X119091905Y-133300476D01*
X119234763Y-133490952D01*
X127783334Y-95107143D02*
X127735715Y-95154762D01*
X127592858Y-95202381D01*
X127497620Y-95202381D01*
X127354762Y-95154762D01*
X127259524Y-95059524D01*
X127211905Y-94964286D01*
X127164286Y-94773810D01*
X127164286Y-94630952D01*
X127211905Y-94440476D01*
X127259524Y-94345238D01*
X127354762Y-94250000D01*
X127497620Y-94202381D01*
X127592858Y-94202381D01*
X127735715Y-94250000D01*
X127783334Y-94297619D01*
X128735715Y-95202381D02*
X128164286Y-95202381D01*
X128450000Y-95202381D02*
X128450000Y-94202381D01*
X128354762Y-94345238D01*
X128259524Y-94440476D01*
X128164286Y-94488095D01*
M02*
