M48
;DRILL file {KiCad 4.0.7} date 2018 February 26, Monday 17:00:46
;FORMAT={2:4/ absolute / inch / suppress leading zeros}
FMAT,2
INCH,TZ
T1C0.012
T2C0.039
T3C0.060
T4C0.126
%
G90
G05
M72
T1
X32874Y-25197
X33465Y-24803
X33465Y-47244
X33858Y-47835
X34449Y-48228
X34700Y-24213
X35039Y-24016
X35433Y-48622
X35827Y-23819
X36417Y-23425
X37008Y-23228
X37008Y-49803
X37297Y-48765
X37402Y-27362
X37992Y-25591
X38041Y-50164
X38780Y-26181
X38780Y-46457
X39173Y-46063
X39370Y-26772
X39764Y-45669
X40354Y-25197
X40748Y-24803
X40748Y-47244
X41142Y-24283
X41142Y-47835
X41765Y-47933
X42260Y-24076
X42717Y-23809
X42717Y-48031
X43110Y-25591
X43307Y-48552
X43511Y-23541
X44094Y-46457
X44291Y-44685
X44318Y-25629
X44488Y-46063
X44497Y-26749
X44882Y-23425
X44882Y-45079
X44882Y-45669
X45345Y-24708
X45472Y-48552
X46063Y-23819
X46063Y-48228
X46615Y-49803
X46654Y-45079
X46850Y-41535
X47079Y-23591
X47638Y-23425
X47835Y-44685
X47835Y-48819
X48079Y-27362
X48622Y-50000
X51378Y-37795
X52953Y-33661
X52953Y-37008
T2
X33449Y-21677
X33449Y-22677
X33449Y-51205
X33449Y-52205
X34449Y-21677
X34449Y-22677
X34449Y-51205
X34449Y-52205
X35449Y-21677
X35449Y-22677
X35449Y-51205
X35449Y-52205
X36449Y-21677
X36449Y-22677
X36449Y-51205
X36449Y-52205
X37449Y-21677
X37449Y-22677
X37449Y-51205
X37449Y-52205
X38449Y-21677
X38449Y-22677
X38449Y-51205
X38449Y-52205
X38764Y-36441
X38764Y-37441
X39449Y-21677
X39449Y-22677
X39449Y-51205
X39449Y-52205
X39764Y-36441
X39764Y-37441
X40449Y-21677
X40449Y-22677
X40449Y-51205
X40449Y-52205
X40764Y-36441
X40764Y-37441
X41764Y-36441
X41764Y-37441
X42764Y-36441
X42764Y-37441
X43764Y-36441
X43764Y-37441
X44079Y-21677
X44079Y-22677
X44079Y-51205
X44079Y-52205
X44764Y-36441
X44764Y-37441
X45079Y-21677
X45079Y-22677
X45079Y-51205
X45079Y-52205
X45764Y-36441
X45764Y-37441
X46079Y-21677
X46079Y-22677
X46079Y-51205
X46079Y-52205
X47079Y-21677
X47079Y-22677
X47079Y-51205
X47079Y-52205
X48079Y-21677
X48079Y-22677
X48079Y-51205
X48079Y-52205
X49079Y-21677
X49079Y-22677
X49079Y-51205
X49079Y-52205
X50079Y-21677
X50079Y-22677
X50079Y-51205
X50079Y-52205
X51079Y-21677
X51079Y-22677
X51079Y-51205
X51079Y-52205
T3
X33228Y-35827
X33228Y-37827
T4
X38323Y-19614
X38323Y-49138
X46193Y-24724
X46193Y-54256
T0
M30
