G04 #@! TF.FileFunction,Copper,L1,Top,Signal*
%FSLAX46Y46*%
G04 Gerber Fmt 4.6, Leading zero omitted, Abs format (unit mm)*
G04 Created by KiCad (PCBNEW 4.0.7) date 2018 February 26, Monday 17:11:22*
%MOMM*%
%LPD*%
G01*
G04 APERTURE LIST*
%ADD10C,0.100000*%
%ADD11C,0.150000*%
%ADD12R,1.700000X1.700000*%
%ADD13O,1.700000X1.700000*%
%ADD14R,3.000000X3.000000*%
%ADD15C,3.000000*%
%ADD16R,1.500000X0.600000*%
%ADD17R,1.200000X0.750000*%
%ADD18C,0.700000*%
%ADD19C,0.500000*%
%ADD20C,0.250000*%
%ADD21C,0.254000*%
G04 APERTURE END LIST*
D10*
D11*
X140000000Y-45000000D02*
X75000000Y-45000000D01*
X140000000Y-145000000D02*
X140000000Y-45000000D01*
X75000000Y-145000000D02*
X140000000Y-145000000D01*
X75000000Y-45000000D02*
X75000000Y-145000000D01*
D12*
X98460000Y-92560000D03*
D13*
X98460000Y-95100000D03*
X101000000Y-92560000D03*
X101000000Y-95100000D03*
X103540000Y-92560000D03*
X103540000Y-95100000D03*
X106080000Y-92560000D03*
X106080000Y-95100000D03*
X108620000Y-92560000D03*
X108620000Y-95100000D03*
X111160000Y-92560000D03*
X111160000Y-95100000D03*
X113700000Y-92560000D03*
X113700000Y-95100000D03*
X116240000Y-92560000D03*
X116240000Y-95100000D03*
D14*
X84400000Y-91000000D03*
D15*
X84400000Y-96080000D03*
D12*
X111960000Y-130060000D03*
D13*
X111960000Y-132600000D03*
X114500000Y-130060000D03*
X114500000Y-132600000D03*
X117040000Y-130060000D03*
X117040000Y-132600000D03*
X119580000Y-130060000D03*
X119580000Y-132600000D03*
X122120000Y-130060000D03*
X122120000Y-132600000D03*
X124660000Y-130060000D03*
X124660000Y-132600000D03*
X127200000Y-130060000D03*
X127200000Y-132600000D03*
X129740000Y-130060000D03*
X129740000Y-132600000D03*
D12*
X84960000Y-130060000D03*
D13*
X84960000Y-132600000D03*
X87500000Y-130060000D03*
X87500000Y-132600000D03*
X90040000Y-130060000D03*
X90040000Y-132600000D03*
X92580000Y-130060000D03*
X92580000Y-132600000D03*
X95120000Y-130060000D03*
X95120000Y-132600000D03*
X97660000Y-130060000D03*
X97660000Y-132600000D03*
X100200000Y-130060000D03*
X100200000Y-132600000D03*
X102740000Y-130060000D03*
X102740000Y-132600000D03*
D12*
X111960000Y-55060000D03*
D13*
X111960000Y-57600000D03*
X114500000Y-55060000D03*
X114500000Y-57600000D03*
X117040000Y-55060000D03*
X117040000Y-57600000D03*
X119580000Y-55060000D03*
X119580000Y-57600000D03*
X122120000Y-55060000D03*
X122120000Y-57600000D03*
X124660000Y-55060000D03*
X124660000Y-57600000D03*
X127200000Y-55060000D03*
X127200000Y-57600000D03*
X129740000Y-55060000D03*
X129740000Y-57600000D03*
D12*
X84960000Y-55060000D03*
D13*
X84960000Y-57600000D03*
X87500000Y-55060000D03*
X87500000Y-57600000D03*
X90040000Y-55060000D03*
X90040000Y-57600000D03*
X92580000Y-55060000D03*
X92580000Y-57600000D03*
X95120000Y-55060000D03*
X95120000Y-57600000D03*
X97660000Y-55060000D03*
X97660000Y-57600000D03*
X100200000Y-55060000D03*
X100200000Y-57600000D03*
X102740000Y-55060000D03*
X102740000Y-57600000D03*
D16*
X132409384Y-93317896D03*
X132409384Y-92047896D03*
X132409384Y-90777896D03*
X132409384Y-89507896D03*
X132409384Y-88237896D03*
X132409384Y-86967896D03*
X132409384Y-85697896D03*
X127009384Y-85697896D03*
X127009384Y-86967896D03*
X127009384Y-88237896D03*
X127009384Y-89507896D03*
X127009384Y-90777896D03*
X127009384Y-92047896D03*
X127009384Y-93317896D03*
D17*
X127000000Y-96000000D03*
X128900000Y-96000000D03*
D18*
X119000000Y-105500000D03*
X130500000Y-96000000D03*
X134500000Y-85500000D03*
X109500000Y-65000000D03*
X96500000Y-65000000D03*
X112000000Y-118000000D03*
X98500000Y-118000000D03*
X112568579Y-65097432D03*
X98500000Y-66500000D03*
X113000000Y-117000000D03*
X99500000Y-117000000D03*
X113021790Y-67943382D03*
X100000000Y-68000000D03*
X114000000Y-116000000D03*
X101000000Y-116000000D03*
X115177202Y-62758116D03*
X107339502Y-61153987D03*
X89000000Y-61000000D03*
X90000000Y-123500000D03*
X117000000Y-122500000D03*
X108500000Y-122000000D03*
X108500000Y-60475777D03*
X117000000Y-60500000D03*
X91000000Y-60500000D03*
X110000000Y-123321790D03*
X115500000Y-123321790D03*
X134500000Y-94000000D03*
X122120000Y-69500000D03*
X95000000Y-69500000D03*
X96625095Y-127416411D03*
X123500000Y-127000000D03*
X83500000Y-64000000D03*
X102500000Y-64000000D03*
X85000000Y-120000000D03*
X103500000Y-120000000D03*
X85000000Y-63000000D03*
X103500000Y-63000000D03*
X86000000Y-121500000D03*
X104500000Y-121500000D03*
X104500000Y-61678210D03*
X88138201Y-61500000D03*
X106082373Y-121750379D03*
X87500000Y-122500000D03*
X121000000Y-59500000D03*
X94000000Y-59000000D03*
X114000000Y-59500000D03*
X94733949Y-123862365D03*
X121500000Y-124000000D03*
X121500000Y-113500000D03*
X112500000Y-113500000D03*
X110518288Y-59795135D03*
X118401799Y-126500000D03*
X94000000Y-126500000D03*
X119580000Y-59920000D03*
X92500000Y-59500000D03*
X118500000Y-114500000D03*
X114000000Y-114500000D03*
D19*
X119000000Y-103500000D02*
X119000000Y-102500000D01*
X119000000Y-105500000D02*
X119000000Y-103500000D01*
X128900000Y-96000000D02*
X130500000Y-96000000D01*
X132409384Y-85697896D02*
X134302104Y-85697896D01*
X134302104Y-85697896D02*
X134500000Y-85500000D01*
D20*
X111960000Y-55060000D02*
X110860000Y-55060000D01*
X110860000Y-55060000D02*
X109500000Y-56420000D01*
X109500000Y-56420000D02*
X109500000Y-65000000D01*
X96500000Y-93140000D02*
X96500000Y-65000000D01*
X98460000Y-95100000D02*
X96500000Y-93140000D01*
X112000000Y-118000000D02*
X112000000Y-130020000D01*
X112000000Y-130020000D02*
X111960000Y-130060000D01*
X98460000Y-95100000D02*
X98460000Y-117960000D01*
X98460000Y-117960000D02*
X98500000Y-118000000D01*
X111868587Y-64397440D02*
X112568579Y-65097432D01*
X111868587Y-58893494D02*
X111868587Y-64397440D01*
X111960000Y-58802081D02*
X111868587Y-58893494D01*
X111960000Y-57600000D02*
X111960000Y-58802081D01*
X99500000Y-116505026D02*
X99500000Y-117000000D01*
X99638201Y-116366825D02*
X99500000Y-116505026D01*
X99638201Y-93738201D02*
X99638201Y-116366825D01*
X98460000Y-92560000D02*
X99638201Y-93738201D01*
X98460000Y-92560000D02*
X98460000Y-66540000D01*
X98460000Y-66540000D02*
X98500000Y-66500000D01*
X113000000Y-117000000D02*
X113000000Y-117494974D01*
X113000000Y-117494974D02*
X113138201Y-117633175D01*
X113138201Y-117633175D02*
X113138201Y-131421799D01*
X113138201Y-131421799D02*
X111960000Y-132600000D01*
X110781799Y-57034463D02*
X110781799Y-58144623D01*
X113138201Y-56421799D02*
X111394463Y-56421799D01*
X113021790Y-66554381D02*
X113021790Y-67943382D01*
X111415377Y-64947968D02*
X113021790Y-66554381D01*
X114500000Y-55060000D02*
X113138201Y-56421799D01*
X110781799Y-58144623D02*
X111415377Y-58778201D01*
X111415377Y-58778201D02*
X111415377Y-64947968D01*
X111394463Y-56421799D02*
X110781799Y-57034463D01*
X101000000Y-95100000D02*
X100150001Y-94250001D01*
X100150001Y-94250001D02*
X100150001Y-93453739D01*
X100150001Y-93453739D02*
X99821799Y-93125537D01*
X99821799Y-93125537D02*
X99821799Y-68178201D01*
X99821799Y-68178201D02*
X100000000Y-68000000D01*
X114000000Y-116000000D02*
X114000000Y-129560000D01*
X114000000Y-129560000D02*
X114500000Y-130060000D01*
X101000000Y-95100000D02*
X101000000Y-116000000D01*
X115177202Y-62263142D02*
X115177202Y-62758116D01*
X115178202Y-62262142D02*
X115177202Y-62263142D01*
X115861799Y-56238201D02*
X115861799Y-60501003D01*
X115178202Y-61184600D02*
X115178202Y-62262142D01*
X117040000Y-55060000D02*
X115861799Y-56238201D01*
X115861799Y-60501003D02*
X115178202Y-61184600D01*
X107339502Y-93819502D02*
X107339502Y-61153987D01*
X108620000Y-95100000D02*
X107339502Y-93819502D01*
X89000000Y-61000000D02*
X89000000Y-60505026D01*
X89000000Y-60505026D02*
X88861799Y-60366825D01*
X88861799Y-60366825D02*
X88861799Y-56238201D01*
X88861799Y-56238201D02*
X90040000Y-55060000D01*
X90040000Y-130060000D02*
X90040000Y-123540000D01*
X90040000Y-123540000D02*
X90000000Y-123500000D01*
X117000000Y-122500000D02*
X117000000Y-130020000D01*
X117000000Y-130020000D02*
X117040000Y-130060000D01*
X108620000Y-95100000D02*
X108620000Y-121880000D01*
X108620000Y-121880000D02*
X108500000Y-122000000D01*
X117040000Y-130055474D02*
X117040000Y-130060000D01*
X108620000Y-92560000D02*
X108620000Y-60595777D01*
X108620000Y-60595777D02*
X108500000Y-60475777D01*
X117040000Y-57600000D02*
X117040000Y-60460000D01*
X117040000Y-60460000D02*
X117000000Y-60500000D01*
X91000000Y-60500000D02*
X91000000Y-58560000D01*
X91000000Y-58560000D02*
X90040000Y-57600000D01*
X90040000Y-132600000D02*
X91218201Y-131421799D01*
X117040000Y-132600000D02*
X115861799Y-131421799D01*
X115861799Y-123683589D02*
X115500000Y-123321790D01*
X109798201Y-122625017D02*
X110000000Y-122826816D01*
X115861799Y-131421799D02*
X115861799Y-123683589D01*
X95885539Y-122881799D02*
X109560009Y-122881799D01*
X109560009Y-122881799D02*
X110000000Y-123321790D01*
X94674462Y-122321798D02*
X95325538Y-122321798D01*
X95325538Y-122321798D02*
X95885539Y-122881799D01*
X91218201Y-131421799D02*
X91218201Y-125778059D01*
X109798201Y-93738201D02*
X109798201Y-122625017D01*
X108620000Y-92560000D02*
X109798201Y-93738201D01*
X91218201Y-125778059D02*
X94674462Y-122321798D01*
X110000000Y-122826816D02*
X110000000Y-123321790D01*
X134500000Y-94000000D02*
X134500000Y-88608512D01*
X134500000Y-88608512D02*
X132859384Y-86967896D01*
X132859384Y-86967896D02*
X132409384Y-86967896D01*
X132377280Y-87000000D02*
X132409384Y-86967896D01*
X132449384Y-87007896D02*
X132409384Y-86967896D01*
X122120000Y-57600000D02*
X122120000Y-69500000D01*
X122120000Y-57600000D02*
X122120000Y-83798512D01*
X122120000Y-83798512D02*
X126559384Y-88237896D01*
X126559384Y-88237896D02*
X127009384Y-88237896D01*
X95120000Y-57600000D02*
X95120000Y-69380000D01*
X95120000Y-69380000D02*
X95000000Y-69500000D01*
D19*
X127000000Y-96000000D02*
X127000000Y-98500000D01*
X127009384Y-93317896D02*
X127009384Y-95990616D01*
X127009384Y-95990616D02*
X127000000Y-96000000D01*
D20*
X95120000Y-132600000D02*
X96298201Y-131421799D01*
X96298201Y-128238279D02*
X96625095Y-127911385D01*
X96625095Y-127911385D02*
X96625095Y-127416411D01*
X96298201Y-131421799D02*
X96298201Y-128238279D01*
X123481799Y-94575481D02*
X123481799Y-124000000D01*
X123481799Y-124000000D02*
X123481799Y-131238201D01*
X123500000Y-127000000D02*
X123500000Y-124018201D01*
X123500000Y-124018201D02*
X123481799Y-124000000D01*
X127009384Y-92047896D02*
X126009384Y-92047896D01*
X126009384Y-92047896D02*
X123481799Y-94575481D01*
X123481799Y-131238201D02*
X122120000Y-132600000D01*
X83500000Y-64000000D02*
X83500000Y-55420000D01*
X83500000Y-55420000D02*
X83860000Y-55060000D01*
X83860000Y-55060000D02*
X84960000Y-55060000D01*
X103540000Y-95100000D02*
X102361799Y-93921799D01*
X102361799Y-93921799D02*
X102361799Y-64138201D01*
X102361799Y-64138201D02*
X102500000Y-64000000D01*
X85000000Y-120000000D02*
X85000000Y-130020000D01*
X85000000Y-130020000D02*
X84960000Y-130060000D01*
X103540000Y-95100000D02*
X103540000Y-119960000D01*
X103540000Y-119960000D02*
X103500000Y-120000000D01*
X85000000Y-63000000D02*
X85000000Y-57640000D01*
X85000000Y-57640000D02*
X84960000Y-57600000D01*
X103540000Y-92560000D02*
X103540000Y-63040000D01*
X103540000Y-63040000D02*
X103500000Y-63000000D01*
X86000000Y-121500000D02*
X86000000Y-121994974D01*
X86000000Y-121994974D02*
X86138201Y-122133175D01*
X86138201Y-122133175D02*
X86138201Y-131421799D01*
X86138201Y-131421799D02*
X84960000Y-132600000D01*
X103540000Y-92560000D02*
X104718201Y-93738201D01*
X104718201Y-93738201D02*
X104718201Y-121281799D01*
X104718201Y-121281799D02*
X104500000Y-121500000D01*
X104901799Y-93125537D02*
X104901799Y-62080009D01*
X104901799Y-62080009D02*
X104500000Y-61678210D01*
X105230001Y-93453739D02*
X104901799Y-93125537D01*
X105230001Y-94250001D02*
X105230001Y-93453739D01*
X106080000Y-95100000D02*
X105230001Y-94250001D01*
X87500000Y-55060000D02*
X86321799Y-56238201D01*
X86321799Y-56238201D02*
X86321799Y-59683598D01*
X86321799Y-59683598D02*
X88138201Y-61500000D01*
X106080000Y-95100000D02*
X106080000Y-121748006D01*
X106080000Y-121748006D02*
X106082373Y-121750379D01*
X87500000Y-122500000D02*
X87500000Y-130060000D01*
X122120000Y-55060000D02*
X120941799Y-56238201D01*
X120941799Y-56238201D02*
X120941799Y-59441799D01*
X120941799Y-59441799D02*
X121000000Y-59500000D01*
X94000000Y-59000000D02*
X94000000Y-58505026D01*
X94000000Y-58505026D02*
X93941799Y-58446825D01*
X93941799Y-58446825D02*
X93941799Y-56238201D01*
X93941799Y-56238201D02*
X95120000Y-55060000D01*
X113700000Y-59800000D02*
X114000000Y-59500000D01*
X113700000Y-92560000D02*
X113700000Y-59800000D01*
X114878201Y-114625537D02*
X114325537Y-115178201D01*
X95120000Y-128857919D02*
X94733949Y-128471868D01*
X113700000Y-92560000D02*
X114878201Y-93738201D01*
X95120000Y-130060000D02*
X95120000Y-128857919D01*
X112500000Y-113994974D02*
X112500000Y-113500000D01*
X113683227Y-115178201D02*
X112500000Y-113994974D01*
X114325537Y-115178201D02*
X113683227Y-115178201D01*
X94733949Y-128471868D02*
X94733949Y-123862365D01*
X114878201Y-93738201D02*
X114878201Y-114625537D01*
X121500000Y-124000000D02*
X121500000Y-113500000D01*
X121500000Y-113500000D02*
X121500000Y-129440000D01*
X121500000Y-129440000D02*
X122120000Y-130060000D01*
X110518288Y-64691816D02*
X110518288Y-59795135D01*
X112343589Y-66517117D02*
X110518288Y-64691816D01*
X112343589Y-93743589D02*
X112343589Y-66517117D01*
X113700000Y-95100000D02*
X112343589Y-93743589D01*
X119580000Y-132600000D02*
X118401799Y-131421799D01*
X118401799Y-131421799D02*
X118401799Y-126500000D01*
X92580000Y-132600000D02*
X93758201Y-131421799D01*
X93758201Y-131421799D02*
X93758201Y-126741799D01*
X93758201Y-126741799D02*
X94000000Y-126500000D01*
X119580000Y-57600000D02*
X119580000Y-59920000D01*
X92500000Y-59500000D02*
X92500000Y-57680000D01*
X92500000Y-57680000D02*
X92580000Y-57600000D01*
X118500000Y-114500000D02*
X118500000Y-114994974D01*
X118500000Y-114994974D02*
X118401799Y-115093175D01*
X118401799Y-115093175D02*
X118401799Y-131421799D01*
X113700000Y-95100000D02*
X113700000Y-114200000D01*
X113700000Y-114200000D02*
X114000000Y-114500000D01*
X116240000Y-95100000D02*
X117442081Y-95100000D01*
X117442081Y-95100000D02*
X123662386Y-88879695D01*
X123662386Y-88879695D02*
X128791183Y-88879695D01*
X128791183Y-88879695D02*
X131959384Y-92047896D01*
X131959384Y-92047896D02*
X132409384Y-92047896D01*
X132859384Y-92047896D02*
X132409384Y-92047896D01*
X132639384Y-88007896D02*
X132409384Y-88237896D01*
X132409384Y-92047896D02*
X133409384Y-92047896D01*
X133409384Y-92047896D02*
X133534385Y-91922895D01*
X132859384Y-88237896D02*
X132409384Y-88237896D01*
X133534385Y-91922895D02*
X133534385Y-88912897D01*
X133534385Y-88912897D02*
X132859384Y-88237896D01*
X132449384Y-92007896D02*
X132409384Y-92047896D01*
X132409384Y-89507896D02*
X130549384Y-89507896D01*
X130549384Y-89507896D02*
X128009384Y-86967896D01*
X128009384Y-86967896D02*
X127009384Y-86967896D01*
X132409384Y-89507896D02*
X132409384Y-90777896D01*
X132859384Y-90777896D02*
X132409384Y-90777896D01*
X132139384Y-90507896D02*
X132409384Y-90777896D01*
X127009384Y-86967896D02*
X127009384Y-85697896D01*
X132409384Y-93317896D02*
X131409384Y-93317896D01*
X131409384Y-93317896D02*
X128869384Y-90777896D01*
X128869384Y-90777896D02*
X127009384Y-90777896D01*
X127009384Y-89507896D02*
X127009384Y-90777896D01*
X127009384Y-89507896D02*
X127459384Y-89507896D01*
D21*
G36*
X139290000Y-144290000D02*
X75710000Y-144290000D01*
X75710000Y-138252619D01*
X115094613Y-138252619D01*
X115434155Y-139074372D01*
X116062321Y-139703636D01*
X116883481Y-140044611D01*
X117772619Y-140045387D01*
X118594372Y-139705845D01*
X119223636Y-139077679D01*
X119564611Y-138256519D01*
X119565387Y-137367381D01*
X119225845Y-136545628D01*
X118597679Y-135916364D01*
X117776519Y-135575389D01*
X116887381Y-135574613D01*
X116065628Y-135914155D01*
X115436364Y-136542321D01*
X115095389Y-137363481D01*
X115094613Y-138252619D01*
X75710000Y-138252619D01*
X75710000Y-96502815D01*
X82264630Y-96502815D01*
X82588980Y-97287800D01*
X83189041Y-97888909D01*
X83973459Y-98214628D01*
X84822815Y-98215370D01*
X85607800Y-97891020D01*
X86208909Y-97290959D01*
X86534628Y-96506541D01*
X86535370Y-95657185D01*
X86211020Y-94872200D01*
X85610959Y-94271091D01*
X84826541Y-93945372D01*
X83977185Y-93944630D01*
X83192200Y-94268980D01*
X82591091Y-94869041D01*
X82265372Y-95653459D01*
X82264630Y-96502815D01*
X75710000Y-96502815D01*
X75710000Y-91908750D01*
X82265000Y-91908750D01*
X82265000Y-92626309D01*
X82361673Y-92859698D01*
X82540301Y-93038327D01*
X82773690Y-93135000D01*
X83491250Y-93135000D01*
X83650000Y-92976250D01*
X83650000Y-91750000D01*
X85150000Y-91750000D01*
X85150000Y-92976250D01*
X85308750Y-93135000D01*
X86026310Y-93135000D01*
X86259699Y-93038327D01*
X86438327Y-92859698D01*
X86535000Y-92626309D01*
X86535000Y-91908750D01*
X86376250Y-91750000D01*
X85150000Y-91750000D01*
X83650000Y-91750000D01*
X82423750Y-91750000D01*
X82265000Y-91908750D01*
X75710000Y-91908750D01*
X75710000Y-89373691D01*
X82265000Y-89373691D01*
X82265000Y-90091250D01*
X82423750Y-90250000D01*
X83650000Y-90250000D01*
X83650000Y-89023750D01*
X85150000Y-89023750D01*
X85150000Y-90250000D01*
X86376250Y-90250000D01*
X86535000Y-90091250D01*
X86535000Y-89373691D01*
X86438327Y-89140302D01*
X86259699Y-88961673D01*
X86026310Y-88865000D01*
X85308750Y-88865000D01*
X85150000Y-89023750D01*
X83650000Y-89023750D01*
X83491250Y-88865000D01*
X82773690Y-88865000D01*
X82540301Y-88961673D01*
X82361673Y-89140302D01*
X82265000Y-89373691D01*
X75710000Y-89373691D01*
X75710000Y-64195069D01*
X82514830Y-64195069D01*
X82664471Y-64557229D01*
X82941314Y-64834555D01*
X83303212Y-64984828D01*
X83695069Y-64985170D01*
X84057229Y-64835529D01*
X84334555Y-64558686D01*
X84484828Y-64196788D01*
X84485128Y-63852748D01*
X84803212Y-63984828D01*
X85195069Y-63985170D01*
X85557229Y-63835529D01*
X85834555Y-63558686D01*
X85984828Y-63196788D01*
X85985170Y-62804931D01*
X85835529Y-62442771D01*
X85760000Y-62367110D01*
X85760000Y-60184485D01*
X85784398Y-60220999D01*
X87153123Y-61589724D01*
X87153031Y-61695069D01*
X87302672Y-62057229D01*
X87579515Y-62334555D01*
X87941413Y-62484828D01*
X88333270Y-62485170D01*
X88695430Y-62335529D01*
X88972756Y-62058686D01*
X89003352Y-61985003D01*
X89195069Y-61985170D01*
X89557229Y-61835529D01*
X89834555Y-61558686D01*
X89984828Y-61196788D01*
X89985170Y-60804931D01*
X89835529Y-60442771D01*
X89725740Y-60332790D01*
X89702148Y-60214187D01*
X89621799Y-60093936D01*
X89621799Y-59030908D01*
X90040000Y-59114093D01*
X90240000Y-59074310D01*
X90240000Y-59866889D01*
X90165445Y-59941314D01*
X90015172Y-60303212D01*
X90014830Y-60695069D01*
X90164471Y-61057229D01*
X90441314Y-61334555D01*
X90803212Y-61484828D01*
X91195069Y-61485170D01*
X91557229Y-61335529D01*
X91834555Y-61058686D01*
X91984828Y-60696788D01*
X91985128Y-60352748D01*
X92303212Y-60484828D01*
X92695069Y-60485170D01*
X93057229Y-60335529D01*
X93334555Y-60058686D01*
X93431644Y-59824869D01*
X93441314Y-59834555D01*
X93803212Y-59984828D01*
X94195069Y-59985170D01*
X94360000Y-59917022D01*
X94360000Y-68747098D01*
X94165445Y-68941314D01*
X94015172Y-69303212D01*
X94014830Y-69695069D01*
X94164471Y-70057229D01*
X94441314Y-70334555D01*
X94803212Y-70484828D01*
X95195069Y-70485170D01*
X95557229Y-70335529D01*
X95740000Y-70153076D01*
X95740000Y-93140000D01*
X95797852Y-93430839D01*
X95962599Y-93677401D01*
X97038229Y-94753031D01*
X96975000Y-95070907D01*
X96975000Y-95129093D01*
X97088039Y-95697378D01*
X97409946Y-96179147D01*
X97700000Y-96372954D01*
X97700000Y-117406819D01*
X97665445Y-117441314D01*
X97515172Y-117803212D01*
X97514830Y-118195069D01*
X97664471Y-118557229D01*
X97941314Y-118834555D01*
X98303212Y-118984828D01*
X98695069Y-118985170D01*
X99057229Y-118835529D01*
X99334555Y-118558686D01*
X99484828Y-118196788D01*
X99485013Y-117984987D01*
X99695069Y-117985170D01*
X100057229Y-117835529D01*
X100334555Y-117558686D01*
X100484828Y-117196788D01*
X100485128Y-116852748D01*
X100803212Y-116984828D01*
X101195069Y-116985170D01*
X101557229Y-116835529D01*
X101834555Y-116558686D01*
X101984828Y-116196788D01*
X101985170Y-115804931D01*
X101835529Y-115442771D01*
X101760000Y-115367110D01*
X101760000Y-96372954D01*
X102050054Y-96179147D01*
X102270000Y-95849974D01*
X102489946Y-96179147D01*
X102780000Y-96372954D01*
X102780000Y-119326959D01*
X102665445Y-119441314D01*
X102515172Y-119803212D01*
X102514830Y-120195069D01*
X102664471Y-120557229D01*
X102941314Y-120834555D01*
X103303212Y-120984828D01*
X103647252Y-120985128D01*
X103515172Y-121303212D01*
X103514830Y-121695069D01*
X103664471Y-122057229D01*
X103728929Y-122121799D01*
X96200341Y-122121799D01*
X95862939Y-121784397D01*
X95616377Y-121619650D01*
X95325538Y-121561798D01*
X94674462Y-121561798D01*
X94383622Y-121619650D01*
X94137061Y-121784397D01*
X90800000Y-125121458D01*
X90800000Y-124093181D01*
X90834555Y-124058686D01*
X90984828Y-123696788D01*
X90985170Y-123304931D01*
X90835529Y-122942771D01*
X90558686Y-122665445D01*
X90196788Y-122515172D01*
X89804931Y-122514830D01*
X89442771Y-122664471D01*
X89165445Y-122941314D01*
X89015172Y-123303212D01*
X89014830Y-123695069D01*
X89164471Y-124057229D01*
X89280000Y-124172960D01*
X89280000Y-128787046D01*
X88989946Y-128980853D01*
X88770000Y-129310026D01*
X88550054Y-128980853D01*
X88260000Y-128787046D01*
X88260000Y-123133111D01*
X88334555Y-123058686D01*
X88484828Y-122696788D01*
X88485170Y-122304931D01*
X88335529Y-121942771D01*
X88058686Y-121665445D01*
X87696788Y-121515172D01*
X87304931Y-121514830D01*
X86984871Y-121647076D01*
X86985170Y-121304931D01*
X86835529Y-120942771D01*
X86558686Y-120665445D01*
X86196788Y-120515172D01*
X85852748Y-120514872D01*
X85984828Y-120196788D01*
X85985170Y-119804931D01*
X85835529Y-119442771D01*
X85558686Y-119165445D01*
X85196788Y-119015172D01*
X84804931Y-119014830D01*
X84442771Y-119164471D01*
X84165445Y-119441314D01*
X84015172Y-119803212D01*
X84014830Y-120195069D01*
X84164471Y-120557229D01*
X84240000Y-120632890D01*
X84240000Y-128562560D01*
X84110000Y-128562560D01*
X83874683Y-128606838D01*
X83658559Y-128745910D01*
X83513569Y-128958110D01*
X83462560Y-129210000D01*
X83462560Y-130910000D01*
X83506838Y-131145317D01*
X83645910Y-131361441D01*
X83858110Y-131506431D01*
X83914454Y-131517841D01*
X83909946Y-131520853D01*
X83588039Y-132002622D01*
X83475000Y-132570907D01*
X83475000Y-132629093D01*
X83588039Y-133197378D01*
X83909946Y-133679147D01*
X84391715Y-134001054D01*
X84960000Y-134114093D01*
X85528285Y-134001054D01*
X86010054Y-133679147D01*
X86230000Y-133349974D01*
X86449946Y-133679147D01*
X86931715Y-134001054D01*
X87500000Y-134114093D01*
X88068285Y-134001054D01*
X88550054Y-133679147D01*
X88770000Y-133349974D01*
X88989946Y-133679147D01*
X89471715Y-134001054D01*
X90040000Y-134114093D01*
X90608285Y-134001054D01*
X91090054Y-133679147D01*
X91310000Y-133349974D01*
X91529946Y-133679147D01*
X92011715Y-134001054D01*
X92580000Y-134114093D01*
X93148285Y-134001054D01*
X93630054Y-133679147D01*
X93850000Y-133349974D01*
X94069946Y-133679147D01*
X94551715Y-134001054D01*
X95120000Y-134114093D01*
X95688285Y-134001054D01*
X96170054Y-133679147D01*
X96390000Y-133349974D01*
X96609946Y-133679147D01*
X97091715Y-134001054D01*
X97660000Y-134114093D01*
X98228285Y-134001054D01*
X98710054Y-133679147D01*
X98930000Y-133349974D01*
X99149946Y-133679147D01*
X99631715Y-134001054D01*
X100200000Y-134114093D01*
X100768285Y-134001054D01*
X101250054Y-133679147D01*
X101470000Y-133349974D01*
X101689946Y-133679147D01*
X102171715Y-134001054D01*
X102740000Y-134114093D01*
X103308285Y-134001054D01*
X103790054Y-133679147D01*
X104111961Y-133197378D01*
X104225000Y-132629093D01*
X104225000Y-132570907D01*
X104111961Y-132002622D01*
X103806188Y-131545000D01*
X103883002Y-131545000D01*
X103883002Y-130963483D01*
X104078915Y-130702361D01*
X104004168Y-130485000D01*
X103165000Y-130485000D01*
X103165000Y-130910000D01*
X102315000Y-130910000D01*
X102315000Y-130485000D01*
X101475832Y-130485000D01*
X101470000Y-130501959D01*
X101464168Y-130485000D01*
X100625000Y-130485000D01*
X100625000Y-130910000D01*
X99775000Y-130910000D01*
X99775000Y-130485000D01*
X98935832Y-130485000D01*
X98930000Y-130501959D01*
X98924168Y-130485000D01*
X98085000Y-130485000D01*
X98085000Y-130910000D01*
X97235000Y-130910000D01*
X97235000Y-130485000D01*
X97058201Y-130485000D01*
X97058201Y-129635000D01*
X97235000Y-129635000D01*
X97235000Y-128803690D01*
X98085000Y-128803690D01*
X98085000Y-129635000D01*
X98924168Y-129635000D01*
X98930000Y-129618041D01*
X98935832Y-129635000D01*
X99775000Y-129635000D01*
X99775000Y-128803690D01*
X100625000Y-128803690D01*
X100625000Y-129635000D01*
X101464168Y-129635000D01*
X101470000Y-129618041D01*
X101475832Y-129635000D01*
X102315000Y-129635000D01*
X102315000Y-128803690D01*
X103165000Y-128803690D01*
X103165000Y-129635000D01*
X104004168Y-129635000D01*
X104078915Y-129417639D01*
X103731175Y-128954155D01*
X103382356Y-128721119D01*
X103165000Y-128803690D01*
X102315000Y-128803690D01*
X102097644Y-128721119D01*
X101748825Y-128954155D01*
X101470000Y-129325786D01*
X101191175Y-128954155D01*
X100842356Y-128721119D01*
X100625000Y-128803690D01*
X99775000Y-128803690D01*
X99557644Y-128721119D01*
X99208825Y-128954155D01*
X98930000Y-129325786D01*
X98651175Y-128954155D01*
X98302356Y-128721119D01*
X98085000Y-128803690D01*
X97235000Y-128803690D01*
X97058201Y-128736526D01*
X97058201Y-128553081D01*
X97162496Y-128448786D01*
X97327243Y-128202224D01*
X97350810Y-128083748D01*
X97459650Y-127975097D01*
X97609923Y-127613199D01*
X97610265Y-127221342D01*
X97537474Y-127045173D01*
X97782619Y-127045387D01*
X98604372Y-126705845D01*
X99233636Y-126077679D01*
X99574611Y-125256519D01*
X99575387Y-124367381D01*
X99275582Y-123641799D01*
X109066454Y-123641799D01*
X109164471Y-123879019D01*
X109441314Y-124156345D01*
X109803212Y-124306618D01*
X110195069Y-124306960D01*
X110557229Y-124157319D01*
X110834555Y-123880476D01*
X110984828Y-123518578D01*
X110985170Y-123126721D01*
X110835529Y-122764561D01*
X110725740Y-122654580D01*
X110702148Y-122535977D01*
X110558201Y-122320544D01*
X110558201Y-96478661D01*
X110591715Y-96501054D01*
X111160000Y-96614093D01*
X111728285Y-96501054D01*
X112210054Y-96179147D01*
X112430000Y-95849974D01*
X112649946Y-96179147D01*
X112940000Y-96372954D01*
X112940000Y-112616162D01*
X112696788Y-112515172D01*
X112304931Y-112514830D01*
X111942771Y-112664471D01*
X111665445Y-112941314D01*
X111515172Y-113303212D01*
X111514830Y-113695069D01*
X111664471Y-114057229D01*
X111774260Y-114167210D01*
X111797852Y-114285813D01*
X111962599Y-114532375D01*
X113079212Y-115648988D01*
X113015172Y-115803212D01*
X113014987Y-116015013D01*
X112804931Y-116014830D01*
X112442771Y-116164471D01*
X112165445Y-116441314D01*
X112015172Y-116803212D01*
X112014987Y-117015013D01*
X111804931Y-117014830D01*
X111442771Y-117164471D01*
X111165445Y-117441314D01*
X111015172Y-117803212D01*
X111014830Y-118195069D01*
X111164471Y-118557229D01*
X111240000Y-118632890D01*
X111240000Y-128562560D01*
X111110000Y-128562560D01*
X110874683Y-128606838D01*
X110658559Y-128745910D01*
X110513569Y-128958110D01*
X110462560Y-129210000D01*
X110462560Y-130910000D01*
X110506838Y-131145317D01*
X110645910Y-131361441D01*
X110858110Y-131506431D01*
X110914454Y-131517841D01*
X110909946Y-131520853D01*
X110588039Y-132002622D01*
X110475000Y-132570907D01*
X110475000Y-132629093D01*
X110588039Y-133197378D01*
X110909946Y-133679147D01*
X111391715Y-134001054D01*
X111960000Y-134114093D01*
X112528285Y-134001054D01*
X113010054Y-133679147D01*
X113230000Y-133349974D01*
X113449946Y-133679147D01*
X113931715Y-134001054D01*
X114500000Y-134114093D01*
X115068285Y-134001054D01*
X115550054Y-133679147D01*
X115770000Y-133349974D01*
X115989946Y-133679147D01*
X116471715Y-134001054D01*
X117040000Y-134114093D01*
X117608285Y-134001054D01*
X118090054Y-133679147D01*
X118310000Y-133349974D01*
X118529946Y-133679147D01*
X119011715Y-134001054D01*
X119580000Y-134114093D01*
X120148285Y-134001054D01*
X120630054Y-133679147D01*
X120850000Y-133349974D01*
X121069946Y-133679147D01*
X121551715Y-134001054D01*
X122120000Y-134114093D01*
X122688285Y-134001054D01*
X123170054Y-133679147D01*
X123390000Y-133349974D01*
X123609946Y-133679147D01*
X124091715Y-134001054D01*
X124660000Y-134114093D01*
X125228285Y-134001054D01*
X125710054Y-133679147D01*
X125930000Y-133349974D01*
X126149946Y-133679147D01*
X126631715Y-134001054D01*
X127200000Y-134114093D01*
X127768285Y-134001054D01*
X128250054Y-133679147D01*
X128470000Y-133349974D01*
X128689946Y-133679147D01*
X129171715Y-134001054D01*
X129740000Y-134114093D01*
X130308285Y-134001054D01*
X130790054Y-133679147D01*
X131111961Y-133197378D01*
X131225000Y-132629093D01*
X131225000Y-132570907D01*
X131111961Y-132002622D01*
X130806188Y-131545000D01*
X130883002Y-131545000D01*
X130883002Y-130963483D01*
X131078915Y-130702361D01*
X131004168Y-130485000D01*
X130165000Y-130485000D01*
X130165000Y-130910000D01*
X129315000Y-130910000D01*
X129315000Y-130485000D01*
X128475832Y-130485000D01*
X128470000Y-130501959D01*
X128464168Y-130485000D01*
X127625000Y-130485000D01*
X127625000Y-130910000D01*
X126775000Y-130910000D01*
X126775000Y-130485000D01*
X125935832Y-130485000D01*
X125930000Y-130501959D01*
X125924168Y-130485000D01*
X125085000Y-130485000D01*
X125085000Y-130910000D01*
X124241799Y-130910000D01*
X124241799Y-128803690D01*
X125085000Y-128803690D01*
X125085000Y-129635000D01*
X125924168Y-129635000D01*
X125930000Y-129618041D01*
X125935832Y-129635000D01*
X126775000Y-129635000D01*
X126775000Y-128803690D01*
X127625000Y-128803690D01*
X127625000Y-129635000D01*
X128464168Y-129635000D01*
X128470000Y-129618041D01*
X128475832Y-129635000D01*
X129315000Y-129635000D01*
X129315000Y-128803690D01*
X130165000Y-128803690D01*
X130165000Y-129635000D01*
X131004168Y-129635000D01*
X131078915Y-129417639D01*
X130731175Y-128954155D01*
X130382356Y-128721119D01*
X130165000Y-128803690D01*
X129315000Y-128803690D01*
X129097644Y-128721119D01*
X128748825Y-128954155D01*
X128470000Y-129325786D01*
X128191175Y-128954155D01*
X127842356Y-128721119D01*
X127625000Y-128803690D01*
X126775000Y-128803690D01*
X126557644Y-128721119D01*
X126208825Y-128954155D01*
X125930000Y-129325786D01*
X125651175Y-128954155D01*
X125302356Y-128721119D01*
X125085000Y-128803690D01*
X124241799Y-128803690D01*
X124241799Y-127651280D01*
X124334555Y-127558686D01*
X124484828Y-127196788D01*
X124485170Y-126804931D01*
X124335529Y-126442771D01*
X124260000Y-126367110D01*
X124260000Y-124018201D01*
X124241799Y-123926699D01*
X124241799Y-97627000D01*
X131500000Y-97627000D01*
X131546159Y-97618315D01*
X131588553Y-97591035D01*
X131616994Y-97549410D01*
X131627000Y-97500000D01*
X131627000Y-94258778D01*
X131659384Y-94265336D01*
X133159384Y-94265336D01*
X133394701Y-94221058D01*
X133514875Y-94143728D01*
X133514830Y-94195069D01*
X133664471Y-94557229D01*
X133941314Y-94834555D01*
X134303212Y-94984828D01*
X134695069Y-94985170D01*
X135057229Y-94835529D01*
X135334555Y-94558686D01*
X135484828Y-94196788D01*
X135485170Y-93804931D01*
X135335529Y-93442771D01*
X135260000Y-93367110D01*
X135260000Y-88608512D01*
X135247426Y-88545297D01*
X135202148Y-88317672D01*
X135037401Y-88071111D01*
X133806824Y-86840534D01*
X133806824Y-86667896D01*
X133790830Y-86582896D01*
X134302099Y-86582896D01*
X134302104Y-86582897D01*
X134584588Y-86526706D01*
X134640779Y-86515529D01*
X134686226Y-86485162D01*
X134695069Y-86485170D01*
X135057229Y-86335529D01*
X135334555Y-86058686D01*
X135484828Y-85696788D01*
X135485170Y-85304931D01*
X135335529Y-84942771D01*
X135058686Y-84665445D01*
X134696788Y-84515172D01*
X134304931Y-84514830D01*
X133942771Y-84664471D01*
X133794087Y-84812896D01*
X133428004Y-84812896D01*
X133411274Y-84801465D01*
X133159384Y-84750456D01*
X131659384Y-84750456D01*
X131424067Y-84794734D01*
X131207943Y-84933806D01*
X131062953Y-85146006D01*
X131011944Y-85397896D01*
X131011944Y-85997896D01*
X131056222Y-86233213D01*
X131120062Y-86332424D01*
X131062953Y-86416006D01*
X131011944Y-86667896D01*
X131011944Y-87267896D01*
X131056222Y-87503213D01*
X131120062Y-87602424D01*
X131062953Y-87686006D01*
X131011944Y-87937896D01*
X131011944Y-88537896D01*
X131051458Y-88747896D01*
X130864186Y-88747896D01*
X128546785Y-86430495D01*
X128330902Y-86286247D01*
X128355815Y-86249786D01*
X128406824Y-85997896D01*
X128406824Y-85397896D01*
X128362546Y-85162579D01*
X128223474Y-84946455D01*
X128011274Y-84801465D01*
X127759384Y-84750456D01*
X126259384Y-84750456D01*
X126024067Y-84794734D01*
X125807943Y-84933806D01*
X125662953Y-85146006D01*
X125611944Y-85397896D01*
X125611944Y-85997896D01*
X125656222Y-86233213D01*
X125704447Y-86308157D01*
X122880000Y-83483710D01*
X122880000Y-70133111D01*
X122954555Y-70058686D01*
X123104828Y-69696788D01*
X123105170Y-69304931D01*
X122955529Y-68942771D01*
X122880000Y-68867110D01*
X122880000Y-58872954D01*
X123170054Y-58679147D01*
X123390000Y-58349974D01*
X123609946Y-58679147D01*
X124091715Y-59001054D01*
X124660000Y-59114093D01*
X125228285Y-59001054D01*
X125710054Y-58679147D01*
X125930000Y-58349974D01*
X126149946Y-58679147D01*
X126631715Y-59001054D01*
X127200000Y-59114093D01*
X127768285Y-59001054D01*
X128250054Y-58679147D01*
X128470000Y-58349974D01*
X128689946Y-58679147D01*
X129171715Y-59001054D01*
X129740000Y-59114093D01*
X130308285Y-59001054D01*
X130790054Y-58679147D01*
X131111961Y-58197378D01*
X131225000Y-57629093D01*
X131225000Y-57570907D01*
X131111961Y-57002622D01*
X130806188Y-56545000D01*
X130883002Y-56545000D01*
X130883002Y-55963483D01*
X131078915Y-55702361D01*
X131004168Y-55485000D01*
X130165000Y-55485000D01*
X130165000Y-55910000D01*
X129315000Y-55910000D01*
X129315000Y-55485000D01*
X128475832Y-55485000D01*
X128470000Y-55501959D01*
X128464168Y-55485000D01*
X127625000Y-55485000D01*
X127625000Y-55910000D01*
X126775000Y-55910000D01*
X126775000Y-55485000D01*
X125935832Y-55485000D01*
X125930000Y-55501959D01*
X125924168Y-55485000D01*
X125085000Y-55485000D01*
X125085000Y-55910000D01*
X124235000Y-55910000D01*
X124235000Y-55485000D01*
X123810000Y-55485000D01*
X123810000Y-54635000D01*
X124235000Y-54635000D01*
X124235000Y-53803690D01*
X125085000Y-53803690D01*
X125085000Y-54635000D01*
X125924168Y-54635000D01*
X125930000Y-54618041D01*
X125935832Y-54635000D01*
X126775000Y-54635000D01*
X126775000Y-53803690D01*
X127625000Y-53803690D01*
X127625000Y-54635000D01*
X128464168Y-54635000D01*
X128470000Y-54618041D01*
X128475832Y-54635000D01*
X129315000Y-54635000D01*
X129315000Y-53803690D01*
X130165000Y-53803690D01*
X130165000Y-54635000D01*
X131004168Y-54635000D01*
X131078915Y-54417639D01*
X130731175Y-53954155D01*
X130382356Y-53721119D01*
X130165000Y-53803690D01*
X129315000Y-53803690D01*
X129097644Y-53721119D01*
X128748825Y-53954155D01*
X128470000Y-54325786D01*
X128191175Y-53954155D01*
X127842356Y-53721119D01*
X127625000Y-53803690D01*
X126775000Y-53803690D01*
X126557644Y-53721119D01*
X126208825Y-53954155D01*
X125930000Y-54325786D01*
X125651175Y-53954155D01*
X125302356Y-53721119D01*
X125085000Y-53803690D01*
X124235000Y-53803690D01*
X124017644Y-53721119D01*
X123724443Y-53916998D01*
X123175000Y-53916998D01*
X123175000Y-53988255D01*
X123170054Y-53980853D01*
X122688285Y-53658946D01*
X122120000Y-53545907D01*
X121551715Y-53658946D01*
X121069946Y-53980853D01*
X120850000Y-54310026D01*
X120630054Y-53980853D01*
X120148285Y-53658946D01*
X119580000Y-53545907D01*
X119011715Y-53658946D01*
X118529946Y-53980853D01*
X118310000Y-54310026D01*
X118090054Y-53980853D01*
X117608285Y-53658946D01*
X117040000Y-53545907D01*
X116471715Y-53658946D01*
X115989946Y-53980853D01*
X115770000Y-54310026D01*
X115550054Y-53980853D01*
X115068285Y-53658946D01*
X114500000Y-53545907D01*
X113931715Y-53658946D01*
X113449946Y-53980853D01*
X113422150Y-54022452D01*
X113413162Y-53974683D01*
X113274090Y-53758559D01*
X113061890Y-53613569D01*
X112810000Y-53562560D01*
X111110000Y-53562560D01*
X110874683Y-53606838D01*
X110658559Y-53745910D01*
X110513569Y-53958110D01*
X110462560Y-54210000D01*
X110462560Y-54429080D01*
X110322599Y-54522599D01*
X108962599Y-55882599D01*
X108797852Y-56129161D01*
X108740000Y-56420000D01*
X108740000Y-59508892D01*
X108696788Y-59490949D01*
X108304931Y-59490607D01*
X107942771Y-59640248D01*
X107665445Y-59917091D01*
X107557176Y-60177832D01*
X107536290Y-60169159D01*
X107144433Y-60168817D01*
X106782273Y-60318458D01*
X106504947Y-60595301D01*
X106354674Y-60957199D01*
X106354332Y-61349056D01*
X106503973Y-61711216D01*
X106579502Y-61786877D01*
X106579502Y-91145264D01*
X106080000Y-91045907D01*
X105661799Y-91129092D01*
X105661799Y-62080009D01*
X105640176Y-61971303D01*
X105603947Y-61789169D01*
X105485058Y-61611240D01*
X105485170Y-61483141D01*
X105335529Y-61120981D01*
X105058686Y-60843655D01*
X104696788Y-60693382D01*
X104304931Y-60693040D01*
X103942771Y-60842681D01*
X103665445Y-61119524D01*
X103515172Y-61481422D01*
X103514830Y-61873279D01*
X103573414Y-62015064D01*
X103304931Y-62014830D01*
X102942771Y-62164471D01*
X102665445Y-62441314D01*
X102515172Y-62803212D01*
X102514987Y-63015013D01*
X102304931Y-63014830D01*
X101942771Y-63164471D01*
X101665445Y-63441314D01*
X101515172Y-63803212D01*
X101514830Y-64195069D01*
X101601799Y-64405551D01*
X101601799Y-91181339D01*
X101568285Y-91158946D01*
X101000000Y-91045907D01*
X100581799Y-91129092D01*
X100581799Y-68811002D01*
X100834555Y-68558686D01*
X100984828Y-68196788D01*
X100985170Y-67804931D01*
X100835529Y-67442771D01*
X100558686Y-67165445D01*
X100196788Y-67015172D01*
X99804931Y-67014830D01*
X99442771Y-67164471D01*
X99220000Y-67386854D01*
X99220000Y-67173041D01*
X99334555Y-67058686D01*
X99484828Y-66696788D01*
X99485170Y-66304931D01*
X99335529Y-65942771D01*
X99058686Y-65665445D01*
X98696788Y-65515172D01*
X98304931Y-65514830D01*
X97942771Y-65664471D01*
X97665445Y-65941314D01*
X97515172Y-66303212D01*
X97514830Y-66695069D01*
X97664471Y-67057229D01*
X97700000Y-67092820D01*
X97700000Y-91062560D01*
X97610000Y-91062560D01*
X97374683Y-91106838D01*
X97260000Y-91180634D01*
X97260000Y-65633111D01*
X97334555Y-65558686D01*
X97484828Y-65196788D01*
X97485170Y-64804931D01*
X97335529Y-64442771D01*
X97058686Y-64165445D01*
X96696788Y-64015172D01*
X96304931Y-64014830D01*
X95942771Y-64164471D01*
X95880000Y-64227133D01*
X95880000Y-58872954D01*
X96170054Y-58679147D01*
X96390000Y-58349974D01*
X96609946Y-58679147D01*
X97091715Y-59001054D01*
X97660000Y-59114093D01*
X98228285Y-59001054D01*
X98710054Y-58679147D01*
X98930000Y-58349974D01*
X99149946Y-58679147D01*
X99631715Y-59001054D01*
X100200000Y-59114093D01*
X100768285Y-59001054D01*
X101250054Y-58679147D01*
X101470000Y-58349974D01*
X101689946Y-58679147D01*
X102171715Y-59001054D01*
X102740000Y-59114093D01*
X103308285Y-59001054D01*
X103790054Y-58679147D01*
X104111961Y-58197378D01*
X104225000Y-57629093D01*
X104225000Y-57570907D01*
X104111961Y-57002622D01*
X103806188Y-56545000D01*
X103883002Y-56545000D01*
X103883002Y-55963483D01*
X104078915Y-55702361D01*
X104004168Y-55485000D01*
X103165000Y-55485000D01*
X103165000Y-55910000D01*
X102315000Y-55910000D01*
X102315000Y-55485000D01*
X101475832Y-55485000D01*
X101470000Y-55501959D01*
X101464168Y-55485000D01*
X100625000Y-55485000D01*
X100625000Y-55910000D01*
X99775000Y-55910000D01*
X99775000Y-55485000D01*
X98935832Y-55485000D01*
X98930000Y-55501959D01*
X98924168Y-55485000D01*
X98085000Y-55485000D01*
X98085000Y-55910000D01*
X97235000Y-55910000D01*
X97235000Y-55485000D01*
X96810000Y-55485000D01*
X96810000Y-54635000D01*
X97235000Y-54635000D01*
X97235000Y-53803690D01*
X98085000Y-53803690D01*
X98085000Y-54635000D01*
X98924168Y-54635000D01*
X98930000Y-54618041D01*
X98935832Y-54635000D01*
X99775000Y-54635000D01*
X99775000Y-53803690D01*
X100625000Y-53803690D01*
X100625000Y-54635000D01*
X101464168Y-54635000D01*
X101470000Y-54618041D01*
X101475832Y-54635000D01*
X102315000Y-54635000D01*
X102315000Y-53803690D01*
X103165000Y-53803690D01*
X103165000Y-54635000D01*
X104004168Y-54635000D01*
X104078915Y-54417639D01*
X103731175Y-53954155D01*
X103382356Y-53721119D01*
X103165000Y-53803690D01*
X102315000Y-53803690D01*
X102097644Y-53721119D01*
X101748825Y-53954155D01*
X101470000Y-54325786D01*
X101191175Y-53954155D01*
X100842356Y-53721119D01*
X100625000Y-53803690D01*
X99775000Y-53803690D01*
X99557644Y-53721119D01*
X99208825Y-53954155D01*
X98930000Y-54325786D01*
X98651175Y-53954155D01*
X98302356Y-53721119D01*
X98085000Y-53803690D01*
X97235000Y-53803690D01*
X97017644Y-53721119D01*
X96724443Y-53916998D01*
X96175000Y-53916998D01*
X96175000Y-53988255D01*
X96170054Y-53980853D01*
X95688285Y-53658946D01*
X95120000Y-53545907D01*
X94551715Y-53658946D01*
X94069946Y-53980853D01*
X93850000Y-54310026D01*
X93630054Y-53980853D01*
X93148285Y-53658946D01*
X92580000Y-53545907D01*
X92011715Y-53658946D01*
X91529946Y-53980853D01*
X91310000Y-54310026D01*
X91090054Y-53980853D01*
X90608285Y-53658946D01*
X90040000Y-53545907D01*
X89471715Y-53658946D01*
X88989946Y-53980853D01*
X88770000Y-54310026D01*
X88550054Y-53980853D01*
X88068285Y-53658946D01*
X87500000Y-53545907D01*
X86931715Y-53658946D01*
X86449946Y-53980853D01*
X86422150Y-54022452D01*
X86413162Y-53974683D01*
X86274090Y-53758559D01*
X86061890Y-53613569D01*
X85810000Y-53562560D01*
X84110000Y-53562560D01*
X83874683Y-53606838D01*
X83658559Y-53745910D01*
X83513569Y-53958110D01*
X83462560Y-54210000D01*
X83462560Y-54429080D01*
X83322599Y-54522599D01*
X82962599Y-54882599D01*
X82797852Y-55129161D01*
X82740000Y-55420000D01*
X82740000Y-63366889D01*
X82665445Y-63441314D01*
X82515172Y-63803212D01*
X82514830Y-64195069D01*
X75710000Y-64195069D01*
X75710000Y-50262619D01*
X95104613Y-50262619D01*
X95444155Y-51084372D01*
X96072321Y-51713636D01*
X96893481Y-52054611D01*
X97782619Y-52055387D01*
X98604372Y-51715845D01*
X99233636Y-51087679D01*
X99574611Y-50266519D01*
X99575387Y-49377381D01*
X99235845Y-48555628D01*
X98607679Y-47926364D01*
X97786519Y-47585389D01*
X96897381Y-47584613D01*
X96075628Y-47924155D01*
X95446364Y-48552321D01*
X95105389Y-49373481D01*
X95104613Y-50262619D01*
X75710000Y-50262619D01*
X75710000Y-45710000D01*
X139290000Y-45710000D01*
X139290000Y-144290000D01*
X139290000Y-144290000D01*
G37*
X139290000Y-144290000D02*
X75710000Y-144290000D01*
X75710000Y-138252619D01*
X115094613Y-138252619D01*
X115434155Y-139074372D01*
X116062321Y-139703636D01*
X116883481Y-140044611D01*
X117772619Y-140045387D01*
X118594372Y-139705845D01*
X119223636Y-139077679D01*
X119564611Y-138256519D01*
X119565387Y-137367381D01*
X119225845Y-136545628D01*
X118597679Y-135916364D01*
X117776519Y-135575389D01*
X116887381Y-135574613D01*
X116065628Y-135914155D01*
X115436364Y-136542321D01*
X115095389Y-137363481D01*
X115094613Y-138252619D01*
X75710000Y-138252619D01*
X75710000Y-96502815D01*
X82264630Y-96502815D01*
X82588980Y-97287800D01*
X83189041Y-97888909D01*
X83973459Y-98214628D01*
X84822815Y-98215370D01*
X85607800Y-97891020D01*
X86208909Y-97290959D01*
X86534628Y-96506541D01*
X86535370Y-95657185D01*
X86211020Y-94872200D01*
X85610959Y-94271091D01*
X84826541Y-93945372D01*
X83977185Y-93944630D01*
X83192200Y-94268980D01*
X82591091Y-94869041D01*
X82265372Y-95653459D01*
X82264630Y-96502815D01*
X75710000Y-96502815D01*
X75710000Y-91908750D01*
X82265000Y-91908750D01*
X82265000Y-92626309D01*
X82361673Y-92859698D01*
X82540301Y-93038327D01*
X82773690Y-93135000D01*
X83491250Y-93135000D01*
X83650000Y-92976250D01*
X83650000Y-91750000D01*
X85150000Y-91750000D01*
X85150000Y-92976250D01*
X85308750Y-93135000D01*
X86026310Y-93135000D01*
X86259699Y-93038327D01*
X86438327Y-92859698D01*
X86535000Y-92626309D01*
X86535000Y-91908750D01*
X86376250Y-91750000D01*
X85150000Y-91750000D01*
X83650000Y-91750000D01*
X82423750Y-91750000D01*
X82265000Y-91908750D01*
X75710000Y-91908750D01*
X75710000Y-89373691D01*
X82265000Y-89373691D01*
X82265000Y-90091250D01*
X82423750Y-90250000D01*
X83650000Y-90250000D01*
X83650000Y-89023750D01*
X85150000Y-89023750D01*
X85150000Y-90250000D01*
X86376250Y-90250000D01*
X86535000Y-90091250D01*
X86535000Y-89373691D01*
X86438327Y-89140302D01*
X86259699Y-88961673D01*
X86026310Y-88865000D01*
X85308750Y-88865000D01*
X85150000Y-89023750D01*
X83650000Y-89023750D01*
X83491250Y-88865000D01*
X82773690Y-88865000D01*
X82540301Y-88961673D01*
X82361673Y-89140302D01*
X82265000Y-89373691D01*
X75710000Y-89373691D01*
X75710000Y-64195069D01*
X82514830Y-64195069D01*
X82664471Y-64557229D01*
X82941314Y-64834555D01*
X83303212Y-64984828D01*
X83695069Y-64985170D01*
X84057229Y-64835529D01*
X84334555Y-64558686D01*
X84484828Y-64196788D01*
X84485128Y-63852748D01*
X84803212Y-63984828D01*
X85195069Y-63985170D01*
X85557229Y-63835529D01*
X85834555Y-63558686D01*
X85984828Y-63196788D01*
X85985170Y-62804931D01*
X85835529Y-62442771D01*
X85760000Y-62367110D01*
X85760000Y-60184485D01*
X85784398Y-60220999D01*
X87153123Y-61589724D01*
X87153031Y-61695069D01*
X87302672Y-62057229D01*
X87579515Y-62334555D01*
X87941413Y-62484828D01*
X88333270Y-62485170D01*
X88695430Y-62335529D01*
X88972756Y-62058686D01*
X89003352Y-61985003D01*
X89195069Y-61985170D01*
X89557229Y-61835529D01*
X89834555Y-61558686D01*
X89984828Y-61196788D01*
X89985170Y-60804931D01*
X89835529Y-60442771D01*
X89725740Y-60332790D01*
X89702148Y-60214187D01*
X89621799Y-60093936D01*
X89621799Y-59030908D01*
X90040000Y-59114093D01*
X90240000Y-59074310D01*
X90240000Y-59866889D01*
X90165445Y-59941314D01*
X90015172Y-60303212D01*
X90014830Y-60695069D01*
X90164471Y-61057229D01*
X90441314Y-61334555D01*
X90803212Y-61484828D01*
X91195069Y-61485170D01*
X91557229Y-61335529D01*
X91834555Y-61058686D01*
X91984828Y-60696788D01*
X91985128Y-60352748D01*
X92303212Y-60484828D01*
X92695069Y-60485170D01*
X93057229Y-60335529D01*
X93334555Y-60058686D01*
X93431644Y-59824869D01*
X93441314Y-59834555D01*
X93803212Y-59984828D01*
X94195069Y-59985170D01*
X94360000Y-59917022D01*
X94360000Y-68747098D01*
X94165445Y-68941314D01*
X94015172Y-69303212D01*
X94014830Y-69695069D01*
X94164471Y-70057229D01*
X94441314Y-70334555D01*
X94803212Y-70484828D01*
X95195069Y-70485170D01*
X95557229Y-70335529D01*
X95740000Y-70153076D01*
X95740000Y-93140000D01*
X95797852Y-93430839D01*
X95962599Y-93677401D01*
X97038229Y-94753031D01*
X96975000Y-95070907D01*
X96975000Y-95129093D01*
X97088039Y-95697378D01*
X97409946Y-96179147D01*
X97700000Y-96372954D01*
X97700000Y-117406819D01*
X97665445Y-117441314D01*
X97515172Y-117803212D01*
X97514830Y-118195069D01*
X97664471Y-118557229D01*
X97941314Y-118834555D01*
X98303212Y-118984828D01*
X98695069Y-118985170D01*
X99057229Y-118835529D01*
X99334555Y-118558686D01*
X99484828Y-118196788D01*
X99485013Y-117984987D01*
X99695069Y-117985170D01*
X100057229Y-117835529D01*
X100334555Y-117558686D01*
X100484828Y-117196788D01*
X100485128Y-116852748D01*
X100803212Y-116984828D01*
X101195069Y-116985170D01*
X101557229Y-116835529D01*
X101834555Y-116558686D01*
X101984828Y-116196788D01*
X101985170Y-115804931D01*
X101835529Y-115442771D01*
X101760000Y-115367110D01*
X101760000Y-96372954D01*
X102050054Y-96179147D01*
X102270000Y-95849974D01*
X102489946Y-96179147D01*
X102780000Y-96372954D01*
X102780000Y-119326959D01*
X102665445Y-119441314D01*
X102515172Y-119803212D01*
X102514830Y-120195069D01*
X102664471Y-120557229D01*
X102941314Y-120834555D01*
X103303212Y-120984828D01*
X103647252Y-120985128D01*
X103515172Y-121303212D01*
X103514830Y-121695069D01*
X103664471Y-122057229D01*
X103728929Y-122121799D01*
X96200341Y-122121799D01*
X95862939Y-121784397D01*
X95616377Y-121619650D01*
X95325538Y-121561798D01*
X94674462Y-121561798D01*
X94383622Y-121619650D01*
X94137061Y-121784397D01*
X90800000Y-125121458D01*
X90800000Y-124093181D01*
X90834555Y-124058686D01*
X90984828Y-123696788D01*
X90985170Y-123304931D01*
X90835529Y-122942771D01*
X90558686Y-122665445D01*
X90196788Y-122515172D01*
X89804931Y-122514830D01*
X89442771Y-122664471D01*
X89165445Y-122941314D01*
X89015172Y-123303212D01*
X89014830Y-123695069D01*
X89164471Y-124057229D01*
X89280000Y-124172960D01*
X89280000Y-128787046D01*
X88989946Y-128980853D01*
X88770000Y-129310026D01*
X88550054Y-128980853D01*
X88260000Y-128787046D01*
X88260000Y-123133111D01*
X88334555Y-123058686D01*
X88484828Y-122696788D01*
X88485170Y-122304931D01*
X88335529Y-121942771D01*
X88058686Y-121665445D01*
X87696788Y-121515172D01*
X87304931Y-121514830D01*
X86984871Y-121647076D01*
X86985170Y-121304931D01*
X86835529Y-120942771D01*
X86558686Y-120665445D01*
X86196788Y-120515172D01*
X85852748Y-120514872D01*
X85984828Y-120196788D01*
X85985170Y-119804931D01*
X85835529Y-119442771D01*
X85558686Y-119165445D01*
X85196788Y-119015172D01*
X84804931Y-119014830D01*
X84442771Y-119164471D01*
X84165445Y-119441314D01*
X84015172Y-119803212D01*
X84014830Y-120195069D01*
X84164471Y-120557229D01*
X84240000Y-120632890D01*
X84240000Y-128562560D01*
X84110000Y-128562560D01*
X83874683Y-128606838D01*
X83658559Y-128745910D01*
X83513569Y-128958110D01*
X83462560Y-129210000D01*
X83462560Y-130910000D01*
X83506838Y-131145317D01*
X83645910Y-131361441D01*
X83858110Y-131506431D01*
X83914454Y-131517841D01*
X83909946Y-131520853D01*
X83588039Y-132002622D01*
X83475000Y-132570907D01*
X83475000Y-132629093D01*
X83588039Y-133197378D01*
X83909946Y-133679147D01*
X84391715Y-134001054D01*
X84960000Y-134114093D01*
X85528285Y-134001054D01*
X86010054Y-133679147D01*
X86230000Y-133349974D01*
X86449946Y-133679147D01*
X86931715Y-134001054D01*
X87500000Y-134114093D01*
X88068285Y-134001054D01*
X88550054Y-133679147D01*
X88770000Y-133349974D01*
X88989946Y-133679147D01*
X89471715Y-134001054D01*
X90040000Y-134114093D01*
X90608285Y-134001054D01*
X91090054Y-133679147D01*
X91310000Y-133349974D01*
X91529946Y-133679147D01*
X92011715Y-134001054D01*
X92580000Y-134114093D01*
X93148285Y-134001054D01*
X93630054Y-133679147D01*
X93850000Y-133349974D01*
X94069946Y-133679147D01*
X94551715Y-134001054D01*
X95120000Y-134114093D01*
X95688285Y-134001054D01*
X96170054Y-133679147D01*
X96390000Y-133349974D01*
X96609946Y-133679147D01*
X97091715Y-134001054D01*
X97660000Y-134114093D01*
X98228285Y-134001054D01*
X98710054Y-133679147D01*
X98930000Y-133349974D01*
X99149946Y-133679147D01*
X99631715Y-134001054D01*
X100200000Y-134114093D01*
X100768285Y-134001054D01*
X101250054Y-133679147D01*
X101470000Y-133349974D01*
X101689946Y-133679147D01*
X102171715Y-134001054D01*
X102740000Y-134114093D01*
X103308285Y-134001054D01*
X103790054Y-133679147D01*
X104111961Y-133197378D01*
X104225000Y-132629093D01*
X104225000Y-132570907D01*
X104111961Y-132002622D01*
X103806188Y-131545000D01*
X103883002Y-131545000D01*
X103883002Y-130963483D01*
X104078915Y-130702361D01*
X104004168Y-130485000D01*
X103165000Y-130485000D01*
X103165000Y-130910000D01*
X102315000Y-130910000D01*
X102315000Y-130485000D01*
X101475832Y-130485000D01*
X101470000Y-130501959D01*
X101464168Y-130485000D01*
X100625000Y-130485000D01*
X100625000Y-130910000D01*
X99775000Y-130910000D01*
X99775000Y-130485000D01*
X98935832Y-130485000D01*
X98930000Y-130501959D01*
X98924168Y-130485000D01*
X98085000Y-130485000D01*
X98085000Y-130910000D01*
X97235000Y-130910000D01*
X97235000Y-130485000D01*
X97058201Y-130485000D01*
X97058201Y-129635000D01*
X97235000Y-129635000D01*
X97235000Y-128803690D01*
X98085000Y-128803690D01*
X98085000Y-129635000D01*
X98924168Y-129635000D01*
X98930000Y-129618041D01*
X98935832Y-129635000D01*
X99775000Y-129635000D01*
X99775000Y-128803690D01*
X100625000Y-128803690D01*
X100625000Y-129635000D01*
X101464168Y-129635000D01*
X101470000Y-129618041D01*
X101475832Y-129635000D01*
X102315000Y-129635000D01*
X102315000Y-128803690D01*
X103165000Y-128803690D01*
X103165000Y-129635000D01*
X104004168Y-129635000D01*
X104078915Y-129417639D01*
X103731175Y-128954155D01*
X103382356Y-128721119D01*
X103165000Y-128803690D01*
X102315000Y-128803690D01*
X102097644Y-128721119D01*
X101748825Y-128954155D01*
X101470000Y-129325786D01*
X101191175Y-128954155D01*
X100842356Y-128721119D01*
X100625000Y-128803690D01*
X99775000Y-128803690D01*
X99557644Y-128721119D01*
X99208825Y-128954155D01*
X98930000Y-129325786D01*
X98651175Y-128954155D01*
X98302356Y-128721119D01*
X98085000Y-128803690D01*
X97235000Y-128803690D01*
X97058201Y-128736526D01*
X97058201Y-128553081D01*
X97162496Y-128448786D01*
X97327243Y-128202224D01*
X97350810Y-128083748D01*
X97459650Y-127975097D01*
X97609923Y-127613199D01*
X97610265Y-127221342D01*
X97537474Y-127045173D01*
X97782619Y-127045387D01*
X98604372Y-126705845D01*
X99233636Y-126077679D01*
X99574611Y-125256519D01*
X99575387Y-124367381D01*
X99275582Y-123641799D01*
X109066454Y-123641799D01*
X109164471Y-123879019D01*
X109441314Y-124156345D01*
X109803212Y-124306618D01*
X110195069Y-124306960D01*
X110557229Y-124157319D01*
X110834555Y-123880476D01*
X110984828Y-123518578D01*
X110985170Y-123126721D01*
X110835529Y-122764561D01*
X110725740Y-122654580D01*
X110702148Y-122535977D01*
X110558201Y-122320544D01*
X110558201Y-96478661D01*
X110591715Y-96501054D01*
X111160000Y-96614093D01*
X111728285Y-96501054D01*
X112210054Y-96179147D01*
X112430000Y-95849974D01*
X112649946Y-96179147D01*
X112940000Y-96372954D01*
X112940000Y-112616162D01*
X112696788Y-112515172D01*
X112304931Y-112514830D01*
X111942771Y-112664471D01*
X111665445Y-112941314D01*
X111515172Y-113303212D01*
X111514830Y-113695069D01*
X111664471Y-114057229D01*
X111774260Y-114167210D01*
X111797852Y-114285813D01*
X111962599Y-114532375D01*
X113079212Y-115648988D01*
X113015172Y-115803212D01*
X113014987Y-116015013D01*
X112804931Y-116014830D01*
X112442771Y-116164471D01*
X112165445Y-116441314D01*
X112015172Y-116803212D01*
X112014987Y-117015013D01*
X111804931Y-117014830D01*
X111442771Y-117164471D01*
X111165445Y-117441314D01*
X111015172Y-117803212D01*
X111014830Y-118195069D01*
X111164471Y-118557229D01*
X111240000Y-118632890D01*
X111240000Y-128562560D01*
X111110000Y-128562560D01*
X110874683Y-128606838D01*
X110658559Y-128745910D01*
X110513569Y-128958110D01*
X110462560Y-129210000D01*
X110462560Y-130910000D01*
X110506838Y-131145317D01*
X110645910Y-131361441D01*
X110858110Y-131506431D01*
X110914454Y-131517841D01*
X110909946Y-131520853D01*
X110588039Y-132002622D01*
X110475000Y-132570907D01*
X110475000Y-132629093D01*
X110588039Y-133197378D01*
X110909946Y-133679147D01*
X111391715Y-134001054D01*
X111960000Y-134114093D01*
X112528285Y-134001054D01*
X113010054Y-133679147D01*
X113230000Y-133349974D01*
X113449946Y-133679147D01*
X113931715Y-134001054D01*
X114500000Y-134114093D01*
X115068285Y-134001054D01*
X115550054Y-133679147D01*
X115770000Y-133349974D01*
X115989946Y-133679147D01*
X116471715Y-134001054D01*
X117040000Y-134114093D01*
X117608285Y-134001054D01*
X118090054Y-133679147D01*
X118310000Y-133349974D01*
X118529946Y-133679147D01*
X119011715Y-134001054D01*
X119580000Y-134114093D01*
X120148285Y-134001054D01*
X120630054Y-133679147D01*
X120850000Y-133349974D01*
X121069946Y-133679147D01*
X121551715Y-134001054D01*
X122120000Y-134114093D01*
X122688285Y-134001054D01*
X123170054Y-133679147D01*
X123390000Y-133349974D01*
X123609946Y-133679147D01*
X124091715Y-134001054D01*
X124660000Y-134114093D01*
X125228285Y-134001054D01*
X125710054Y-133679147D01*
X125930000Y-133349974D01*
X126149946Y-133679147D01*
X126631715Y-134001054D01*
X127200000Y-134114093D01*
X127768285Y-134001054D01*
X128250054Y-133679147D01*
X128470000Y-133349974D01*
X128689946Y-133679147D01*
X129171715Y-134001054D01*
X129740000Y-134114093D01*
X130308285Y-134001054D01*
X130790054Y-133679147D01*
X131111961Y-133197378D01*
X131225000Y-132629093D01*
X131225000Y-132570907D01*
X131111961Y-132002622D01*
X130806188Y-131545000D01*
X130883002Y-131545000D01*
X130883002Y-130963483D01*
X131078915Y-130702361D01*
X131004168Y-130485000D01*
X130165000Y-130485000D01*
X130165000Y-130910000D01*
X129315000Y-130910000D01*
X129315000Y-130485000D01*
X128475832Y-130485000D01*
X128470000Y-130501959D01*
X128464168Y-130485000D01*
X127625000Y-130485000D01*
X127625000Y-130910000D01*
X126775000Y-130910000D01*
X126775000Y-130485000D01*
X125935832Y-130485000D01*
X125930000Y-130501959D01*
X125924168Y-130485000D01*
X125085000Y-130485000D01*
X125085000Y-130910000D01*
X124241799Y-130910000D01*
X124241799Y-128803690D01*
X125085000Y-128803690D01*
X125085000Y-129635000D01*
X125924168Y-129635000D01*
X125930000Y-129618041D01*
X125935832Y-129635000D01*
X126775000Y-129635000D01*
X126775000Y-128803690D01*
X127625000Y-128803690D01*
X127625000Y-129635000D01*
X128464168Y-129635000D01*
X128470000Y-129618041D01*
X128475832Y-129635000D01*
X129315000Y-129635000D01*
X129315000Y-128803690D01*
X130165000Y-128803690D01*
X130165000Y-129635000D01*
X131004168Y-129635000D01*
X131078915Y-129417639D01*
X130731175Y-128954155D01*
X130382356Y-128721119D01*
X130165000Y-128803690D01*
X129315000Y-128803690D01*
X129097644Y-128721119D01*
X128748825Y-128954155D01*
X128470000Y-129325786D01*
X128191175Y-128954155D01*
X127842356Y-128721119D01*
X127625000Y-128803690D01*
X126775000Y-128803690D01*
X126557644Y-128721119D01*
X126208825Y-128954155D01*
X125930000Y-129325786D01*
X125651175Y-128954155D01*
X125302356Y-128721119D01*
X125085000Y-128803690D01*
X124241799Y-128803690D01*
X124241799Y-127651280D01*
X124334555Y-127558686D01*
X124484828Y-127196788D01*
X124485170Y-126804931D01*
X124335529Y-126442771D01*
X124260000Y-126367110D01*
X124260000Y-124018201D01*
X124241799Y-123926699D01*
X124241799Y-97627000D01*
X131500000Y-97627000D01*
X131546159Y-97618315D01*
X131588553Y-97591035D01*
X131616994Y-97549410D01*
X131627000Y-97500000D01*
X131627000Y-94258778D01*
X131659384Y-94265336D01*
X133159384Y-94265336D01*
X133394701Y-94221058D01*
X133514875Y-94143728D01*
X133514830Y-94195069D01*
X133664471Y-94557229D01*
X133941314Y-94834555D01*
X134303212Y-94984828D01*
X134695069Y-94985170D01*
X135057229Y-94835529D01*
X135334555Y-94558686D01*
X135484828Y-94196788D01*
X135485170Y-93804931D01*
X135335529Y-93442771D01*
X135260000Y-93367110D01*
X135260000Y-88608512D01*
X135247426Y-88545297D01*
X135202148Y-88317672D01*
X135037401Y-88071111D01*
X133806824Y-86840534D01*
X133806824Y-86667896D01*
X133790830Y-86582896D01*
X134302099Y-86582896D01*
X134302104Y-86582897D01*
X134584588Y-86526706D01*
X134640779Y-86515529D01*
X134686226Y-86485162D01*
X134695069Y-86485170D01*
X135057229Y-86335529D01*
X135334555Y-86058686D01*
X135484828Y-85696788D01*
X135485170Y-85304931D01*
X135335529Y-84942771D01*
X135058686Y-84665445D01*
X134696788Y-84515172D01*
X134304931Y-84514830D01*
X133942771Y-84664471D01*
X133794087Y-84812896D01*
X133428004Y-84812896D01*
X133411274Y-84801465D01*
X133159384Y-84750456D01*
X131659384Y-84750456D01*
X131424067Y-84794734D01*
X131207943Y-84933806D01*
X131062953Y-85146006D01*
X131011944Y-85397896D01*
X131011944Y-85997896D01*
X131056222Y-86233213D01*
X131120062Y-86332424D01*
X131062953Y-86416006D01*
X131011944Y-86667896D01*
X131011944Y-87267896D01*
X131056222Y-87503213D01*
X131120062Y-87602424D01*
X131062953Y-87686006D01*
X131011944Y-87937896D01*
X131011944Y-88537896D01*
X131051458Y-88747896D01*
X130864186Y-88747896D01*
X128546785Y-86430495D01*
X128330902Y-86286247D01*
X128355815Y-86249786D01*
X128406824Y-85997896D01*
X128406824Y-85397896D01*
X128362546Y-85162579D01*
X128223474Y-84946455D01*
X128011274Y-84801465D01*
X127759384Y-84750456D01*
X126259384Y-84750456D01*
X126024067Y-84794734D01*
X125807943Y-84933806D01*
X125662953Y-85146006D01*
X125611944Y-85397896D01*
X125611944Y-85997896D01*
X125656222Y-86233213D01*
X125704447Y-86308157D01*
X122880000Y-83483710D01*
X122880000Y-70133111D01*
X122954555Y-70058686D01*
X123104828Y-69696788D01*
X123105170Y-69304931D01*
X122955529Y-68942771D01*
X122880000Y-68867110D01*
X122880000Y-58872954D01*
X123170054Y-58679147D01*
X123390000Y-58349974D01*
X123609946Y-58679147D01*
X124091715Y-59001054D01*
X124660000Y-59114093D01*
X125228285Y-59001054D01*
X125710054Y-58679147D01*
X125930000Y-58349974D01*
X126149946Y-58679147D01*
X126631715Y-59001054D01*
X127200000Y-59114093D01*
X127768285Y-59001054D01*
X128250054Y-58679147D01*
X128470000Y-58349974D01*
X128689946Y-58679147D01*
X129171715Y-59001054D01*
X129740000Y-59114093D01*
X130308285Y-59001054D01*
X130790054Y-58679147D01*
X131111961Y-58197378D01*
X131225000Y-57629093D01*
X131225000Y-57570907D01*
X131111961Y-57002622D01*
X130806188Y-56545000D01*
X130883002Y-56545000D01*
X130883002Y-55963483D01*
X131078915Y-55702361D01*
X131004168Y-55485000D01*
X130165000Y-55485000D01*
X130165000Y-55910000D01*
X129315000Y-55910000D01*
X129315000Y-55485000D01*
X128475832Y-55485000D01*
X128470000Y-55501959D01*
X128464168Y-55485000D01*
X127625000Y-55485000D01*
X127625000Y-55910000D01*
X126775000Y-55910000D01*
X126775000Y-55485000D01*
X125935832Y-55485000D01*
X125930000Y-55501959D01*
X125924168Y-55485000D01*
X125085000Y-55485000D01*
X125085000Y-55910000D01*
X124235000Y-55910000D01*
X124235000Y-55485000D01*
X123810000Y-55485000D01*
X123810000Y-54635000D01*
X124235000Y-54635000D01*
X124235000Y-53803690D01*
X125085000Y-53803690D01*
X125085000Y-54635000D01*
X125924168Y-54635000D01*
X125930000Y-54618041D01*
X125935832Y-54635000D01*
X126775000Y-54635000D01*
X126775000Y-53803690D01*
X127625000Y-53803690D01*
X127625000Y-54635000D01*
X128464168Y-54635000D01*
X128470000Y-54618041D01*
X128475832Y-54635000D01*
X129315000Y-54635000D01*
X129315000Y-53803690D01*
X130165000Y-53803690D01*
X130165000Y-54635000D01*
X131004168Y-54635000D01*
X131078915Y-54417639D01*
X130731175Y-53954155D01*
X130382356Y-53721119D01*
X130165000Y-53803690D01*
X129315000Y-53803690D01*
X129097644Y-53721119D01*
X128748825Y-53954155D01*
X128470000Y-54325786D01*
X128191175Y-53954155D01*
X127842356Y-53721119D01*
X127625000Y-53803690D01*
X126775000Y-53803690D01*
X126557644Y-53721119D01*
X126208825Y-53954155D01*
X125930000Y-54325786D01*
X125651175Y-53954155D01*
X125302356Y-53721119D01*
X125085000Y-53803690D01*
X124235000Y-53803690D01*
X124017644Y-53721119D01*
X123724443Y-53916998D01*
X123175000Y-53916998D01*
X123175000Y-53988255D01*
X123170054Y-53980853D01*
X122688285Y-53658946D01*
X122120000Y-53545907D01*
X121551715Y-53658946D01*
X121069946Y-53980853D01*
X120850000Y-54310026D01*
X120630054Y-53980853D01*
X120148285Y-53658946D01*
X119580000Y-53545907D01*
X119011715Y-53658946D01*
X118529946Y-53980853D01*
X118310000Y-54310026D01*
X118090054Y-53980853D01*
X117608285Y-53658946D01*
X117040000Y-53545907D01*
X116471715Y-53658946D01*
X115989946Y-53980853D01*
X115770000Y-54310026D01*
X115550054Y-53980853D01*
X115068285Y-53658946D01*
X114500000Y-53545907D01*
X113931715Y-53658946D01*
X113449946Y-53980853D01*
X113422150Y-54022452D01*
X113413162Y-53974683D01*
X113274090Y-53758559D01*
X113061890Y-53613569D01*
X112810000Y-53562560D01*
X111110000Y-53562560D01*
X110874683Y-53606838D01*
X110658559Y-53745910D01*
X110513569Y-53958110D01*
X110462560Y-54210000D01*
X110462560Y-54429080D01*
X110322599Y-54522599D01*
X108962599Y-55882599D01*
X108797852Y-56129161D01*
X108740000Y-56420000D01*
X108740000Y-59508892D01*
X108696788Y-59490949D01*
X108304931Y-59490607D01*
X107942771Y-59640248D01*
X107665445Y-59917091D01*
X107557176Y-60177832D01*
X107536290Y-60169159D01*
X107144433Y-60168817D01*
X106782273Y-60318458D01*
X106504947Y-60595301D01*
X106354674Y-60957199D01*
X106354332Y-61349056D01*
X106503973Y-61711216D01*
X106579502Y-61786877D01*
X106579502Y-91145264D01*
X106080000Y-91045907D01*
X105661799Y-91129092D01*
X105661799Y-62080009D01*
X105640176Y-61971303D01*
X105603947Y-61789169D01*
X105485058Y-61611240D01*
X105485170Y-61483141D01*
X105335529Y-61120981D01*
X105058686Y-60843655D01*
X104696788Y-60693382D01*
X104304931Y-60693040D01*
X103942771Y-60842681D01*
X103665445Y-61119524D01*
X103515172Y-61481422D01*
X103514830Y-61873279D01*
X103573414Y-62015064D01*
X103304931Y-62014830D01*
X102942771Y-62164471D01*
X102665445Y-62441314D01*
X102515172Y-62803212D01*
X102514987Y-63015013D01*
X102304931Y-63014830D01*
X101942771Y-63164471D01*
X101665445Y-63441314D01*
X101515172Y-63803212D01*
X101514830Y-64195069D01*
X101601799Y-64405551D01*
X101601799Y-91181339D01*
X101568285Y-91158946D01*
X101000000Y-91045907D01*
X100581799Y-91129092D01*
X100581799Y-68811002D01*
X100834555Y-68558686D01*
X100984828Y-68196788D01*
X100985170Y-67804931D01*
X100835529Y-67442771D01*
X100558686Y-67165445D01*
X100196788Y-67015172D01*
X99804931Y-67014830D01*
X99442771Y-67164471D01*
X99220000Y-67386854D01*
X99220000Y-67173041D01*
X99334555Y-67058686D01*
X99484828Y-66696788D01*
X99485170Y-66304931D01*
X99335529Y-65942771D01*
X99058686Y-65665445D01*
X98696788Y-65515172D01*
X98304931Y-65514830D01*
X97942771Y-65664471D01*
X97665445Y-65941314D01*
X97515172Y-66303212D01*
X97514830Y-66695069D01*
X97664471Y-67057229D01*
X97700000Y-67092820D01*
X97700000Y-91062560D01*
X97610000Y-91062560D01*
X97374683Y-91106838D01*
X97260000Y-91180634D01*
X97260000Y-65633111D01*
X97334555Y-65558686D01*
X97484828Y-65196788D01*
X97485170Y-64804931D01*
X97335529Y-64442771D01*
X97058686Y-64165445D01*
X96696788Y-64015172D01*
X96304931Y-64014830D01*
X95942771Y-64164471D01*
X95880000Y-64227133D01*
X95880000Y-58872954D01*
X96170054Y-58679147D01*
X96390000Y-58349974D01*
X96609946Y-58679147D01*
X97091715Y-59001054D01*
X97660000Y-59114093D01*
X98228285Y-59001054D01*
X98710054Y-58679147D01*
X98930000Y-58349974D01*
X99149946Y-58679147D01*
X99631715Y-59001054D01*
X100200000Y-59114093D01*
X100768285Y-59001054D01*
X101250054Y-58679147D01*
X101470000Y-58349974D01*
X101689946Y-58679147D01*
X102171715Y-59001054D01*
X102740000Y-59114093D01*
X103308285Y-59001054D01*
X103790054Y-58679147D01*
X104111961Y-58197378D01*
X104225000Y-57629093D01*
X104225000Y-57570907D01*
X104111961Y-57002622D01*
X103806188Y-56545000D01*
X103883002Y-56545000D01*
X103883002Y-55963483D01*
X104078915Y-55702361D01*
X104004168Y-55485000D01*
X103165000Y-55485000D01*
X103165000Y-55910000D01*
X102315000Y-55910000D01*
X102315000Y-55485000D01*
X101475832Y-55485000D01*
X101470000Y-55501959D01*
X101464168Y-55485000D01*
X100625000Y-55485000D01*
X100625000Y-55910000D01*
X99775000Y-55910000D01*
X99775000Y-55485000D01*
X98935832Y-55485000D01*
X98930000Y-55501959D01*
X98924168Y-55485000D01*
X98085000Y-55485000D01*
X98085000Y-55910000D01*
X97235000Y-55910000D01*
X97235000Y-55485000D01*
X96810000Y-55485000D01*
X96810000Y-54635000D01*
X97235000Y-54635000D01*
X97235000Y-53803690D01*
X98085000Y-53803690D01*
X98085000Y-54635000D01*
X98924168Y-54635000D01*
X98930000Y-54618041D01*
X98935832Y-54635000D01*
X99775000Y-54635000D01*
X99775000Y-53803690D01*
X100625000Y-53803690D01*
X100625000Y-54635000D01*
X101464168Y-54635000D01*
X101470000Y-54618041D01*
X101475832Y-54635000D01*
X102315000Y-54635000D01*
X102315000Y-53803690D01*
X103165000Y-53803690D01*
X103165000Y-54635000D01*
X104004168Y-54635000D01*
X104078915Y-54417639D01*
X103731175Y-53954155D01*
X103382356Y-53721119D01*
X103165000Y-53803690D01*
X102315000Y-53803690D01*
X102097644Y-53721119D01*
X101748825Y-53954155D01*
X101470000Y-54325786D01*
X101191175Y-53954155D01*
X100842356Y-53721119D01*
X100625000Y-53803690D01*
X99775000Y-53803690D01*
X99557644Y-53721119D01*
X99208825Y-53954155D01*
X98930000Y-54325786D01*
X98651175Y-53954155D01*
X98302356Y-53721119D01*
X98085000Y-53803690D01*
X97235000Y-53803690D01*
X97017644Y-53721119D01*
X96724443Y-53916998D01*
X96175000Y-53916998D01*
X96175000Y-53988255D01*
X96170054Y-53980853D01*
X95688285Y-53658946D01*
X95120000Y-53545907D01*
X94551715Y-53658946D01*
X94069946Y-53980853D01*
X93850000Y-54310026D01*
X93630054Y-53980853D01*
X93148285Y-53658946D01*
X92580000Y-53545907D01*
X92011715Y-53658946D01*
X91529946Y-53980853D01*
X91310000Y-54310026D01*
X91090054Y-53980853D01*
X90608285Y-53658946D01*
X90040000Y-53545907D01*
X89471715Y-53658946D01*
X88989946Y-53980853D01*
X88770000Y-54310026D01*
X88550054Y-53980853D01*
X88068285Y-53658946D01*
X87500000Y-53545907D01*
X86931715Y-53658946D01*
X86449946Y-53980853D01*
X86422150Y-54022452D01*
X86413162Y-53974683D01*
X86274090Y-53758559D01*
X86061890Y-53613569D01*
X85810000Y-53562560D01*
X84110000Y-53562560D01*
X83874683Y-53606838D01*
X83658559Y-53745910D01*
X83513569Y-53958110D01*
X83462560Y-54210000D01*
X83462560Y-54429080D01*
X83322599Y-54522599D01*
X82962599Y-54882599D01*
X82797852Y-55129161D01*
X82740000Y-55420000D01*
X82740000Y-63366889D01*
X82665445Y-63441314D01*
X82515172Y-63803212D01*
X82514830Y-64195069D01*
X75710000Y-64195069D01*
X75710000Y-50262619D01*
X95104613Y-50262619D01*
X95444155Y-51084372D01*
X96072321Y-51713636D01*
X96893481Y-52054611D01*
X97782619Y-52055387D01*
X98604372Y-51715845D01*
X99233636Y-51087679D01*
X99574611Y-50266519D01*
X99575387Y-49377381D01*
X99235845Y-48555628D01*
X98607679Y-47926364D01*
X97786519Y-47585389D01*
X96897381Y-47584613D01*
X96075628Y-47924155D01*
X95446364Y-48552321D01*
X95105389Y-49373481D01*
X95104613Y-50262619D01*
X75710000Y-50262619D01*
X75710000Y-45710000D01*
X139290000Y-45710000D01*
X139290000Y-144290000D01*
G36*
X118529946Y-58679147D02*
X118820000Y-58872954D01*
X118820000Y-59286889D01*
X118745445Y-59361314D01*
X118595172Y-59723212D01*
X118594830Y-60115069D01*
X118744471Y-60477229D01*
X119021314Y-60754555D01*
X119383212Y-60904828D01*
X119775069Y-60905170D01*
X120137229Y-60755529D01*
X120414555Y-60478686D01*
X120469537Y-60346274D01*
X120803212Y-60484828D01*
X121195069Y-60485170D01*
X121360000Y-60417022D01*
X121360000Y-68866889D01*
X121285445Y-68941314D01*
X121135172Y-69303212D01*
X121134830Y-69695069D01*
X121284471Y-70057229D01*
X121360000Y-70132890D01*
X121360000Y-83798512D01*
X121417852Y-84089351D01*
X121582599Y-84335913D01*
X124544265Y-87297579D01*
X123767823Y-88119695D01*
X123662386Y-88119695D01*
X123371547Y-88177547D01*
X123124985Y-88342294D01*
X117352688Y-94114591D01*
X117290054Y-94020853D01*
X117006899Y-93831655D01*
X117006924Y-93831645D01*
X117435183Y-93441358D01*
X117681486Y-92916892D01*
X117560819Y-92687000D01*
X116367000Y-92687000D01*
X116367000Y-92707000D01*
X116113000Y-92707000D01*
X116113000Y-92687000D01*
X116093000Y-92687000D01*
X116093000Y-92433000D01*
X116113000Y-92433000D01*
X116113000Y-91239845D01*
X116367000Y-91239845D01*
X116367000Y-92433000D01*
X117560819Y-92433000D01*
X117681486Y-92203108D01*
X117435183Y-91678642D01*
X117006924Y-91288355D01*
X116596890Y-91118524D01*
X116367000Y-91239845D01*
X116113000Y-91239845D01*
X115883110Y-91118524D01*
X115473076Y-91288355D01*
X115044817Y-91678642D01*
X114977702Y-91821553D01*
X114750054Y-91480853D01*
X114460000Y-91287046D01*
X114460000Y-63433878D01*
X114618516Y-63592671D01*
X114980414Y-63742944D01*
X115301459Y-63743224D01*
X115434155Y-64064372D01*
X116062321Y-64693636D01*
X116883481Y-65034611D01*
X117772619Y-65035387D01*
X118594372Y-64695845D01*
X119223636Y-64067679D01*
X119564611Y-63246519D01*
X119565387Y-62357381D01*
X119225845Y-61535628D01*
X118597679Y-60906364D01*
X117984867Y-60651903D01*
X117985170Y-60304931D01*
X117835529Y-59942771D01*
X117800000Y-59907180D01*
X117800000Y-58872954D01*
X118090054Y-58679147D01*
X118310000Y-58349974D01*
X118529946Y-58679147D01*
X118529946Y-58679147D01*
G37*
X118529946Y-58679147D02*
X118820000Y-58872954D01*
X118820000Y-59286889D01*
X118745445Y-59361314D01*
X118595172Y-59723212D01*
X118594830Y-60115069D01*
X118744471Y-60477229D01*
X119021314Y-60754555D01*
X119383212Y-60904828D01*
X119775069Y-60905170D01*
X120137229Y-60755529D01*
X120414555Y-60478686D01*
X120469537Y-60346274D01*
X120803212Y-60484828D01*
X121195069Y-60485170D01*
X121360000Y-60417022D01*
X121360000Y-68866889D01*
X121285445Y-68941314D01*
X121135172Y-69303212D01*
X121134830Y-69695069D01*
X121284471Y-70057229D01*
X121360000Y-70132890D01*
X121360000Y-83798512D01*
X121417852Y-84089351D01*
X121582599Y-84335913D01*
X124544265Y-87297579D01*
X123767823Y-88119695D01*
X123662386Y-88119695D01*
X123371547Y-88177547D01*
X123124985Y-88342294D01*
X117352688Y-94114591D01*
X117290054Y-94020853D01*
X117006899Y-93831655D01*
X117006924Y-93831645D01*
X117435183Y-93441358D01*
X117681486Y-92916892D01*
X117560819Y-92687000D01*
X116367000Y-92687000D01*
X116367000Y-92707000D01*
X116113000Y-92707000D01*
X116113000Y-92687000D01*
X116093000Y-92687000D01*
X116093000Y-92433000D01*
X116113000Y-92433000D01*
X116113000Y-91239845D01*
X116367000Y-91239845D01*
X116367000Y-92433000D01*
X117560819Y-92433000D01*
X117681486Y-92203108D01*
X117435183Y-91678642D01*
X117006924Y-91288355D01*
X116596890Y-91118524D01*
X116367000Y-91239845D01*
X116113000Y-91239845D01*
X115883110Y-91118524D01*
X115473076Y-91288355D01*
X115044817Y-91678642D01*
X114977702Y-91821553D01*
X114750054Y-91480853D01*
X114460000Y-91287046D01*
X114460000Y-63433878D01*
X114618516Y-63592671D01*
X114980414Y-63742944D01*
X115301459Y-63743224D01*
X115434155Y-64064372D01*
X116062321Y-64693636D01*
X116883481Y-65034611D01*
X117772619Y-65035387D01*
X118594372Y-64695845D01*
X119223636Y-64067679D01*
X119564611Y-63246519D01*
X119565387Y-62357381D01*
X119225845Y-61535628D01*
X118597679Y-60906364D01*
X117984867Y-60651903D01*
X117985170Y-60304931D01*
X117835529Y-59942771D01*
X117800000Y-59907180D01*
X117800000Y-58872954D01*
X118090054Y-58679147D01*
X118310000Y-58349974D01*
X118529946Y-58679147D01*
G36*
X114627000Y-57473000D02*
X114647000Y-57473000D01*
X114647000Y-57727000D01*
X114627000Y-57727000D01*
X114627000Y-57747000D01*
X114373000Y-57747000D01*
X114373000Y-57727000D01*
X114353000Y-57727000D01*
X114353000Y-57473000D01*
X114373000Y-57473000D01*
X114373000Y-57453000D01*
X114627000Y-57453000D01*
X114627000Y-57473000D01*
X114627000Y-57473000D01*
G37*
X114627000Y-57473000D02*
X114647000Y-57473000D01*
X114647000Y-57727000D01*
X114627000Y-57727000D01*
X114627000Y-57747000D01*
X114373000Y-57747000D01*
X114373000Y-57727000D01*
X114353000Y-57727000D01*
X114353000Y-57473000D01*
X114373000Y-57473000D01*
X114373000Y-57453000D01*
X114627000Y-57453000D01*
X114627000Y-57473000D01*
G36*
X125373000Y-91454020D02*
X124595710Y-92386768D01*
X122944398Y-94038080D01*
X122779651Y-94284642D01*
X122721799Y-94575481D01*
X122721799Y-126385058D01*
X122665445Y-126441314D01*
X122515172Y-126803212D01*
X122514830Y-127195069D01*
X122664471Y-127557229D01*
X122721799Y-127614657D01*
X122721799Y-128373000D01*
X122260000Y-128373000D01*
X122260000Y-124633111D01*
X122334555Y-124558686D01*
X122484828Y-124196788D01*
X122485170Y-123804931D01*
X122335529Y-123442771D01*
X122260000Y-123367110D01*
X122260000Y-114133111D01*
X122334555Y-114058686D01*
X122484828Y-113696788D01*
X122485170Y-113304931D01*
X122335529Y-112942771D01*
X122058686Y-112665445D01*
X121696788Y-112515172D01*
X121304931Y-112514830D01*
X120942771Y-112664471D01*
X120665445Y-112941314D01*
X120515172Y-113303212D01*
X120514830Y-113695069D01*
X120664471Y-114057229D01*
X120740000Y-114132890D01*
X120740000Y-123366889D01*
X120665445Y-123441314D01*
X120515172Y-123803212D01*
X120514830Y-124195069D01*
X120664471Y-124557229D01*
X120740000Y-124632890D01*
X120740000Y-128373000D01*
X119161799Y-128373000D01*
X119161799Y-127133111D01*
X119236354Y-127058686D01*
X119386627Y-126696788D01*
X119386969Y-126304931D01*
X119237328Y-125942771D01*
X119161799Y-125867110D01*
X119161799Y-115346200D01*
X119202148Y-115285814D01*
X119225715Y-115167337D01*
X119334555Y-115058686D01*
X119484828Y-114696788D01*
X119485170Y-114304931D01*
X119335529Y-113942771D01*
X119058686Y-113665445D01*
X118696788Y-113515172D01*
X118304931Y-113514830D01*
X117942771Y-113664471D01*
X117665445Y-113941314D01*
X117515172Y-114303212D01*
X117514830Y-114695069D01*
X117653993Y-115031871D01*
X117641799Y-115093175D01*
X117641799Y-121748703D01*
X117558686Y-121665445D01*
X117196788Y-121515172D01*
X116804931Y-121514830D01*
X116442771Y-121664471D01*
X116165445Y-121941314D01*
X116015172Y-122303212D01*
X116015027Y-122469106D01*
X115696788Y-122336962D01*
X115304931Y-122336620D01*
X114942771Y-122486261D01*
X114760000Y-122668714D01*
X114760000Y-116633111D01*
X114834555Y-116558686D01*
X114984828Y-116196788D01*
X114985170Y-115804931D01*
X114923314Y-115655226D01*
X115415602Y-115162938D01*
X115580349Y-114916376D01*
X115638201Y-114625537D01*
X115638201Y-97127000D01*
X116500000Y-97127000D01*
X116549410Y-97116994D01*
X116592844Y-97086654D01*
X117889140Y-95697765D01*
X117979482Y-95637401D01*
X123977188Y-89639695D01*
X125373000Y-89639695D01*
X125373000Y-91454020D01*
X125373000Y-91454020D01*
G37*
X125373000Y-91454020D02*
X124595710Y-92386768D01*
X122944398Y-94038080D01*
X122779651Y-94284642D01*
X122721799Y-94575481D01*
X122721799Y-126385058D01*
X122665445Y-126441314D01*
X122515172Y-126803212D01*
X122514830Y-127195069D01*
X122664471Y-127557229D01*
X122721799Y-127614657D01*
X122721799Y-128373000D01*
X122260000Y-128373000D01*
X122260000Y-124633111D01*
X122334555Y-124558686D01*
X122484828Y-124196788D01*
X122485170Y-123804931D01*
X122335529Y-123442771D01*
X122260000Y-123367110D01*
X122260000Y-114133111D01*
X122334555Y-114058686D01*
X122484828Y-113696788D01*
X122485170Y-113304931D01*
X122335529Y-112942771D01*
X122058686Y-112665445D01*
X121696788Y-112515172D01*
X121304931Y-112514830D01*
X120942771Y-112664471D01*
X120665445Y-112941314D01*
X120515172Y-113303212D01*
X120514830Y-113695069D01*
X120664471Y-114057229D01*
X120740000Y-114132890D01*
X120740000Y-123366889D01*
X120665445Y-123441314D01*
X120515172Y-123803212D01*
X120514830Y-124195069D01*
X120664471Y-124557229D01*
X120740000Y-124632890D01*
X120740000Y-128373000D01*
X119161799Y-128373000D01*
X119161799Y-127133111D01*
X119236354Y-127058686D01*
X119386627Y-126696788D01*
X119386969Y-126304931D01*
X119237328Y-125942771D01*
X119161799Y-125867110D01*
X119161799Y-115346200D01*
X119202148Y-115285814D01*
X119225715Y-115167337D01*
X119334555Y-115058686D01*
X119484828Y-114696788D01*
X119485170Y-114304931D01*
X119335529Y-113942771D01*
X119058686Y-113665445D01*
X118696788Y-113515172D01*
X118304931Y-113514830D01*
X117942771Y-113664471D01*
X117665445Y-113941314D01*
X117515172Y-114303212D01*
X117514830Y-114695069D01*
X117653993Y-115031871D01*
X117641799Y-115093175D01*
X117641799Y-121748703D01*
X117558686Y-121665445D01*
X117196788Y-121515172D01*
X116804931Y-121514830D01*
X116442771Y-121664471D01*
X116165445Y-121941314D01*
X116015172Y-122303212D01*
X116015027Y-122469106D01*
X115696788Y-122336962D01*
X115304931Y-122336620D01*
X114942771Y-122486261D01*
X114760000Y-122668714D01*
X114760000Y-116633111D01*
X114834555Y-116558686D01*
X114984828Y-116196788D01*
X114985170Y-115804931D01*
X114923314Y-115655226D01*
X115415602Y-115162938D01*
X115580349Y-114916376D01*
X115638201Y-114625537D01*
X115638201Y-97127000D01*
X116500000Y-97127000D01*
X116549410Y-97116994D01*
X116592844Y-97086654D01*
X117889140Y-95697765D01*
X117979482Y-95637401D01*
X123977188Y-89639695D01*
X125373000Y-89639695D01*
X125373000Y-91454020D01*
M02*
