G04 #@! TF.FileFunction,Soldermask,Bot*
%FSLAX46Y46*%
G04 Gerber Fmt 4.6, Leading zero omitted, Abs format (unit mm)*
G04 Created by KiCad (PCBNEW 4.0.7) date 2018 February 26, Monday 17:11:22*
%MOMM*%
%LPD*%
G01*
G04 APERTURE LIST*
%ADD10C,0.100000*%
%ADD11C,0.150000*%
G04 APERTURE END LIST*
D10*
D11*
X140000000Y-45000000D02*
X75000000Y-45000000D01*
X140000000Y-145000000D02*
X140000000Y-45000000D01*
X75000000Y-145000000D02*
X140000000Y-145000000D01*
X75000000Y-45000000D02*
X75000000Y-145000000D01*
D10*
G36*
X117503306Y-136161097D02*
X117820281Y-136226163D01*
X118118577Y-136351554D01*
X118386839Y-136532499D01*
X118614848Y-136762106D01*
X118793916Y-137031623D01*
X118917222Y-137330787D01*
X118980005Y-137647865D01*
X118980005Y-137647875D01*
X118980071Y-137648209D01*
X118974910Y-138017800D01*
X118974834Y-138018134D01*
X118974834Y-138018146D01*
X118903225Y-138333340D01*
X118771611Y-138628948D01*
X118585089Y-138893361D01*
X118350755Y-139116513D01*
X118077550Y-139289894D01*
X117775865Y-139406911D01*
X117457201Y-139463099D01*
X117133690Y-139456323D01*
X116817650Y-139386837D01*
X116521135Y-139257293D01*
X116255427Y-139072621D01*
X116030645Y-138839853D01*
X115855361Y-138567865D01*
X115736242Y-138267005D01*
X115677828Y-137948734D01*
X115682347Y-137625185D01*
X115749622Y-137308677D01*
X115877096Y-137011259D01*
X116059909Y-136744267D01*
X116291101Y-136517867D01*
X116561862Y-136340686D01*
X116861882Y-136219470D01*
X117179729Y-136158837D01*
X117503306Y-136161097D01*
X117503306Y-136161097D01*
G37*
G36*
X100380922Y-131714021D02*
X100380927Y-131714022D01*
X100380970Y-131714027D01*
X100548764Y-131765968D01*
X100703274Y-131849511D01*
X100838614Y-131961474D01*
X100949629Y-132097593D01*
X101032091Y-132252682D01*
X101082860Y-132420834D01*
X101100000Y-132595645D01*
X101100000Y-132604355D01*
X101099912Y-132616921D01*
X101080333Y-132791476D01*
X101027222Y-132958903D01*
X100942602Y-133112825D01*
X100829697Y-133247380D01*
X100692807Y-133357443D01*
X100537146Y-133438820D01*
X100368643Y-133488414D01*
X100368609Y-133488417D01*
X100368596Y-133488421D01*
X100193720Y-133504336D01*
X100019078Y-133485979D01*
X100019073Y-133485978D01*
X100019030Y-133485973D01*
X99851236Y-133434032D01*
X99696726Y-133350489D01*
X99561386Y-133238526D01*
X99450371Y-133102407D01*
X99367909Y-132947318D01*
X99317140Y-132779166D01*
X99300000Y-132604355D01*
X99300000Y-132595645D01*
X99300088Y-132583079D01*
X99319667Y-132408524D01*
X99372778Y-132241097D01*
X99457398Y-132087175D01*
X99570303Y-131952620D01*
X99707193Y-131842557D01*
X99862854Y-131761180D01*
X100031357Y-131711586D01*
X100031391Y-131711583D01*
X100031404Y-131711579D01*
X100206280Y-131695664D01*
X100380922Y-131714021D01*
X100380922Y-131714021D01*
G37*
G36*
X97840922Y-131714021D02*
X97840927Y-131714022D01*
X97840970Y-131714027D01*
X98008764Y-131765968D01*
X98163274Y-131849511D01*
X98298614Y-131961474D01*
X98409629Y-132097593D01*
X98492091Y-132252682D01*
X98542860Y-132420834D01*
X98560000Y-132595645D01*
X98560000Y-132604355D01*
X98559912Y-132616921D01*
X98540333Y-132791476D01*
X98487222Y-132958903D01*
X98402602Y-133112825D01*
X98289697Y-133247380D01*
X98152807Y-133357443D01*
X97997146Y-133438820D01*
X97828643Y-133488414D01*
X97828609Y-133488417D01*
X97828596Y-133488421D01*
X97653720Y-133504336D01*
X97479078Y-133485979D01*
X97479073Y-133485978D01*
X97479030Y-133485973D01*
X97311236Y-133434032D01*
X97156726Y-133350489D01*
X97021386Y-133238526D01*
X96910371Y-133102407D01*
X96827909Y-132947318D01*
X96777140Y-132779166D01*
X96760000Y-132604355D01*
X96760000Y-132595645D01*
X96760088Y-132583079D01*
X96779667Y-132408524D01*
X96832778Y-132241097D01*
X96917398Y-132087175D01*
X97030303Y-131952620D01*
X97167193Y-131842557D01*
X97322854Y-131761180D01*
X97491357Y-131711586D01*
X97491391Y-131711583D01*
X97491404Y-131711579D01*
X97666280Y-131695664D01*
X97840922Y-131714021D01*
X97840922Y-131714021D01*
G37*
G36*
X102920922Y-131714021D02*
X102920927Y-131714022D01*
X102920970Y-131714027D01*
X103088764Y-131765968D01*
X103243274Y-131849511D01*
X103378614Y-131961474D01*
X103489629Y-132097593D01*
X103572091Y-132252682D01*
X103622860Y-132420834D01*
X103640000Y-132595645D01*
X103640000Y-132604355D01*
X103639912Y-132616921D01*
X103620333Y-132791476D01*
X103567222Y-132958903D01*
X103482602Y-133112825D01*
X103369697Y-133247380D01*
X103232807Y-133357443D01*
X103077146Y-133438820D01*
X102908643Y-133488414D01*
X102908609Y-133488417D01*
X102908596Y-133488421D01*
X102733720Y-133504336D01*
X102559078Y-133485979D01*
X102559073Y-133485978D01*
X102559030Y-133485973D01*
X102391236Y-133434032D01*
X102236726Y-133350489D01*
X102101386Y-133238526D01*
X101990371Y-133102407D01*
X101907909Y-132947318D01*
X101857140Y-132779166D01*
X101840000Y-132604355D01*
X101840000Y-132595645D01*
X101840088Y-132583079D01*
X101859667Y-132408524D01*
X101912778Y-132241097D01*
X101997398Y-132087175D01*
X102110303Y-131952620D01*
X102247193Y-131842557D01*
X102402854Y-131761180D01*
X102571357Y-131711586D01*
X102571391Y-131711583D01*
X102571404Y-131711579D01*
X102746280Y-131695664D01*
X102920922Y-131714021D01*
X102920922Y-131714021D01*
G37*
G36*
X112140922Y-131714021D02*
X112140927Y-131714022D01*
X112140970Y-131714027D01*
X112308764Y-131765968D01*
X112463274Y-131849511D01*
X112598614Y-131961474D01*
X112709629Y-132097593D01*
X112792091Y-132252682D01*
X112842860Y-132420834D01*
X112860000Y-132595645D01*
X112860000Y-132604355D01*
X112859912Y-132616921D01*
X112840333Y-132791476D01*
X112787222Y-132958903D01*
X112702602Y-133112825D01*
X112589697Y-133247380D01*
X112452807Y-133357443D01*
X112297146Y-133438820D01*
X112128643Y-133488414D01*
X112128609Y-133488417D01*
X112128596Y-133488421D01*
X111953720Y-133504336D01*
X111779078Y-133485979D01*
X111779073Y-133485978D01*
X111779030Y-133485973D01*
X111611236Y-133434032D01*
X111456726Y-133350489D01*
X111321386Y-133238526D01*
X111210371Y-133102407D01*
X111127909Y-132947318D01*
X111077140Y-132779166D01*
X111060000Y-132604355D01*
X111060000Y-132595645D01*
X111060088Y-132583079D01*
X111079667Y-132408524D01*
X111132778Y-132241097D01*
X111217398Y-132087175D01*
X111330303Y-131952620D01*
X111467193Y-131842557D01*
X111622854Y-131761180D01*
X111791357Y-131711586D01*
X111791391Y-131711583D01*
X111791404Y-131711579D01*
X111966280Y-131695664D01*
X112140922Y-131714021D01*
X112140922Y-131714021D01*
G37*
G36*
X95300922Y-131714021D02*
X95300927Y-131714022D01*
X95300970Y-131714027D01*
X95468764Y-131765968D01*
X95623274Y-131849511D01*
X95758614Y-131961474D01*
X95869629Y-132097593D01*
X95952091Y-132252682D01*
X96002860Y-132420834D01*
X96020000Y-132595645D01*
X96020000Y-132604355D01*
X96019912Y-132616921D01*
X96000333Y-132791476D01*
X95947222Y-132958903D01*
X95862602Y-133112825D01*
X95749697Y-133247380D01*
X95612807Y-133357443D01*
X95457146Y-133438820D01*
X95288643Y-133488414D01*
X95288609Y-133488417D01*
X95288596Y-133488421D01*
X95113720Y-133504336D01*
X94939078Y-133485979D01*
X94939073Y-133485978D01*
X94939030Y-133485973D01*
X94771236Y-133434032D01*
X94616726Y-133350489D01*
X94481386Y-133238526D01*
X94370371Y-133102407D01*
X94287909Y-132947318D01*
X94237140Y-132779166D01*
X94220000Y-132604355D01*
X94220000Y-132595645D01*
X94220088Y-132583079D01*
X94239667Y-132408524D01*
X94292778Y-132241097D01*
X94377398Y-132087175D01*
X94490303Y-131952620D01*
X94627193Y-131842557D01*
X94782854Y-131761180D01*
X94951357Y-131711586D01*
X94951391Y-131711583D01*
X94951404Y-131711579D01*
X95126280Y-131695664D01*
X95300922Y-131714021D01*
X95300922Y-131714021D01*
G37*
G36*
X92760922Y-131714021D02*
X92760927Y-131714022D01*
X92760970Y-131714027D01*
X92928764Y-131765968D01*
X93083274Y-131849511D01*
X93218614Y-131961474D01*
X93329629Y-132097593D01*
X93412091Y-132252682D01*
X93462860Y-132420834D01*
X93480000Y-132595645D01*
X93480000Y-132604355D01*
X93479912Y-132616921D01*
X93460333Y-132791476D01*
X93407222Y-132958903D01*
X93322602Y-133112825D01*
X93209697Y-133247380D01*
X93072807Y-133357443D01*
X92917146Y-133438820D01*
X92748643Y-133488414D01*
X92748609Y-133488417D01*
X92748596Y-133488421D01*
X92573720Y-133504336D01*
X92399078Y-133485979D01*
X92399073Y-133485978D01*
X92399030Y-133485973D01*
X92231236Y-133434032D01*
X92076726Y-133350489D01*
X91941386Y-133238526D01*
X91830371Y-133102407D01*
X91747909Y-132947318D01*
X91697140Y-132779166D01*
X91680000Y-132604355D01*
X91680000Y-132595645D01*
X91680088Y-132583079D01*
X91699667Y-132408524D01*
X91752778Y-132241097D01*
X91837398Y-132087175D01*
X91950303Y-131952620D01*
X92087193Y-131842557D01*
X92242854Y-131761180D01*
X92411357Y-131711586D01*
X92411391Y-131711583D01*
X92411404Y-131711579D01*
X92586280Y-131695664D01*
X92760922Y-131714021D01*
X92760922Y-131714021D01*
G37*
G36*
X90220922Y-131714021D02*
X90220927Y-131714022D01*
X90220970Y-131714027D01*
X90388764Y-131765968D01*
X90543274Y-131849511D01*
X90678614Y-131961474D01*
X90789629Y-132097593D01*
X90872091Y-132252682D01*
X90922860Y-132420834D01*
X90940000Y-132595645D01*
X90940000Y-132604355D01*
X90939912Y-132616921D01*
X90920333Y-132791476D01*
X90867222Y-132958903D01*
X90782602Y-133112825D01*
X90669697Y-133247380D01*
X90532807Y-133357443D01*
X90377146Y-133438820D01*
X90208643Y-133488414D01*
X90208609Y-133488417D01*
X90208596Y-133488421D01*
X90033720Y-133504336D01*
X89859078Y-133485979D01*
X89859073Y-133485978D01*
X89859030Y-133485973D01*
X89691236Y-133434032D01*
X89536726Y-133350489D01*
X89401386Y-133238526D01*
X89290371Y-133102407D01*
X89207909Y-132947318D01*
X89157140Y-132779166D01*
X89140000Y-132604355D01*
X89140000Y-132595645D01*
X89140088Y-132583079D01*
X89159667Y-132408524D01*
X89212778Y-132241097D01*
X89297398Y-132087175D01*
X89410303Y-131952620D01*
X89547193Y-131842557D01*
X89702854Y-131761180D01*
X89871357Y-131711586D01*
X89871391Y-131711583D01*
X89871404Y-131711579D01*
X90046280Y-131695664D01*
X90220922Y-131714021D01*
X90220922Y-131714021D01*
G37*
G36*
X87680922Y-131714021D02*
X87680927Y-131714022D01*
X87680970Y-131714027D01*
X87848764Y-131765968D01*
X88003274Y-131849511D01*
X88138614Y-131961474D01*
X88249629Y-132097593D01*
X88332091Y-132252682D01*
X88382860Y-132420834D01*
X88400000Y-132595645D01*
X88400000Y-132604355D01*
X88399912Y-132616921D01*
X88380333Y-132791476D01*
X88327222Y-132958903D01*
X88242602Y-133112825D01*
X88129697Y-133247380D01*
X87992807Y-133357443D01*
X87837146Y-133438820D01*
X87668643Y-133488414D01*
X87668609Y-133488417D01*
X87668596Y-133488421D01*
X87493720Y-133504336D01*
X87319078Y-133485979D01*
X87319073Y-133485978D01*
X87319030Y-133485973D01*
X87151236Y-133434032D01*
X86996726Y-133350489D01*
X86861386Y-133238526D01*
X86750371Y-133102407D01*
X86667909Y-132947318D01*
X86617140Y-132779166D01*
X86600000Y-132604355D01*
X86600000Y-132595645D01*
X86600088Y-132583079D01*
X86619667Y-132408524D01*
X86672778Y-132241097D01*
X86757398Y-132087175D01*
X86870303Y-131952620D01*
X87007193Y-131842557D01*
X87162854Y-131761180D01*
X87331357Y-131711586D01*
X87331391Y-131711583D01*
X87331404Y-131711579D01*
X87506280Y-131695664D01*
X87680922Y-131714021D01*
X87680922Y-131714021D01*
G37*
G36*
X114680922Y-131714021D02*
X114680927Y-131714022D01*
X114680970Y-131714027D01*
X114848764Y-131765968D01*
X115003274Y-131849511D01*
X115138614Y-131961474D01*
X115249629Y-132097593D01*
X115332091Y-132252682D01*
X115382860Y-132420834D01*
X115400000Y-132595645D01*
X115400000Y-132604355D01*
X115399912Y-132616921D01*
X115380333Y-132791476D01*
X115327222Y-132958903D01*
X115242602Y-133112825D01*
X115129697Y-133247380D01*
X114992807Y-133357443D01*
X114837146Y-133438820D01*
X114668643Y-133488414D01*
X114668609Y-133488417D01*
X114668596Y-133488421D01*
X114493720Y-133504336D01*
X114319078Y-133485979D01*
X114319073Y-133485978D01*
X114319030Y-133485973D01*
X114151236Y-133434032D01*
X113996726Y-133350489D01*
X113861386Y-133238526D01*
X113750371Y-133102407D01*
X113667909Y-132947318D01*
X113617140Y-132779166D01*
X113600000Y-132604355D01*
X113600000Y-132595645D01*
X113600088Y-132583079D01*
X113619667Y-132408524D01*
X113672778Y-132241097D01*
X113757398Y-132087175D01*
X113870303Y-131952620D01*
X114007193Y-131842557D01*
X114162854Y-131761180D01*
X114331357Y-131711586D01*
X114331391Y-131711583D01*
X114331404Y-131711579D01*
X114506280Y-131695664D01*
X114680922Y-131714021D01*
X114680922Y-131714021D01*
G37*
G36*
X117220922Y-131714021D02*
X117220927Y-131714022D01*
X117220970Y-131714027D01*
X117388764Y-131765968D01*
X117543274Y-131849511D01*
X117678614Y-131961474D01*
X117789629Y-132097593D01*
X117872091Y-132252682D01*
X117922860Y-132420834D01*
X117940000Y-132595645D01*
X117940000Y-132604355D01*
X117939912Y-132616921D01*
X117920333Y-132791476D01*
X117867222Y-132958903D01*
X117782602Y-133112825D01*
X117669697Y-133247380D01*
X117532807Y-133357443D01*
X117377146Y-133438820D01*
X117208643Y-133488414D01*
X117208609Y-133488417D01*
X117208596Y-133488421D01*
X117033720Y-133504336D01*
X116859078Y-133485979D01*
X116859073Y-133485978D01*
X116859030Y-133485973D01*
X116691236Y-133434032D01*
X116536726Y-133350489D01*
X116401386Y-133238526D01*
X116290371Y-133102407D01*
X116207909Y-132947318D01*
X116157140Y-132779166D01*
X116140000Y-132604355D01*
X116140000Y-132595645D01*
X116140088Y-132583079D01*
X116159667Y-132408524D01*
X116212778Y-132241097D01*
X116297398Y-132087175D01*
X116410303Y-131952620D01*
X116547193Y-131842557D01*
X116702854Y-131761180D01*
X116871357Y-131711586D01*
X116871391Y-131711583D01*
X116871404Y-131711579D01*
X117046280Y-131695664D01*
X117220922Y-131714021D01*
X117220922Y-131714021D01*
G37*
G36*
X119760922Y-131714021D02*
X119760927Y-131714022D01*
X119760970Y-131714027D01*
X119928764Y-131765968D01*
X120083274Y-131849511D01*
X120218614Y-131961474D01*
X120329629Y-132097593D01*
X120412091Y-132252682D01*
X120462860Y-132420834D01*
X120480000Y-132595645D01*
X120480000Y-132604355D01*
X120479912Y-132616921D01*
X120460333Y-132791476D01*
X120407222Y-132958903D01*
X120322602Y-133112825D01*
X120209697Y-133247380D01*
X120072807Y-133357443D01*
X119917146Y-133438820D01*
X119748643Y-133488414D01*
X119748609Y-133488417D01*
X119748596Y-133488421D01*
X119573720Y-133504336D01*
X119399078Y-133485979D01*
X119399073Y-133485978D01*
X119399030Y-133485973D01*
X119231236Y-133434032D01*
X119076726Y-133350489D01*
X118941386Y-133238526D01*
X118830371Y-133102407D01*
X118747909Y-132947318D01*
X118697140Y-132779166D01*
X118680000Y-132604355D01*
X118680000Y-132595645D01*
X118680088Y-132583079D01*
X118699667Y-132408524D01*
X118752778Y-132241097D01*
X118837398Y-132087175D01*
X118950303Y-131952620D01*
X119087193Y-131842557D01*
X119242854Y-131761180D01*
X119411357Y-131711586D01*
X119411391Y-131711583D01*
X119411404Y-131711579D01*
X119586280Y-131695664D01*
X119760922Y-131714021D01*
X119760922Y-131714021D01*
G37*
G36*
X122300922Y-131714021D02*
X122300927Y-131714022D01*
X122300970Y-131714027D01*
X122468764Y-131765968D01*
X122623274Y-131849511D01*
X122758614Y-131961474D01*
X122869629Y-132097593D01*
X122952091Y-132252682D01*
X123002860Y-132420834D01*
X123020000Y-132595645D01*
X123020000Y-132604355D01*
X123019912Y-132616921D01*
X123000333Y-132791476D01*
X122947222Y-132958903D01*
X122862602Y-133112825D01*
X122749697Y-133247380D01*
X122612807Y-133357443D01*
X122457146Y-133438820D01*
X122288643Y-133488414D01*
X122288609Y-133488417D01*
X122288596Y-133488421D01*
X122113720Y-133504336D01*
X121939078Y-133485979D01*
X121939073Y-133485978D01*
X121939030Y-133485973D01*
X121771236Y-133434032D01*
X121616726Y-133350489D01*
X121481386Y-133238526D01*
X121370371Y-133102407D01*
X121287909Y-132947318D01*
X121237140Y-132779166D01*
X121220000Y-132604355D01*
X121220000Y-132595645D01*
X121220088Y-132583079D01*
X121239667Y-132408524D01*
X121292778Y-132241097D01*
X121377398Y-132087175D01*
X121490303Y-131952620D01*
X121627193Y-131842557D01*
X121782854Y-131761180D01*
X121951357Y-131711586D01*
X121951391Y-131711583D01*
X121951404Y-131711579D01*
X122126280Y-131695664D01*
X122300922Y-131714021D01*
X122300922Y-131714021D01*
G37*
G36*
X124840922Y-131714021D02*
X124840927Y-131714022D01*
X124840970Y-131714027D01*
X125008764Y-131765968D01*
X125163274Y-131849511D01*
X125298614Y-131961474D01*
X125409629Y-132097593D01*
X125492091Y-132252682D01*
X125542860Y-132420834D01*
X125560000Y-132595645D01*
X125560000Y-132604355D01*
X125559912Y-132616921D01*
X125540333Y-132791476D01*
X125487222Y-132958903D01*
X125402602Y-133112825D01*
X125289697Y-133247380D01*
X125152807Y-133357443D01*
X124997146Y-133438820D01*
X124828643Y-133488414D01*
X124828609Y-133488417D01*
X124828596Y-133488421D01*
X124653720Y-133504336D01*
X124479078Y-133485979D01*
X124479073Y-133485978D01*
X124479030Y-133485973D01*
X124311236Y-133434032D01*
X124156726Y-133350489D01*
X124021386Y-133238526D01*
X123910371Y-133102407D01*
X123827909Y-132947318D01*
X123777140Y-132779166D01*
X123760000Y-132604355D01*
X123760000Y-132595645D01*
X123760088Y-132583079D01*
X123779667Y-132408524D01*
X123832778Y-132241097D01*
X123917398Y-132087175D01*
X124030303Y-131952620D01*
X124167193Y-131842557D01*
X124322854Y-131761180D01*
X124491357Y-131711586D01*
X124491391Y-131711583D01*
X124491404Y-131711579D01*
X124666280Y-131695664D01*
X124840922Y-131714021D01*
X124840922Y-131714021D01*
G37*
G36*
X127380922Y-131714021D02*
X127380927Y-131714022D01*
X127380970Y-131714027D01*
X127548764Y-131765968D01*
X127703274Y-131849511D01*
X127838614Y-131961474D01*
X127949629Y-132097593D01*
X128032091Y-132252682D01*
X128082860Y-132420834D01*
X128100000Y-132595645D01*
X128100000Y-132604355D01*
X128099912Y-132616921D01*
X128080333Y-132791476D01*
X128027222Y-132958903D01*
X127942602Y-133112825D01*
X127829697Y-133247380D01*
X127692807Y-133357443D01*
X127537146Y-133438820D01*
X127368643Y-133488414D01*
X127368609Y-133488417D01*
X127368596Y-133488421D01*
X127193720Y-133504336D01*
X127019078Y-133485979D01*
X127019073Y-133485978D01*
X127019030Y-133485973D01*
X126851236Y-133434032D01*
X126696726Y-133350489D01*
X126561386Y-133238526D01*
X126450371Y-133102407D01*
X126367909Y-132947318D01*
X126317140Y-132779166D01*
X126300000Y-132604355D01*
X126300000Y-132595645D01*
X126300088Y-132583079D01*
X126319667Y-132408524D01*
X126372778Y-132241097D01*
X126457398Y-132087175D01*
X126570303Y-131952620D01*
X126707193Y-131842557D01*
X126862854Y-131761180D01*
X127031357Y-131711586D01*
X127031391Y-131711583D01*
X127031404Y-131711579D01*
X127206280Y-131695664D01*
X127380922Y-131714021D01*
X127380922Y-131714021D01*
G37*
G36*
X129920922Y-131714021D02*
X129920927Y-131714022D01*
X129920970Y-131714027D01*
X130088764Y-131765968D01*
X130243274Y-131849511D01*
X130378614Y-131961474D01*
X130489629Y-132097593D01*
X130572091Y-132252682D01*
X130622860Y-132420834D01*
X130640000Y-132595645D01*
X130640000Y-132604355D01*
X130639912Y-132616921D01*
X130620333Y-132791476D01*
X130567222Y-132958903D01*
X130482602Y-133112825D01*
X130369697Y-133247380D01*
X130232807Y-133357443D01*
X130077146Y-133438820D01*
X129908643Y-133488414D01*
X129908609Y-133488417D01*
X129908596Y-133488421D01*
X129733720Y-133504336D01*
X129559078Y-133485979D01*
X129559073Y-133485978D01*
X129559030Y-133485973D01*
X129391236Y-133434032D01*
X129236726Y-133350489D01*
X129101386Y-133238526D01*
X128990371Y-133102407D01*
X128907909Y-132947318D01*
X128857140Y-132779166D01*
X128840000Y-132604355D01*
X128840000Y-132595645D01*
X128840088Y-132583079D01*
X128859667Y-132408524D01*
X128912778Y-132241097D01*
X128997398Y-132087175D01*
X129110303Y-131952620D01*
X129247193Y-131842557D01*
X129402854Y-131761180D01*
X129571357Y-131711586D01*
X129571391Y-131711583D01*
X129571404Y-131711579D01*
X129746280Y-131695664D01*
X129920922Y-131714021D01*
X129920922Y-131714021D01*
G37*
G36*
X85140922Y-131714021D02*
X85140927Y-131714022D01*
X85140970Y-131714027D01*
X85308764Y-131765968D01*
X85463274Y-131849511D01*
X85598614Y-131961474D01*
X85709629Y-132097593D01*
X85792091Y-132252682D01*
X85842860Y-132420834D01*
X85860000Y-132595645D01*
X85860000Y-132604355D01*
X85859912Y-132616921D01*
X85840333Y-132791476D01*
X85787222Y-132958903D01*
X85702602Y-133112825D01*
X85589697Y-133247380D01*
X85452807Y-133357443D01*
X85297146Y-133438820D01*
X85128643Y-133488414D01*
X85128609Y-133488417D01*
X85128596Y-133488421D01*
X84953720Y-133504336D01*
X84779078Y-133485979D01*
X84779073Y-133485978D01*
X84779030Y-133485973D01*
X84611236Y-133434032D01*
X84456726Y-133350489D01*
X84321386Y-133238526D01*
X84210371Y-133102407D01*
X84127909Y-132947318D01*
X84077140Y-132779166D01*
X84060000Y-132604355D01*
X84060000Y-132595645D01*
X84060088Y-132583079D01*
X84079667Y-132408524D01*
X84132778Y-132241097D01*
X84217398Y-132087175D01*
X84330303Y-131952620D01*
X84467193Y-131842557D01*
X84622854Y-131761180D01*
X84791357Y-131711586D01*
X84791391Y-131711583D01*
X84791404Y-131711579D01*
X84966280Y-131695664D01*
X85140922Y-131714021D01*
X85140922Y-131714021D01*
G37*
G36*
X87680922Y-129174021D02*
X87680927Y-129174022D01*
X87680970Y-129174027D01*
X87848764Y-129225968D01*
X88003274Y-129309511D01*
X88138614Y-129421474D01*
X88249629Y-129557593D01*
X88332091Y-129712682D01*
X88382860Y-129880834D01*
X88400000Y-130055645D01*
X88400000Y-130064355D01*
X88399912Y-130076921D01*
X88380333Y-130251476D01*
X88327222Y-130418903D01*
X88242602Y-130572825D01*
X88129697Y-130707380D01*
X87992807Y-130817443D01*
X87837146Y-130898820D01*
X87668643Y-130948414D01*
X87668609Y-130948417D01*
X87668596Y-130948421D01*
X87493720Y-130964336D01*
X87319078Y-130945979D01*
X87319073Y-130945978D01*
X87319030Y-130945973D01*
X87151236Y-130894032D01*
X86996726Y-130810489D01*
X86861386Y-130698526D01*
X86750371Y-130562407D01*
X86667909Y-130407318D01*
X86617140Y-130239166D01*
X86600000Y-130064355D01*
X86600000Y-130055645D01*
X86600088Y-130043079D01*
X86619667Y-129868524D01*
X86672778Y-129701097D01*
X86757398Y-129547175D01*
X86870303Y-129412620D01*
X87007193Y-129302557D01*
X87162854Y-129221180D01*
X87331357Y-129171586D01*
X87331391Y-129171583D01*
X87331404Y-129171579D01*
X87506280Y-129155664D01*
X87680922Y-129174021D01*
X87680922Y-129174021D01*
G37*
G36*
X90220922Y-129174021D02*
X90220927Y-129174022D01*
X90220970Y-129174027D01*
X90388764Y-129225968D01*
X90543274Y-129309511D01*
X90678614Y-129421474D01*
X90789629Y-129557593D01*
X90872091Y-129712682D01*
X90922860Y-129880834D01*
X90940000Y-130055645D01*
X90940000Y-130064355D01*
X90939912Y-130076921D01*
X90920333Y-130251476D01*
X90867222Y-130418903D01*
X90782602Y-130572825D01*
X90669697Y-130707380D01*
X90532807Y-130817443D01*
X90377146Y-130898820D01*
X90208643Y-130948414D01*
X90208609Y-130948417D01*
X90208596Y-130948421D01*
X90033720Y-130964336D01*
X89859078Y-130945979D01*
X89859073Y-130945978D01*
X89859030Y-130945973D01*
X89691236Y-130894032D01*
X89536726Y-130810489D01*
X89401386Y-130698526D01*
X89290371Y-130562407D01*
X89207909Y-130407318D01*
X89157140Y-130239166D01*
X89140000Y-130064355D01*
X89140000Y-130055645D01*
X89140088Y-130043079D01*
X89159667Y-129868524D01*
X89212778Y-129701097D01*
X89297398Y-129547175D01*
X89410303Y-129412620D01*
X89547193Y-129302557D01*
X89702854Y-129221180D01*
X89871357Y-129171586D01*
X89871391Y-129171583D01*
X89871404Y-129171579D01*
X90046280Y-129155664D01*
X90220922Y-129174021D01*
X90220922Y-129174021D01*
G37*
G36*
X92760922Y-129174021D02*
X92760927Y-129174022D01*
X92760970Y-129174027D01*
X92928764Y-129225968D01*
X93083274Y-129309511D01*
X93218614Y-129421474D01*
X93329629Y-129557593D01*
X93412091Y-129712682D01*
X93462860Y-129880834D01*
X93480000Y-130055645D01*
X93480000Y-130064355D01*
X93479912Y-130076921D01*
X93460333Y-130251476D01*
X93407222Y-130418903D01*
X93322602Y-130572825D01*
X93209697Y-130707380D01*
X93072807Y-130817443D01*
X92917146Y-130898820D01*
X92748643Y-130948414D01*
X92748609Y-130948417D01*
X92748596Y-130948421D01*
X92573720Y-130964336D01*
X92399078Y-130945979D01*
X92399073Y-130945978D01*
X92399030Y-130945973D01*
X92231236Y-130894032D01*
X92076726Y-130810489D01*
X91941386Y-130698526D01*
X91830371Y-130562407D01*
X91747909Y-130407318D01*
X91697140Y-130239166D01*
X91680000Y-130064355D01*
X91680000Y-130055645D01*
X91680088Y-130043079D01*
X91699667Y-129868524D01*
X91752778Y-129701097D01*
X91837398Y-129547175D01*
X91950303Y-129412620D01*
X92087193Y-129302557D01*
X92242854Y-129221180D01*
X92411357Y-129171586D01*
X92411391Y-129171583D01*
X92411404Y-129171579D01*
X92586280Y-129155664D01*
X92760922Y-129174021D01*
X92760922Y-129174021D01*
G37*
G36*
X129920922Y-129174021D02*
X129920927Y-129174022D01*
X129920970Y-129174027D01*
X130088764Y-129225968D01*
X130243274Y-129309511D01*
X130378614Y-129421474D01*
X130489629Y-129557593D01*
X130572091Y-129712682D01*
X130622860Y-129880834D01*
X130640000Y-130055645D01*
X130640000Y-130064355D01*
X130639912Y-130076921D01*
X130620333Y-130251476D01*
X130567222Y-130418903D01*
X130482602Y-130572825D01*
X130369697Y-130707380D01*
X130232807Y-130817443D01*
X130077146Y-130898820D01*
X129908643Y-130948414D01*
X129908609Y-130948417D01*
X129908596Y-130948421D01*
X129733720Y-130964336D01*
X129559078Y-130945979D01*
X129559073Y-130945978D01*
X129559030Y-130945973D01*
X129391236Y-130894032D01*
X129236726Y-130810489D01*
X129101386Y-130698526D01*
X128990371Y-130562407D01*
X128907909Y-130407318D01*
X128857140Y-130239166D01*
X128840000Y-130064355D01*
X128840000Y-130055645D01*
X128840088Y-130043079D01*
X128859667Y-129868524D01*
X128912778Y-129701097D01*
X128997398Y-129547175D01*
X129110303Y-129412620D01*
X129247193Y-129302557D01*
X129402854Y-129221180D01*
X129571357Y-129171586D01*
X129571391Y-129171583D01*
X129571404Y-129171579D01*
X129746280Y-129155664D01*
X129920922Y-129174021D01*
X129920922Y-129174021D01*
G37*
G36*
X95300922Y-129174021D02*
X95300927Y-129174022D01*
X95300970Y-129174027D01*
X95468764Y-129225968D01*
X95623274Y-129309511D01*
X95758614Y-129421474D01*
X95869629Y-129557593D01*
X95952091Y-129712682D01*
X96002860Y-129880834D01*
X96020000Y-130055645D01*
X96020000Y-130064355D01*
X96019912Y-130076921D01*
X96000333Y-130251476D01*
X95947222Y-130418903D01*
X95862602Y-130572825D01*
X95749697Y-130707380D01*
X95612807Y-130817443D01*
X95457146Y-130898820D01*
X95288643Y-130948414D01*
X95288609Y-130948417D01*
X95288596Y-130948421D01*
X95113720Y-130964336D01*
X94939078Y-130945979D01*
X94939073Y-130945978D01*
X94939030Y-130945973D01*
X94771236Y-130894032D01*
X94616726Y-130810489D01*
X94481386Y-130698526D01*
X94370371Y-130562407D01*
X94287909Y-130407318D01*
X94237140Y-130239166D01*
X94220000Y-130064355D01*
X94220000Y-130055645D01*
X94220088Y-130043079D01*
X94239667Y-129868524D01*
X94292778Y-129701097D01*
X94377398Y-129547175D01*
X94490303Y-129412620D01*
X94627193Y-129302557D01*
X94782854Y-129221180D01*
X94951357Y-129171586D01*
X94951391Y-129171583D01*
X94951404Y-129171579D01*
X95126280Y-129155664D01*
X95300922Y-129174021D01*
X95300922Y-129174021D01*
G37*
G36*
X97840922Y-129174021D02*
X97840927Y-129174022D01*
X97840970Y-129174027D01*
X98008764Y-129225968D01*
X98163274Y-129309511D01*
X98298614Y-129421474D01*
X98409629Y-129557593D01*
X98492091Y-129712682D01*
X98542860Y-129880834D01*
X98560000Y-130055645D01*
X98560000Y-130064355D01*
X98559912Y-130076921D01*
X98540333Y-130251476D01*
X98487222Y-130418903D01*
X98402602Y-130572825D01*
X98289697Y-130707380D01*
X98152807Y-130817443D01*
X97997146Y-130898820D01*
X97828643Y-130948414D01*
X97828609Y-130948417D01*
X97828596Y-130948421D01*
X97653720Y-130964336D01*
X97479078Y-130945979D01*
X97479073Y-130945978D01*
X97479030Y-130945973D01*
X97311236Y-130894032D01*
X97156726Y-130810489D01*
X97021386Y-130698526D01*
X96910371Y-130562407D01*
X96827909Y-130407318D01*
X96777140Y-130239166D01*
X96760000Y-130064355D01*
X96760000Y-130055645D01*
X96760088Y-130043079D01*
X96779667Y-129868524D01*
X96832778Y-129701097D01*
X96917398Y-129547175D01*
X97030303Y-129412620D01*
X97167193Y-129302557D01*
X97322854Y-129221180D01*
X97491357Y-129171586D01*
X97491391Y-129171583D01*
X97491404Y-129171579D01*
X97666280Y-129155664D01*
X97840922Y-129174021D01*
X97840922Y-129174021D01*
G37*
G36*
X127380922Y-129174021D02*
X127380927Y-129174022D01*
X127380970Y-129174027D01*
X127548764Y-129225968D01*
X127703274Y-129309511D01*
X127838614Y-129421474D01*
X127949629Y-129557593D01*
X128032091Y-129712682D01*
X128082860Y-129880834D01*
X128100000Y-130055645D01*
X128100000Y-130064355D01*
X128099912Y-130076921D01*
X128080333Y-130251476D01*
X128027222Y-130418903D01*
X127942602Y-130572825D01*
X127829697Y-130707380D01*
X127692807Y-130817443D01*
X127537146Y-130898820D01*
X127368643Y-130948414D01*
X127368609Y-130948417D01*
X127368596Y-130948421D01*
X127193720Y-130964336D01*
X127019078Y-130945979D01*
X127019073Y-130945978D01*
X127019030Y-130945973D01*
X126851236Y-130894032D01*
X126696726Y-130810489D01*
X126561386Y-130698526D01*
X126450371Y-130562407D01*
X126367909Y-130407318D01*
X126317140Y-130239166D01*
X126300000Y-130064355D01*
X126300000Y-130055645D01*
X126300088Y-130043079D01*
X126319667Y-129868524D01*
X126372778Y-129701097D01*
X126457398Y-129547175D01*
X126570303Y-129412620D01*
X126707193Y-129302557D01*
X126862854Y-129221180D01*
X127031357Y-129171586D01*
X127031391Y-129171583D01*
X127031404Y-129171579D01*
X127206280Y-129155664D01*
X127380922Y-129174021D01*
X127380922Y-129174021D01*
G37*
G36*
X100380922Y-129174021D02*
X100380927Y-129174022D01*
X100380970Y-129174027D01*
X100548764Y-129225968D01*
X100703274Y-129309511D01*
X100838614Y-129421474D01*
X100949629Y-129557593D01*
X101032091Y-129712682D01*
X101082860Y-129880834D01*
X101100000Y-130055645D01*
X101100000Y-130064355D01*
X101099912Y-130076921D01*
X101080333Y-130251476D01*
X101027222Y-130418903D01*
X100942602Y-130572825D01*
X100829697Y-130707380D01*
X100692807Y-130817443D01*
X100537146Y-130898820D01*
X100368643Y-130948414D01*
X100368609Y-130948417D01*
X100368596Y-130948421D01*
X100193720Y-130964336D01*
X100019078Y-130945979D01*
X100019073Y-130945978D01*
X100019030Y-130945973D01*
X99851236Y-130894032D01*
X99696726Y-130810489D01*
X99561386Y-130698526D01*
X99450371Y-130562407D01*
X99367909Y-130407318D01*
X99317140Y-130239166D01*
X99300000Y-130064355D01*
X99300000Y-130055645D01*
X99300088Y-130043079D01*
X99319667Y-129868524D01*
X99372778Y-129701097D01*
X99457398Y-129547175D01*
X99570303Y-129412620D01*
X99707193Y-129302557D01*
X99862854Y-129221180D01*
X100031357Y-129171586D01*
X100031391Y-129171583D01*
X100031404Y-129171579D01*
X100206280Y-129155664D01*
X100380922Y-129174021D01*
X100380922Y-129174021D01*
G37*
G36*
X102920922Y-129174021D02*
X102920927Y-129174022D01*
X102920970Y-129174027D01*
X103088764Y-129225968D01*
X103243274Y-129309511D01*
X103378614Y-129421474D01*
X103489629Y-129557593D01*
X103572091Y-129712682D01*
X103622860Y-129880834D01*
X103640000Y-130055645D01*
X103640000Y-130064355D01*
X103639912Y-130076921D01*
X103620333Y-130251476D01*
X103567222Y-130418903D01*
X103482602Y-130572825D01*
X103369697Y-130707380D01*
X103232807Y-130817443D01*
X103077146Y-130898820D01*
X102908643Y-130948414D01*
X102908609Y-130948417D01*
X102908596Y-130948421D01*
X102733720Y-130964336D01*
X102559078Y-130945979D01*
X102559073Y-130945978D01*
X102559030Y-130945973D01*
X102391236Y-130894032D01*
X102236726Y-130810489D01*
X102101386Y-130698526D01*
X101990371Y-130562407D01*
X101907909Y-130407318D01*
X101857140Y-130239166D01*
X101840000Y-130064355D01*
X101840000Y-130055645D01*
X101840088Y-130043079D01*
X101859667Y-129868524D01*
X101912778Y-129701097D01*
X101997398Y-129547175D01*
X102110303Y-129412620D01*
X102247193Y-129302557D01*
X102402854Y-129221180D01*
X102571357Y-129171586D01*
X102571391Y-129171583D01*
X102571404Y-129171579D01*
X102746280Y-129155664D01*
X102920922Y-129174021D01*
X102920922Y-129174021D01*
G37*
G36*
X124840922Y-129174021D02*
X124840927Y-129174022D01*
X124840970Y-129174027D01*
X125008764Y-129225968D01*
X125163274Y-129309511D01*
X125298614Y-129421474D01*
X125409629Y-129557593D01*
X125492091Y-129712682D01*
X125542860Y-129880834D01*
X125560000Y-130055645D01*
X125560000Y-130064355D01*
X125559912Y-130076921D01*
X125540333Y-130251476D01*
X125487222Y-130418903D01*
X125402602Y-130572825D01*
X125289697Y-130707380D01*
X125152807Y-130817443D01*
X124997146Y-130898820D01*
X124828643Y-130948414D01*
X124828609Y-130948417D01*
X124828596Y-130948421D01*
X124653720Y-130964336D01*
X124479078Y-130945979D01*
X124479073Y-130945978D01*
X124479030Y-130945973D01*
X124311236Y-130894032D01*
X124156726Y-130810489D01*
X124021386Y-130698526D01*
X123910371Y-130562407D01*
X123827909Y-130407318D01*
X123777140Y-130239166D01*
X123760000Y-130064355D01*
X123760000Y-130055645D01*
X123760088Y-130043079D01*
X123779667Y-129868524D01*
X123832778Y-129701097D01*
X123917398Y-129547175D01*
X124030303Y-129412620D01*
X124167193Y-129302557D01*
X124322854Y-129221180D01*
X124491357Y-129171586D01*
X124491391Y-129171583D01*
X124491404Y-129171579D01*
X124666280Y-129155664D01*
X124840922Y-129174021D01*
X124840922Y-129174021D01*
G37*
G36*
X114680922Y-129174021D02*
X114680927Y-129174022D01*
X114680970Y-129174027D01*
X114848764Y-129225968D01*
X115003274Y-129309511D01*
X115138614Y-129421474D01*
X115249629Y-129557593D01*
X115332091Y-129712682D01*
X115382860Y-129880834D01*
X115400000Y-130055645D01*
X115400000Y-130064355D01*
X115399912Y-130076921D01*
X115380333Y-130251476D01*
X115327222Y-130418903D01*
X115242602Y-130572825D01*
X115129697Y-130707380D01*
X114992807Y-130817443D01*
X114837146Y-130898820D01*
X114668643Y-130948414D01*
X114668609Y-130948417D01*
X114668596Y-130948421D01*
X114493720Y-130964336D01*
X114319078Y-130945979D01*
X114319073Y-130945978D01*
X114319030Y-130945973D01*
X114151236Y-130894032D01*
X113996726Y-130810489D01*
X113861386Y-130698526D01*
X113750371Y-130562407D01*
X113667909Y-130407318D01*
X113617140Y-130239166D01*
X113600000Y-130064355D01*
X113600000Y-130055645D01*
X113600088Y-130043079D01*
X113619667Y-129868524D01*
X113672778Y-129701097D01*
X113757398Y-129547175D01*
X113870303Y-129412620D01*
X114007193Y-129302557D01*
X114162854Y-129221180D01*
X114331357Y-129171586D01*
X114331391Y-129171583D01*
X114331404Y-129171579D01*
X114506280Y-129155664D01*
X114680922Y-129174021D01*
X114680922Y-129174021D01*
G37*
G36*
X117220922Y-129174021D02*
X117220927Y-129174022D01*
X117220970Y-129174027D01*
X117388764Y-129225968D01*
X117543274Y-129309511D01*
X117678614Y-129421474D01*
X117789629Y-129557593D01*
X117872091Y-129712682D01*
X117922860Y-129880834D01*
X117940000Y-130055645D01*
X117940000Y-130064355D01*
X117939912Y-130076921D01*
X117920333Y-130251476D01*
X117867222Y-130418903D01*
X117782602Y-130572825D01*
X117669697Y-130707380D01*
X117532807Y-130817443D01*
X117377146Y-130898820D01*
X117208643Y-130948414D01*
X117208609Y-130948417D01*
X117208596Y-130948421D01*
X117033720Y-130964336D01*
X116859078Y-130945979D01*
X116859073Y-130945978D01*
X116859030Y-130945973D01*
X116691236Y-130894032D01*
X116536726Y-130810489D01*
X116401386Y-130698526D01*
X116290371Y-130562407D01*
X116207909Y-130407318D01*
X116157140Y-130239166D01*
X116140000Y-130064355D01*
X116140000Y-130055645D01*
X116140088Y-130043079D01*
X116159667Y-129868524D01*
X116212778Y-129701097D01*
X116297398Y-129547175D01*
X116410303Y-129412620D01*
X116547193Y-129302557D01*
X116702854Y-129221180D01*
X116871357Y-129171586D01*
X116871391Y-129171583D01*
X116871404Y-129171579D01*
X117046280Y-129155664D01*
X117220922Y-129174021D01*
X117220922Y-129174021D01*
G37*
G36*
X122300922Y-129174021D02*
X122300927Y-129174022D01*
X122300970Y-129174027D01*
X122468764Y-129225968D01*
X122623274Y-129309511D01*
X122758614Y-129421474D01*
X122869629Y-129557593D01*
X122952091Y-129712682D01*
X123002860Y-129880834D01*
X123020000Y-130055645D01*
X123020000Y-130064355D01*
X123019912Y-130076921D01*
X123000333Y-130251476D01*
X122947222Y-130418903D01*
X122862602Y-130572825D01*
X122749697Y-130707380D01*
X122612807Y-130817443D01*
X122457146Y-130898820D01*
X122288643Y-130948414D01*
X122288609Y-130948417D01*
X122288596Y-130948421D01*
X122113720Y-130964336D01*
X121939078Y-130945979D01*
X121939073Y-130945978D01*
X121939030Y-130945973D01*
X121771236Y-130894032D01*
X121616726Y-130810489D01*
X121481386Y-130698526D01*
X121370371Y-130562407D01*
X121287909Y-130407318D01*
X121237140Y-130239166D01*
X121220000Y-130064355D01*
X121220000Y-130055645D01*
X121220088Y-130043079D01*
X121239667Y-129868524D01*
X121292778Y-129701097D01*
X121377398Y-129547175D01*
X121490303Y-129412620D01*
X121627193Y-129302557D01*
X121782854Y-129221180D01*
X121951357Y-129171586D01*
X121951391Y-129171583D01*
X121951404Y-129171579D01*
X122126280Y-129155664D01*
X122300922Y-129174021D01*
X122300922Y-129174021D01*
G37*
G36*
X119760922Y-129174021D02*
X119760927Y-129174022D01*
X119760970Y-129174027D01*
X119928764Y-129225968D01*
X120083274Y-129309511D01*
X120218614Y-129421474D01*
X120329629Y-129557593D01*
X120412091Y-129712682D01*
X120462860Y-129880834D01*
X120480000Y-130055645D01*
X120480000Y-130064355D01*
X120479912Y-130076921D01*
X120460333Y-130251476D01*
X120407222Y-130418903D01*
X120322602Y-130572825D01*
X120209697Y-130707380D01*
X120072807Y-130817443D01*
X119917146Y-130898820D01*
X119748643Y-130948414D01*
X119748609Y-130948417D01*
X119748596Y-130948421D01*
X119573720Y-130964336D01*
X119399078Y-130945979D01*
X119399073Y-130945978D01*
X119399030Y-130945973D01*
X119231236Y-130894032D01*
X119076726Y-130810489D01*
X118941386Y-130698526D01*
X118830371Y-130562407D01*
X118747909Y-130407318D01*
X118697140Y-130239166D01*
X118680000Y-130064355D01*
X118680000Y-130055645D01*
X118680088Y-130043079D01*
X118699667Y-129868524D01*
X118752778Y-129701097D01*
X118837398Y-129547175D01*
X118950303Y-129412620D01*
X119087193Y-129302557D01*
X119242854Y-129221180D01*
X119411357Y-129171586D01*
X119411391Y-129171583D01*
X119411404Y-129171579D01*
X119586280Y-129155664D01*
X119760922Y-129174021D01*
X119760922Y-129174021D01*
G37*
G36*
X85860000Y-130960000D02*
X84060000Y-130960000D01*
X84060000Y-129160000D01*
X85860000Y-129160000D01*
X85860000Y-130960000D01*
X85860000Y-130960000D01*
G37*
G36*
X112860000Y-130960000D02*
X111060000Y-130960000D01*
X111060000Y-129160000D01*
X112860000Y-129160000D01*
X112860000Y-130960000D01*
X112860000Y-130960000D01*
G37*
G36*
X97513306Y-123161097D02*
X97830281Y-123226163D01*
X98128577Y-123351554D01*
X98396839Y-123532499D01*
X98624848Y-123762106D01*
X98803916Y-124031623D01*
X98927222Y-124330787D01*
X98990005Y-124647865D01*
X98990005Y-124647875D01*
X98990071Y-124648209D01*
X98984910Y-125017800D01*
X98984834Y-125018134D01*
X98984834Y-125018146D01*
X98913225Y-125333340D01*
X98781611Y-125628948D01*
X98595089Y-125893361D01*
X98360755Y-126116513D01*
X98087550Y-126289894D01*
X97785865Y-126406911D01*
X97467201Y-126463099D01*
X97143690Y-126456323D01*
X96827650Y-126386837D01*
X96531135Y-126257293D01*
X96265427Y-126072621D01*
X96040645Y-125839853D01*
X95865361Y-125567865D01*
X95746242Y-125267005D01*
X95687828Y-124948734D01*
X95692347Y-124625185D01*
X95759622Y-124308677D01*
X95887096Y-124011259D01*
X96069909Y-123744267D01*
X96301101Y-123517867D01*
X96571862Y-123340686D01*
X96871882Y-123219470D01*
X97189729Y-123158837D01*
X97513306Y-123161097D01*
X97513306Y-123161097D01*
G37*
G36*
X84562803Y-94531030D02*
X84860567Y-94592153D01*
X85140784Y-94709945D01*
X85392788Y-94879923D01*
X85606979Y-95095615D01*
X85775194Y-95348798D01*
X85891027Y-95629830D01*
X85950001Y-95927671D01*
X85950001Y-95927681D01*
X85950067Y-95928015D01*
X85945219Y-96275207D01*
X85945142Y-96275545D01*
X85945142Y-96275553D01*
X85877878Y-96571622D01*
X85754241Y-96849315D01*
X85579023Y-97097703D01*
X85358891Y-97307331D01*
X85102244Y-97470204D01*
X84818843Y-97580129D01*
X84519492Y-97632912D01*
X84215588Y-97626546D01*
X83918703Y-97561272D01*
X83640161Y-97439579D01*
X83390549Y-97266095D01*
X83179394Y-97047437D01*
X83014733Y-96791934D01*
X82902833Y-96509308D01*
X82847960Y-96210325D01*
X82852205Y-95906385D01*
X82915402Y-95609061D01*
X83035151Y-95329667D01*
X83206884Y-95078857D01*
X83424065Y-94866178D01*
X83678416Y-94699735D01*
X83960253Y-94585866D01*
X84258836Y-94528908D01*
X84562803Y-94531030D01*
X84562803Y-94531030D01*
G37*
G36*
X106260922Y-94214021D02*
X106260927Y-94214022D01*
X106260970Y-94214027D01*
X106428764Y-94265968D01*
X106583274Y-94349511D01*
X106718614Y-94461474D01*
X106829629Y-94597593D01*
X106912091Y-94752682D01*
X106962860Y-94920834D01*
X106980000Y-95095645D01*
X106980000Y-95104355D01*
X106979912Y-95116921D01*
X106960333Y-95291476D01*
X106907222Y-95458903D01*
X106822602Y-95612825D01*
X106709697Y-95747380D01*
X106572807Y-95857443D01*
X106417146Y-95938820D01*
X106248643Y-95988414D01*
X106248609Y-95988417D01*
X106248596Y-95988421D01*
X106073720Y-96004336D01*
X105899078Y-95985979D01*
X105899073Y-95985978D01*
X105899030Y-95985973D01*
X105731236Y-95934032D01*
X105576726Y-95850489D01*
X105441386Y-95738526D01*
X105330371Y-95602407D01*
X105247909Y-95447318D01*
X105197140Y-95279166D01*
X105180000Y-95104355D01*
X105180000Y-95095645D01*
X105180088Y-95083079D01*
X105199667Y-94908524D01*
X105252778Y-94741097D01*
X105337398Y-94587175D01*
X105450303Y-94452620D01*
X105587193Y-94342557D01*
X105742854Y-94261180D01*
X105911357Y-94211586D01*
X105911391Y-94211583D01*
X105911404Y-94211579D01*
X106086280Y-94195664D01*
X106260922Y-94214021D01*
X106260922Y-94214021D01*
G37*
G36*
X108800922Y-94214021D02*
X108800927Y-94214022D01*
X108800970Y-94214027D01*
X108968764Y-94265968D01*
X109123274Y-94349511D01*
X109258614Y-94461474D01*
X109369629Y-94597593D01*
X109452091Y-94752682D01*
X109502860Y-94920834D01*
X109520000Y-95095645D01*
X109520000Y-95104355D01*
X109519912Y-95116921D01*
X109500333Y-95291476D01*
X109447222Y-95458903D01*
X109362602Y-95612825D01*
X109249697Y-95747380D01*
X109112807Y-95857443D01*
X108957146Y-95938820D01*
X108788643Y-95988414D01*
X108788609Y-95988417D01*
X108788596Y-95988421D01*
X108613720Y-96004336D01*
X108439078Y-95985979D01*
X108439073Y-95985978D01*
X108439030Y-95985973D01*
X108271236Y-95934032D01*
X108116726Y-95850489D01*
X107981386Y-95738526D01*
X107870371Y-95602407D01*
X107787909Y-95447318D01*
X107737140Y-95279166D01*
X107720000Y-95104355D01*
X107720000Y-95095645D01*
X107720088Y-95083079D01*
X107739667Y-94908524D01*
X107792778Y-94741097D01*
X107877398Y-94587175D01*
X107990303Y-94452620D01*
X108127193Y-94342557D01*
X108282854Y-94261180D01*
X108451357Y-94211586D01*
X108451391Y-94211583D01*
X108451404Y-94211579D01*
X108626280Y-94195664D01*
X108800922Y-94214021D01*
X108800922Y-94214021D01*
G37*
G36*
X103720922Y-94214021D02*
X103720927Y-94214022D01*
X103720970Y-94214027D01*
X103888764Y-94265968D01*
X104043274Y-94349511D01*
X104178614Y-94461474D01*
X104289629Y-94597593D01*
X104372091Y-94752682D01*
X104422860Y-94920834D01*
X104440000Y-95095645D01*
X104440000Y-95104355D01*
X104439912Y-95116921D01*
X104420333Y-95291476D01*
X104367222Y-95458903D01*
X104282602Y-95612825D01*
X104169697Y-95747380D01*
X104032807Y-95857443D01*
X103877146Y-95938820D01*
X103708643Y-95988414D01*
X103708609Y-95988417D01*
X103708596Y-95988421D01*
X103533720Y-96004336D01*
X103359078Y-95985979D01*
X103359073Y-95985978D01*
X103359030Y-95985973D01*
X103191236Y-95934032D01*
X103036726Y-95850489D01*
X102901386Y-95738526D01*
X102790371Y-95602407D01*
X102707909Y-95447318D01*
X102657140Y-95279166D01*
X102640000Y-95104355D01*
X102640000Y-95095645D01*
X102640088Y-95083079D01*
X102659667Y-94908524D01*
X102712778Y-94741097D01*
X102797398Y-94587175D01*
X102910303Y-94452620D01*
X103047193Y-94342557D01*
X103202854Y-94261180D01*
X103371357Y-94211586D01*
X103371391Y-94211583D01*
X103371404Y-94211579D01*
X103546280Y-94195664D01*
X103720922Y-94214021D01*
X103720922Y-94214021D01*
G37*
G36*
X101180922Y-94214021D02*
X101180927Y-94214022D01*
X101180970Y-94214027D01*
X101348764Y-94265968D01*
X101503274Y-94349511D01*
X101638614Y-94461474D01*
X101749629Y-94597593D01*
X101832091Y-94752682D01*
X101882860Y-94920834D01*
X101900000Y-95095645D01*
X101900000Y-95104355D01*
X101899912Y-95116921D01*
X101880333Y-95291476D01*
X101827222Y-95458903D01*
X101742602Y-95612825D01*
X101629697Y-95747380D01*
X101492807Y-95857443D01*
X101337146Y-95938820D01*
X101168643Y-95988414D01*
X101168609Y-95988417D01*
X101168596Y-95988421D01*
X100993720Y-96004336D01*
X100819078Y-95985979D01*
X100819073Y-95985978D01*
X100819030Y-95985973D01*
X100651236Y-95934032D01*
X100496726Y-95850489D01*
X100361386Y-95738526D01*
X100250371Y-95602407D01*
X100167909Y-95447318D01*
X100117140Y-95279166D01*
X100100000Y-95104355D01*
X100100000Y-95095645D01*
X100100088Y-95083079D01*
X100119667Y-94908524D01*
X100172778Y-94741097D01*
X100257398Y-94587175D01*
X100370303Y-94452620D01*
X100507193Y-94342557D01*
X100662854Y-94261180D01*
X100831357Y-94211586D01*
X100831391Y-94211583D01*
X100831404Y-94211579D01*
X101006280Y-94195664D01*
X101180922Y-94214021D01*
X101180922Y-94214021D01*
G37*
G36*
X111340922Y-94214021D02*
X111340927Y-94214022D01*
X111340970Y-94214027D01*
X111508764Y-94265968D01*
X111663274Y-94349511D01*
X111798614Y-94461474D01*
X111909629Y-94597593D01*
X111992091Y-94752682D01*
X112042860Y-94920834D01*
X112060000Y-95095645D01*
X112060000Y-95104355D01*
X112059912Y-95116921D01*
X112040333Y-95291476D01*
X111987222Y-95458903D01*
X111902602Y-95612825D01*
X111789697Y-95747380D01*
X111652807Y-95857443D01*
X111497146Y-95938820D01*
X111328643Y-95988414D01*
X111328609Y-95988417D01*
X111328596Y-95988421D01*
X111153720Y-96004336D01*
X110979078Y-95985979D01*
X110979073Y-95985978D01*
X110979030Y-95985973D01*
X110811236Y-95934032D01*
X110656726Y-95850489D01*
X110521386Y-95738526D01*
X110410371Y-95602407D01*
X110327909Y-95447318D01*
X110277140Y-95279166D01*
X110260000Y-95104355D01*
X110260000Y-95095645D01*
X110260088Y-95083079D01*
X110279667Y-94908524D01*
X110332778Y-94741097D01*
X110417398Y-94587175D01*
X110530303Y-94452620D01*
X110667193Y-94342557D01*
X110822854Y-94261180D01*
X110991357Y-94211586D01*
X110991391Y-94211583D01*
X110991404Y-94211579D01*
X111166280Y-94195664D01*
X111340922Y-94214021D01*
X111340922Y-94214021D01*
G37*
G36*
X113880922Y-94214021D02*
X113880927Y-94214022D01*
X113880970Y-94214027D01*
X114048764Y-94265968D01*
X114203274Y-94349511D01*
X114338614Y-94461474D01*
X114449629Y-94597593D01*
X114532091Y-94752682D01*
X114582860Y-94920834D01*
X114600000Y-95095645D01*
X114600000Y-95104355D01*
X114599912Y-95116921D01*
X114580333Y-95291476D01*
X114527222Y-95458903D01*
X114442602Y-95612825D01*
X114329697Y-95747380D01*
X114192807Y-95857443D01*
X114037146Y-95938820D01*
X113868643Y-95988414D01*
X113868609Y-95988417D01*
X113868596Y-95988421D01*
X113693720Y-96004336D01*
X113519078Y-95985979D01*
X113519073Y-95985978D01*
X113519030Y-95985973D01*
X113351236Y-95934032D01*
X113196726Y-95850489D01*
X113061386Y-95738526D01*
X112950371Y-95602407D01*
X112867909Y-95447318D01*
X112817140Y-95279166D01*
X112800000Y-95104355D01*
X112800000Y-95095645D01*
X112800088Y-95083079D01*
X112819667Y-94908524D01*
X112872778Y-94741097D01*
X112957398Y-94587175D01*
X113070303Y-94452620D01*
X113207193Y-94342557D01*
X113362854Y-94261180D01*
X113531357Y-94211586D01*
X113531391Y-94211583D01*
X113531404Y-94211579D01*
X113706280Y-94195664D01*
X113880922Y-94214021D01*
X113880922Y-94214021D01*
G37*
G36*
X116420922Y-94214021D02*
X116420927Y-94214022D01*
X116420970Y-94214027D01*
X116588764Y-94265968D01*
X116743274Y-94349511D01*
X116878614Y-94461474D01*
X116989629Y-94597593D01*
X117072091Y-94752682D01*
X117122860Y-94920834D01*
X117140000Y-95095645D01*
X117140000Y-95104355D01*
X117139912Y-95116921D01*
X117120333Y-95291476D01*
X117067222Y-95458903D01*
X116982602Y-95612825D01*
X116869697Y-95747380D01*
X116732807Y-95857443D01*
X116577146Y-95938820D01*
X116408643Y-95988414D01*
X116408609Y-95988417D01*
X116408596Y-95988421D01*
X116233720Y-96004336D01*
X116059078Y-95985979D01*
X116059073Y-95985978D01*
X116059030Y-95985973D01*
X115891236Y-95934032D01*
X115736726Y-95850489D01*
X115601386Y-95738526D01*
X115490371Y-95602407D01*
X115407909Y-95447318D01*
X115357140Y-95279166D01*
X115340000Y-95104355D01*
X115340000Y-95095645D01*
X115340088Y-95083079D01*
X115359667Y-94908524D01*
X115412778Y-94741097D01*
X115497398Y-94587175D01*
X115610303Y-94452620D01*
X115747193Y-94342557D01*
X115902854Y-94261180D01*
X116071357Y-94211586D01*
X116071391Y-94211583D01*
X116071404Y-94211579D01*
X116246280Y-94195664D01*
X116420922Y-94214021D01*
X116420922Y-94214021D01*
G37*
G36*
X98640922Y-94214021D02*
X98640927Y-94214022D01*
X98640970Y-94214027D01*
X98808764Y-94265968D01*
X98963274Y-94349511D01*
X99098614Y-94461474D01*
X99209629Y-94597593D01*
X99292091Y-94752682D01*
X99342860Y-94920834D01*
X99360000Y-95095645D01*
X99360000Y-95104355D01*
X99359912Y-95116921D01*
X99340333Y-95291476D01*
X99287222Y-95458903D01*
X99202602Y-95612825D01*
X99089697Y-95747380D01*
X98952807Y-95857443D01*
X98797146Y-95938820D01*
X98628643Y-95988414D01*
X98628609Y-95988417D01*
X98628596Y-95988421D01*
X98453720Y-96004336D01*
X98279078Y-95985979D01*
X98279073Y-95985978D01*
X98279030Y-95985973D01*
X98111236Y-95934032D01*
X97956726Y-95850489D01*
X97821386Y-95738526D01*
X97710371Y-95602407D01*
X97627909Y-95447318D01*
X97577140Y-95279166D01*
X97560000Y-95104355D01*
X97560000Y-95095645D01*
X97560088Y-95083079D01*
X97579667Y-94908524D01*
X97632778Y-94741097D01*
X97717398Y-94587175D01*
X97830303Y-94452620D01*
X97967193Y-94342557D01*
X98122854Y-94261180D01*
X98291357Y-94211586D01*
X98291391Y-94211583D01*
X98291404Y-94211579D01*
X98466280Y-94195664D01*
X98640922Y-94214021D01*
X98640922Y-94214021D01*
G37*
G36*
X111340922Y-91674021D02*
X111340927Y-91674022D01*
X111340970Y-91674027D01*
X111508764Y-91725968D01*
X111663274Y-91809511D01*
X111798614Y-91921474D01*
X111909629Y-92057593D01*
X111992091Y-92212682D01*
X112042860Y-92380834D01*
X112060000Y-92555645D01*
X112060000Y-92564355D01*
X112059912Y-92576921D01*
X112040333Y-92751476D01*
X111987222Y-92918903D01*
X111902602Y-93072825D01*
X111789697Y-93207380D01*
X111652807Y-93317443D01*
X111497146Y-93398820D01*
X111328643Y-93448414D01*
X111328609Y-93448417D01*
X111328596Y-93448421D01*
X111153720Y-93464336D01*
X110979078Y-93445979D01*
X110979073Y-93445978D01*
X110979030Y-93445973D01*
X110811236Y-93394032D01*
X110656726Y-93310489D01*
X110521386Y-93198526D01*
X110410371Y-93062407D01*
X110327909Y-92907318D01*
X110277140Y-92739166D01*
X110260000Y-92564355D01*
X110260000Y-92555645D01*
X110260088Y-92543079D01*
X110279667Y-92368524D01*
X110332778Y-92201097D01*
X110417398Y-92047175D01*
X110530303Y-91912620D01*
X110667193Y-91802557D01*
X110822854Y-91721180D01*
X110991357Y-91671586D01*
X110991391Y-91671583D01*
X110991404Y-91671579D01*
X111166280Y-91655664D01*
X111340922Y-91674021D01*
X111340922Y-91674021D01*
G37*
G36*
X113880922Y-91674021D02*
X113880927Y-91674022D01*
X113880970Y-91674027D01*
X114048764Y-91725968D01*
X114203274Y-91809511D01*
X114338614Y-91921474D01*
X114449629Y-92057593D01*
X114532091Y-92212682D01*
X114582860Y-92380834D01*
X114600000Y-92555645D01*
X114600000Y-92564355D01*
X114599912Y-92576921D01*
X114580333Y-92751476D01*
X114527222Y-92918903D01*
X114442602Y-93072825D01*
X114329697Y-93207380D01*
X114192807Y-93317443D01*
X114037146Y-93398820D01*
X113868643Y-93448414D01*
X113868609Y-93448417D01*
X113868596Y-93448421D01*
X113693720Y-93464336D01*
X113519078Y-93445979D01*
X113519073Y-93445978D01*
X113519030Y-93445973D01*
X113351236Y-93394032D01*
X113196726Y-93310489D01*
X113061386Y-93198526D01*
X112950371Y-93062407D01*
X112867909Y-92907318D01*
X112817140Y-92739166D01*
X112800000Y-92564355D01*
X112800000Y-92555645D01*
X112800088Y-92543079D01*
X112819667Y-92368524D01*
X112872778Y-92201097D01*
X112957398Y-92047175D01*
X113070303Y-91912620D01*
X113207193Y-91802557D01*
X113362854Y-91721180D01*
X113531357Y-91671586D01*
X113531391Y-91671583D01*
X113531404Y-91671579D01*
X113706280Y-91655664D01*
X113880922Y-91674021D01*
X113880922Y-91674021D01*
G37*
G36*
X108800922Y-91674021D02*
X108800927Y-91674022D01*
X108800970Y-91674027D01*
X108968764Y-91725968D01*
X109123274Y-91809511D01*
X109258614Y-91921474D01*
X109369629Y-92057593D01*
X109452091Y-92212682D01*
X109502860Y-92380834D01*
X109520000Y-92555645D01*
X109520000Y-92564355D01*
X109519912Y-92576921D01*
X109500333Y-92751476D01*
X109447222Y-92918903D01*
X109362602Y-93072825D01*
X109249697Y-93207380D01*
X109112807Y-93317443D01*
X108957146Y-93398820D01*
X108788643Y-93448414D01*
X108788609Y-93448417D01*
X108788596Y-93448421D01*
X108613720Y-93464336D01*
X108439078Y-93445979D01*
X108439073Y-93445978D01*
X108439030Y-93445973D01*
X108271236Y-93394032D01*
X108116726Y-93310489D01*
X107981386Y-93198526D01*
X107870371Y-93062407D01*
X107787909Y-92907318D01*
X107737140Y-92739166D01*
X107720000Y-92564355D01*
X107720000Y-92555645D01*
X107720088Y-92543079D01*
X107739667Y-92368524D01*
X107792778Y-92201097D01*
X107877398Y-92047175D01*
X107990303Y-91912620D01*
X108127193Y-91802557D01*
X108282854Y-91721180D01*
X108451357Y-91671586D01*
X108451391Y-91671583D01*
X108451404Y-91671579D01*
X108626280Y-91655664D01*
X108800922Y-91674021D01*
X108800922Y-91674021D01*
G37*
G36*
X116420922Y-91674021D02*
X116420927Y-91674022D01*
X116420970Y-91674027D01*
X116588764Y-91725968D01*
X116743274Y-91809511D01*
X116878614Y-91921474D01*
X116989629Y-92057593D01*
X117072091Y-92212682D01*
X117122860Y-92380834D01*
X117140000Y-92555645D01*
X117140000Y-92564355D01*
X117139912Y-92576921D01*
X117120333Y-92751476D01*
X117067222Y-92918903D01*
X116982602Y-93072825D01*
X116869697Y-93207380D01*
X116732807Y-93317443D01*
X116577146Y-93398820D01*
X116408643Y-93448414D01*
X116408609Y-93448417D01*
X116408596Y-93448421D01*
X116233720Y-93464336D01*
X116059078Y-93445979D01*
X116059073Y-93445978D01*
X116059030Y-93445973D01*
X115891236Y-93394032D01*
X115736726Y-93310489D01*
X115601386Y-93198526D01*
X115490371Y-93062407D01*
X115407909Y-92907318D01*
X115357140Y-92739166D01*
X115340000Y-92564355D01*
X115340000Y-92555645D01*
X115340088Y-92543079D01*
X115359667Y-92368524D01*
X115412778Y-92201097D01*
X115497398Y-92047175D01*
X115610303Y-91912620D01*
X115747193Y-91802557D01*
X115902854Y-91721180D01*
X116071357Y-91671586D01*
X116071391Y-91671583D01*
X116071404Y-91671579D01*
X116246280Y-91655664D01*
X116420922Y-91674021D01*
X116420922Y-91674021D01*
G37*
G36*
X106260922Y-91674021D02*
X106260927Y-91674022D01*
X106260970Y-91674027D01*
X106428764Y-91725968D01*
X106583274Y-91809511D01*
X106718614Y-91921474D01*
X106829629Y-92057593D01*
X106912091Y-92212682D01*
X106962860Y-92380834D01*
X106980000Y-92555645D01*
X106980000Y-92564355D01*
X106979912Y-92576921D01*
X106960333Y-92751476D01*
X106907222Y-92918903D01*
X106822602Y-93072825D01*
X106709697Y-93207380D01*
X106572807Y-93317443D01*
X106417146Y-93398820D01*
X106248643Y-93448414D01*
X106248609Y-93448417D01*
X106248596Y-93448421D01*
X106073720Y-93464336D01*
X105899078Y-93445979D01*
X105899073Y-93445978D01*
X105899030Y-93445973D01*
X105731236Y-93394032D01*
X105576726Y-93310489D01*
X105441386Y-93198526D01*
X105330371Y-93062407D01*
X105247909Y-92907318D01*
X105197140Y-92739166D01*
X105180000Y-92564355D01*
X105180000Y-92555645D01*
X105180088Y-92543079D01*
X105199667Y-92368524D01*
X105252778Y-92201097D01*
X105337398Y-92047175D01*
X105450303Y-91912620D01*
X105587193Y-91802557D01*
X105742854Y-91721180D01*
X105911357Y-91671586D01*
X105911391Y-91671583D01*
X105911404Y-91671579D01*
X106086280Y-91655664D01*
X106260922Y-91674021D01*
X106260922Y-91674021D01*
G37*
G36*
X103720922Y-91674021D02*
X103720927Y-91674022D01*
X103720970Y-91674027D01*
X103888764Y-91725968D01*
X104043274Y-91809511D01*
X104178614Y-91921474D01*
X104289629Y-92057593D01*
X104372091Y-92212682D01*
X104422860Y-92380834D01*
X104440000Y-92555645D01*
X104440000Y-92564355D01*
X104439912Y-92576921D01*
X104420333Y-92751476D01*
X104367222Y-92918903D01*
X104282602Y-93072825D01*
X104169697Y-93207380D01*
X104032807Y-93317443D01*
X103877146Y-93398820D01*
X103708643Y-93448414D01*
X103708609Y-93448417D01*
X103708596Y-93448421D01*
X103533720Y-93464336D01*
X103359078Y-93445979D01*
X103359073Y-93445978D01*
X103359030Y-93445973D01*
X103191236Y-93394032D01*
X103036726Y-93310489D01*
X102901386Y-93198526D01*
X102790371Y-93062407D01*
X102707909Y-92907318D01*
X102657140Y-92739166D01*
X102640000Y-92564355D01*
X102640000Y-92555645D01*
X102640088Y-92543079D01*
X102659667Y-92368524D01*
X102712778Y-92201097D01*
X102797398Y-92047175D01*
X102910303Y-91912620D01*
X103047193Y-91802557D01*
X103202854Y-91721180D01*
X103371357Y-91671586D01*
X103371391Y-91671583D01*
X103371404Y-91671579D01*
X103546280Y-91655664D01*
X103720922Y-91674021D01*
X103720922Y-91674021D01*
G37*
G36*
X101180922Y-91674021D02*
X101180927Y-91674022D01*
X101180970Y-91674027D01*
X101348764Y-91725968D01*
X101503274Y-91809511D01*
X101638614Y-91921474D01*
X101749629Y-92057593D01*
X101832091Y-92212682D01*
X101882860Y-92380834D01*
X101900000Y-92555645D01*
X101900000Y-92564355D01*
X101899912Y-92576921D01*
X101880333Y-92751476D01*
X101827222Y-92918903D01*
X101742602Y-93072825D01*
X101629697Y-93207380D01*
X101492807Y-93317443D01*
X101337146Y-93398820D01*
X101168643Y-93448414D01*
X101168609Y-93448417D01*
X101168596Y-93448421D01*
X100993720Y-93464336D01*
X100819078Y-93445979D01*
X100819073Y-93445978D01*
X100819030Y-93445973D01*
X100651236Y-93394032D01*
X100496726Y-93310489D01*
X100361386Y-93198526D01*
X100250371Y-93062407D01*
X100167909Y-92907318D01*
X100117140Y-92739166D01*
X100100000Y-92564355D01*
X100100000Y-92555645D01*
X100100088Y-92543079D01*
X100119667Y-92368524D01*
X100172778Y-92201097D01*
X100257398Y-92047175D01*
X100370303Y-91912620D01*
X100507193Y-91802557D01*
X100662854Y-91721180D01*
X100831357Y-91671586D01*
X100831391Y-91671583D01*
X100831404Y-91671579D01*
X101006280Y-91655664D01*
X101180922Y-91674021D01*
X101180922Y-91674021D01*
G37*
G36*
X99360000Y-93460000D02*
X97560000Y-93460000D01*
X97560000Y-91660000D01*
X99360000Y-91660000D01*
X99360000Y-93460000D01*
X99360000Y-93460000D01*
G37*
G36*
X85950000Y-92550000D02*
X82850000Y-92550000D01*
X82850000Y-89450000D01*
X85950000Y-89450000D01*
X85950000Y-92550000D01*
X85950000Y-92550000D01*
G37*
G36*
X117503306Y-61151097D02*
X117820281Y-61216163D01*
X118118577Y-61341554D01*
X118386839Y-61522499D01*
X118614848Y-61752106D01*
X118793916Y-62021623D01*
X118917222Y-62320787D01*
X118980005Y-62637865D01*
X118980005Y-62637875D01*
X118980071Y-62638209D01*
X118974910Y-63007800D01*
X118974834Y-63008134D01*
X118974834Y-63008146D01*
X118903225Y-63323340D01*
X118771611Y-63618948D01*
X118585089Y-63883361D01*
X118350755Y-64106513D01*
X118077550Y-64279894D01*
X117775865Y-64396911D01*
X117457201Y-64453099D01*
X117133690Y-64446323D01*
X116817650Y-64376837D01*
X116521135Y-64247293D01*
X116255427Y-64062621D01*
X116030645Y-63829853D01*
X115855361Y-63557865D01*
X115736242Y-63257005D01*
X115677828Y-62938734D01*
X115682347Y-62615185D01*
X115749622Y-62298677D01*
X115877096Y-62001259D01*
X116059909Y-61734267D01*
X116291101Y-61507867D01*
X116561862Y-61330686D01*
X116861882Y-61209470D01*
X117179729Y-61148837D01*
X117503306Y-61151097D01*
X117503306Y-61151097D01*
G37*
G36*
X112140922Y-56714021D02*
X112140927Y-56714022D01*
X112140970Y-56714027D01*
X112308764Y-56765968D01*
X112463274Y-56849511D01*
X112598614Y-56961474D01*
X112709629Y-57097593D01*
X112792091Y-57252682D01*
X112842860Y-57420834D01*
X112860000Y-57595645D01*
X112860000Y-57604355D01*
X112859912Y-57616921D01*
X112840333Y-57791476D01*
X112787222Y-57958903D01*
X112702602Y-58112825D01*
X112589697Y-58247380D01*
X112452807Y-58357443D01*
X112297146Y-58438820D01*
X112128643Y-58488414D01*
X112128609Y-58488417D01*
X112128596Y-58488421D01*
X111953720Y-58504336D01*
X111779078Y-58485979D01*
X111779073Y-58485978D01*
X111779030Y-58485973D01*
X111611236Y-58434032D01*
X111456726Y-58350489D01*
X111321386Y-58238526D01*
X111210371Y-58102407D01*
X111127909Y-57947318D01*
X111077140Y-57779166D01*
X111060000Y-57604355D01*
X111060000Y-57595645D01*
X111060088Y-57583079D01*
X111079667Y-57408524D01*
X111132778Y-57241097D01*
X111217398Y-57087175D01*
X111330303Y-56952620D01*
X111467193Y-56842557D01*
X111622854Y-56761180D01*
X111791357Y-56711586D01*
X111791391Y-56711583D01*
X111791404Y-56711579D01*
X111966280Y-56695664D01*
X112140922Y-56714021D01*
X112140922Y-56714021D01*
G37*
G36*
X114680922Y-56714021D02*
X114680927Y-56714022D01*
X114680970Y-56714027D01*
X114848764Y-56765968D01*
X115003274Y-56849511D01*
X115138614Y-56961474D01*
X115249629Y-57097593D01*
X115332091Y-57252682D01*
X115382860Y-57420834D01*
X115400000Y-57595645D01*
X115400000Y-57604355D01*
X115399912Y-57616921D01*
X115380333Y-57791476D01*
X115327222Y-57958903D01*
X115242602Y-58112825D01*
X115129697Y-58247380D01*
X114992807Y-58357443D01*
X114837146Y-58438820D01*
X114668643Y-58488414D01*
X114668609Y-58488417D01*
X114668596Y-58488421D01*
X114493720Y-58504336D01*
X114319078Y-58485979D01*
X114319073Y-58485978D01*
X114319030Y-58485973D01*
X114151236Y-58434032D01*
X113996726Y-58350489D01*
X113861386Y-58238526D01*
X113750371Y-58102407D01*
X113667909Y-57947318D01*
X113617140Y-57779166D01*
X113600000Y-57604355D01*
X113600000Y-57595645D01*
X113600088Y-57583079D01*
X113619667Y-57408524D01*
X113672778Y-57241097D01*
X113757398Y-57087175D01*
X113870303Y-56952620D01*
X114007193Y-56842557D01*
X114162854Y-56761180D01*
X114331357Y-56711586D01*
X114331391Y-56711583D01*
X114331404Y-56711579D01*
X114506280Y-56695664D01*
X114680922Y-56714021D01*
X114680922Y-56714021D01*
G37*
G36*
X117220922Y-56714021D02*
X117220927Y-56714022D01*
X117220970Y-56714027D01*
X117388764Y-56765968D01*
X117543274Y-56849511D01*
X117678614Y-56961474D01*
X117789629Y-57097593D01*
X117872091Y-57252682D01*
X117922860Y-57420834D01*
X117940000Y-57595645D01*
X117940000Y-57604355D01*
X117939912Y-57616921D01*
X117920333Y-57791476D01*
X117867222Y-57958903D01*
X117782602Y-58112825D01*
X117669697Y-58247380D01*
X117532807Y-58357443D01*
X117377146Y-58438820D01*
X117208643Y-58488414D01*
X117208609Y-58488417D01*
X117208596Y-58488421D01*
X117033720Y-58504336D01*
X116859078Y-58485979D01*
X116859073Y-58485978D01*
X116859030Y-58485973D01*
X116691236Y-58434032D01*
X116536726Y-58350489D01*
X116401386Y-58238526D01*
X116290371Y-58102407D01*
X116207909Y-57947318D01*
X116157140Y-57779166D01*
X116140000Y-57604355D01*
X116140000Y-57595645D01*
X116140088Y-57583079D01*
X116159667Y-57408524D01*
X116212778Y-57241097D01*
X116297398Y-57087175D01*
X116410303Y-56952620D01*
X116547193Y-56842557D01*
X116702854Y-56761180D01*
X116871357Y-56711586D01*
X116871391Y-56711583D01*
X116871404Y-56711579D01*
X117046280Y-56695664D01*
X117220922Y-56714021D01*
X117220922Y-56714021D01*
G37*
G36*
X102920922Y-56714021D02*
X102920927Y-56714022D01*
X102920970Y-56714027D01*
X103088764Y-56765968D01*
X103243274Y-56849511D01*
X103378614Y-56961474D01*
X103489629Y-57097593D01*
X103572091Y-57252682D01*
X103622860Y-57420834D01*
X103640000Y-57595645D01*
X103640000Y-57604355D01*
X103639912Y-57616921D01*
X103620333Y-57791476D01*
X103567222Y-57958903D01*
X103482602Y-58112825D01*
X103369697Y-58247380D01*
X103232807Y-58357443D01*
X103077146Y-58438820D01*
X102908643Y-58488414D01*
X102908609Y-58488417D01*
X102908596Y-58488421D01*
X102733720Y-58504336D01*
X102559078Y-58485979D01*
X102559073Y-58485978D01*
X102559030Y-58485973D01*
X102391236Y-58434032D01*
X102236726Y-58350489D01*
X102101386Y-58238526D01*
X101990371Y-58102407D01*
X101907909Y-57947318D01*
X101857140Y-57779166D01*
X101840000Y-57604355D01*
X101840000Y-57595645D01*
X101840088Y-57583079D01*
X101859667Y-57408524D01*
X101912778Y-57241097D01*
X101997398Y-57087175D01*
X102110303Y-56952620D01*
X102247193Y-56842557D01*
X102402854Y-56761180D01*
X102571357Y-56711586D01*
X102571391Y-56711583D01*
X102571404Y-56711579D01*
X102746280Y-56695664D01*
X102920922Y-56714021D01*
X102920922Y-56714021D01*
G37*
G36*
X100380922Y-56714021D02*
X100380927Y-56714022D01*
X100380970Y-56714027D01*
X100548764Y-56765968D01*
X100703274Y-56849511D01*
X100838614Y-56961474D01*
X100949629Y-57097593D01*
X101032091Y-57252682D01*
X101082860Y-57420834D01*
X101100000Y-57595645D01*
X101100000Y-57604355D01*
X101099912Y-57616921D01*
X101080333Y-57791476D01*
X101027222Y-57958903D01*
X100942602Y-58112825D01*
X100829697Y-58247380D01*
X100692807Y-58357443D01*
X100537146Y-58438820D01*
X100368643Y-58488414D01*
X100368609Y-58488417D01*
X100368596Y-58488421D01*
X100193720Y-58504336D01*
X100019078Y-58485979D01*
X100019073Y-58485978D01*
X100019030Y-58485973D01*
X99851236Y-58434032D01*
X99696726Y-58350489D01*
X99561386Y-58238526D01*
X99450371Y-58102407D01*
X99367909Y-57947318D01*
X99317140Y-57779166D01*
X99300000Y-57604355D01*
X99300000Y-57595645D01*
X99300088Y-57583079D01*
X99319667Y-57408524D01*
X99372778Y-57241097D01*
X99457398Y-57087175D01*
X99570303Y-56952620D01*
X99707193Y-56842557D01*
X99862854Y-56761180D01*
X100031357Y-56711586D01*
X100031391Y-56711583D01*
X100031404Y-56711579D01*
X100206280Y-56695664D01*
X100380922Y-56714021D01*
X100380922Y-56714021D01*
G37*
G36*
X119760922Y-56714021D02*
X119760927Y-56714022D01*
X119760970Y-56714027D01*
X119928764Y-56765968D01*
X120083274Y-56849511D01*
X120218614Y-56961474D01*
X120329629Y-57097593D01*
X120412091Y-57252682D01*
X120462860Y-57420834D01*
X120480000Y-57595645D01*
X120480000Y-57604355D01*
X120479912Y-57616921D01*
X120460333Y-57791476D01*
X120407222Y-57958903D01*
X120322602Y-58112825D01*
X120209697Y-58247380D01*
X120072807Y-58357443D01*
X119917146Y-58438820D01*
X119748643Y-58488414D01*
X119748609Y-58488417D01*
X119748596Y-58488421D01*
X119573720Y-58504336D01*
X119399078Y-58485979D01*
X119399073Y-58485978D01*
X119399030Y-58485973D01*
X119231236Y-58434032D01*
X119076726Y-58350489D01*
X118941386Y-58238526D01*
X118830371Y-58102407D01*
X118747909Y-57947318D01*
X118697140Y-57779166D01*
X118680000Y-57604355D01*
X118680000Y-57595645D01*
X118680088Y-57583079D01*
X118699667Y-57408524D01*
X118752778Y-57241097D01*
X118837398Y-57087175D01*
X118950303Y-56952620D01*
X119087193Y-56842557D01*
X119242854Y-56761180D01*
X119411357Y-56711586D01*
X119411391Y-56711583D01*
X119411404Y-56711579D01*
X119586280Y-56695664D01*
X119760922Y-56714021D01*
X119760922Y-56714021D01*
G37*
G36*
X122300922Y-56714021D02*
X122300927Y-56714022D01*
X122300970Y-56714027D01*
X122468764Y-56765968D01*
X122623274Y-56849511D01*
X122758614Y-56961474D01*
X122869629Y-57097593D01*
X122952091Y-57252682D01*
X123002860Y-57420834D01*
X123020000Y-57595645D01*
X123020000Y-57604355D01*
X123019912Y-57616921D01*
X123000333Y-57791476D01*
X122947222Y-57958903D01*
X122862602Y-58112825D01*
X122749697Y-58247380D01*
X122612807Y-58357443D01*
X122457146Y-58438820D01*
X122288643Y-58488414D01*
X122288609Y-58488417D01*
X122288596Y-58488421D01*
X122113720Y-58504336D01*
X121939078Y-58485979D01*
X121939073Y-58485978D01*
X121939030Y-58485973D01*
X121771236Y-58434032D01*
X121616726Y-58350489D01*
X121481386Y-58238526D01*
X121370371Y-58102407D01*
X121287909Y-57947318D01*
X121237140Y-57779166D01*
X121220000Y-57604355D01*
X121220000Y-57595645D01*
X121220088Y-57583079D01*
X121239667Y-57408524D01*
X121292778Y-57241097D01*
X121377398Y-57087175D01*
X121490303Y-56952620D01*
X121627193Y-56842557D01*
X121782854Y-56761180D01*
X121951357Y-56711586D01*
X121951391Y-56711583D01*
X121951404Y-56711579D01*
X122126280Y-56695664D01*
X122300922Y-56714021D01*
X122300922Y-56714021D01*
G37*
G36*
X124840922Y-56714021D02*
X124840927Y-56714022D01*
X124840970Y-56714027D01*
X125008764Y-56765968D01*
X125163274Y-56849511D01*
X125298614Y-56961474D01*
X125409629Y-57097593D01*
X125492091Y-57252682D01*
X125542860Y-57420834D01*
X125560000Y-57595645D01*
X125560000Y-57604355D01*
X125559912Y-57616921D01*
X125540333Y-57791476D01*
X125487222Y-57958903D01*
X125402602Y-58112825D01*
X125289697Y-58247380D01*
X125152807Y-58357443D01*
X124997146Y-58438820D01*
X124828643Y-58488414D01*
X124828609Y-58488417D01*
X124828596Y-58488421D01*
X124653720Y-58504336D01*
X124479078Y-58485979D01*
X124479073Y-58485978D01*
X124479030Y-58485973D01*
X124311236Y-58434032D01*
X124156726Y-58350489D01*
X124021386Y-58238526D01*
X123910371Y-58102407D01*
X123827909Y-57947318D01*
X123777140Y-57779166D01*
X123760000Y-57604355D01*
X123760000Y-57595645D01*
X123760088Y-57583079D01*
X123779667Y-57408524D01*
X123832778Y-57241097D01*
X123917398Y-57087175D01*
X124030303Y-56952620D01*
X124167193Y-56842557D01*
X124322854Y-56761180D01*
X124491357Y-56711586D01*
X124491391Y-56711583D01*
X124491404Y-56711579D01*
X124666280Y-56695664D01*
X124840922Y-56714021D01*
X124840922Y-56714021D01*
G37*
G36*
X127380922Y-56714021D02*
X127380927Y-56714022D01*
X127380970Y-56714027D01*
X127548764Y-56765968D01*
X127703274Y-56849511D01*
X127838614Y-56961474D01*
X127949629Y-57097593D01*
X128032091Y-57252682D01*
X128082860Y-57420834D01*
X128100000Y-57595645D01*
X128100000Y-57604355D01*
X128099912Y-57616921D01*
X128080333Y-57791476D01*
X128027222Y-57958903D01*
X127942602Y-58112825D01*
X127829697Y-58247380D01*
X127692807Y-58357443D01*
X127537146Y-58438820D01*
X127368643Y-58488414D01*
X127368609Y-58488417D01*
X127368596Y-58488421D01*
X127193720Y-58504336D01*
X127019078Y-58485979D01*
X127019073Y-58485978D01*
X127019030Y-58485973D01*
X126851236Y-58434032D01*
X126696726Y-58350489D01*
X126561386Y-58238526D01*
X126450371Y-58102407D01*
X126367909Y-57947318D01*
X126317140Y-57779166D01*
X126300000Y-57604355D01*
X126300000Y-57595645D01*
X126300088Y-57583079D01*
X126319667Y-57408524D01*
X126372778Y-57241097D01*
X126457398Y-57087175D01*
X126570303Y-56952620D01*
X126707193Y-56842557D01*
X126862854Y-56761180D01*
X127031357Y-56711586D01*
X127031391Y-56711583D01*
X127031404Y-56711579D01*
X127206280Y-56695664D01*
X127380922Y-56714021D01*
X127380922Y-56714021D01*
G37*
G36*
X97840922Y-56714021D02*
X97840927Y-56714022D01*
X97840970Y-56714027D01*
X98008764Y-56765968D01*
X98163274Y-56849511D01*
X98298614Y-56961474D01*
X98409629Y-57097593D01*
X98492091Y-57252682D01*
X98542860Y-57420834D01*
X98560000Y-57595645D01*
X98560000Y-57604355D01*
X98559912Y-57616921D01*
X98540333Y-57791476D01*
X98487222Y-57958903D01*
X98402602Y-58112825D01*
X98289697Y-58247380D01*
X98152807Y-58357443D01*
X97997146Y-58438820D01*
X97828643Y-58488414D01*
X97828609Y-58488417D01*
X97828596Y-58488421D01*
X97653720Y-58504336D01*
X97479078Y-58485979D01*
X97479073Y-58485978D01*
X97479030Y-58485973D01*
X97311236Y-58434032D01*
X97156726Y-58350489D01*
X97021386Y-58238526D01*
X96910371Y-58102407D01*
X96827909Y-57947318D01*
X96777140Y-57779166D01*
X96760000Y-57604355D01*
X96760000Y-57595645D01*
X96760088Y-57583079D01*
X96779667Y-57408524D01*
X96832778Y-57241097D01*
X96917398Y-57087175D01*
X97030303Y-56952620D01*
X97167193Y-56842557D01*
X97322854Y-56761180D01*
X97491357Y-56711586D01*
X97491391Y-56711583D01*
X97491404Y-56711579D01*
X97666280Y-56695664D01*
X97840922Y-56714021D01*
X97840922Y-56714021D01*
G37*
G36*
X95300922Y-56714021D02*
X95300927Y-56714022D01*
X95300970Y-56714027D01*
X95468764Y-56765968D01*
X95623274Y-56849511D01*
X95758614Y-56961474D01*
X95869629Y-57097593D01*
X95952091Y-57252682D01*
X96002860Y-57420834D01*
X96020000Y-57595645D01*
X96020000Y-57604355D01*
X96019912Y-57616921D01*
X96000333Y-57791476D01*
X95947222Y-57958903D01*
X95862602Y-58112825D01*
X95749697Y-58247380D01*
X95612807Y-58357443D01*
X95457146Y-58438820D01*
X95288643Y-58488414D01*
X95288609Y-58488417D01*
X95288596Y-58488421D01*
X95113720Y-58504336D01*
X94939078Y-58485979D01*
X94939073Y-58485978D01*
X94939030Y-58485973D01*
X94771236Y-58434032D01*
X94616726Y-58350489D01*
X94481386Y-58238526D01*
X94370371Y-58102407D01*
X94287909Y-57947318D01*
X94237140Y-57779166D01*
X94220000Y-57604355D01*
X94220000Y-57595645D01*
X94220088Y-57583079D01*
X94239667Y-57408524D01*
X94292778Y-57241097D01*
X94377398Y-57087175D01*
X94490303Y-56952620D01*
X94627193Y-56842557D01*
X94782854Y-56761180D01*
X94951357Y-56711586D01*
X94951391Y-56711583D01*
X94951404Y-56711579D01*
X95126280Y-56695664D01*
X95300922Y-56714021D01*
X95300922Y-56714021D01*
G37*
G36*
X92760922Y-56714021D02*
X92760927Y-56714022D01*
X92760970Y-56714027D01*
X92928764Y-56765968D01*
X93083274Y-56849511D01*
X93218614Y-56961474D01*
X93329629Y-57097593D01*
X93412091Y-57252682D01*
X93462860Y-57420834D01*
X93480000Y-57595645D01*
X93480000Y-57604355D01*
X93479912Y-57616921D01*
X93460333Y-57791476D01*
X93407222Y-57958903D01*
X93322602Y-58112825D01*
X93209697Y-58247380D01*
X93072807Y-58357443D01*
X92917146Y-58438820D01*
X92748643Y-58488414D01*
X92748609Y-58488417D01*
X92748596Y-58488421D01*
X92573720Y-58504336D01*
X92399078Y-58485979D01*
X92399073Y-58485978D01*
X92399030Y-58485973D01*
X92231236Y-58434032D01*
X92076726Y-58350489D01*
X91941386Y-58238526D01*
X91830371Y-58102407D01*
X91747909Y-57947318D01*
X91697140Y-57779166D01*
X91680000Y-57604355D01*
X91680000Y-57595645D01*
X91680088Y-57583079D01*
X91699667Y-57408524D01*
X91752778Y-57241097D01*
X91837398Y-57087175D01*
X91950303Y-56952620D01*
X92087193Y-56842557D01*
X92242854Y-56761180D01*
X92411357Y-56711586D01*
X92411391Y-56711583D01*
X92411404Y-56711579D01*
X92586280Y-56695664D01*
X92760922Y-56714021D01*
X92760922Y-56714021D01*
G37*
G36*
X90220922Y-56714021D02*
X90220927Y-56714022D01*
X90220970Y-56714027D01*
X90388764Y-56765968D01*
X90543274Y-56849511D01*
X90678614Y-56961474D01*
X90789629Y-57097593D01*
X90872091Y-57252682D01*
X90922860Y-57420834D01*
X90940000Y-57595645D01*
X90940000Y-57604355D01*
X90939912Y-57616921D01*
X90920333Y-57791476D01*
X90867222Y-57958903D01*
X90782602Y-58112825D01*
X90669697Y-58247380D01*
X90532807Y-58357443D01*
X90377146Y-58438820D01*
X90208643Y-58488414D01*
X90208609Y-58488417D01*
X90208596Y-58488421D01*
X90033720Y-58504336D01*
X89859078Y-58485979D01*
X89859073Y-58485978D01*
X89859030Y-58485973D01*
X89691236Y-58434032D01*
X89536726Y-58350489D01*
X89401386Y-58238526D01*
X89290371Y-58102407D01*
X89207909Y-57947318D01*
X89157140Y-57779166D01*
X89140000Y-57604355D01*
X89140000Y-57595645D01*
X89140088Y-57583079D01*
X89159667Y-57408524D01*
X89212778Y-57241097D01*
X89297398Y-57087175D01*
X89410303Y-56952620D01*
X89547193Y-56842557D01*
X89702854Y-56761180D01*
X89871357Y-56711586D01*
X89871391Y-56711583D01*
X89871404Y-56711579D01*
X90046280Y-56695664D01*
X90220922Y-56714021D01*
X90220922Y-56714021D01*
G37*
G36*
X87680922Y-56714021D02*
X87680927Y-56714022D01*
X87680970Y-56714027D01*
X87848764Y-56765968D01*
X88003274Y-56849511D01*
X88138614Y-56961474D01*
X88249629Y-57097593D01*
X88332091Y-57252682D01*
X88382860Y-57420834D01*
X88400000Y-57595645D01*
X88400000Y-57604355D01*
X88399912Y-57616921D01*
X88380333Y-57791476D01*
X88327222Y-57958903D01*
X88242602Y-58112825D01*
X88129697Y-58247380D01*
X87992807Y-58357443D01*
X87837146Y-58438820D01*
X87668643Y-58488414D01*
X87668609Y-58488417D01*
X87668596Y-58488421D01*
X87493720Y-58504336D01*
X87319078Y-58485979D01*
X87319073Y-58485978D01*
X87319030Y-58485973D01*
X87151236Y-58434032D01*
X86996726Y-58350489D01*
X86861386Y-58238526D01*
X86750371Y-58102407D01*
X86667909Y-57947318D01*
X86617140Y-57779166D01*
X86600000Y-57604355D01*
X86600000Y-57595645D01*
X86600088Y-57583079D01*
X86619667Y-57408524D01*
X86672778Y-57241097D01*
X86757398Y-57087175D01*
X86870303Y-56952620D01*
X87007193Y-56842557D01*
X87162854Y-56761180D01*
X87331357Y-56711586D01*
X87331391Y-56711583D01*
X87331404Y-56711579D01*
X87506280Y-56695664D01*
X87680922Y-56714021D01*
X87680922Y-56714021D01*
G37*
G36*
X85140922Y-56714021D02*
X85140927Y-56714022D01*
X85140970Y-56714027D01*
X85308764Y-56765968D01*
X85463274Y-56849511D01*
X85598614Y-56961474D01*
X85709629Y-57097593D01*
X85792091Y-57252682D01*
X85842860Y-57420834D01*
X85860000Y-57595645D01*
X85860000Y-57604355D01*
X85859912Y-57616921D01*
X85840333Y-57791476D01*
X85787222Y-57958903D01*
X85702602Y-58112825D01*
X85589697Y-58247380D01*
X85452807Y-58357443D01*
X85297146Y-58438820D01*
X85128643Y-58488414D01*
X85128609Y-58488417D01*
X85128596Y-58488421D01*
X84953720Y-58504336D01*
X84779078Y-58485979D01*
X84779073Y-58485978D01*
X84779030Y-58485973D01*
X84611236Y-58434032D01*
X84456726Y-58350489D01*
X84321386Y-58238526D01*
X84210371Y-58102407D01*
X84127909Y-57947318D01*
X84077140Y-57779166D01*
X84060000Y-57604355D01*
X84060000Y-57595645D01*
X84060088Y-57583079D01*
X84079667Y-57408524D01*
X84132778Y-57241097D01*
X84217398Y-57087175D01*
X84330303Y-56952620D01*
X84467193Y-56842557D01*
X84622854Y-56761180D01*
X84791357Y-56711586D01*
X84791391Y-56711583D01*
X84791404Y-56711579D01*
X84966280Y-56695664D01*
X85140922Y-56714021D01*
X85140922Y-56714021D01*
G37*
G36*
X129920922Y-56714021D02*
X129920927Y-56714022D01*
X129920970Y-56714027D01*
X130088764Y-56765968D01*
X130243274Y-56849511D01*
X130378614Y-56961474D01*
X130489629Y-57097593D01*
X130572091Y-57252682D01*
X130622860Y-57420834D01*
X130640000Y-57595645D01*
X130640000Y-57604355D01*
X130639912Y-57616921D01*
X130620333Y-57791476D01*
X130567222Y-57958903D01*
X130482602Y-58112825D01*
X130369697Y-58247380D01*
X130232807Y-58357443D01*
X130077146Y-58438820D01*
X129908643Y-58488414D01*
X129908609Y-58488417D01*
X129908596Y-58488421D01*
X129733720Y-58504336D01*
X129559078Y-58485979D01*
X129559073Y-58485978D01*
X129559030Y-58485973D01*
X129391236Y-58434032D01*
X129236726Y-58350489D01*
X129101386Y-58238526D01*
X128990371Y-58102407D01*
X128907909Y-57947318D01*
X128857140Y-57779166D01*
X128840000Y-57604355D01*
X128840000Y-57595645D01*
X128840088Y-57583079D01*
X128859667Y-57408524D01*
X128912778Y-57241097D01*
X128997398Y-57087175D01*
X129110303Y-56952620D01*
X129247193Y-56842557D01*
X129402854Y-56761180D01*
X129571357Y-56711586D01*
X129571391Y-56711583D01*
X129571404Y-56711579D01*
X129746280Y-56695664D01*
X129920922Y-56714021D01*
X129920922Y-56714021D01*
G37*
G36*
X122300922Y-54174021D02*
X122300927Y-54174022D01*
X122300970Y-54174027D01*
X122468764Y-54225968D01*
X122623274Y-54309511D01*
X122758614Y-54421474D01*
X122869629Y-54557593D01*
X122952091Y-54712682D01*
X123002860Y-54880834D01*
X123020000Y-55055645D01*
X123020000Y-55064355D01*
X123019912Y-55076921D01*
X123000333Y-55251476D01*
X122947222Y-55418903D01*
X122862602Y-55572825D01*
X122749697Y-55707380D01*
X122612807Y-55817443D01*
X122457146Y-55898820D01*
X122288643Y-55948414D01*
X122288609Y-55948417D01*
X122288596Y-55948421D01*
X122113720Y-55964336D01*
X121939078Y-55945979D01*
X121939073Y-55945978D01*
X121939030Y-55945973D01*
X121771236Y-55894032D01*
X121616726Y-55810489D01*
X121481386Y-55698526D01*
X121370371Y-55562407D01*
X121287909Y-55407318D01*
X121237140Y-55239166D01*
X121220000Y-55064355D01*
X121220000Y-55055645D01*
X121220088Y-55043079D01*
X121239667Y-54868524D01*
X121292778Y-54701097D01*
X121377398Y-54547175D01*
X121490303Y-54412620D01*
X121627193Y-54302557D01*
X121782854Y-54221180D01*
X121951357Y-54171586D01*
X121951391Y-54171583D01*
X121951404Y-54171579D01*
X122126280Y-54155664D01*
X122300922Y-54174021D01*
X122300922Y-54174021D01*
G37*
G36*
X90220922Y-54174021D02*
X90220927Y-54174022D01*
X90220970Y-54174027D01*
X90388764Y-54225968D01*
X90543274Y-54309511D01*
X90678614Y-54421474D01*
X90789629Y-54557593D01*
X90872091Y-54712682D01*
X90922860Y-54880834D01*
X90940000Y-55055645D01*
X90940000Y-55064355D01*
X90939912Y-55076921D01*
X90920333Y-55251476D01*
X90867222Y-55418903D01*
X90782602Y-55572825D01*
X90669697Y-55707380D01*
X90532807Y-55817443D01*
X90377146Y-55898820D01*
X90208643Y-55948414D01*
X90208609Y-55948417D01*
X90208596Y-55948421D01*
X90033720Y-55964336D01*
X89859078Y-55945979D01*
X89859073Y-55945978D01*
X89859030Y-55945973D01*
X89691236Y-55894032D01*
X89536726Y-55810489D01*
X89401386Y-55698526D01*
X89290371Y-55562407D01*
X89207909Y-55407318D01*
X89157140Y-55239166D01*
X89140000Y-55064355D01*
X89140000Y-55055645D01*
X89140088Y-55043079D01*
X89159667Y-54868524D01*
X89212778Y-54701097D01*
X89297398Y-54547175D01*
X89410303Y-54412620D01*
X89547193Y-54302557D01*
X89702854Y-54221180D01*
X89871357Y-54171586D01*
X89871391Y-54171583D01*
X89871404Y-54171579D01*
X90046280Y-54155664D01*
X90220922Y-54174021D01*
X90220922Y-54174021D01*
G37*
G36*
X95300922Y-54174021D02*
X95300927Y-54174022D01*
X95300970Y-54174027D01*
X95468764Y-54225968D01*
X95623274Y-54309511D01*
X95758614Y-54421474D01*
X95869629Y-54557593D01*
X95952091Y-54712682D01*
X96002860Y-54880834D01*
X96020000Y-55055645D01*
X96020000Y-55064355D01*
X96019912Y-55076921D01*
X96000333Y-55251476D01*
X95947222Y-55418903D01*
X95862602Y-55572825D01*
X95749697Y-55707380D01*
X95612807Y-55817443D01*
X95457146Y-55898820D01*
X95288643Y-55948414D01*
X95288609Y-55948417D01*
X95288596Y-55948421D01*
X95113720Y-55964336D01*
X94939078Y-55945979D01*
X94939073Y-55945978D01*
X94939030Y-55945973D01*
X94771236Y-55894032D01*
X94616726Y-55810489D01*
X94481386Y-55698526D01*
X94370371Y-55562407D01*
X94287909Y-55407318D01*
X94237140Y-55239166D01*
X94220000Y-55064355D01*
X94220000Y-55055645D01*
X94220088Y-55043079D01*
X94239667Y-54868524D01*
X94292778Y-54701097D01*
X94377398Y-54547175D01*
X94490303Y-54412620D01*
X94627193Y-54302557D01*
X94782854Y-54221180D01*
X94951357Y-54171586D01*
X94951391Y-54171583D01*
X94951404Y-54171579D01*
X95126280Y-54155664D01*
X95300922Y-54174021D01*
X95300922Y-54174021D01*
G37*
G36*
X97840922Y-54174021D02*
X97840927Y-54174022D01*
X97840970Y-54174027D01*
X98008764Y-54225968D01*
X98163274Y-54309511D01*
X98298614Y-54421474D01*
X98409629Y-54557593D01*
X98492091Y-54712682D01*
X98542860Y-54880834D01*
X98560000Y-55055645D01*
X98560000Y-55064355D01*
X98559912Y-55076921D01*
X98540333Y-55251476D01*
X98487222Y-55418903D01*
X98402602Y-55572825D01*
X98289697Y-55707380D01*
X98152807Y-55817443D01*
X97997146Y-55898820D01*
X97828643Y-55948414D01*
X97828609Y-55948417D01*
X97828596Y-55948421D01*
X97653720Y-55964336D01*
X97479078Y-55945979D01*
X97479073Y-55945978D01*
X97479030Y-55945973D01*
X97311236Y-55894032D01*
X97156726Y-55810489D01*
X97021386Y-55698526D01*
X96910371Y-55562407D01*
X96827909Y-55407318D01*
X96777140Y-55239166D01*
X96760000Y-55064355D01*
X96760000Y-55055645D01*
X96760088Y-55043079D01*
X96779667Y-54868524D01*
X96832778Y-54701097D01*
X96917398Y-54547175D01*
X97030303Y-54412620D01*
X97167193Y-54302557D01*
X97322854Y-54221180D01*
X97491357Y-54171586D01*
X97491391Y-54171583D01*
X97491404Y-54171579D01*
X97666280Y-54155664D01*
X97840922Y-54174021D01*
X97840922Y-54174021D01*
G37*
G36*
X124840922Y-54174021D02*
X124840927Y-54174022D01*
X124840970Y-54174027D01*
X125008764Y-54225968D01*
X125163274Y-54309511D01*
X125298614Y-54421474D01*
X125409629Y-54557593D01*
X125492091Y-54712682D01*
X125542860Y-54880834D01*
X125560000Y-55055645D01*
X125560000Y-55064355D01*
X125559912Y-55076921D01*
X125540333Y-55251476D01*
X125487222Y-55418903D01*
X125402602Y-55572825D01*
X125289697Y-55707380D01*
X125152807Y-55817443D01*
X124997146Y-55898820D01*
X124828643Y-55948414D01*
X124828609Y-55948417D01*
X124828596Y-55948421D01*
X124653720Y-55964336D01*
X124479078Y-55945979D01*
X124479073Y-55945978D01*
X124479030Y-55945973D01*
X124311236Y-55894032D01*
X124156726Y-55810489D01*
X124021386Y-55698526D01*
X123910371Y-55562407D01*
X123827909Y-55407318D01*
X123777140Y-55239166D01*
X123760000Y-55064355D01*
X123760000Y-55055645D01*
X123760088Y-55043079D01*
X123779667Y-54868524D01*
X123832778Y-54701097D01*
X123917398Y-54547175D01*
X124030303Y-54412620D01*
X124167193Y-54302557D01*
X124322854Y-54221180D01*
X124491357Y-54171586D01*
X124491391Y-54171583D01*
X124491404Y-54171579D01*
X124666280Y-54155664D01*
X124840922Y-54174021D01*
X124840922Y-54174021D01*
G37*
G36*
X119760922Y-54174021D02*
X119760927Y-54174022D01*
X119760970Y-54174027D01*
X119928764Y-54225968D01*
X120083274Y-54309511D01*
X120218614Y-54421474D01*
X120329629Y-54557593D01*
X120412091Y-54712682D01*
X120462860Y-54880834D01*
X120480000Y-55055645D01*
X120480000Y-55064355D01*
X120479912Y-55076921D01*
X120460333Y-55251476D01*
X120407222Y-55418903D01*
X120322602Y-55572825D01*
X120209697Y-55707380D01*
X120072807Y-55817443D01*
X119917146Y-55898820D01*
X119748643Y-55948414D01*
X119748609Y-55948417D01*
X119748596Y-55948421D01*
X119573720Y-55964336D01*
X119399078Y-55945979D01*
X119399073Y-55945978D01*
X119399030Y-55945973D01*
X119231236Y-55894032D01*
X119076726Y-55810489D01*
X118941386Y-55698526D01*
X118830371Y-55562407D01*
X118747909Y-55407318D01*
X118697140Y-55239166D01*
X118680000Y-55064355D01*
X118680000Y-55055645D01*
X118680088Y-55043079D01*
X118699667Y-54868524D01*
X118752778Y-54701097D01*
X118837398Y-54547175D01*
X118950303Y-54412620D01*
X119087193Y-54302557D01*
X119242854Y-54221180D01*
X119411357Y-54171586D01*
X119411391Y-54171583D01*
X119411404Y-54171579D01*
X119586280Y-54155664D01*
X119760922Y-54174021D01*
X119760922Y-54174021D01*
G37*
G36*
X117220922Y-54174021D02*
X117220927Y-54174022D01*
X117220970Y-54174027D01*
X117388764Y-54225968D01*
X117543274Y-54309511D01*
X117678614Y-54421474D01*
X117789629Y-54557593D01*
X117872091Y-54712682D01*
X117922860Y-54880834D01*
X117940000Y-55055645D01*
X117940000Y-55064355D01*
X117939912Y-55076921D01*
X117920333Y-55251476D01*
X117867222Y-55418903D01*
X117782602Y-55572825D01*
X117669697Y-55707380D01*
X117532807Y-55817443D01*
X117377146Y-55898820D01*
X117208643Y-55948414D01*
X117208609Y-55948417D01*
X117208596Y-55948421D01*
X117033720Y-55964336D01*
X116859078Y-55945979D01*
X116859073Y-55945978D01*
X116859030Y-55945973D01*
X116691236Y-55894032D01*
X116536726Y-55810489D01*
X116401386Y-55698526D01*
X116290371Y-55562407D01*
X116207909Y-55407318D01*
X116157140Y-55239166D01*
X116140000Y-55064355D01*
X116140000Y-55055645D01*
X116140088Y-55043079D01*
X116159667Y-54868524D01*
X116212778Y-54701097D01*
X116297398Y-54547175D01*
X116410303Y-54412620D01*
X116547193Y-54302557D01*
X116702854Y-54221180D01*
X116871357Y-54171586D01*
X116871391Y-54171583D01*
X116871404Y-54171579D01*
X117046280Y-54155664D01*
X117220922Y-54174021D01*
X117220922Y-54174021D01*
G37*
G36*
X100380922Y-54174021D02*
X100380927Y-54174022D01*
X100380970Y-54174027D01*
X100548764Y-54225968D01*
X100703274Y-54309511D01*
X100838614Y-54421474D01*
X100949629Y-54557593D01*
X101032091Y-54712682D01*
X101082860Y-54880834D01*
X101100000Y-55055645D01*
X101100000Y-55064355D01*
X101099912Y-55076921D01*
X101080333Y-55251476D01*
X101027222Y-55418903D01*
X100942602Y-55572825D01*
X100829697Y-55707380D01*
X100692807Y-55817443D01*
X100537146Y-55898820D01*
X100368643Y-55948414D01*
X100368609Y-55948417D01*
X100368596Y-55948421D01*
X100193720Y-55964336D01*
X100019078Y-55945979D01*
X100019073Y-55945978D01*
X100019030Y-55945973D01*
X99851236Y-55894032D01*
X99696726Y-55810489D01*
X99561386Y-55698526D01*
X99450371Y-55562407D01*
X99367909Y-55407318D01*
X99317140Y-55239166D01*
X99300000Y-55064355D01*
X99300000Y-55055645D01*
X99300088Y-55043079D01*
X99319667Y-54868524D01*
X99372778Y-54701097D01*
X99457398Y-54547175D01*
X99570303Y-54412620D01*
X99707193Y-54302557D01*
X99862854Y-54221180D01*
X100031357Y-54171586D01*
X100031391Y-54171583D01*
X100031404Y-54171579D01*
X100206280Y-54155664D01*
X100380922Y-54174021D01*
X100380922Y-54174021D01*
G37*
G36*
X87680922Y-54174021D02*
X87680927Y-54174022D01*
X87680970Y-54174027D01*
X87848764Y-54225968D01*
X88003274Y-54309511D01*
X88138614Y-54421474D01*
X88249629Y-54557593D01*
X88332091Y-54712682D01*
X88382860Y-54880834D01*
X88400000Y-55055645D01*
X88400000Y-55064355D01*
X88399912Y-55076921D01*
X88380333Y-55251476D01*
X88327222Y-55418903D01*
X88242602Y-55572825D01*
X88129697Y-55707380D01*
X87992807Y-55817443D01*
X87837146Y-55898820D01*
X87668643Y-55948414D01*
X87668609Y-55948417D01*
X87668596Y-55948421D01*
X87493720Y-55964336D01*
X87319078Y-55945979D01*
X87319073Y-55945978D01*
X87319030Y-55945973D01*
X87151236Y-55894032D01*
X86996726Y-55810489D01*
X86861386Y-55698526D01*
X86750371Y-55562407D01*
X86667909Y-55407318D01*
X86617140Y-55239166D01*
X86600000Y-55064355D01*
X86600000Y-55055645D01*
X86600088Y-55043079D01*
X86619667Y-54868524D01*
X86672778Y-54701097D01*
X86757398Y-54547175D01*
X86870303Y-54412620D01*
X87007193Y-54302557D01*
X87162854Y-54221180D01*
X87331357Y-54171586D01*
X87331391Y-54171583D01*
X87331404Y-54171579D01*
X87506280Y-54155664D01*
X87680922Y-54174021D01*
X87680922Y-54174021D01*
G37*
G36*
X102920922Y-54174021D02*
X102920927Y-54174022D01*
X102920970Y-54174027D01*
X103088764Y-54225968D01*
X103243274Y-54309511D01*
X103378614Y-54421474D01*
X103489629Y-54557593D01*
X103572091Y-54712682D01*
X103622860Y-54880834D01*
X103640000Y-55055645D01*
X103640000Y-55064355D01*
X103639912Y-55076921D01*
X103620333Y-55251476D01*
X103567222Y-55418903D01*
X103482602Y-55572825D01*
X103369697Y-55707380D01*
X103232807Y-55817443D01*
X103077146Y-55898820D01*
X102908643Y-55948414D01*
X102908609Y-55948417D01*
X102908596Y-55948421D01*
X102733720Y-55964336D01*
X102559078Y-55945979D01*
X102559073Y-55945978D01*
X102559030Y-55945973D01*
X102391236Y-55894032D01*
X102236726Y-55810489D01*
X102101386Y-55698526D01*
X101990371Y-55562407D01*
X101907909Y-55407318D01*
X101857140Y-55239166D01*
X101840000Y-55064355D01*
X101840000Y-55055645D01*
X101840088Y-55043079D01*
X101859667Y-54868524D01*
X101912778Y-54701097D01*
X101997398Y-54547175D01*
X102110303Y-54412620D01*
X102247193Y-54302557D01*
X102402854Y-54221180D01*
X102571357Y-54171586D01*
X102571391Y-54171583D01*
X102571404Y-54171579D01*
X102746280Y-54155664D01*
X102920922Y-54174021D01*
X102920922Y-54174021D01*
G37*
G36*
X127380922Y-54174021D02*
X127380927Y-54174022D01*
X127380970Y-54174027D01*
X127548764Y-54225968D01*
X127703274Y-54309511D01*
X127838614Y-54421474D01*
X127949629Y-54557593D01*
X128032091Y-54712682D01*
X128082860Y-54880834D01*
X128100000Y-55055645D01*
X128100000Y-55064355D01*
X128099912Y-55076921D01*
X128080333Y-55251476D01*
X128027222Y-55418903D01*
X127942602Y-55572825D01*
X127829697Y-55707380D01*
X127692807Y-55817443D01*
X127537146Y-55898820D01*
X127368643Y-55948414D01*
X127368609Y-55948417D01*
X127368596Y-55948421D01*
X127193720Y-55964336D01*
X127019078Y-55945979D01*
X127019073Y-55945978D01*
X127019030Y-55945973D01*
X126851236Y-55894032D01*
X126696726Y-55810489D01*
X126561386Y-55698526D01*
X126450371Y-55562407D01*
X126367909Y-55407318D01*
X126317140Y-55239166D01*
X126300000Y-55064355D01*
X126300000Y-55055645D01*
X126300088Y-55043079D01*
X126319667Y-54868524D01*
X126372778Y-54701097D01*
X126457398Y-54547175D01*
X126570303Y-54412620D01*
X126707193Y-54302557D01*
X126862854Y-54221180D01*
X127031357Y-54171586D01*
X127031391Y-54171583D01*
X127031404Y-54171579D01*
X127206280Y-54155664D01*
X127380922Y-54174021D01*
X127380922Y-54174021D01*
G37*
G36*
X114680922Y-54174021D02*
X114680927Y-54174022D01*
X114680970Y-54174027D01*
X114848764Y-54225968D01*
X115003274Y-54309511D01*
X115138614Y-54421474D01*
X115249629Y-54557593D01*
X115332091Y-54712682D01*
X115382860Y-54880834D01*
X115400000Y-55055645D01*
X115400000Y-55064355D01*
X115399912Y-55076921D01*
X115380333Y-55251476D01*
X115327222Y-55418903D01*
X115242602Y-55572825D01*
X115129697Y-55707380D01*
X114992807Y-55817443D01*
X114837146Y-55898820D01*
X114668643Y-55948414D01*
X114668609Y-55948417D01*
X114668596Y-55948421D01*
X114493720Y-55964336D01*
X114319078Y-55945979D01*
X114319073Y-55945978D01*
X114319030Y-55945973D01*
X114151236Y-55894032D01*
X113996726Y-55810489D01*
X113861386Y-55698526D01*
X113750371Y-55562407D01*
X113667909Y-55407318D01*
X113617140Y-55239166D01*
X113600000Y-55064355D01*
X113600000Y-55055645D01*
X113600088Y-55043079D01*
X113619667Y-54868524D01*
X113672778Y-54701097D01*
X113757398Y-54547175D01*
X113870303Y-54412620D01*
X114007193Y-54302557D01*
X114162854Y-54221180D01*
X114331357Y-54171586D01*
X114331391Y-54171583D01*
X114331404Y-54171579D01*
X114506280Y-54155664D01*
X114680922Y-54174021D01*
X114680922Y-54174021D01*
G37*
G36*
X129920922Y-54174021D02*
X129920927Y-54174022D01*
X129920970Y-54174027D01*
X130088764Y-54225968D01*
X130243274Y-54309511D01*
X130378614Y-54421474D01*
X130489629Y-54557593D01*
X130572091Y-54712682D01*
X130622860Y-54880834D01*
X130640000Y-55055645D01*
X130640000Y-55064355D01*
X130639912Y-55076921D01*
X130620333Y-55251476D01*
X130567222Y-55418903D01*
X130482602Y-55572825D01*
X130369697Y-55707380D01*
X130232807Y-55817443D01*
X130077146Y-55898820D01*
X129908643Y-55948414D01*
X129908609Y-55948417D01*
X129908596Y-55948421D01*
X129733720Y-55964336D01*
X129559078Y-55945979D01*
X129559073Y-55945978D01*
X129559030Y-55945973D01*
X129391236Y-55894032D01*
X129236726Y-55810489D01*
X129101386Y-55698526D01*
X128990371Y-55562407D01*
X128907909Y-55407318D01*
X128857140Y-55239166D01*
X128840000Y-55064355D01*
X128840000Y-55055645D01*
X128840088Y-55043079D01*
X128859667Y-54868524D01*
X128912778Y-54701097D01*
X128997398Y-54547175D01*
X129110303Y-54412620D01*
X129247193Y-54302557D01*
X129402854Y-54221180D01*
X129571357Y-54171586D01*
X129571391Y-54171583D01*
X129571404Y-54171579D01*
X129746280Y-54155664D01*
X129920922Y-54174021D01*
X129920922Y-54174021D01*
G37*
G36*
X92760922Y-54174021D02*
X92760927Y-54174022D01*
X92760970Y-54174027D01*
X92928764Y-54225968D01*
X93083274Y-54309511D01*
X93218614Y-54421474D01*
X93329629Y-54557593D01*
X93412091Y-54712682D01*
X93462860Y-54880834D01*
X93480000Y-55055645D01*
X93480000Y-55064355D01*
X93479912Y-55076921D01*
X93460333Y-55251476D01*
X93407222Y-55418903D01*
X93322602Y-55572825D01*
X93209697Y-55707380D01*
X93072807Y-55817443D01*
X92917146Y-55898820D01*
X92748643Y-55948414D01*
X92748609Y-55948417D01*
X92748596Y-55948421D01*
X92573720Y-55964336D01*
X92399078Y-55945979D01*
X92399073Y-55945978D01*
X92399030Y-55945973D01*
X92231236Y-55894032D01*
X92076726Y-55810489D01*
X91941386Y-55698526D01*
X91830371Y-55562407D01*
X91747909Y-55407318D01*
X91697140Y-55239166D01*
X91680000Y-55064355D01*
X91680000Y-55055645D01*
X91680088Y-55043079D01*
X91699667Y-54868524D01*
X91752778Y-54701097D01*
X91837398Y-54547175D01*
X91950303Y-54412620D01*
X92087193Y-54302557D01*
X92242854Y-54221180D01*
X92411357Y-54171586D01*
X92411391Y-54171583D01*
X92411404Y-54171579D01*
X92586280Y-54155664D01*
X92760922Y-54174021D01*
X92760922Y-54174021D01*
G37*
G36*
X85860000Y-55960000D02*
X84060000Y-55960000D01*
X84060000Y-54160000D01*
X85860000Y-54160000D01*
X85860000Y-55960000D01*
X85860000Y-55960000D01*
G37*
G36*
X112860000Y-55960000D02*
X111060000Y-55960000D01*
X111060000Y-54160000D01*
X112860000Y-54160000D01*
X112860000Y-55960000D01*
X112860000Y-55960000D01*
G37*
G36*
X97513306Y-48171097D02*
X97830281Y-48236163D01*
X98128577Y-48361554D01*
X98396839Y-48542499D01*
X98624848Y-48772106D01*
X98803916Y-49041623D01*
X98927222Y-49340787D01*
X98990005Y-49657865D01*
X98990005Y-49657875D01*
X98990071Y-49658209D01*
X98984910Y-50027800D01*
X98984834Y-50028134D01*
X98984834Y-50028146D01*
X98913225Y-50343340D01*
X98781611Y-50638948D01*
X98595089Y-50903361D01*
X98360755Y-51126513D01*
X98087550Y-51299894D01*
X97785865Y-51416911D01*
X97467201Y-51473099D01*
X97143690Y-51466323D01*
X96827650Y-51396837D01*
X96531135Y-51267293D01*
X96265427Y-51082621D01*
X96040645Y-50849853D01*
X95865361Y-50577865D01*
X95746242Y-50277005D01*
X95687828Y-49958734D01*
X95692347Y-49635185D01*
X95759622Y-49318677D01*
X95887096Y-49021259D01*
X96069909Y-48754267D01*
X96301101Y-48527867D01*
X96571862Y-48350686D01*
X96871882Y-48229470D01*
X97189729Y-48168837D01*
X97513306Y-48171097D01*
X97513306Y-48171097D01*
G37*
M02*
