0
SECTION
2
HEADER
9
$INSUNITS
70
4
9
$ACADVER
1
AC1014
9
$HANDSEED
5
FFFF
0
ENDSEC
0
SECTION
2
TABLES
0
TABLE
2
VPORT
5
8
100
AcDbSymbolTable
0
ENDTAB
0
TABLE
2
LTYPE
5
5
100
AcDbSymbolTable
0
LTYPE
5
14
100
AcDbSymbolTableRecord
100
AcDbLinetypeTableRecord
2
BYBLOCK
70
0
0
LTYPE
5
15
100
AcDbSymbolTableRecord
100
AcDbLinetypeTableRecord
2
BYLAYER
70
0
0
ENDTAB
0
TABLE
2
LAYER
5
2
100
AcDbSymbolTable
70
2
0
LAYER
5
50
100
AcDbSymbolTableRecord
100
AcDbLayerTableRecord
2
0
70
0
6
CONTINUOUS
0
ENDTAB
0
TABLE
2
STYLE
5
3
100
AcDbSymbolTable
70
1
0
STYLE
5
11
100
AcDbSymbolTableRecord
100
AcDbTextStyleTableRecord
2
STANDARD
70
0
0
ENDTAB
0
TABLE
2
VIEW
5
6
100
AcDbSymbolTable
70
0
0
ENDTAB
0
TABLE
2
UCS
5
7
100
AcDbSymbolTable
70
0
0
ENDTAB
0
TABLE
2
APPID
5
9
100
AcDbSymbolTable
70
2
0
APPID
5
12
100
AcDbSymbolTableRecord
100
AcDbRegAppTableRecord
2
ACAD
70
0
0
ENDTAB
0
TABLE
2
DIMSTYLE
5
A
100
AcDbSymbolTable
70
1
0
ENDTAB
0
TABLE
2
BLOCK_RECORD
5
1
100
AcDbSymbolTable
70
1
0
BLOCK_RECORD
5
1F
100
AcDbSymbolTableRecord
100
AcDbBlockTableRecord
2
*MODEL_SPACE
0
BLOCK_RECORD
5
1B
100
AcDbSymbolTableRecord
100
AcDbBlockTableRecord
2
*PAPER_SPACE
0
ENDTAB
0
ENDSEC
0
SECTION
2
BLOCKS
0
BLOCK
5
20
100
AcDbEntity
100
AcDbBlockBegin
2
*MODEL_SPACE
0
ENDBLK
5
21
100
AcDbEntity
100
AcDbBlockEnd
0
BLOCK
5
1C
100
AcDbEntity
100
AcDbBlockBegin
2
*PAPER_SPACE
0
ENDBLK
5
1D
100
AcDbEntity
100
AcDbBlockEnd
0
ENDSEC
0
SECTION
2
ENTITIES
0
LINE
5
100
100
AcDbEntity
8
0
100
AcDbLine
10
49.600000000000016
20
35.200000000000003
30
0
11
-49.600000000000016
21
35.200000000000003
31
0
0
LINE
5
101
100
AcDbEntity
8
0
100
AcDbLine
10
-49.600000000000016
20
35.200000000000003
30
0
11
-49.600000000000016
21
-35.200000000000003
31
0
0
LINE
5
102
100
AcDbEntity
8
0
100
AcDbLine
10
-49.600000000000016
20
-35.200000000000003
30
0
11
49.600000000000016
21
-35.200000000000003
31
0
0
LINE
5
103
100
AcDbEntity
8
0
100
AcDbLine
10
49.600000000000016
20
-35.200000000000003
30
0
11
49.600000000000016
21
35.200000000000003
31
0
0
LINE
5
104
100
AcDbEntity
8
0
100
AcDbLine
10
49.600000000000016
20
35.200000000000003
30
0
11
-49.600000000000016
21
-35.200000000000003
31
0
0
LINE
5
105
100
AcDbEntity
8
0
100
AcDbLine
10
-49.600000000000016
20
35.200000000000003
30
0
11
49.600000000000016
21
-35.200000000000003
31
0
0
LINE
5
106
100
AcDbEntity
8
0
100
AcDbLine
10
46.000000000000007
20
22.500000000000004
30
0
11
-46.000000000000007
21
22.500000000000004
31
0
0
LINE
5
107
100
AcDbEntity
8
0
100
AcDbLine
10
-46.000000000000007
20
22.500000000000004
30
0
11
-46.000000000000007
21
-22.499999999999996
31
0
0
LINE
5
108
100
AcDbEntity
8
0
100
AcDbLine
10
-46.000000000000007
20
-22.499999999999996
30
0
11
46.000000000000007
21
-22.499999999999996
31
0
0
LINE
5
109
100
AcDbEntity
8
0
100
AcDbLine
10
46.000000000000007
20
-22.499999999999996
30
0
11
46.000000000000007
21
22.500000000000004
31
0
0
LINE
5
110
100
AcDbEntity
8
0
100
AcDbLine
10
46.000000000000007
20
22.500000000000004
30
0
11
-46.000000000000007
21
-22.499999999999996
31
0
0
LINE
5
111
100
AcDbEntity
8
0
100
AcDbLine
10
-46.000000000000007
20
22.500000000000004
30
0
11
46.000000000000007
21
-22.499999999999996
31
0
0
LWPOLYLINE
5
112
100
AcDbEntity
8
0
100
AcDbPolyline
90
4
70
1
43
0.0
10
-3.3400000000000007
20
-2.54
10
-23.66
20
-2.54
10
-23.66
20
2.54
10
-3.3400000000000007
20
2.54
0
LINE
5
113
100
AcDbEntity
8
0
100
AcDbLine
10
0
20
-10.316746427132244
30
0
11
0
21
10.316746427132244
31
0
0
LWPOLYLINE
5
114
100
AcDbEntity
8
0
100
AcDbPolyline
90
4
70
1
43
0.0
10
3.3400000000000007
20
2.5400000000000005
10
3.3400000000000007
20
-2.5399999999999996
10
23.66
20
-2.5399999999999974
10
23.66
20
2.5400000000000027
0
CIRCLE
5
115
100
AcDbEntity
8
0
100
AcDbCircle
10
-46.000000000000007
20
-22.499999999999996
30
0
40
1.4999999999999989
0
CIRCLE
5
116
100
AcDbEntity
8
0
100
AcDbCircle
10
-46.000000000000007
20
22.500000000000004
30
0
40
1.4999999999999989
0
CIRCLE
5
117
100
AcDbEntity
8
0
100
AcDbCircle
10
46.000000000000007
20
22.500000000000004
30
0
40
1.4999999999999989
0
CIRCLE
5
118
100
AcDbEntity
8
0
100
AcDbCircle
10
46.000000000000007
20
-22.499999999999996
30
0
40
1.4999999999999989
0
CIRCLE
5
119
100
AcDbEntity
8
0
100
AcDbCircle
10
-9.9999999999999982
20
-6.5000000000000018
30
0
40
1.45
0
CIRCLE
5
120
100
AcDbEntity
8
0
100
AcDbCircle
10
10
20
6.4999999999999982
30
0
40
1.45
0
LWPOLYLINE
5
121
100
AcDbEntity
8
0
100
AcDbPolyline
90
4
70
1
43
0.0
10
-246
20
-35.200000000000003
10
-278
20
-35.200000000000003
10
-278
20
35.200000000000003
10
-246
20
35.200000000000003
0
CIRCLE
5
122
100
AcDbEntity
8
0
100
AcDbCircle
10
-275
20
0
30
0
40
1.4999999999999989
0
CIRCLE
5
123
100
AcDbEntity
8
0
100
AcDbCircle
10
275
20
0
30
0
40
1.4999999999999989
0
LWPOLYLINE
5
124
100
AcDbEntity
8
0
100
AcDbPolyline
90
4
70
1
43
0.0
10
278
20
35.199999999999996
10
246
20
35.199999999999996
10
246
20
-35.200000000000003
10
278
20
-35.200000000000003
0
CIRCLE
5
125
100
AcDbEntity
8
0
100
AcDbCircle
10
46.000000000000007
20
52.5
30
0
40
1.4999999999999989
0
CIRCLE
5
126
100
AcDbEntity
8
0
100
AcDbCircle
10
-46.000000000000007
20
52.5
30
0
40
1.4999999999999989
0
LWPOLYLINE
5
127
100
AcDbEntity
8
0
100
AcDbPolyline
90
4
70
1
43
0.0
10
49.600000000000016
20
39.799999999999997
10
-49.600000000000016
20
39.800000000000004
10
-49.600000000000016
20
110.19999999999999
10
49.600000000000016
20
110.19999999999999
0
LWPOLYLINE
5
128
100
AcDbEntity
8
0
100
AcDbPolyline
90
4
70
1
43
0.0
10
246
20
39.799999999999997
10
278
20
39.799999999999997
10
278
20
110.19999999999999
10
246
20
110.19999999999999
0
LWPOLYLINE
5
129
100
AcDbEntity
8
0
100
AcDbPolyline
90
4
70
1
43
0.0
10
-246
20
39.799999999999997
10
-278
20
39.800000000000004
10
-278
20
110.19999999999999
10
-246
20
110.19999999999999
0
CIRCLE
5
130
100
AcDbEntity
8
0
100
AcDbCircle
10
275
20
75
30
0
40
1.4999999999999989
0
LWPOLYLINE
5
131
100
AcDbEntity
8
0
100
AcDbPolyline
90
4
70
1
43
0.0
10
3.3400000000000007
20
77.540000000000006
10
3.3400000000000007
20
72.460000000000008
10
23.66
20
72.460000000000008
10
23.66
20
77.540000000000006
0
CIRCLE
5
132
100
AcDbEntity
8
0
100
AcDbCircle
10
46.000000000000007
20
97.5
30
0
40
1.4999999999999989
0
CIRCLE
5
133
100
AcDbEntity
8
0
100
AcDbCircle
10
10
20
81.5
30
0
40
1.45
0
LWPOLYLINE
5
134
100
AcDbEntity
8
0
100
AcDbPolyline
90
4
70
1
43
0.0
10
-3.3400000000000007
20
77.539999999999992
10
-3.3400000000000007
20
72.460000000000008
10
-23.66
20
72.460000000000008
10
-23.66
20
77.539999999999992
0
CIRCLE
5
135
100
AcDbEntity
8
0
100
AcDbCircle
10
-275
20
75
30
0
40
1.4999999999999989
0
CIRCLE
5
136
100
AcDbEntity
8
0
100
AcDbCircle
10
-9.9999999999999982
20
68.5
30
0
40
1.45
0
CIRCLE
5
137
100
AcDbEntity
8
0
100
AcDbCircle
10
-46.000000000000007
20
97.5
30
0
40
1.4999999999999989
0
CIRCLE
5
138
100
AcDbEntity
8
0
100
AcDbCircle
10
46.000000000000007
20
127.5
30
0
40
1.4999999999999989
0
CIRCLE
5
139
100
AcDbEntity
8
0
100
AcDbCircle
10
-46.000000000000007
20
127.5
30
0
40
1.4999999999999989
0
LWPOLYLINE
5
140
100
AcDbEntity
8
0
100
AcDbPolyline
90
4
70
1
43
0.0
10
49.600000000000016
20
114.80000000000001
10
-49.600000000000016
20
114.80000000000001
10
-49.600000000000016
20
185.19999999999999
10
49.600000000000016
20
185.19999999999999
0
LWPOLYLINE
5
141
100
AcDbEntity
8
0
100
AcDbPolyline
90
4
70
1
43
0.0
10
246
20
114.80000000000001
10
278
20
114.80000000000001
10
278
20
185.19999999999999
10
246
20
185.19999999999999
0
LWPOLYLINE
5
142
100
AcDbEntity
8
0
100
AcDbPolyline
90
4
70
1
43
0.0
10
-246
20
114.80000000000001
10
-278
20
114.80000000000001
10
-278
20
185.19999999999999
10
-246
20
185.19999999999999
0
CIRCLE
5
143
100
AcDbEntity
8
0
100
AcDbCircle
10
275
20
150
30
0
40
1.4999999999999989
0
LWPOLYLINE
5
144
100
AcDbEntity
8
0
100
AcDbPolyline
90
4
70
1
43
0.0
10
3.3400000000000007
20
152.53999999999999
10
3.3400000000000007
20
147.46000000000001
10
23.66
20
147.46000000000001
10
23.66
20
152.53999999999999
0
CIRCLE
5
145
100
AcDbEntity
8
0
100
AcDbCircle
10
46.000000000000007
20
172.5
30
0
40
1.4999999999999989
0
CIRCLE
5
146
100
AcDbEntity
8
0
100
AcDbCircle
10
10
20
156.5
30
0
40
1.45
0
LWPOLYLINE
5
147
100
AcDbEntity
8
0
100
AcDbPolyline
90
4
70
1
43
0.0
10
-3.3400000000000007
20
152.53999999999999
10
-3.3400000000000007
20
147.46000000000001
10
-23.66
20
147.46000000000001
10
-23.66
20
152.53999999999999
0
CIRCLE
5
148
100
AcDbEntity
8
0
100
AcDbCircle
10
-275
20
150
30
0
40
1.4999999999999989
0
CIRCLE
5
149
100
AcDbEntity
8
0
100
AcDbCircle
10
-9.9999999999999982
20
143.5
30
0
40
1.45
0
CIRCLE
5
150
100
AcDbEntity
8
0
100
AcDbCircle
10
-46.000000000000007
20
172.5
30
0
40
1.4999999999999989
0
ENDSEC
0
SECTION
2
OBJECTS
0
DICTIONARY
5
C
100
AcDbDictionary
3
ACAD_GROUP
350
D
3
ACAD_MLINESTYLE
350
17
0
DICTIONARY
5
D
100
AcDbDictionary
0
DICTIONARY
5
1A
330
C
100
AcDbDictionary
0
DICTIONARY
5
17
100
AcDbDictionary
0
ENDSEC
0
EOF
